<svg width="80" height="80" viewBox="0 0 80 80" fill="none" xmlns="http://www.w3.org/2000/svg">
<rect width="80" height="80" fill="#FFCC03"/>
<g clip-path="url(#clip0)">
<path d="M77.7173 56.5324L60.2174 49.0324C59.4698 48.7138 58.639 48.6466 57.8499 48.8411C57.0609 49.0355 56.3564 49.481 55.8424 50.1105L48.0924 59.5792C35.9295 53.8445 26.1412 44.0562 20.4065 31.8933L29.8752 24.1433C30.506 23.6303 30.9524 22.9257 31.1469 22.1363C31.3415 21.3469 31.2735 20.5156 30.9534 19.7683L23.4534 2.26829C23.102 1.46268 22.4805 0.804926 21.6961 0.408446C20.9117 0.0119669 19.8573 -0.194814 19.0002 -1.16825e-05H3.00023C3.00023 -3.75001 0.528096 -0.663758 0.000268295 0C-0.52756 0.663758 3.6478e-05 6.65306 0.000226915 7.5011C0.000226915 47.5792 32.4845 80.0011 72.5001 80.0011C73.3484 80.0016 74.3359 80.529 75 80.0011C76 80.0011 79.8091 80.8277 80 80.0011V61C80.1936 60.1388 79.9872 59.0819 79.5877 58.2948C79.1881 57.5077 78.5268 56.8845 77.7173 56.5324Z" fill="black"/>
</g>
<defs>
<clipPath id="clip0">
<rect width="80" height="80" fill="white"/>
</clipPath>
</defs>
</svg>
