<svg width="24" height="24" viewBox="0 0 24 24" fill="none" xmlns="http://www.w3.org/2000/svg">
<path d="M24 2.57143V21.4286C24 22.8482 22.8482 24 21.4286 24H2.57143C1.15179 24 0 22.8482 0 21.4286V2.57143C0 1.15179 1.15179 0 2.57143 0H21.4286C22.8482 0 24 1.15179 24 2.57143ZM17.5929 10.4518L13.7143 14.4964V4.71429C13.7143 4.00179 13.1411 3.42857 12.4286 3.42857H11.5714C10.8589 3.42857 10.2857 4.00179 10.2857 4.71429V14.4964L6.40714 10.4518C5.90893 9.93214 5.07857 9.92143 4.56964 10.4304L3.98571 11.0196C3.48214 11.5232 3.48214 12.3375 3.98571 12.8357L11.0893 19.9446C11.5929 20.4482 12.4071 20.4482 12.9054 19.9446L20.0143 12.8357C20.5179 12.3321 20.5179 11.5179 20.0143 11.0196L19.4304 10.4304C18.9214 9.92143 18.0911 9.93214 17.5929 10.4518Z" fill="#228DFF"/>
</svg>
