<svg width="48" height="48" viewBox="0 0 48 48" fill="none" xmlns="http://www.w3.org/2000/svg">
<g clip-path="url(#clip0)">
<path opacity="0.4" d="M7.5 0L5.00063 4.99969L0 7.5L5.00063 10.0003L7.5 15L9.99938 10.0003L15 7.5L9.99938 4.99969L7.5 0ZM25.5 4.5L22.5 3L21 0L19.5 3L16.5 4.5L19.5 6L21 9L22.5 6L25.5 4.5ZM42.9994 31.9997L40.5 27L38.0006 31.9997L33 34.5L38.0006 37.0003L40.5 42L42.9994 37.0003L48 34.5L42.9994 31.9997ZM37.4062 22.7878L45.525 14.6738L47.1188 13.08C47.3974 12.8014 47.6184 12.4707 47.7692 12.1066C47.9201 11.7426 47.9977 11.3525 47.9977 10.9584C47.9977 10.5644 47.9201 10.1743 47.7692 9.81023C47.6184 9.44621 47.3974 9.11546 47.1188 8.83688L45.525 7.24313L40.7569 2.475L39.1631 0.88125C38.6005 0.318779 37.8376 0.00279691 37.042 0.00279691C36.2465 0.00279691 35.4835 0.318779 34.9209 0.88125L33.3272 2.475L25.2188 10.5881L21.5044 14.3006L25.2178 18.0141L29.9906 22.7869L33.7022 26.4975L37.4062 22.7878ZM28.9219 14.3016L37.0444 6.1875L41.8172 10.9603L33.6984 19.0744L28.9219 14.3016Z" fill="#228DFF"/>
<path d="M33.6975 26.4981L13.0725 47.1231C12.5099 47.6855 11.7469 48.0015 10.9514 48.0015C10.1559 48.0015 9.3929 47.6855 8.83031 47.1231L0.879369 39.1665C0.316898 38.6039 0.000915527 37.8409 0.000915527 37.0454C0.000915527 36.2499 0.316898 35.4869 0.879369 34.9243L21.5044 14.2993L33.6975 26.4981Z" fill="#228DFF"/>
</g>
<defs>
<clipPath id="clip0">
<rect width="48" height="48" fill="white"/>
</clipPath>
</defs>
</svg>
