<svg width="48" height="48" viewBox="0 0 48 48" fill="none" xmlns="http://www.w3.org/2000/svg">
<g clip-path="url(#clip0)">
<path opacity="0.4" d="M40.5 11.25C40.945 11.25 41.38 11.118 41.75 10.8708C42.12 10.6236 42.4084 10.2722 42.5787 9.86104C42.749 9.44991 42.7936 8.99751 42.7068 8.56105C42.62 8.12459 42.4057 7.72368 42.091 7.40901C41.7763 7.09434 41.3754 6.88005 40.939 6.79323C40.5025 6.70642 40.0501 6.75097 39.639 6.92127C39.2278 7.09157 38.8764 7.37996 38.6292 7.74997C38.382 8.11998 38.25 8.55499 38.25 9C38.25 9.59674 38.4871 10.169 38.909 10.591C39.331 11.0129 39.9033 11.25 40.5 11.25ZM40.5 36.75C40.055 36.75 39.62 36.882 39.25 37.1292C38.88 37.3764 38.5916 37.7278 38.4213 38.139C38.251 38.5501 38.2064 39.0025 38.2932 39.439C38.38 39.8754 38.5943 40.2763 38.909 40.591C39.2237 40.9057 39.6246 41.12 40.061 41.2068C40.4975 41.2936 40.9499 41.249 41.361 41.0787C41.7722 40.9084 42.1236 40.62 42.3708 40.25C42.618 39.88 42.75 39.445 42.75 39C42.75 38.4033 42.5129 37.831 42.091 37.409C41.669 36.9871 41.0967 36.75 40.5 36.75ZM45 18H3C2.20435 18 1.44129 18.3161 0.87868 18.8787C0.316071 19.4413 0 20.2044 0 21L0 27C0 27.7957 0.316071 28.5587 0.87868 29.1213C1.44129 29.6839 2.20435 30 3 30H45C45.7956 30 46.5587 29.6839 47.1213 29.1213C47.6839 28.5587 48 27.7957 48 27V21C48 20.2044 47.6839 19.4413 47.1213 18.8787C46.5587 18.3161 45.7956 18 45 18ZM34.5 26.25C34.055 26.25 33.62 26.118 33.25 25.8708C32.88 25.6236 32.5916 25.2722 32.4213 24.861C32.251 24.4499 32.2064 23.9975 32.2932 23.561C32.38 23.1246 32.5943 22.7237 32.909 22.409C33.2237 22.0943 33.6246 21.8801 34.061 21.7932C34.4975 21.7064 34.9499 21.751 35.361 21.9213C35.7722 22.0916 36.1236 22.38 36.3708 22.75C36.618 23.12 36.75 23.555 36.75 24C36.75 24.5967 36.5129 25.169 36.091 25.591C35.669 26.0129 35.0967 26.25 34.5 26.25ZM40.5 26.25C40.055 26.25 39.62 26.118 39.25 25.8708C38.88 25.6236 38.5916 25.2722 38.4213 24.861C38.251 24.4499 38.2064 23.9975 38.2932 23.561C38.38 23.1246 38.5943 22.7237 38.909 22.409C39.2237 22.0943 39.6246 21.8801 40.061 21.7932C40.4975 21.7064 40.9499 21.751 41.361 21.9213C41.7722 22.0916 42.1236 22.38 42.3708 22.75C42.618 23.12 42.75 23.555 42.75 24C42.75 24.5967 42.5129 25.169 42.091 25.591C41.669 26.0129 41.0967 26.25 40.5 26.25Z" fill="#228DFF"/>
<path d="M42.75 24C42.75 23.555 42.618 23.12 42.3708 22.75C42.1236 22.38 41.7722 22.0916 41.361 21.9213C40.9499 21.751 40.4975 21.7064 40.061 21.7932C39.6246 21.88 39.2237 22.0943 38.909 22.409C38.5943 22.7237 38.38 23.1246 38.2932 23.561C38.2064 23.9975 38.251 24.4499 38.4213 24.861C38.5916 25.2722 38.88 25.6236 39.25 25.8708C39.62 26.118 40.055 26.25 40.5 26.25C41.0967 26.25 41.669 26.0129 42.091 25.591C42.5129 25.169 42.75 24.5967 42.75 24ZM45 3H3C2.20435 3 1.44129 3.31607 0.87868 3.87868C0.316071 4.44129 0 5.20435 0 6L0 12C0 12.7956 0.316071 13.5587 0.87868 14.1213C1.44129 14.6839 2.20435 15 3 15H45C45.7956 15 46.5587 14.6839 47.1213 14.1213C47.6839 13.5587 48 12.7956 48 12V6C48 5.20435 47.6839 4.44129 47.1213 3.87868C46.5587 3.31607 45.7956 3 45 3ZM34.5 11.25C34.055 11.25 33.62 11.118 33.25 10.8708C32.88 10.6236 32.5916 10.2722 32.4213 9.86104C32.251 9.4499 32.2064 8.9975 32.2932 8.56105C32.38 8.12459 32.5943 7.72368 32.909 7.40901C33.2237 7.09434 33.6246 6.88005 34.061 6.79323C34.4975 6.70642 34.9499 6.75097 35.361 6.92127C35.7722 7.09157 36.1236 7.37996 36.3708 7.74997C36.618 8.11998 36.75 8.55499 36.75 9C36.75 9.59674 36.5129 10.169 36.091 10.591C35.669 11.0129 35.0967 11.25 34.5 11.25ZM40.5 11.25C40.055 11.25 39.62 11.118 39.25 10.8708C38.88 10.6236 38.5916 10.2722 38.4213 9.86104C38.251 9.4499 38.2064 8.9975 38.2932 8.56105C38.38 8.12459 38.5943 7.72368 38.909 7.40901C39.2237 7.09434 39.6246 6.88005 40.061 6.79323C40.4975 6.70642 40.9499 6.75097 41.361 6.92127C41.7722 7.09157 42.1236 7.37996 42.3708 7.74997C42.618 8.11998 42.75 8.55499 42.75 9C42.75 9.59674 42.5129 10.169 42.091 10.591C41.669 11.0129 41.0967 11.25 40.5 11.25ZM45 33H3C2.20435 33 1.44129 33.3161 0.87868 33.8787C0.316071 34.4413 0 35.2044 0 36L0 42C0 42.7956 0.316071 43.5587 0.87868 44.1213C1.44129 44.6839 2.20435 45 3 45H45C45.7956 45 46.5587 44.6839 47.1213 44.1213C47.6839 43.5587 48 42.7956 48 42V36C48 35.2044 47.6839 34.4413 47.1213 33.8787C46.5587 33.3161 45.7956 33 45 33ZM34.5 41.25C34.055 41.25 33.62 41.118 33.25 40.8708C32.88 40.6236 32.5916 40.2722 32.4213 39.861C32.251 39.4499 32.2064 38.9975 32.2932 38.561C32.38 38.1246 32.5943 37.7237 32.909 37.409C33.2237 37.0943 33.6246 36.88 34.061 36.7932C34.4975 36.7064 34.9499 36.751 35.361 36.9213C35.7722 37.0916 36.1236 37.38 36.3708 37.75C36.618 38.12 36.75 38.555 36.75 39C36.75 39.5967 36.5129 40.169 36.091 40.591C35.669 41.0129 35.0967 41.25 34.5 41.25ZM40.5 41.25C40.055 41.25 39.62 41.118 39.25 40.8708C38.88 40.6236 38.5916 40.2722 38.4213 39.861C38.251 39.4499 38.2064 38.9975 38.2932 38.561C38.38 38.1246 38.5943 37.7237 38.909 37.409C39.2237 37.0943 39.6246 36.88 40.061 36.7932C40.4975 36.7064 40.9499 36.751 41.361 36.9213C41.7722 37.0916 42.1236 37.38 42.3708 37.75C42.618 38.12 42.75 38.555 42.75 39C42.75 39.5967 42.5129 40.169 42.091 40.591C41.669 41.0129 41.0967 41.25 40.5 41.25Z" fill="#228DFF"/>
</g>
<defs>
<clipPath id="clip0">
<rect width="48" height="48" fill="white"/>
</clipPath>
</defs>
</svg>
