<svg width="24" height="24" viewBox="0 0 24 24" fill="none" xmlns="http://www.w3.org/2000/svg">
<circle cx="12" cy="12" r="12" fill="#228DFF"/>
<path d="M11.8018 14.7988H15.623V17H8.34277V15.127L12.3213 11.0938C12.777 10.638 13.0049 10.1663 13.0049 9.67871C13.0049 9.39616 12.916 9.17285 12.7383 9.00879C12.5651 8.84017 12.2962 8.75586 11.9316 8.75586C11.5671 8.75586 11.2868 8.85384 11.0908 9.0498C10.8949 9.24577 10.7969 9.57617 10.7969 10.041V10.7861L8.31543 10.5332V10.0957C8.31543 9.05664 8.63444 8.24772 9.27246 7.66895C9.91504 7.08561 10.7923 6.79395 11.9043 6.79395C12.9661 6.79395 13.8252 7.05371 14.4814 7.57324C15.1423 8.09277 15.4727 8.80827 15.4727 9.71973C15.4727 10.2028 15.3701 10.6471 15.165 11.0527C14.96 11.4538 14.641 11.8776 14.208 12.3242L11.8018 14.7988Z" fill="white"/>
</svg>
