<svg width="24" height="24" viewBox="0 0 24 24" fill="none" xmlns="http://www.w3.org/2000/svg">
<circle cx="12" cy="12" r="12" fill="#228DFF"/>
<path d="M12.0137 17.1367C10.6829 17.1367 9.72135 16.8291 9.12891 16.2139C8.54102 15.5941 8.24707 14.6279 8.24707 13.3154L10.8105 13.2061C10.8105 13.3929 10.8105 13.5342 10.8105 13.6299C10.8151 13.7256 10.8219 13.8441 10.8311 13.9854C10.8402 14.1266 10.8538 14.2314 10.8721 14.2998C10.8949 14.3682 10.9245 14.4502 10.9609 14.5459C11.002 14.637 11.0521 14.7054 11.1113 14.751C11.1706 14.792 11.2412 14.8353 11.3232 14.8809C11.4053 14.9264 11.5033 14.9583 11.6172 14.9766C11.7357 14.9902 11.8678 14.9971 12.0137 14.9971C12.4466 14.9971 12.7611 14.8923 12.957 14.6826C13.1576 14.4684 13.2578 14.1904 13.2578 13.8486C13.2578 13.083 12.8887 12.7002 12.1504 12.7002H11.8291V10.8135H12.1094C12.3874 10.8135 12.6084 10.7201 12.7725 10.5332C12.9365 10.3464 13.0186 10.098 13.0186 9.78809C13.0186 9.20931 12.6654 8.91992 11.959 8.91992C11.7812 8.91992 11.6263 8.94954 11.4941 9.00879C11.3665 9.06803 11.2686 9.14095 11.2002 9.22754C11.1318 9.30957 11.0794 9.41895 11.043 9.55566C11.0065 9.69238 10.9837 9.81315 10.9746 9.91797C10.9655 10.0228 10.9609 10.1481 10.9609 10.2939L8.44531 10.1572C8.44531 9.07259 8.75521 8.24316 9.375 7.66895C9.99479 7.09473 10.847 6.80762 11.9316 6.80762C12.9251 6.80762 13.7386 7.07194 14.3721 7.60059C15.0101 8.12923 15.3291 8.78548 15.3291 9.56934C15.3291 10.0661 15.2038 10.4922 14.9531 10.8477C14.7025 11.2031 14.4359 11.4469 14.1533 11.5791C14.3493 11.6338 14.5361 11.7158 14.7139 11.8252C14.8962 11.9346 15.0716 12.0827 15.2402 12.2695C15.4089 12.4518 15.5433 12.6888 15.6436 12.9805C15.7438 13.2721 15.7939 13.6003 15.7939 13.9648C15.7939 14.9355 15.4567 15.708 14.7822 16.2822C14.1077 16.8519 13.1849 17.1367 12.0137 17.1367Z" fill="white"/>
</svg>
