<svg width="32" height="18" viewBox="0 0 32 18" fill="none" xmlns="http://www.w3.org/2000/svg">
<path d="M31.7216 9.5822C31.8616 9.4479 31.9352 9.3146 31.9526 9.18156C32.03 8.90744 31.9593 8.61535 31.7216 8.38729L23.6227 0.617212C23.2515 0.261059 22.6496 0.261059 22.2784 0.617212C21.9072 0.973365 21.9072 1.5508 22.2784 1.90696L28.6557 8.02534H1C0.447715 8.02534 0 8.45488 0 8.98474C0 9.51461 0.447716 9.94415 1 9.94415H28.6557L22.2784 16.0625C21.9072 16.4187 21.9072 16.9961 22.2784 17.3523C22.6496 17.7084 23.2515 17.7084 23.6227 17.3523L31.7216 9.5822Z" fill="#AFC4D7"/>
</svg>
