<svg width="94" height="94" viewBox="0 0 94 94" fill="none" xmlns="http://www.w3.org/2000/svg">
<path d="M65.986 45.4626C66.9015 55.9267 59.1609 65.1516 48.6968 66.067C38.2328 66.9825 29.0079 59.2419 28.0924 48.7779C27.177 38.3139 34.9176 29.089 45.3816 28.1735C55.8456 27.258 65.0705 34.9986 65.986 45.4626Z" fill="black"/>
<path d="M48.2694 6.62615C48.3829 7.92307 47.1026 9.14258 45.2329 9.68734L48.1888 43.4741L69.9895 17.4931C68.7703 15.9744 68.4211 14.2411 69.258 13.2438C70.2967 12.0059 72.7695 12.3707 74.7811 14.0587C76.7928 15.7467 77.5814 18.1185 76.5427 19.3565C75.7058 20.3538 73.9383 20.3108 72.231 19.3739L50.4302 45.355L84.2171 42.399C84.4289 40.463 85.4076 38.9905 86.7045 38.8771C88.3143 38.7362 89.8049 40.7427 90.0338 43.3587C90.2627 45.9747 89.1432 48.2096 87.5333 48.3504C86.2365 48.4639 85.0169 47.1837 84.4721 45.3139L50.6854 48.2699L76.6665 70.0706C78.1852 68.8514 79.9184 68.5022 80.9157 69.339C82.1536 70.3778 81.7888 72.8506 80.1008 74.8622C78.4129 76.8738 76.041 77.6626 74.803 76.6238C73.8057 75.787 73.8487 74.0194 74.7856 72.3121L48.8045 50.5113L51.7605 84.2982C53.6964 84.51 55.169 85.4886 55.2824 86.7856C55.4233 88.3954 53.4168 89.886 50.8008 90.1149C48.1848 90.3437 45.9499 89.2243 45.809 87.6144C45.6956 86.3175 46.9758 85.098 48.8456 84.5532L45.8896 50.7664L24.0889 76.7475C25.3081 78.2662 25.6573 79.9994 24.8204 80.9967C23.7817 82.2347 21.3089 81.8698 19.2972 80.1819C17.2856 78.4939 16.4969 76.122 17.5356 74.8841C18.3725 73.8868 20.14 73.9297 21.8474 74.8666L43.6481 48.8856L9.86136 51.8415C9.64951 53.7775 8.6708 55.25 7.37392 55.3635C5.76409 55.5043 4.27349 53.4978 4.04462 50.8818C3.81575 48.2658 4.93528 46.0309 6.5451 45.8901C7.84198 45.7766 9.06153 47.0568 9.60634 48.9266L43.3932 45.9707L17.4121 24.17C15.8934 25.3891 14.1601 25.7383 13.1628 24.9015C11.9249 23.8627 12.2897 21.3899 13.9777 19.3783C15.6657 17.3667 18.0376 16.578 19.2754 17.6167C20.2728 18.4536 20.2299 20.2211 19.2929 21.9285L45.2739 43.7291L42.318 9.94236C40.382 9.73055 38.9095 8.75189 38.796 7.45496C38.6552 5.84512 40.6617 4.35454 43.2777 4.12567C45.8937 3.8968 48.1285 5.0163 48.2694 6.62615Z" fill="black"/>
<path d="M60.2394 17.3912C59.9291 18.3905 58.6166 18.9024 57.0751 18.7306L48.9921 44.7639L72.9236 32.1712C72.4875 30.6659 72.7568 29.2694 73.6754 28.7861C74.8156 28.186 76.5246 29.2201 77.4925 31.0957C78.4603 32.9713 78.3206 34.9781 77.1803 35.5781C76.2617 36.0615 74.974 35.4844 74.002 34.2611L50.0706 46.8538L75.8318 55.0783C76.5755 53.7042 77.7428 52.9112 78.7316 53.2269C79.9591 53.6188 80.4468 55.5705 79.8209 57.5862C79.1951 59.6019 77.6927 60.9182 76.4652 60.5264C75.4764 60.2107 74.9677 58.8826 75.1345 57.3243L49.3734 49.0998L61.8737 73.3237C63.3615 72.8858 64.743 73.1608 65.2228 74.0906C65.8184 75.2448 64.7991 76.9709 62.9462 77.9459C61.0933 78.9209 59.1083 78.7757 58.5127 77.6214C58.0329 76.6916 58.6012 75.3906 59.8091 74.4101L47.3087 50.186L39.2256 76.2195C40.586 76.9742 41.3725 78.1561 41.0622 79.1554C40.6771 80.3958 38.7479 80.8851 36.7533 80.2483C34.7587 79.6115 33.454 78.0897 33.8391 76.8493C34.1494 75.85 35.4617 75.3382 37.0031 75.5099L45.0861 49.4766L21.1547 62.0693C21.5908 63.5746 21.3215 64.9711 20.4029 65.4544C19.2626 66.0544 17.5536 65.0204 16.5858 63.1448C15.6179 61.2692 15.7577 59.2623 16.898 58.6623C17.8166 58.179 19.1043 58.7561 20.0763 59.9794L44.0077 47.3867L18.2466 39.1622C17.503 40.5363 16.3357 41.3293 15.3468 41.0136C14.1194 40.6217 13.6317 38.67 14.2575 36.6543C14.8834 34.6386 16.3857 33.3223 17.6132 33.7142C18.602 34.0299 19.1108 35.3579 18.944 36.9162L44.7052 45.1408L32.2048 20.9168C30.717 21.3548 29.3355 21.0798 28.8556 20.1499C28.26 18.9957 29.2793 17.2696 31.1322 16.2946C32.9852 15.3196 34.9701 15.4649 35.5657 16.6191C36.0455 17.5489 35.4773 18.8499 34.2694 19.8303L46.7697 44.0542L54.8527 18.0209C53.4924 17.2662 52.706 16.0844 53.0163 15.0851C53.4014 13.8447 55.3305 13.3554 57.3252 13.9922C59.3198 14.629 60.6245 16.1508 60.2394 17.3912Z" fill="black"/>
<path d="M47.9646 56.8559C46.0385 57.0244 44.2863 56.77 42.7078 56.0925C41.1293 55.4151 39.8475 54.3653 38.8625 52.9431C37.8767 51.5123 37.2985 49.8222 37.1279 47.8728C36.9566 45.9147 37.2325 44.1498 37.9556 42.5782C38.678 40.9979 39.7576 39.7372 41.1945 38.7959C42.6314 37.8546 44.3129 37.2998 46.2389 37.1313C48.5309 36.9307 50.5674 37.3226 52.3484 38.3068C54.1286 39.2823 55.4265 40.7165 56.2419 42.6095L51.7309 44.6484C51.3155 43.6149 50.6498 42.8313 49.7337 42.2976C48.8264 41.7631 47.7931 41.5466 46.634 41.648C45.1612 41.7768 43.9968 42.3698 43.1409 43.4268C42.2849 44.4839 41.9277 45.8217 42.0694 47.4404C42.211 49.0591 42.795 50.3147 43.8215 51.207C44.8473 52.0907 46.0966 52.4681 47.5694 52.3392C48.7285 52.2378 49.7084 51.8452 50.5092 51.1612C51.3187 50.4766 51.8382 49.5893 52.0678 48.4993L56.8644 49.7239C56.39 51.7297 55.3613 53.3719 53.7783 54.6504C52.1945 55.9202 50.2566 56.6554 47.9646 56.8559Z" fill="#FFE500"/>
</svg>
