<svg width="48" height="48" viewBox="0 0 48 48" fill="none" xmlns="http://www.w3.org/2000/svg">
<path opacity="0.4" d="M48 19.5V43.5C48 44.6935 47.5259 45.8381 46.682 46.682C45.8381 47.5259 44.6935 48 43.5 48H19.5C18.3065 48 17.1619 47.5259 16.318 46.682C15.4741 45.8381 15 44.6935 15 43.5V33H21V42H42V21H33V15H43.5C44.6935 15 45.8381 15.4741 46.682 16.318C47.5259 17.1619 48 18.3065 48 19.5Z" fill="#228DFF"/>
<path d="M28.5 33H4.5C3.30653 33 2.16193 32.5259 1.31802 31.682C0.474106 30.8381 0 29.6935 0 28.5L0 4.5C0 3.30653 0.474106 2.16193 1.31802 1.31802C2.16193 0.474106 3.30653 0 4.5 0L28.5 0C29.6935 0 30.8381 0.474106 31.682 1.31802C32.5259 2.16193 33 3.30653 33 4.5V28.5C33 29.6935 32.5259 30.8381 31.682 31.682C30.8381 32.5259 29.6935 33 28.5 33Z" fill="#228DFF"/>
</svg>
