<svg width="20" height="20" viewBox="0 0 20 20" fill="none" xmlns="http://www.w3.org/2000/svg">
<path fill-rule="evenodd" clip-rule="evenodd" d="M20 19.116V11.7207C20 7.75841 17.8847 5.91463 15.0647 5.91463C12.789 5.91463 11.7693 7.16676 11.201 8.04508V6.21772H6.91356C6.97039 7.42817 6.91356 19.116 6.91356 19.116H11.201V11.9126C11.201 11.5281 11.2288 11.1429 11.3424 10.8676C11.6518 10.0972 12.3571 9.29974 13.5411 9.29974C15.0931 9.29974 15.7132 10.4824 15.7132 12.2157V19.1166H20V19.116ZM2.39692 4.45728C3.89152 4.45728 4.82288 3.46593 4.82288 2.22769C4.7951 0.962935 3.89152 0 2.42533 0C0.959146 0 0 0.962304 0 2.22769C0 3.46593 0.930732 4.45728 2.36977 4.45728H2.39692ZM4.54063 19.116V6.21772H0.253836V19.116H4.54063Z" fill="#228DFF"/>
</svg>
