<svg width="20" height="17" viewBox="0 0 20 17" fill="none" xmlns="http://www.w3.org/2000/svg">
<path d="M20 1.92396C19.2648 2.25078 18.4735 2.47123 17.6433 2.56988C18.491 2.0624 19.1409 1.25855 19.4475 0.299616C18.6546 0.770152 17.7768 1.11158 16.8418 1.2959C16.0936 0.498549 15.0271 0 13.8469 0C11.5811 0 9.74403 1.83708 9.74403 4.10328C9.74403 4.42442 9.78016 4.73743 9.8504 5.03826C6.44013 4.86694 3.41636 3.23366 1.39253 0.751071C1.03932 1.3568 0.837139 2.06159 0.837139 2.81428C0.837139 4.23766 1.56142 5.49378 2.66244 6.22942C1.99013 6.2079 1.35721 6.02318 0.803849 5.71585C0.803443 5.7329 0.803443 5.75036 0.803443 5.76782C0.803443 7.75552 2.21789 9.41356 4.09516 9.79112C3.75089 9.8845 3.38834 9.93484 3.01403 9.93484C2.74933 9.93484 2.49234 9.90926 2.24184 9.86095C2.76435 11.491 4.27948 12.6777 6.07474 12.7106C4.67044 13.8112 2.90157 14.4672 0.978828 14.4672C0.647951 14.4672 0.321133 14.4478 0 14.4096C1.81637 15.5744 3.97296 16.2532 6.28991 16.2532C13.8376 16.2532 17.9644 10.001 17.9644 4.57869C17.9644 4.40087 17.9607 4.22345 17.953 4.04726C18.7544 3.46995 19.4503 2.74689 20 1.92396Z" fill="#228DFF"/>
</svg>
