<?xml version="1.0" encoding="UTF-8"?>
<svg width="100px" height="123px" viewBox="0 0 100 123" version="1.1" xmlns="http://www.w3.org/2000/svg" xmlns:xlink="http://www.w3.org/1999/xlink">
    <!-- Generator: Sketch 51.2 (57519) - http://www.bohemiancoding.com/sketch -->
    <title>box copy 6</title>
    <desc>Created with Sketch.</desc>
    <defs>
        <filter x="-13.3%" y="-26.7%" width="126.7%" height="153.3%" filterUnits="objectBoundingBox" id="filter-1">
            <feGaussianBlur stdDeviation="4" in="SourceGraphic"></feGaussianBlur>
        </filter>
    </defs>
    <g id="Website" stroke="none" stroke-width="1" fill="none" fill-rule="evenodd">
        <g id="product-main" transform="translate(-945.000000, -489.000000)">
            <g id="Group-2" transform="translate(933.000000, 446.000000)">
                <g id="box-copy-6" transform="translate(17.000000, 43.000000)">
                    <polygon id="Rectangle-11-Copy" fill-opacity="0.1" fill="#233141" filter="url(#filter-1)" points="45 71.0142857 90 93.5142857 45 116.014286 0 93.5142857"></polygon>
                    <polygon id="Rectangle-11" fill="#F2F8FC" points="45 0.3 90 22.8 45 55.3 0 22.8"></polygon>
                    <polygon id="Rectangle-3" fill="#D9EAF7" points="0 22.8 45 45.3 45 103.157143 0 80.6571429"></polygon>
                    <polygon id="Rectangle-3-Copy-2" fill="#086BD6" transform="translate(67.500000, 62.978571) scale(-1, 1) translate(-67.500000, -62.978571) " points="45 22.8 90 45.3 90 103.157143 45 80.6571429"></polygon>
                    <polygon id="Rectangle-3-Copy-4" fill="#2687F0" transform="translate(67.500000, 62.807143) scale(-1, 1) translate(-67.500000, -62.807143) " points="54 38.7 81 52.2 81 86.9142857 54 73.4142857"></polygon>
                    <polygon id="Rectangle-3-Copy-5" fill="#7EBAFB" transform="translate(67.500000, 73.607143) scale(-1, 1) translate(-67.500000, -73.607143) " points="81 60.3 81 86.9142857 54 73.4142857"></polygon>
                </g>
            </g>
        </g>
    </g>
</svg>