<?xml version="1.0" encoding="UTF-8"?>
<svg width="1180px" height="520px" viewBox="0 0 1180 520" version="1.1" xmlns="http://www.w3.org/2000/svg" xmlns:xlink="http://www.w3.org/1999/xlink">
    <!-- Generator: Sketch 52.5 (67469) - http://www.bohemiancoding.com/sketch -->
    <title>back</title>
    <desc>Created with Sketch.</desc>
    <defs>
        <linearGradient x1="50%" y1="0%" x2="50%" y2="100%" id="linearGradient-1">
            <stop stop-color="#FFFFFF" offset="0%"></stop>
            <stop stop-color="#F6F9FC" offset="100%"></stop>
        </linearGradient>
        <linearGradient x1="50%" y1="0%" x2="50%" y2="100%" id="linearGradient-2">
            <stop stop-color="#8BCAFF" offset="0%"></stop>
            <stop stop-color="#FFFFFF" offset="100%"></stop>
        </linearGradient>
        <linearGradient x1="50%" y1="0%" x2="50%" y2="100%" id="linearGradient-3">
            <stop stop-color="#53B1FF" offset="0%"></stop>
            <stop stop-color="#FFFFFF" offset="100%"></stop>
        </linearGradient>
    </defs>
    <g id="Website" stroke="none" stroke-width="1" fill="none" fill-rule="evenodd">
        <g id="ContactForm-Done" transform="translate(-250.000000, -490.000000)">
            <g id="back" transform="translate(250.000000, 490.000000)">
                <path d="M0,0 L1180,0 C1180,61.8694178 1153.53288,124.416523 1071.09209,183.878447 C1016.78297,223.049887 930.325801,253.455811 824.14338,285.98715 C770.368291,302.462341 740.214371,336.818477 733.681621,389.055556 L446.318379,389.055556 C439.785629,336.818477 409.631709,302.462341 355.85662,285.98715 C249.674199,253.455811 163.217033,223.049887 108.907914,183.878447 C26.4671194,124.416523 2.32843259e-14,64.3068736 0,0 Z" id="Combined-Shape" fill="url(#linearGradient-1)"></path>
                <g id="Group-6" transform="translate(413.819444, 355.625000)">
                    <rect id="Rectangle-15" fill="url(#linearGradient-2)" x="24.5833333" y="0" width="303.194444" height="163.888889"></rect>
                    <path d="M220.203413,104.488738 C221.675191,104.488738 222.867664,105.760089 222.867664,107.32615 C222.867664,108.894355 221.675191,110.165707 220.203413,110.165707 C218.731635,110.165707 217.540007,108.894355 217.540007,107.32615 C217.540007,105.760089 218.731635,104.488738 220.203413,104.488738 M227.21282,104.488738 C228.683753,104.488738 229.876225,105.760089 229.876225,107.32615 C229.876225,108.894355 228.683753,110.165707 227.21282,110.165707 C225.741887,110.165707 224.549414,108.894355 224.549414,107.32615 C224.549414,105.760089 225.741887,104.488738 227.21282,104.488738 M223.960365,114.381693 C232.223686,114.381693 239.498025,102.337549 239.498025,87.0831649 C239.498025,71.8287807 234.209826,69.6527778 223.960365,69.6527778 C213.71034,69.6527778 207.91849,71.8287807 207.91849,87.0831649 C207.91849,102.337549 214.870119,114.381693 223.960365,114.381693 M242.187078,128.305294 L242.186232,128.305294 C241.071266,126.285529 239.818761,124.711504 238.534689,123.416256 C237.248645,122.119171 235.954145,121.096575 234.696285,120.077043 C234.099907,119.59056 233.48972,119.145433 232.866004,118.740439 C233.48972,118.334525 234.099907,117.88848 234.696285,117.403222 C237.570226,115.07098 240.071573,111.923236 242.186232,108.099683 C242.933113,106.749906 242.51035,105.010451 241.243753,104.214861 C239.975465,103.41927 238.3436,103.868379 237.596719,105.219076 C235.764747,108.530411 233.684191,111.093334 231.469196,112.8864 C229.097215,114.799248 226.764128,115.745869 224.365935,115.896287 C224.147508,115.887709 223.927389,115.880969 223.708962,115.881888 C223.488562,115.880969 223.269289,115.887709 223.050016,115.896287 C220.652669,115.745869 218.319582,114.799248 215.946755,112.8864 C213.732606,111.093334 211.651204,108.530411 209.820359,105.219076 C209.073478,103.868379 207.440486,103.41927 206.173043,104.214861 C204.904755,105.01137 204.483683,106.749906 205.230564,108.100602 C207.345224,111.923236 209.845725,115.07098 212.720512,117.403222 C213.316889,117.88848 213.927077,118.334525 214.549947,118.740439 C213.927077,119.145433 213.316889,119.589641 212.719666,120.077043 C211.463779,121.096575 210.168152,122.119171 208.882107,123.416256 C207.59719,124.711504 206.345531,126.285529 205.230564,128.305294 C204.483683,129.655377 204.904755,131.394832 206.173043,132.189197 C207.440486,132.986932 209.073478,132.535985 209.820359,131.187127 C210.678849,129.638834 211.557914,128.539039 212.548024,127.534824 C213.537007,126.534285 214.65902,125.635455 215.946755,124.591721 C216.575545,124.085324 217.201797,123.647857 217.827204,123.273497 C217.752234,123.419014 217.677546,123.568512 217.603422,123.720768 C215.797097,127.413203 213.934123,132.535985 213.926231,138.371949 C213.926231,139.939848 215.117858,141.210281 216.589637,141.210281 C218.061415,141.210281 219.253888,139.939848 219.253888,138.371949 C219.245151,133.866462 220.757514,129.530693 222.324273,126.350475 C222.800022,125.380572 223.27718,124.522792 223.708962,123.797356 C224.1616,124.558329 224.665251,125.4688 225.164675,126.499974 C226.706914,129.666712 228.1708,133.936616 228.162909,138.371949 C228.162909,139.938929 229.355382,141.210281 230.826314,141.210281 C232.298093,141.210281 233.491411,139.938929 233.491411,138.371949 C233.481828,132.535985 231.618854,127.413203 229.813375,123.719849 C229.737559,123.568512 229.663717,123.419014 229.589592,123.273497 C230.214999,123.647857 230.841252,124.086244 231.470041,124.592946 C232.756931,125.635455 233.878943,126.534285 234.867927,127.534824 C235.858037,128.539039 236.737947,129.638834 237.595874,131.184982 C238.092479,132.084119 238.981127,132.584695 239.893731,132.584695 C240.353415,132.584695 240.818454,132.457253 241.243753,132.190422 C242.51035,131.394832 242.933113,129.655377 242.187078,128.305294" id="Shape" fill="#53AEFF" fill-rule="nonzero"></path>
                    <polygon id="Rectangle-15-Copy-4" fill="#000000" opacity="0.0299999993" points="106.527778 0 327.777778 0 340.069444 40.9722222 118.819444 40.9722222"></polygon>
                    <polygon id="Rectangle-15-Copy-5" fill="#53AEFF" points="106.527778 0 327.777778 0 344.166667 32.7777778 122.916667 32.7777778"></polygon>
                    <rect id="Rectangle-15-Copy" fill="url(#linearGradient-3)" x="24.5833333" y="0" width="81.9444444" height="163.888889"></rect>
                    <polygon id="Rectangle-15-Copy-2" fill="#000000" opacity="0.0299999993" points="24.5833333 0 106.527778 0 90.1388889 40.9722222 8.19444444 40.9722222"></polygon>
                    <polygon id="Rectangle-15-Copy-3" fill="#55A8FF" points="24.5833333 0 106.527778 0 81.9444444 32.7777778 0 32.7777778"></polygon>
                </g>
            </g>
        </g>
    </g>
</svg>