<?xml version="1.0" encoding="UTF-8"?>
<svg width="858px" height="439px" viewBox="0 0 858 439" version="1.1" xmlns="http://www.w3.org/2000/svg" xmlns:xlink="http://www.w3.org/1999/xlink">
    <!-- Generator: Sketch 52.4 (67378) - http://www.bohemiancoding.com/sketch -->
    <title>SVG1</title>
    <desc>Created with Sketch.</desc>
    <defs>
        <filter x="-11.8%" y="-23.7%" width="123.7%" height="147.4%" filterUnits="objectBoundingBox" id="filter-1">
            <feGaussianBlur stdDeviation="15" in="SourceGraphic"></feGaussianBlur>
        </filter>
        <linearGradient x1="100%" y1="50%" x2="0%" y2="50%" id="linearGradient-2">
            <stop stop-color="#F8FCFF" offset="0%"></stop>
            <stop stop-color="#F3FAFF" offset="100%"></stop>
        </linearGradient>
        <linearGradient x1="0%" y1="50%" x2="100%" y2="50%" id="linearGradient-3">
            <stop stop-color="#E0F1FF" offset="0%"></stop>
            <stop stop-color="#80C6F9" offset="100%"></stop>
        </linearGradient>
        <linearGradient x1="100%" y1="87.3118151%" x2="0%" y2="30.9342466%" id="linearGradient-4">
            <stop stop-color="#FFFFFF" offset="0%"></stop>
            <stop stop-color="#F9FDFF" offset="100%"></stop>
        </linearGradient>
        <filter x="-16.7%" y="-33.3%" width="133.3%" height="166.7%" filterUnits="objectBoundingBox" id="filter-5">
            <feGaussianBlur stdDeviation="5" in="SourceGraphic"></feGaussianBlur>
        </filter>
        <linearGradient x1="0%" y1="50%" x2="100%" y2="50%" id="linearGradient-6">
            <stop stop-color="#E0F1FF" offset="0%"></stop>
            <stop stop-color="#C9E7FE" offset="100%"></stop>
        </linearGradient>
        <filter x="-16.7%" y="-33.3%" width="133.3%" height="166.7%" filterUnits="objectBoundingBox" id="filter-7">
            <feGaussianBlur stdDeviation="5" in="SourceGraphic"></feGaussianBlur>
        </filter>
        <linearGradient x1="86.2557467%" y1="53.0540425%" x2="28.0003441%" y2="80.6233412%" id="linearGradient-8">
            <stop stop-color="#069AA2" offset="0%"></stop>
            <stop stop-color="#19CCCD" offset="29.0731805%"></stop>
            <stop stop-color="#1DD8D8" offset="100%"></stop>
        </linearGradient>
        <linearGradient x1="1.87251962%" y1="49.7387005%" x2="101.257813%" y2="49.7500002%" id="linearGradient-9">
            <stop stop-color="#68B1FF" offset="0%"></stop>
            <stop stop-color="#1988FF" offset="100%"></stop>
        </linearGradient>
        <filter x="-11.8%" y="-23.7%" width="123.7%" height="147.4%" filterUnits="objectBoundingBox" id="filter-10">
            <feGaussianBlur stdDeviation="15" in="SourceGraphic"></feGaussianBlur>
        </filter>
        <path d="M106.746641,34.8714911 L66.7324807,54.036038 L66.7003731,54.0199687 C59.6196003,57.1164822 50.2609993,59 40,59 C17.90861,59 0,50.2695526 0,39.5 C0,33.6418894 5.29885077,28.3871151 13.6874373,24.8126206 L49.2355424,7.21690302 C56.5728224,2.80719177 67.6307564,0 80,0 C102.09139,0 120,8.954305 120,20 C120,25.4208361 115.686713,30.3379612 108.682541,33.9401745 L108.557706,34.004092 C107.972269,34.3025175 107.368269,34.5918063 106.746641,34.8714911 Z" id="path-11"></path>
        <filter x="-0.4%" y="-0.8%" width="100.8%" height="103.4%" filterUnits="objectBoundingBox" id="filter-12">
            <feOffset dx="0" dy="1" in="SourceAlpha" result="shadowOffsetOuter1"></feOffset>
            <feColorMatrix values="0 0 0 0 0.68183791   0 0 0 0 0.835880189   0 0 0 0 1  0 0 0 1 0" type="matrix" in="shadowOffsetOuter1"></feColorMatrix>
        </filter>
    </defs>
    <g id="Website" stroke="none" stroke-width="1" fill="none" fill-rule="evenodd">
        <g id="home-illustration" transform="translate(-411.000000, -401.000000)">
            <g id="SVG1" transform="translate(440.000000, 401.000000)">
                <g id="box-data" transform="translate(610.000000, 223.000000) scale(-1, 1) translate(-610.000000, -223.000000) translate(420.000000, 40.000000)">
                    <g id="Group-13">
                        <polygon id="Rectangle-11-Copy" fill="#228DFF" opacity="0.2" filter="url(#filter-1)" points="190 175.203861 380 270.203861 190 365.203861 0 270.203861"></polygon>
                        <polygon id="Rectangle-11" fill="url(#linearGradient-2)" points="190 92.3081081 380 187.308108 190 291.551351 0 187.308108"></polygon>
                        <polygon id="Rectangle-3" fill="url(#linearGradient-3)" points="0 187.308108 190 282.308108 190 341.728958 0 246.728958"></polygon>
                        <polygon id="Rectangle-3-Copy-2" fill="url(#linearGradient-4)" transform="translate(285.000000, 264.518533) scale(-1, 1) translate(-285.000000, -264.518533) " points="190 187.308108 380 282.308108 380 341.728958 190 246.728958"></polygon>
                        <g id="box" transform="translate(95.000000, 0.000000)">
                            <polygon id="Rectangle-11" fill="url(#linearGradient-4)" points="45 0.3 90 22.8 45 54.3 0 22.8"></polygon>
                            <polygon id="Rectangle-11-Copy-2" fill="#228DFF" opacity="0.300000012" filter="url(#filter-5)" points="45 121.3 90 143.8 45 166.3 0 143.8"></polygon>
                            <polygon id="Rectangle-3" fill="url(#linearGradient-6)" points="0 22.8 45 45.3 45 163.157143 0 140.657143"></polygon>
                            <polygon id="Rectangle-3-Copy-2" fill="url(#linearGradient-2)" transform="translate(67.500000, 92.978571) scale(-1, 1) translate(-67.500000, -92.978571) " points="45 22.8 90 45.3 90 163.157143 45 140.657143"></polygon>
                        </g>
                        <g id="box-copy-2" transform="translate(40.000000, 57.000000)">
                            <polygon id="Rectangle-11" fill="url(#linearGradient-4)" points="45 0.3 90 22.8 45 54.3 0 22.8"></polygon>
                            <polygon id="Rectangle-11-Copy-2" fill="#228DFF" opacity="0.300000012" filter="url(#filter-7)" points="45 91.3 90 113.8 45 136.3 0 113.8"></polygon>
                            <polygon id="Rectangle-3" fill="url(#linearGradient-6)" points="0 22.8 45 45.3 45 133.157143 0 110.657143"></polygon>
                            <polygon id="Rectangle-3-Copy-2" fill="url(#linearGradient-2)" transform="translate(67.500000, 77.978571) scale(-1, 1) translate(-67.500000, -77.978571) " points="45 22.8 90 45.3 90 133.157143 45 110.657143"></polygon>
                        </g>
                        <g id="Group-7" transform="translate(25.000000, 9.000000)">
                            <g id="kytka" transform="translate(176.007596, 88.086824) scale(-1, 1) rotate(10.000000) translate(-176.007596, -88.086824) translate(142.007596, 57.086824)">
                                <path d="M56.3381628,26.3017832 C51.3605121,22.2463136 50.2970442,15.8384958 42.5002302,13.7318533 C29.8402496,10.3112187 43.9669537,31.8168194 35.1182418,26.0260175 C34.8222509,25.8323142 21.0536867,0.437059629 8.79536683,12.03022 C4.7654384,15.8414769 6.02909306,20.833906 6.88663521,21.7420417 C10.5033642,25.5721519 18.9670016,24.1915066 22.5917879,28.0138008 C26.4172608,32.0477165 10.9285244,31.0508625 15.0253983,37.9093157 C15.8223807,39.24352 17.7047252,39.5339718 19.1967061,39.9204689 L34.7678671,39.17801 C42.2074425,41.1052295 18.1968598,52.7941885 33.1999526,52.9842462 C36.3469531,53.0241121 36.5740603,53.3265677 42.6525369,47.8957861 C48.7310134,42.4650044 59.3706407,45.363724 61.1960476,42.2940588 C64.7112612,36.382758 55.5155523,35.4265341 56.2616613,28.568003 L56.3381628,26.3017832 Z" id="Path-27" fill="url(#linearGradient-8)" transform="translate(34.000000, 31.000000) rotate(20.000000) translate(-34.000000, -31.000000) "></path>
                                <g id="Group-5" opacity="0.799999952" transform="translate(21.000000, 13.000000)" stroke="#084E5B" stroke-linecap="round" stroke-linejoin="round">
                                    <path d="M33.82876,35.808671 C27.0448922,30.5462421 5.13065763,11.8750363 1.508481,0.313071783" id="Path-28" stroke-width="0.8"></path>
                                    <path d="M25.7583195,28.8880545 C22.7081004,20.9092999 23.0086767,17.1762418 24.3834981,13.11917" id="Path-29" stroke-width="0.5"></path>
                                    <path d="M28.3361096,31.650386 C20.737877,31.0172559 14.4540851,31.6972683 9.48473388,33.6904234" id="Path-30" stroke-width="0.5"></path>
                                    <path d="M15.5228008,19.6743675 C7.9895935,18.5294754 2.92513723,18.2416093 0.329431973,18.8107692" id="Path-31" stroke-width="0.5"></path>
                                </g>
                            </g>
                            <g id="Group-3" transform="translate(117.000000, 121.000000)">
                                <polygon id="Rectangle-3-Copy-6" fill="#CAE7FE" transform="translate(20.500000, 14.978571) scale(-1, 1) translate(-20.500000, -14.978571) " points="0 0.8 41 21.3 41 29.1571429 0 8.65714286"></polygon>
                                <polygon id="Rectangle-3-Copy-7" fill="#228DFF" transform="translate(20.500000, 14.978571) scale(-1, 1) translate(-20.500000, -14.978571) " points="2 4.8 39 23.3 39 25.1571429 2 6.65714286"></polygon>
                            </g>
                            <g id="Group-3-Copy" transform="translate(117.000000, 111.000000)">
                                <polygon id="Rectangle-3-Copy-6" fill="#CAE7FE" transform="translate(20.500000, 14.978571) scale(-1, 1) translate(-20.500000, -14.978571) " points="0 0.8 41 21.3 41 29.1571429 0 8.65714286"></polygon>
                                <polygon id="Rectangle-3-Copy-7" fill="#228DFF" transform="translate(20.500000, 14.978571) scale(-1, 1) translate(-20.500000, -14.978571) " points="2 4.8 39 23.3 39 25.1571429 2 6.65714286"></polygon>
                            </g>
                            <g id="Group-3-Copy-2" transform="translate(117.000000, 101.000000)">
                                <polygon id="Rectangle-3-Copy-6" fill="#CAE7FE" transform="translate(20.500000, 14.978571) scale(-1, 1) translate(-20.500000, -14.978571) " points="0 0.8 41 21.3 41 29.1571429 0 8.65714286"></polygon>
                                <polygon id="Rectangle-3-Copy-7" fill="#228DFF" transform="translate(20.500000, 14.978571) scale(-1, 1) translate(-20.500000, -14.978571) " points="2 4.8 39 23.3 39 25.1571429 2 6.65714286"></polygon>
                            </g>
                            <g id="Group-3-Copy-3" transform="translate(117.000000, 91.000000)">
                                <polygon id="Rectangle-3-Copy-6" fill="#CAE7FE" transform="translate(20.500000, 14.978571) scale(-1, 1) translate(-20.500000, -14.978571) " points="0 0.8 41 21.3 41 29.1571429 0 8.65714286"></polygon>
                                <polygon id="Rectangle-3-Copy-7" fill="#228DFF" transform="translate(20.500000, 14.978571) scale(-1, 1) translate(-20.500000, -14.978571) " points="2 4.8 39 23.3 39 25.1571429 2 6.65714286"></polygon>
                            </g>
                            <g id="Group-3-Copy-4" transform="translate(117.000000, 81.000000)">
                                <polygon id="Rectangle-3-Copy-6" fill="#CAE7FE" transform="translate(20.500000, 14.978571) scale(-1, 1) translate(-20.500000, -14.978571) " points="0 0.8 41 21.3 41 29.1571429 0 8.65714286"></polygon>
                                <polygon id="Rectangle-3-Copy-7" fill="#228DFF" transform="translate(20.500000, 14.978571) scale(-1, 1) translate(-20.500000, -14.978571) " points="2 4.8 39 23.3 39 25.1571429 2 6.65714286"></polygon>
                            </g>
                            <g id="Group-3-Copy-5" transform="translate(117.000000, 17.000000)">
                                <polygon id="Rectangle-3-Copy-6" fill="#CAE7FE" transform="translate(20.500000, 14.978571) scale(-1, 1) translate(-20.500000, -14.978571) " points="0 0.8 41 21.3 41 29.1571429 0 8.65714286"></polygon>
                                <polygon id="Rectangle-3-Copy-7" fill="#228DFF" transform="translate(20.500000, 14.978571) scale(-1, 1) translate(-20.500000, -14.978571) " points="2 4.8 39 23.3 39 25.1571429 2 6.65714286"></polygon>
                                <rect id="Rectangle-7-Copy-2" fill="#CAE7FE" x="31" y="7" width="2" height="5"></rect>
                                <rect id="Rectangle-7-Copy-3" fill="#CAE7FE" x="35" y="4" width="2" height="5"></rect>
                            </g>
                            <g id="Group-3-Copy-6" transform="translate(117.000000, 27.000000)">
                                <polygon id="Rectangle-3-Copy-6" fill="#CAE7FE" transform="translate(20.500000, 14.978571) scale(-1, 1) translate(-20.500000, -14.978571) " points="0 0.8 41 21.3 41 29.1571429 0 8.65714286"></polygon>
                                <polygon id="Rectangle-3-Copy-7" fill="#228DFF" transform="translate(20.500000, 14.978571) scale(-1, 1) translate(-20.500000, -14.978571) " points="2 4.8 39 23.3 39 25.1571429 2 6.65714286"></polygon>
                                <rect id="Rectangle-7-Copy" fill="#CAE7FE" x="27" y="9" width="2" height="5"></rect>
                                <rect id="Rectangle-7-Copy-2" fill="#CAE7FE" x="31" y="7" width="2" height="5"></rect>
                                <rect id="Rectangle-7-Copy-3" fill="#CAE7FE" x="35" y="4" width="2" height="5"></rect>
                            </g>
                            <g id="Group-3-Copy-7" transform="translate(117.000000, 37.000000)">
                                <polygon id="Rectangle-3-Copy-6" fill="#CAE7FE" transform="translate(20.500000, 14.978571) scale(-1, 1) translate(-20.500000, -14.978571) " points="0 0.8 41 21.3 41 29.1571429 0 8.65714286"></polygon>
                                <polygon id="Rectangle-3-Copy-7" fill="#228DFF" transform="translate(20.500000, 14.978571) scale(-1, 1) translate(-20.500000, -14.978571) " points="2 4.8 39 23.3 39 25.1571429 2 6.65714286"></polygon>
                                <rect id="Rectangle-7" fill="#CAE7FE" x="35" y="5" width="2" height="5"></rect>
                                <rect id="Rectangle-7-Copy-2" fill="#CAE7FE" x="27" y="9" width="2" height="5"></rect>
                                <rect id="Rectangle-7-Copy-3" fill="#CAE7FE" x="23" y="11" width="2" height="5"></rect>
                            </g>
                            <g id="Group-3-Copy-8" transform="translate(117.000000, 47.000000)" fill="#CAE7FE">
                                <polygon id="Rectangle-3-Copy-6" transform="translate(20.500000, 26.978571) scale(-1, 1) translate(-20.500000, -26.978571) " points="0 0.8 41 21.3 41 53.1571429 0 32.6571429"></polygon>
                            </g>
                            <g id="Group-9" transform="translate(62.000000, 74.000000)">
                                <g id="Group-3-Copy-7" transform="translate(0.000000, 74.000000)">
                                    <polygon id="Rectangle-3-Copy-6" fill="#CAE7FE" transform="translate(20.500000, 14.978571) scale(-1, 1) translate(-20.500000, -14.978571) " points="0 0.8 41 21.3 41 29.1571429 0 8.65714286"></polygon>
                                    <polygon id="Rectangle-3-Copy-7" fill="#228DFF" transform="translate(20.500000, 14.978571) scale(-1, 1) translate(-20.500000, -14.978571) " points="2 4.8 39 23.3 39 25.1571429 2 6.65714286"></polygon>
                                    <rect id="Rectangle-7" fill="#CAE7FE" x="35" y="5" width="2" height="5"></rect>
                                    <rect id="Rectangle-7-Copy-2" fill="#CAE7FE" x="27" y="9" width="2" height="5"></rect>
                                    <rect id="Rectangle-7-Copy-3" fill="#CAE7FE" x="23" y="11" width="2" height="5"></rect>
                                </g>
                                <g id="Group-3-Copy-9" transform="translate(0.000000, 64.000000)">
                                    <polygon id="Rectangle-3-Copy-6" fill="#CAE7FE" transform="translate(20.500000, 14.978571) scale(-1, 1) translate(-20.500000, -14.978571) " points="0 0.8 41 21.3 41 29.1571429 0 8.65714286"></polygon>
                                    <polygon id="Rectangle-3-Copy-7" fill="#228DFF" transform="translate(20.500000, 14.978571) scale(-1, 1) translate(-20.500000, -14.978571) " points="2 4.8 39 23.3 39 25.1571429 2 6.65714286"></polygon>
                                    <rect id="Rectangle-7" fill="#CAE7FE" x="35" y="5" width="2" height="5"></rect>
                                    <rect id="Rectangle-7-Copy" fill="#CAE7FE" x="31" y="7" width="2" height="5"></rect>
                                </g>
                                <g id="Group-3-Copy-10" transform="translate(0.000000, 54.000000)">
                                    <polygon id="Rectangle-3-Copy-6" fill="#CAE7FE" transform="translate(20.500000, 14.978571) scale(-1, 1) translate(-20.500000, -14.978571) " points="0 0.8 41 21.3 41 29.1571429 0 8.65714286"></polygon>
                                    <polygon id="Rectangle-3-Copy-7" fill="#228DFF" transform="translate(20.500000, 14.978571) scale(-1, 1) translate(-20.500000, -14.978571) " points="2 4.8 39 23.3 39 25.1571429 2 6.65714286"></polygon>
                                    <rect id="Rectangle-7" fill="#CAE7FE" x="35" y="5" width="2" height="5"></rect>
                                    <rect id="Rectangle-7-Copy" fill="#CAE7FE" x="31" y="7" width="2" height="5"></rect>
                                    <rect id="Rectangle-7-Copy-2" fill="#CAE7FE" x="27" y="9" width="2" height="5"></rect>
                                    <rect id="Rectangle-7-Copy-3" fill="#CAE7FE" x="23" y="11" width="2" height="5"></rect>
                                </g>
                                <g id="Group-3-Copy-11">
                                    <polygon id="Rectangle-3-Copy-6" fill="#CAE7FE" transform="translate(20.500000, 14.978571) scale(-1, 1) translate(-20.500000, -14.978571) " points="0 0.8 41 21.3 41 29.1571429 0 8.65714286"></polygon>
                                    <polygon id="Rectangle-3-Copy-7" fill="#228DFF" transform="translate(20.500000, 14.978571) scale(-1, 1) translate(-20.500000, -14.978571) " points="2 4.8 39 23.3 39 25.1571429 2 6.65714286"></polygon>
                                    <rect id="Rectangle-7" fill="#CAE7FE" x="35" y="5" width="2" height="5"></rect>
                                    <rect id="Rectangle-7-Copy" fill="#CAE7FE" x="31" y="7" width="2" height="5"></rect>
                                    <rect id="Rectangle-7-Copy-3" fill="#CAE7FE" x="23" y="11" width="2" height="5"></rect>
                                </g>
                                <g id="Group-3-Copy-12" transform="translate(0.000000, 10.000000)">
                                    <polygon id="Rectangle-3-Copy-6" fill="#CAE7FE" transform="translate(20.500000, 14.978571) scale(-1, 1) translate(-20.500000, -14.978571) " points="0 0.8 41 21.3 41 29.1571429 0 8.65714286"></polygon>
                                    <polygon id="Rectangle-3-Copy-7" fill="#228DFF" transform="translate(20.500000, 14.978571) scale(-1, 1) translate(-20.500000, -14.978571) " points="2 4.8 39 23.3 39 25.1571429 2 6.65714286"></polygon>
                                    <rect id="Rectangle-7" fill="#CAE7FE" x="35" y="5" width="2" height="5"></rect>
                                    <rect id="Rectangle-7-Copy" fill="#CAE7FE" x="31" y="7" width="2" height="5"></rect>
                                    <rect id="Rectangle-7-Copy-3" fill="#CAE7FE" x="23" y="11" width="2" height="5"></rect>
                                </g>
                                <polygon id="Rectangle-3-Copy-6" fill="#CAE7FE" transform="translate(20.500000, 46.978571) scale(-1, 1) translate(-20.500000, -46.978571) " points="0 20.8 41 41.3 41 73.1571429 0 52.6571429"></polygon>
                            </g>
                            <g id="kytka" transform="translate(0.000000, 121.000000)">
                                <ellipse id="Oval-7" fill="#117BED" cx="12.0638298" cy="41.8867925" rx="11.4893617" ry="5.66037736"></ellipse>
                                <path d="M8.5838978,47.8782913 C7.90179498,41.4592958 4.33658441,40.7562021 1.75845011,34.6459386 C-0.0266768501,30.4151288 6.75284988,30.5380796 7.78230202,29.1698033 C10.7123219,25.2754242 2.06433585,22.0709773 2.23270962,17.8529537 C2.41572459,13.2681451 8.77913405,15.3653162 8.95174601,10.5837287 C9.03760227,8.20539262 6.81079094,5.73096372 7.75799487,3.54176676 C10.1239754,-1.92653548 20.2655883,2.09912057 19.7333174,7.61334177 C19.5200191,9.8230699 16.7135722,11.8500099 17.5440534,13.9133723 C18.0326013,15.127188 27.351923,18.4774923 25.2002655,22.9240605 C23.8582276,25.6974865 16.9651096,27.4404131 18.9662918,29.7967726 L19.4367702,31.3902753 C20.7637171,32.9527338 24.3078807,33.6216629 23.9130668,35.6215199 C23.4814162,37.8079667 19.7749502,37.4979817 17.9669978,38.8351369 C12.0477898,43.2129624 13.5517219,42.9529908 13.2789588,49.864049" id="Path-21" fill="#1CCED1" transform="translate(13.491419, 25.402790) rotate(-3.000000) translate(-13.491419, -25.402790) "></path>
                                <g id="Group-4" opacity="0.800000012" transform="translate(6.000000, 6.000000)" stroke="#073D48" stroke-linecap="round" stroke-linejoin="round">
                                    <path d="M6.10369653,44.8032991 C6.11521992,42.3410163 6.76082592,36.2515359 7.05172301,35.5042165 C8.34094995,32.1921716 4.23596584,30.0442847 5.32831876,25.6803418 C6.62544483,20.4983314 6.48343056,12.2398256 4.90227594,0.904824334" id="Path-22" stroke-width="0.7" transform="translate(6.103697, 22.854062) scale(-1, 1) translate(-6.103697, -22.854062) "></path>
                                    <path d="M6.03072839,19.6488804 C8.1672036,16.5831634 11.0056078,14.8528996 14.5459408,14.458089" id="Path-23" stroke-width="0.5"></path>
                                    <path d="M5.92085922,16.5388097 C3.24433055,13.9931557 1.39545176,12.7770984 0.374222861,12.8906377" id="Path-24" stroke-width="0.5"></path>
                                    <path d="M5.05877273,34.0888291 C8.88646797,31.3179706 11.3275627,29.4969691 12.3820569,28.6258245" id="Path-25" stroke-width="0.5"></path>
                                    <path d="M5.96372928,30.7812749 C3.44103307,29.5677945 1.71100353,29.0895083 0.77364065,29.3464163" id="Path-26" stroke-width="0.5"></path>
                                </g>
                                <path d="M0.804214893,43.0186688 C1.86859476,45.6024363 6.50523049,47.5471698 12.0638298,47.5471698 C17.6224291,47.5471698 22.2590648,45.6024363 23.3234447,43.0186688 L20.6808511,56.0377358 L20.6620059,56.0377358 C20.3663926,58.2503864 16.6298415,60 12.0638298,60 C7.49781803,60 3.76126696,58.2503864 3.46565368,56.0377358 L3.44680851,56.0377358 L0.804214893,43.0186688 Z" id="Combined-Shape" fill="url(#linearGradient-9)"></path>
                            </g>
                            <polygon id="Rectangle-3-Copy-4" fill-opacity="0.300000012" fill="#33BBFF" transform="translate(162.000000, 111.210425) scale(-1, 1) translate(-162.000000, -111.210425) " points="69 5 255 98 255 217.420849 69 124.420849"></polygon>
                            <g id="Group-6" transform="translate(161.982736, 120.724952) scale(-1, 1) rotate(3.000000) translate(-161.982736, -120.724952) translate(80.482736, 91.224952)">
                                <path d="M0,19.9166573 C17.4267378,5.69674015 31.1279167,1.00486209 41.1035366,5.84102309 C56.0669665,13.0952646 58.2082743,26.1037354 71.9461262,32.136513 C85.6839781,38.1692907 114.422717,10.5235835 121.681048,13.0952646 C128.93938,15.6669457 150.674268,23.3853774 163,10.3575593" id="Path-40" stroke="#FFFFFF" stroke-width="2"></path>
                                <path d="M125,15.4995763 C125,17.8906521 123.209136,18.7098808 121.000012,17.3294077 C118.790864,15.9489091 117,12.8914738 117,10.5004237 C117,8.10934792 118.790864,7.2901192 121.000012,8.67059228 C123.209136,10.0510654 125,13.1085006 125,15.4995763 Z" id="Stroke-3" fill="#FFD44C"></path>
                                <path d="M75,34.4995763 C75,36.8906521 73.2091363,37.7098808 71.0000118,36.3294077 C68.7908637,34.9489091 67,31.8914738 67,29.5004237 C67,27.1093479 68.7908637,26.2901192 71.0000118,27.6705923 C73.2091363,29.0510654 75,32.1085006 75,34.4995763 Z" id="Stroke-3-Copy" fill="#FFD44C"></path>
                                <path d="M42,7.49957634 C42,9.89065208 40.2091363,10.7098808 38.0000118,9.32940772 C35.7908637,7.9489091 34,4.89147385 34,2.50042366 C34,0.109347916 35.7908637,-0.709880798 38.0000118,0.670592276 C40.2091363,2.05106535 42,5.1085006 42,7.49957634 Z" id="Stroke-3-Copy-2" fill="#FFD44C"></path>
                                <path d="M1,31.6978373 C9.36317581,29.597639 17.5746537,26.922718 26.0895274,25.3972423 C28.7765997,24.9158419 31.8051875,24.7105463 34.2997808,25.7320402 C36.9491054,26.816894 37.9774991,29.9548159 40.4819478,31.2906961 C51.1189701,36.9645143 48.9397422,30.3255638 55.4226509,39.3536071 C58.6094891,43.7915709 60.8151673,48.7518483 63.8333818,53.2847359 C64.4761711,54.2501051 65.2836541,55.2075883 66.3593985,55.7788967 C74.8903363,60.3095237 91.324851,48.0720288 96.0944094,46.3809998 C108.328008,42.0436234 107.79436,51.3134184 115.590148,56.0792054 C131.970258,66.0928326 148.243804,47.7980801 158,39.658963" id="Path-41" stroke="#FFFFFF"></path>
                            </g>
                            <path d="M59.5,0.809016994 L59.5,119.111832 L244.5,211.611832 L244.5,93.309017 L59.5,0.809016994 Z" id="Rectangle-3-Copy-8" stroke="#33BBFF" transform="translate(152.000000, 106.210425) scale(-1, 1) translate(-152.000000, -106.210425) "></path>
                            <g id="Group-2" transform="translate(150.000000, 84.000000)">
                                <g id="dev1" transform="translate(73.000000, 65.000000) scale(-1, 1) translate(-73.000000, -65.000000) translate(45.000000, 0.000000)">
                                    <path d="M18.8403998,3.16301703 C21.3807495,5.38104638 22.1166306,5.31212414 23.0592667,8.2130951 C23.3913014,9.23493455 23.7866168,10.2945544 23.7188656,11.3651655 C23.6014215,13.2210281 23.5235567,15.2434366 22.5148161,16.816556 C19.9382177,20.8347311 9.8596773,19.8497051 8.1165853,16.2470203 C6.4729674,12.849932 11.5922019,8.05642321 13.9584921,5.19141278 C15.3806256,3.46954977 16.413273,3.50530352 18.1848687,3.20637722 L18.8403998,3.16301703 Z" id="Path-2" fill="#FFD44C"></path>
                                    <polygon id="Rectangle-27" fill="#FFD44C" points="10.6206897 16.7639903 18.0229885 16.7639903 18.9885057 23.7226277 8.36781609 23.7226277"></polygon>
                                    <path d="M20.5751868,5.286816 C21.502035,4.93210363 25.737306,4.50179189 25.737306,0.26754537 C25.737306,0.26754537 22.2758741,1.11893248 21.1080507,1.13283833 C18.3557316,1.16561153 15.6505735,0.26754537 12.8975588,0.26754537 C4.53058659,0.26754537 3.78997348,6.21419392 5.5490059,14.308099 C5.75325372,15.2479126 6.50927549,16.9288306 7.43887544,17.4302377 C7.99285871,17.7290448 9.37659659,18.2767218 10.0069835,18.3201109 C12.4033413,18.4850506 9.93983034,15.6941643 11.7458968,9.32113766 C12.4763918,6.74345642 16.3436605,2.23902734 19.8879615,4.50179189 L20.5751868,5.286816 Z" id="Path-32" fill="#004A80"></path>
                                    <path d="M41.0398366,32.8357641 L55.1282668,36.0310025 C55.504248,36.1162745 55.7748848,35.683537 55.8519525,36.0310025 C55.8813881,36.1637146 55.8850918,37.0278448 55.8519525,37.1689776 C55.8185429,37.311262 55.7521712,37.4440489 55.6580045,37.5570008 L40.5998266,55.6191223 L24.2483297,50.1014428 L39.1469285,33.4413994 C39.6152434,32.9108123 40.3434469,32.6778238 41.0398366,32.8357641 Z" id="Rectangle-28" fill="#233141"></path>
                                    <path d="M41.6433232,32.023729 L55.0390621,35.0618658 C55.5776682,35.184021 55.9152684,35.7196739 55.7931132,36.25828 C55.7576599,36.4146004 55.6851488,36.5601079 55.5816908,36.6825393 L39.7658966,55.3988424 C39.4938252,55.7208099 39.0490721,55.8375963 38.6539182,55.6908337 L24.9700897,50.608575 C24.4523602,50.416287 24.1885378,49.8407042 24.3808257,49.3229747 C24.4235992,49.2078082 24.487228,49.1015093 24.5685249,49.0094023 L38.7305799,32.9642052 C39.4565157,32.141741 40.5734836,31.7810907 41.6433232,32.023729 Z" id="Rectangle-28-Copy" fill="#35475B"></path>
                                    <polygon id="Rectangle-28-Copy-2" fill="#FFF0C0" points="40.3082551 33.5790754 53.2634441 36.5929928 37.4827901 55.7711937 25.4252874 50.9769839"></polygon>
                                    <ellipse id="Oval-9" fill="#FFD44C" transform="translate(11.747126, 10.754258) rotate(-15.000000) translate(-11.747126, -10.754258) " cx="11.7471264" cy="10.7542579" rx="1.77011494" ry="2.53041363"></ellipse>
                                    <path d="M1.67967633,112.741564 C1.75932518,113.152804 1.21928921,118.895156 3.2849556,119.15102 C4.93926913,119.355931 24.8404155,114.960078 13.3506905,113.955119 C9.66252312,113.63253 5.94894038,113.723866 2.2480653,113.60824" id="Path-34" fill="#FFD44C"></path>
                                    <path d="M20.567679,123.807881 C18.3891045,124.989245 17.6811943,129.930505 21.1618077,129.942537 C25.265453,129.956723 29.2538921,129.345692 32.8508044,127.249983 C34.1043732,126.519603 34.9115373,124.364555 32.9135669,124.241392 C29.2281961,124.014212 25.5327376,123.990965 21.842323,123.865752" id="Path-35" fill="#FFD44C"></path>
                                    <path d="M0.808405153,65.1715463 C1.05121624,76.790418 2.27769215,87.6853843 1.45208331,103.135514 C0.672470246,117.724896 0.38664945,113.43446 5.33682918,114.744683 C6.48506069,115.048599 8.11988597,114.878595 8.39315398,113.274347 C8.57991707,112.177936 9.72159744,89.5894537 12.8380956,81.3238317 C12.9323016,81.0739771 14.3629874,80.922386 14.4943535,81.2180574 C21.0348722,95.9390837 16.1708577,124.657924 19.4722386,125.221385 C20.033184,125.317124 23.6160503,125.221385 24.0866132,125.221385 C26.7004267,125.221385 26.4435328,108.74371 26.7004267,102.498935 C26.7575555,101.110204 27.8164068,82.6679473 27.8164068,70.2486419 C27.8164068,62.2911303 21.5502587,60.2558987 14.8139748,60.9320737 C4.47838285,61.9695401 7.21998556,60.4839218 2.34291433,64.3114538 L0.808405153,65.1715463 Z" id="Path-33" fill="#233141"></path>
                                    <path d="M25.0888838,26.1128545 C23.0924568,24.647104 21.3833315,22.6957456 19.0996029,21.7156029 C18.4544874,21.4387289 17.9685683,22.8706755 17.2738908,22.7587748 L14.509997,22.9125403 C11.4615283,22.4214841 9.3298861,18.2505078 5.97293602,20.6834933 C-0.149702149,25.120941 0.570365042,34.1743946 0.385491813,40.547455 C0.0159750755,53.2856566 0.00952333957,38.0717205 0.0159750755,57.7548129 C0.0171412109,61.3124836 -0.237947368,67.1317499 1.24825893,70.3757546 C2.12995678,72.3002733 7.05516901,73.7595164 9.05199597,74.5362736 C17.0324722,77.6406447 15.2994046,74.995466 23.8192148,73.5655596 C24.9856959,73.3697854 28.6228434,73.0241523 28.6228434,71.7270898 C28.6228434,66.4506779 28.608328,62.6590894 28.9108352,57.9196407 C29.3619227,50.8523523 32.000411,35.8761536 26.5696016,27.8904026 L25.0888838,26.1128545 Z" id="Path" fill="#228DFF"></path>
                                    <path d="M22.3354792,43.6857547 C22.9520695,46.7806254 23.4778672,53.9831739 26.9094412,56.3936081 C30.4132803,58.8548034 42.7952349,56.4567194 46.1649697,54.0104897 C47.6762921,53.1293793 48.6242564,52.3104979 49.0088626,51.5538455 C49.1970533,51.1836098 49.0924368,50.319685 48.7917872,50.0900621 C47.9019445,49.4104395 48.0446027,49.523354 47.6809719,49.4126179 C46.5284336,49.0616366 45.9726648,50.2709097 44.9705583,49.8101312 C44.2492044,49.4784455 45.5619016,48.4726214 44.8267701,48.4602645 C43.8157712,48.4432705 43.7167317,49.4753741 42.9222312,50.0900621 C40.3853797,52.05277 35.2529039,52.8011344 32.1225363,51.5538455 C27.8375536,49.8465026 30.8275404,43.8030536 29.0546418,41.9602382 C28.3174853,41.194011 25.9350497,42.675785 23.1721522,43.074967 L22.3354792,43.6857547 Z" id="Path-37" fill="#FFD44C"></path>
                                    <path d="M24.582672,26.0882954 C16.972758,28.1803396 19.6576682,41.6001515 19.6576682,44.3555805 C19.6576682,46.0767638 29.6132756,44.8828591 30.1085778,43.5297837 C31.1436315,40.7022058 30.4304169,28.3284928 25.1576395,26.0480903 L24.582672,26.0882954 Z" id="Path-36" fill="#1083FC"></path>
                                </g>
                                <g id="dev1-copy" transform="translate(23.000000, 82.000000) scale(-1, 1) translate(-23.000000, -82.000000) translate(0.000000, 16.000000)">
                                    <path d="M16.667803,2.5323741 C19.171862,4.7521219 18.9455063,4.68314626 19.8746762,7.5863648 C20.2019675,8.60899593 20.5916356,9.66943673 20.5248522,10.7408773 C20.4090859,12.5981777 21.2840576,14.6221532 20.2897276,16.1964913 C17.7499377,20.2177796 7.81537649,19.2319904 6.09718581,15.6265144 C4.47704816,12.2267942 9.52315078,7.42957151 11.8556368,4.56234138 C13.2574541,2.83914433 14.2753494,2.87492578 16.0216366,2.57576788 L16.667803,2.5323741 Z" id="Path-2" fill="#FFD44C"></path>
                                    <polygon id="Rectangle-27" fill="#FFD44C" points="7.6137931 16.1438849 15.862069 16.1438849 17.1310345 23.1079137 7.6137931 23.1079137"></polygon>
                                    <path d="M17.043455,2.62002523 C16.7257579,-3.15224099 4.96062631,2.05783962 3.68828793,5.59977888 C1.79561813,10.8685985 1.63499711,16.6093986 8.61306303,16.970021 C9.23845257,17.0023408 6.80764508,12.5695613 7.8671946,11.0143808 C8.473371,10.1246501 8.31669631,10.558338 9.29838336,10.1134006 C9.72849005,9.91846014 8.91736594,9.30855294 9.04073612,9.76355923 C9.23204973,10.4691503 10.3220315,11.4463941 10.8584194,11.9442355 C11.4496597,12.4929874 12.9256985,12.9435546 13.2658445,12.2128211 C13.9304775,10.7849946 12.4076075,8.98887729 12.9262049,7.50202605 C13.5378568,5.7483817 15.2576456,4.60734795 16.423366,3.1600089 L17.043455,2.62002523 Z" id="Path-38" fill="#D8D8D8"></path>
                                    <ellipse id="Oval-9" fill="#FFD44C" transform="translate(9.041379, 11.395683) rotate(-15.000000) translate(-9.041379, -11.395683) " cx="9.04137931" cy="11.3956835" rx="1.74482759" ry="2.5323741"></ellipse>
                                    <path d="M0.703956819,112.195818 C0.782467826,112.607377 0.250146656,118.354179 2.28630353,118.61024 C3.916984,118.81531 23.5338283,114.416052 12.2082422,113.410314 C8.57276294,113.087475 4.91223138,113.178882 1.26422595,113.063166" id="Path-34" fill="#233141"></path>
                                    <path d="M18.3704067,123.270709 C16.2229547,124.452988 15.5251576,129.398077 18.9560479,129.410118 C23.0010697,129.424315 26.9325311,128.812811 30.4780589,126.715479 C31.7137195,125.984532 32.5093528,123.827815 30.5399249,123.704557 C26.9072021,123.4772 23.264536,123.453936 19.6268415,123.328625" id="Path-35" fill="#233141" transform="translate(24.151448, 126.340534) rotate(20.000000) translate(-24.151448, -126.340534) "></path>
                                    <path d="M2.3830634,61.4234777 C2.62240576,73.0513513 2.24515369,87.1202263 1.43133927,102.582326 C0.662863528,117.183012 -1.52232239,112.889252 3.35714049,114.200489 C4.48896869,114.504641 6.10043933,114.334505 6.36980351,112.729015 C6.55389855,111.631754 9.2654761,89.0257709 12.3374528,80.753745 C12.4303131,80.5036969 13.2060777,80.3519883 13.3355672,80.6478888 C15.6685319,85.9790199 19.7018745,90.9286916 20.004828,97.9296099 C20.5390781,110.275533 15.2139804,124.325465 17.2906154,124.685308 C17.8435474,124.781122 19.1545402,124.685308 20.5701049,124.685308 C23.1465783,124.685308 27.9852021,103.041361 28.2384262,96.7917469 C28.2947388,95.4019405 26.5049373,82.215635 24.2466158,69.6699745 C22.9263249,62.3353584 19.3389496,59.6694893 12.6988983,60.3461882 C2.51095768,61.3844584 8.70304981,56.7322215 3.89565102,60.5627189 L2.3830634,61.4234777 Z" id="Path-33" fill="#EAF0F6"></path>
                                    <path d="M21.2669635,24.8984105 C19.7008837,23.5740705 18.3601752,21.8109725 16.5687242,20.9253906 C16.0626689,20.6752284 15.6814939,21.9690257 15.1365602,21.8679208 L12.9684477,22.0068516 C10.577103,21.5631708 8.90495485,17.7945959 6.27162457,19.9928554 C1.46877435,24.0021933 2.03362479,32.1822009 1.88860259,37.9404103 C1.59873841,49.4496741 1.5936774,35.7035262 1.59873841,53.4876616 C1.59965317,56.7021005 1.29642724,61.0298064 1.29642724,64.8909782 C1.29642724,65.5157833 13.5876917,69.0649958 20.2709826,67.7730418 C21.1860186,67.5961552 24.0391473,67.2838677 24.0391473,66.1119413 C24.0391473,61.3445795 24.0277608,57.9187904 24.26506,53.6365874 C24.6189116,47.2511266 26.6886508,33.71978 22.4284996,26.5044669 L21.2669635,24.8984105 Z" id="Path" fill="#233141"></path>
                                    <path d="M27.2929996,40.7529893 C28.8086832,43.5118402 30.001317,46.9496829 32.2679636,44.6076592 C33.5752227,43.2569275 37.2245857,40.741527 38.0340359,37.7570752 C38.2959721,36.7913136 37.5012353,35.8021125 37.8304385,34.8196732 C37.9117714,34.5769518 38.6119485,33.3422096 39.4910013,32.2021781 C40.5492365,30.8297674 41.8667022,29.5946135 42.6758192,30.3926541 C43.6643402,31.3676427 41.0074737,32.0821394 41.1433102,33.4624043 C41.2656144,34.705165 43.2805647,34.9573172 43.8297805,36.0793816 C44.2207959,36.878238 43.1838412,38.0354749 42.6464436,38.7446031 C41.7062947,39.9851858 40.2183105,40.6883329 39.2535002,41.9190216 C36.1755486,45.8451822 34.5379565,50.184688 30.725851,53.3708011 C29.4022413,54.4770584 17.0119949,40.1268874 25.7218031,41.1821836" id="Path-39" fill="#FFD44C" transform="translate(33.278654, 41.786325) rotate(10.000000) translate(-33.278654, -41.786325) "></path>
                                    <path d="M21.8666661,23.5761336 C15.4658783,25.6697986 17.7241877,39.1000077 17.7241877,41.8575715 C17.7241877,43.5800884 26.0979657,42.3852586 26.5145702,41.031135 C27.385166,38.2013663 26.7852728,25.8180666 22.350278,23.5358973 L21.8666661,23.5761336 Z" id="Path-36" fill="#161F29" transform="translate(22.096289, 33.124183) rotate(-20.000000) translate(-22.096289, -33.124183) "></path>
                                </g>
                            </g>
                        </g>
                    </g>
                </g>
                <g id="box-business">
                    <g>
                        <polygon id="Rectangle-11-Copy" fill="#228DFF" opacity="0.2" filter="url(#filter-10)" points="190 215.203861 380 310.203861 190 405.203861 0 310.203861"></polygon>
                        <polygon id="Rectangle-11" fill="url(#linearGradient-2)" points="190 132.308108 380 227.308108 190 331.551351 0 227.308108"></polygon>
                        <polygon id="Rectangle-11-Copy-3" fill="#D6E5F4" opacity="0.5" points="190 152.308108 260 187.308108 110 262.551351 40 227.308108"></polygon>
                        <polygon id="Rectangle-3" fill="url(#linearGradient-4)" points="0 227.308108 190 322.308108 190 381.728958 0 286.728958"></polygon>
                        <polygon id="Rectangle-3-Copy-2" fill="url(#linearGradient-3)" transform="translate(285.000000, 304.518533) scale(-1, 1) translate(-285.000000, -304.518533) " points="190 227.308108 380 322.308108 380 381.728958 190 286.728958"></polygon>
                        <polygon id="Rectangle-3-Copy-3" fill="#F6FBFF" transform="translate(95.000000, 107.000000) scale(-1, 1) translate(-95.000000, -107.000000) " points="4 0 190 93 186 214 0 2"></polygon>
                        <polygon id="Rectangle-3-Copy-5" fill="#FCFEFF" transform="translate(2.000000, 153.710425) scale(-1, 1) translate(-2.000000, -153.710425) " points="-5.68434189e-14 95 4 93 4 212.420849 -5.68434189e-14 214.420849"></polygon>
                        <polygon id="Rectangle-3-Copy-4" fill="#F0F8FF" transform="translate(97.000000, 108.210425) scale(-1, 1) translate(-97.000000, -108.210425) " points="4 2 190 95 190 214.420849 4 121.420849"></polygon>
                        <g id="calendar" transform="translate(13.000000, 41.000000)">
                            <g opacity="0.200000003">
                                <path d="M0.5,59.89779 L0.5,158.423995 L119.5,99.10221 L119.5,0.576004823 L0.5,59.89779 Z" id="Rectangle-8" stroke="#233141"></path>
                                <polygon id="Rectangle-10" fill="#233141" points="0 137 120 77 120 78 0 138"></polygon>
                                <polygon id="Rectangle-10-Copy" fill="#233141" points="0 118 120 58 120 59 0 119"></polygon>
                                <polygon id="Rectangle-10-Copy-2" fill="#233141" points="0 99 120 39 120 40 0 100"></polygon>
                                <polygon id="Rectangle-10-Copy-3" fill="#233141" points="0 80 120 20 120 21 0 81"></polygon>
                                <polygon id="Rectangle-12-Copy" fill="#233141" points="20 50 21 50 21 148 20 149"></polygon>
                                <polygon id="Rectangle-12-Copy-2" fill="#233141" points="40 40 41 40 41 138 40 139"></polygon>
                                <polygon id="Rectangle-12-Copy-3" fill="#233141" points="60 30 61 30 61 128 60 129"></polygon>
                                <polygon id="Rectangle-12-Copy-4" fill="#233141" points="80 20 81 20 81 118 80 119"></polygon>
                                <polygon id="Rectangle-12-Copy-5" fill="#233141" points="100 10 101 10 101 108 100 109"></polygon>
                            </g>
                            <path d="M4.10557281,61.4472136 L36.5527864,45.2236068 C37.0467649,44.9766175 37.6474379,45.1768419 37.8944272,45.6708204 C37.9638549,45.8096758 38,45.9627889 38,46.118034 L38,47.263932 C38,48.0214761 37.5719952,48.7140024 36.8944272,49.0527864 L4.4472136,65.2763932 C3.9532351,65.5233825 3.35256206,65.3231581 3.10557281,64.8291796 C3.03614509,64.6903242 3,64.5372111 3,64.381966 L3,63.236068 C3,62.4785239 3.42800475,61.7859976 4.10557281,61.4472136 Z" id="Rectangle-26" fill="#228DFF"></path>
                            <path d="M4.10557281,81.9472136 L36.5527864,65.7236068 C37.0467649,65.4766175 37.6474379,65.6768419 37.8944272,66.1708204 C37.9638549,66.3096758 38,66.4627889 38,66.618034 L38,67.763932 C38,68.5214761 37.5719952,69.2140024 36.8944272,69.5527864 L4.4472136,85.7763932 C3.9532351,86.0233825 3.35256206,85.8231581 3.10557281,85.3291796 C3.03614509,85.1903242 3,85.0372111 3,84.881966 L3,83.736068 C3,82.9785239 3.42800475,82.2859976 4.10557281,81.9472136 Z" id="Rectangle-26-Copy" fill="#004A80"></path>
                            <path d="M4.10557281,100.947214 L36.5527864,84.7236068 C37.0467649,84.4766175 37.6474379,84.6768419 37.8944272,85.1708204 C37.9638549,85.3096758 38,85.4627889 38,85.618034 L38,86.763932 C38,87.5214761 37.5719952,88.2140024 36.8944272,88.5527864 L4.4472136,104.776393 C3.9532351,105.023382 3.35256206,104.823158 3.10557281,104.32918 C3.03614509,104.190324 3,104.037211 3,103.881966 L3,102.736068 C3,101.978524 3.42800475,101.285998 4.10557281,100.947214 Z" id="Rectangle-26-Copy-2" fill="#228DFF"></path>
                            <path d="M24.1055728,109.947214 L56.5527864,93.7236068 C57.0467649,93.4766175 57.6474379,93.6768419 57.8944272,94.1708204 C57.9638549,94.3096758 58,94.4627889 58,94.618034 L58,95.763932 C58,96.5214761 57.5719952,97.2140024 56.8944272,97.5527864 L24.4472136,113.776393 C23.9532351,114.023382 23.3525621,113.823158 23.1055728,113.32918 C23.0361451,113.190324 23,113.037211 23,112.881966 L23,111.736068 C23,110.978524 23.4280048,110.285998 24.1055728,109.947214 Z" id="Rectangle-26-Copy-3" fill="#228DFF"></path>
                            <path d="M64.1055728,51.9472136 L96.5527864,35.7236068 C97.0467649,35.4766175 97.6474379,35.6768419 97.8944272,36.1708204 C97.9638549,36.3096758 98,36.4627889 98,36.618034 L98,37.763932 C98,38.5214761 97.5719952,39.2140024 96.8944272,39.5527864 L64.4472136,55.7763932 C63.9532351,56.0233825 63.3525621,55.8231581 63.1055728,55.3291796 C63.0361451,55.1903242 63,55.0372111 63,54.881966 L63,53.736068 C63,52.9785239 63.4280048,52.2859976 64.1055728,51.9472136 Z" id="Rectangle-26-Copy-4" fill="#228DFF"></path>
                            <path d="M84.1055728,60.9472136 L116.552786,44.7236068 C117.046765,44.4766175 117.647438,44.6768419 117.894427,45.1708204 C117.963855,45.3096758 118,45.4627889 118,45.618034 L118,46.763932 C118,47.5214761 117.571995,48.2140024 116.894427,48.5527864 L84.4472136,64.7763932 C83.9532351,65.0233825 83.3525621,64.8231581 83.1055728,64.3291796 C83.0361451,64.1903242 83,64.0372111 83,63.881966 L83,62.736068 C83,61.9785239 83.4280048,61.2859976 84.1055728,60.9472136 Z" id="Rectangle-26-Copy-7" fill="#FFD44C"></path>
                            <path d="M84.1055728,79.9472136 L97.5527864,73.2236068 C98.0467649,72.9766175 98.6474379,73.1768419 98.8944272,73.6708204 C98.9638549,73.8096758 99,73.9627889 99,74.118034 L99,75.263932 C99,76.0214761 98.5719952,76.7140024 97.8944272,77.0527864 L84.4472136,83.7763932 C83.9532351,84.0233825 83.3525621,83.8231581 83.1055728,83.3291796 C83.0361451,83.1903242 83,83.0372111 83,82.881966 L83,81.736068 C83,80.9785239 83.4280048,80.2859976 84.1055728,79.9472136 Z" id="Rectangle-26-Copy-8" fill="#004A80"></path>
                            <path d="M24.1055728,96.9472136 L56.5527864,80.7236068 C57.0467649,80.4766175 57.6474379,80.6768419 57.8944272,81.1708204 C57.9638549,81.3096758 58,81.4627889 58,81.618034 L58,82.763932 C58,83.5214761 57.5719952,84.2140024 56.8944272,84.5527864 L24.4472136,100.776393 C23.9532351,101.023382 23.3525621,100.823158 23.1055728,100.32918 C23.0361451,100.190324 23,100.037211 23,99.881966 L23,98.736068 C23,97.9785239 23.4280048,97.2859976 24.1055728,96.9472136 Z" id="Rectangle-26-Copy-5" fill="#FFD44C"></path>
                            <path d="M44.1055728,118.947214 L97.5527864,92.2236068 C98.0467649,91.9766175 98.6474379,92.1768419 98.8944272,92.6708204 C98.9638549,92.8096758 99,92.9627889 99,93.118034 L99,94.263932 C99,95.0214761 98.5719952,95.7140024 97.8944272,96.0527864 L44.4472136,122.776393 C43.9532351,123.023382 43.3525621,122.823158 43.1055728,122.32918 C43.0361451,122.190324 43,122.037211 43,121.881966 L43,120.736068 C43,119.978524 43.4280048,119.285998 44.1055728,118.947214 Z" id="Rectangle-26-Copy-6" fill="#228DFF"></path>
                        </g>
                        <polygon id="Rectangle-12" fill="#FFFFFF" points="141 37 181 17 181 61 141 81"></polygon>
                        <polygon id="Rectangle-12-Copy-6" fill="#FFFFFF" points="141 91 181 71 181 115 141 135"></polygon>
                        <path d="M146,44 L176,29 L176,31 L146,46 L146,44 Z M146,49 L176,34 L176,36 L146,51 L146,49 Z M146,54 L176,39 L176,41 L146,56 L146,54 Z M146,59 L176,44 L176,46 L146,61 L146,59 Z M146,64 L176,49 L176,51 L146,66 L146,64 Z M146,69 L166,59 L166,61 L146,71 L146,69 Z" id="Combined-Shape" fill="#233141" opacity="0.200000018"></path>
                        <path d="M146,98 L176,83 L176,85 L146,100 L146,98 Z M146,103 L176,88 L176,90 L146,105 L146,103 Z M146,108 L176,93 L176,95 L146,110 L146,108 Z M146,113 L176,98 L176,100 L146,115 L146,113 Z M146,118 L176,103 L176,105 L146,120 L146,118 Z M146,123 L166,113 L166,115 L146,125 L146,123 Z" id="Combined-Shape-Copy" fill="#233141" opacity="0.200000018"></path>
                    </g>
                    <g id="stul" transform="translate(88.000000, 157.000000)">
                        <path d="M24,61 C24,61.5522847 23.3284271,62 22.5,62 C21.6715729,62 21,61.5522847 21,61 L21,31 L24,31 L24,61 Z M47,74 C47,74.5522847 46.3284271,75 45.5,75 C44.6715729,75 44,74.5522847 44,74 L44,44 L47,44 L47,74 Z M90,53 C90,53.5522847 89.3284271,54 88.5,54 C87.6715729,54 87,53.5522847 87,53 L87,23 L90,23 L90,53 Z" id="Combined-Shape" fill="#9EB9D7"></path>
                        <g id="Combined-Shape">
                            <use fill="black" fill-opacity="1" filter="url(#filter-12)" xlink:href="#path-11"></use>
                            <use fill="#FFFFFF" fill-rule="evenodd" xlink:href="#path-11"></use>
                        </g>
                    </g>
                    <g id="lidi" transform="translate(245.000000, 202.000000) scale(-1, 1) translate(-245.000000, -202.000000) translate(198.000000, 131.000000)">
                        <g id="typek1">
                            <path d="M46.8526642,64.3387573 C48.562159,64.3387573 49.7813451,63.5538127 49.7813451,61.739659 C49.7813451,59.9255054 48.7287923,57.6335855 47.0192974,57.6335855 C45.3098025,57.6335855 43.9239832,59.1042476 43.9239832,60.9184012 C43.9239832,62.7325549 45.1431693,64.3387573 46.8526642,64.3387573 Z" id="Oval-2" fill="#FFE363"></path>
                            <path d="M38.7043121,46.9015456 C40.1186585,49.3429567 41.3412471,51.013424 42.9473513,53.3299201 C44.0042647,54.8543144 45.2392813,55.8396403 46.6529083,57.4700069 C47.091627,57.9759908 45.067452,58.5167097 44.7027598,59.2217517 C44.2059596,60.1821921 44.5846626,62.3342701 43.6069468,61.7644274 C37.4795126,58.1931702 33.74508,50.9604306 38.2438095,46.2860402 L38.7043121,46.9015456 Z" id="Path-13" fill="#0065D0"></path>
                            <path d="M15.1499534,119.540087 C15.019014,125.143702 13.9681851,124.081817 21.9558013,126.870977 C28.4826514,129.150059 31.0623225,128.532782 26.4981212,123.990499 C25.0184364,122.51792 23.3577567,121.242869 21.7378963,119.930371 C19.3777918,118.018087 20.1808069,118.515814 17.171891,118.433215" id="Path-9" fill="#000000"></path>
                            <path d="M31.4833568,110.99649 C31.5092138,112.299036 30.7436675,113.114922 31.4833568,114.056382 C33.4158641,116.516033 38.1763762,117.863435 41.0727162,118.811462 C41.2585328,118.872283 44.3320802,119.321751 42.7569242,117.149555 C40.9354654,114.637699 39.5793495,112.754893 37.3538973,110.60274 C36.1913852,109.478518 34.0810361,110.012375 32.841842,110.060768" id="Path-10" fill="#000000"></path>
                            <path d="M14.7627432,65.416772 C15.1234382,72.0142558 14.3961096,78.6016793 14.3708691,85.2092235 C14.3352188,94.5418883 13.6509533,113.491173 14.7627432,119.879054 C14.9949024,121.212944 21.7000986,120.554152 21.7727996,119.879054 C22.1500514,116.375915 22.7961323,111.736655 23.0464429,108.268484 C23.7043382,99.1530336 24.3423734,92.8636026 25.3013227,83.2086194 C25.5748665,80.4545006 25.8227317,74.0425718 26.7448261,74.0425718 C27.242803,74.0425718 28.6832729,88.0034346 28.9762411,91.4534385 C29.2720117,94.9364441 30.019897,98.318715 30.4412288,101.788432 C30.8068625,104.799468 31.0391581,107.912312 31.0391581,110.869446 C31.0391581,112.794171 37.3044534,111.810452 37.5075537,110.16604 C37.759786,108.123828 37.3044534,104.675126 37.5075537,101.941264 C39.0281641,81.472865 37.0312789,87.0104001 38.0849206,71.1147982 C38.2473966,68.6636291 38.4278428,62.8820861 36.7364871,61.1100465 C34.7555998,59.0346637 23.5683059,61.6969415 21.6559344,61.8151834 C20.0705081,61.9132103 18.5196965,62.3752571 17.0004951,62.8449246 C16.1926716,63.0946666 15.4467543,63.951949 14.7627432,65.416772 Z" id="Path-8" fill="#002C4C"></path>
                            <polygon id="Rectangle" fill="#2F3F50" points="0 68.3838916 27.1208487 80.3286762 22.993763 102.725147 0 89.2872646"></polygon>
                            <polygon id="Rectangle-2" fill="#233141" points="22.993763 81.8217742 27.7104323 80.0300565 27.7104323 100.93343 22.993763 102.725147"></polygon>
                            <polygon id="Rectangle-4" fill="#465667" points="4.71666933 66.5921739 27.7104323 80.0300565 22.993763 81.8217742 0 68.3838916"></polygon>
                            <path d="M21.7323114,20.8177874 C18.3995021,22.8375469 14.3843242,25.2723839 12.4454091,27.8715387 C11.5500199,29.0718261 11.8347015,35.7863349 11.8346395,37.1282162 C11.8341968,46.7233761 12.0990397,56.3168209 12.2969582,65.909886 C12.3027051,66.1884379 12.1912717,66.6255439 12.4454091,66.7320855 C18.8108486,69.4006588 25.0042239,70.0992225 31.3299114,67.8370747 C33.1610213,67.1822461 38.6830528,65.4800383 38.6830528,63.45813 C38.6830528,57.2398801 41.4353719,35.5873244 36.5388043,24.2069896 C36.029527,23.0233552 34.9922154,20.4343763 29.6853834,19.4636211 C27.8674763,19.1310794 23.9833248,20.4343763 22.2466416,21.128331 L21.7323114,20.8177874 Z" id="Path-4" fill="#228DFF"></path>
                            <path d="M15.4257055,72.9506446 L15.4257055,71.8019582 L16.416304,71.6059329 C17.2433621,72.094049 17.7422913,72.4401967 17.9130915,72.6443759 C18.0838918,72.848555 18.1492133,73.775521 18.1090562,75.4252736 C17.9562969,75.8234331 17.6508499,76.0225129 17.1927151,76.0225129 C16.7345803,76.0225129 16.3915038,75.8234331 16.1634857,75.4252736 L16.1634857,73.4021188 L15.4257055,72.9506446 Z M9.77306341,72.3512638 C9.77306341,71.4241838 9.77306341,70.6394546 9.77306341,69.9970762 C9.77306341,69.3546978 10.1723933,69.0434247 10.971053,69.0632567 L11.7179185,69.4826276 L11.7179185,72.3512638 L10.5717231,72.8580308 L9.77306341,72.3512638 Z" id="Combined-Shape" fill="#000000"></path>
                            <path d="M11.3712935,66.7235223 C11.2329208,68.2012922 10.9472397,69.672457 10.9561754,71.1568321 C10.9667161,72.9078253 14.0565286,74.2830067 15.4181081,73.3857111 C15.8404186,73.1074039 15.3033917,72.2522339 15.6383216,71.8709826 C15.9529855,71.5128003 16.7451047,71.9447868 17.0241795,71.5575176 C17.5015225,70.8951136 15.3733503,67.3018003 14.9900746,67.0994953 C14.0545658,66.6057041 12.9048301,66.774489 11.8622079,66.6119858" id="Path-7" fill="#FFDE48"></path>
                            <path d="M12.1235612,28.3916464 C10.4387912,31.1799453 9.65293573,36.6366084 9.73378346,41.0008778 C9.81192681,45.2191613 9.73930127,49.3931528 9.85230273,53.6763811 C9.96708841,58.0272389 10.4387912,60.946361 10.4387912,66.1058222 C10.4387912,68.2759902 16.0757622,68.2759902 16.0983021,67.1071909 C16.2171281,60.945515 16.2171281,50.1580248 15.9251248,41.6908867 C15.6584004,33.9567557 15.2626521,32.4696629 13.8845183,26.5771456 L12.1235612,28.3916464 Z" id="Path-6" fill="#0065D0"></path>
                            <path d="M27.4470043,18.8632398 L32.0297483,24.0024573 L30.3556931,24.3216299 L31.464361,39.3407992 C28.1064253,31.6085001 26.1337303,27.4898779 25.5462758,26.9849328 C24.9588212,26.4799876 24.3670484,26.9246138 23.7709572,28.3188115 C20.4227675,24.0010527 19.6591718,21.2524284 21.4801698,20.0729388 C23.3011679,18.8934491 25.2901127,18.4902162 27.4470043,18.8632398 Z" id="Path-5" fill="#FFFFFF"></path>
                            <polygon id="Rectangle-24" fill="#FFE363" points="21.5198038 16.7226984 28.300016 16.7226984 28.300016 25.0840476 21.5198038 20.3061337"></polygon>
                            <path d="M32.390302,6.34461962 C32.8010846,9.77552631 33.192932,11.4013139 32.5590795,15.1248426 C30.729208,25.8743152 11.9801978,15.733707 20.9083185,6.43862029" id="Path-3" fill="#FFE363"></path>
                            <path d="M28.7830329,1.39656638 C30.7014695,2.40586171 31.989057,4.30831597 34.2500333,4.0096952 C34.5101283,3.97534289 34.9630829,3.30798993 34.9043774,3.56695186 C34.7009663,4.46423924 34.3164061,5.33990413 33.7800026,6.08309515 C30.7982607,10.2143211 28.3253063,8.7105205 24.0632253,9.05204994 C22.3883879,9.18625815 22.6487622,11.3772062 22.6487622,12.2497518 C22.6487622,16.9436364 22.1695545,18.0022466 21.2359958,17.5383463 C16.0218231,14.9473405 14.7625611,8.53532235 17.0997006,3.88212292 C19.4371956,-0.443975491 24.5930527,-0.807794936 28.7830329,1.39656638 Z" id="Path-2" fill="#004A80"></path>
                            <ellipse id="Oval" fill="#FFE363" transform="translate(22.109387, 12.542024) rotate(-30.000000) translate(-22.109387, -12.542024) " cx="22.1093875" cy="12.5420238" rx="1.47395917" ry="2.0903373"></ellipse>
                        </g>
                        <g id="zena1" transform="translate(46.000000, 19.000000)">
                            <polygon id="Rectangle-5" fill="#FFD44C" points="26.7 16.6779661 34.2 16.6779661 35.1 21.1452785 27.3 23.2300242"></polygon>
                            <path d="M34.6880956,85.5039322 C34.959893,87.1703229 34.5089924,88.8176185 34.6034876,90.5031043 C34.9810219,97.2370805 34.9367872,104.006569 35.5022359,110.727566 C35.5389445,111.163888 37.1416238,111.787901 37.2586983,111.365767 L39.1327428,111.298765 C39.5913841,109.645047 39.4785427,107.895602 39.6135368,106.185593 C40.142012,99.4912415 41.3051909,92.8425829 41.4206634,86.1286837 C41.4305339,85.5547893 38.2388762,85.3497539 34.9585693,85.7378372" id="Path-15-Copy" fill="#FFD44C" transform="translate(38.005456, 98.504999) rotate(-5.000000) translate(-38.005456, -98.504999) "></path>
                            <path d="M40.4505635,110.577561 C40.4635816,112.135815 40.7285984,114.121052 38.6757057,114.121052 C33.7463175,114.121052 21.1525653,111.200508 33.7463175,110.141305 C35.8035598,109.968279 37.8714368,110.32404 39.9339965,110.415408 L40.4505635,110.577561 Z" id="Path-20-Copy" fill="#218DFF" transform="translate(34.392235, 112.107779) rotate(1.000000) translate(-34.392235, -112.107779) "></path>
                            <path d="M24.490616,93.9075734 C24.7624133,95.5739641 24.9115127,97.2212597 25.006008,98.9067455 C25.3835423,105.640722 25.3393076,112.41021 25.9047563,119.131207 C25.9414648,119.567529 28.4441442,120.191542 28.5612186,119.769408 L29.2398295,119.598579 C29.6984708,117.944861 29.8844879,116.221373 30.0194819,114.511364 C30.5479571,107.817012 31.1134192,101.11644 31.2288917,94.4025409 C31.2387622,93.8286465 29.5413965,93.7533952 26.2610896,94.1414784" id="Path-15" fill="#FFD44C"></path>
                            <path d="M20.1563701,47.9867932 C17.1156609,55.3254762 16.1901522,52.1655587 6.57449678,48.072613 C5.91464129,47.7917426 2.62508088,45.6720636 2.55370058,44.5413824 C2.50846489,43.824838 3.23932806,42.6950232 3.93745061,42.8824594 C7.93160817,43.9548347 11.2928009,46.7571338 15.2519297,47.950679 C15.8122181,48.1195873 15.835245,46.7225214 16.4154532,46.6441606 C17.5633454,46.4891305 18.6856508,47.1038076 19.8207495,47.3336311" id="Path-18" fill="#FFD44C" transform="translate(11.354036, 47.626581) rotate(3.000000) translate(-11.354036, -47.626581) "></path>
                            <path d="M4.70484558,43.4136624 C4.66753873,42.9628508 4.91278266,39.9646377 3.32324696,40.0084432 C2.89897475,40.0201356 3.38722233,41.2215795 2.96278741,41.2207929 C1.11613051,41.2173706 0.734053371,37.8781636 0.0675716237,41.8640527 C-0.502873266,45.2755941 2.66891158,47.3372918 4.67374787,43.7132549 L4.70484558,43.4136624 Z" id="Path-19" fill="#FFD44C"></path>
                            <path d="M38.5858624,20.377729 C46.7848019,26.0925437 45.6594005,28.6038216 45.9692527,39.0439328 C46.0061887,40.2884499 45.7070131,44.5287912 44.8002823,45.1714204 C43.2304905,46.2839821 41.0168598,45.9186785 39.1251486,46.2923076" id="Path-17" fill="#F7F8FE"></path>
                            <path d="M30.7067387,19.9539952 C27.4528284,20.0889939 20.1170246,22.9711012 19.5682736,27.2993592 C18.1574184,38.4274398 23.6712866,41.0844926 23.1297449,52.1349444 C22.7353534,60.1827156 22.0848811,61.1053114 21.0635196,64.8709851 C18.4117332,74.6478971 18.164472,74.2085355 16.9230438,84.1842416 C16.8108337,85.0859248 14.9754295,97.3150167 23.8796233,96.7815542 C33.8716879,96.1829158 41.1331066,91.7817673 44.2302708,89.4789495 C53.9389111,82.2603366 41.0421045,60.1717071 40.4078239,50.2529495 C39.865721,41.7756504 42.7226581,42.9583856 43.1935837,32.6946402 C43.6334601,23.107607 43.5751885,21.157387 33.8716879,20.4545736 L30.7067387,19.9539952 Z" id="Path-14" fill="#FFFFFF"></path>
                            <path d="M28.5,18.464891 C33.4705627,18.464891 38.4,14.4647233 38.4,9.53026634 C38.4,4.59580938 32.9706707,1.10273858 28.0001079,1.10273858 C23.0295452,1.10273858 22.2,4.59580938 22.2,9.53026634 C22.2,14.4647233 23.5294373,18.464891 28.5,18.464891 Z" id="Oval-3" fill="#FFD44C"></path>
                            <path d="M29.55,8.63680387 C32.9933431,11.4182464 40.5,8.5258409 40.5,6.55205811 C40.5,4.57827533 35.0063492,0 30.45,0 C25.8936508,0 22.2,1.60006709 22.2,3.57384988 C22.2,5.54763267 26.1066569,5.85536139 29.55,8.63680387 Z" id="Oval-5" fill="#228DFF"></path>
                            <path d="M34.7970094,32.9817479 C42.6191871,33.4341626 45.3,23.1239031 45.3,16.3801453 C45.3,9.63638743 38.0735065,1.19128329 33.6,1.19128329 C29.1264935,1.19128329 23.1082886,3.22649884 26.8807083,11.8098349 C30.6531281,20.3931709 26.9748316,32.5293332 34.7970094,32.9817479 Z" id="Oval-6" fill="#228DFF"></path>
                            <ellipse id="Oval-4" fill="#FFD44C" transform="translate(26.400000, 12.210654) rotate(16.000000) translate(-26.400000, -12.210654) " cx="26.4" cy="12.2106538" rx="1.5" ry="2.08474576"></ellipse>
                            <path d="M22.3678501,23.4029808 C20.1757842,25.3003235 18.803129,26.1752553 17.8718785,29.6795974 C16.7790319,33.792034 16.7834106,38.1196095 16.0568283,42.3111343 C15.7809999,43.9023396 14.0590238,45.6081773 14.8679173,47.0089188 C15.8151064,48.6491435 18.7682685,50.6593408 20.0937198,49.3017227 C24.4144173,44.8761676 28.7072697,27.2863424 24.7948593,23.1302375 C24.2592077,22.5612214 23.4502046,22.6521358 22.3678501,23.4029808 Z" id="Path-16" fill="#F7F8FE" transform="translate(20.492380, 36.255882) rotate(-3.000000) translate(-20.492380, -36.255882) "></path>
                            <path d="M29.50403,119.443858 C29.5170946,121.007675 29.7830576,123 27.7228352,123 C22.7758469,123 10.1371294,120.069029 22.7758469,119.006044 C24.8404344,118.832401 26.9156947,119.189432 28.9856186,119.281126 L29.50403,119.443858 Z" id="Path-20" fill="#218DFF"></path>
                        </g>
                    </g>
                    <g id="kytka" transform="translate(181.000000, 86.000000)">
                        <ellipse id="Oval-7" fill="#117BED" cx="12.0638298" cy="41.8867925" rx="11.4893617" ry="5.66037736"></ellipse>
                        <path d="M8.5838978,47.8782913 C7.90179498,41.4592958 4.33658441,40.7562021 1.75845011,34.6459386 C-0.0266768501,30.4151288 6.75284988,30.5380796 7.78230202,29.1698033 C10.7123219,25.2754242 2.06433585,22.0709773 2.23270962,17.8529537 C2.41572459,13.2681451 8.77913405,15.3653162 8.95174601,10.5837287 C9.03760227,8.20539262 6.81079094,5.73096372 7.75799487,3.54176676 C10.1239754,-1.92653548 20.2655883,2.09912057 19.7333174,7.61334177 C19.5200191,9.8230699 16.7135722,11.8500099 17.5440534,13.9133723 C18.0326013,15.127188 27.351923,18.4774923 25.2002655,22.9240605 C23.8582276,25.6974865 16.9651096,27.4404131 18.9662918,29.7967726 L19.4367702,31.3902753 C20.7637171,32.9527338 24.3078807,33.6216629 23.9130668,35.6215199 C23.4814162,37.8079667 19.7749502,37.4979817 17.9669978,38.8351369 C12.0477898,43.2129624 13.5517219,42.9529908 13.2789588,49.864049" id="Path-21" fill="#1CCED1" transform="translate(13.491419, 25.402790) rotate(-3.000000) translate(-13.491419, -25.402790) "></path>
                        <g id="Group-4" opacity="0.800000012" transform="translate(6.000000, 6.000000)" stroke="#073D48" stroke-linecap="round" stroke-linejoin="round">
                            <path d="M6.10369653,44.8032991 C6.11521992,42.3410163 6.76082592,36.2515359 7.05172301,35.5042165 C8.34094995,32.1921716 4.23596584,30.0442847 5.32831876,25.6803418 C6.62544483,20.4983314 6.48343056,12.2398256 4.90227594,0.904824334" id="Path-22" stroke-width="0.7" transform="translate(6.103697, 22.854062) scale(-1, 1) translate(-6.103697, -22.854062) "></path>
                            <path d="M6.03072839,19.6488804 C8.1672036,16.5831634 11.0056078,14.8528996 14.5459408,14.458089" id="Path-23" stroke-width="0.5"></path>
                            <path d="M5.92085922,16.5388097 C3.24433055,13.9931557 1.39545176,12.7770984 0.374222861,12.8906377" id="Path-24" stroke-width="0.5"></path>
                            <path d="M5.05877273,34.0888291 C8.88646797,31.3179706 11.3275627,29.4969691 12.3820569,28.6258245" id="Path-25" stroke-width="0.5"></path>
                            <path d="M5.96372928,30.7812749 C3.44103307,29.5677945 1.71100353,29.0895083 0.77364065,29.3464163" id="Path-26" stroke-width="0.5"></path>
                        </g>
                        <path d="M0.804214893,43.0186688 C1.86859476,45.6024363 6.50523049,47.5471698 12.0638298,47.5471698 C17.6224291,47.5471698 22.2590648,45.6024363 23.3234447,43.0186688 L20.6808511,56.0377358 L20.6620059,56.0377358 C20.3663926,58.2503864 16.6298415,60 12.0638298,60 C7.49781803,60 3.76126696,58.2503864 3.46565368,56.0377358 L3.44680851,56.0377358 L0.804214893,43.0186688 Z" id="Combined-Shape" fill="url(#linearGradient-9)"></path>
                    </g>
                </g>
            </g>
        </g>
    </g>
</svg>