<?xml version="1.0" encoding="UTF-8"?>
<svg width="116px" height="148px" viewBox="0 0 116 148" version="1.1" xmlns="http://www.w3.org/2000/svg" xmlns:xlink="http://www.w3.org/1999/xlink">
    <!-- Generator: Sketch 49.3 (51167) - http://www.bohemiancoding.com/sketch -->
    <title>box</title>
    <desc>Created with Sketch.</desc>
    <defs>
        <filter x="-12.0%" y="-24.0%" width="124.0%" height="148.0%" filterUnits="objectBoundingBox" id="filter-1">
            <feGaussianBlur stdDeviation="4" in="SourceGraphic"></feGaussianBlur>
        </filter>
    </defs>
    <g id="Symbols" stroke="none" stroke-width="1" fill="none" fill-rule="evenodd">
        <g id="FOOTER" transform="translate(-122.000000, 56.000000)">
            <g transform="translate(0.000000, -56.000000)" id="box">
                <g transform="translate(130.000000, 0.000000)">
                    <polygon id="Rectangle-11-Copy" fill="#161E27" opacity="0.700000048" filter="url(#filter-1)" points="50 89.9047619 100 114.904762 50 139.904762 0 114.904762"></polygon>
                    <polygon id="Rectangle-11" fill="#F2F8FC" points="50 11.3333333 100 36.3333333 50 71.3333333 0 36.3333333"></polygon>
                    <polygon id="Rectangle-11-Copy-4" fill="#228DFF" points="50.3333333 20 83.6666667 36.6666667 50.3333333 53.3333333 17 36.6666667"></polygon>
                    <polygon id="Rectangle-11-Copy-5" fill="#51B1FE" points="50 10 83.3333333 26.6666667 50 43.3333333 16.6666667 26.6666667"></polygon>
                    <polygon id="Rectangle-11-Copy-2" fill="#8BD3FF" points="50 0 83.3333333 16.6666667 50 33.3333333 16.6666667 16.6666667"></polygon>
                    <polygon id="Rectangle-3" fill="#D9EAF7" points="0 36.3333333 50 61.3333333 50 125.619048 0 100.619048"></polygon>
                    <polygon id="Rectangle-3-Copy-2" fill="#EAF5FD" transform="translate(75.000000, 80.976190) scale(-1, 1) translate(-75.000000, -80.976190) " points="50 36.3333333 100 61.3333333 100 125.619048 50 100.619048"></polygon>
                    <path d="M74.4369351,80.6248221 C75.1980316,80.2264356 75.8149811,80.5120297 75.8149811,81.2608097 C75.8149811,82.0119078 75.1980316,82.9422118 74.4369351,83.3405983 C73.6758385,83.7389847 73.0588891,83.4545497 73.0588891,82.7034516 C73.0588891,81.9546716 73.6758385,81.0232086 74.4369351,80.6248221 Z M78.0625222,78.7270538 C78.8236188,78.3286673 79.4405683,78.6142614 79.4405683,79.3630414 C79.4405683,80.1141395 78.8236188,81.0444435 78.0625222,81.44283 C77.3014257,81.8412164 76.6844762,81.5567814 76.6844762,80.8056833 C76.6844762,80.0569034 77.3014257,79.1254403 78.0625222,78.7270538 Z M76.3800376,84.3403431 C80.6560164,82.1021355 84.4188316,74.3706405 84.4188316,67.0729338 C84.4188316,59.7763863 81.6823435,60.166734 76.3800376,62.9421597 C71.0777317,65.7175855 68.0817789,68.3278123 68.0817789,75.6243598 C68.0817789,82.9220665 71.6773835,86.8018886 76.3800376,84.3403431 Z M85.8095625,86.0647767 C85.2318211,85.4016562 84.584889,84.9868684 83.9206593,84.7155906 C83.2541232,84.444361 82.5852808,84.3053171 81.933736,84.157219 C81.6258379,84.086564 81.3098675,84.03868 80.9881312,84.0135188 C81.3098675,83.6515399 81.6258379,83.2717153 81.933736,82.8787294 C83.4213338,80.9838496 84.715198,78.800919 85.8095625,76.3990245 C86.1958767,75.5511933 85.9767731,74.8336451 85.3217688,74.7963134 C84.6656114,74.7595853 83.8214861,75.415866 83.4340188,76.2643008 C82.4872608,78.344362 81.4101939,80.1344692 80.2650895,81.5915953 C79.0381096,83.1483741 77.8307338,84.2335688 76.5899158,84.9549238 C76.4769044,85.0106009 76.3638931,85.0662779 76.2497287,85.1260359 C76.1367174,85.1851903 76.0225529,85.2484255 75.9095416,85.3110572 C74.6687236,85.8886835 73.4625009,86.0668568 72.2343678,85.7951762 C71.0892635,85.5368312 70.0133497,84.8736748 69.0654386,83.7853545 C68.6791244,83.341946 67.833846,83.5699625 67.1788417,84.2930018 C66.5226842,85.0166447 66.3047338,85.9629634 66.691048,86.4075311 C67.7854125,87.6626036 69.0781235,88.4916238 70.5657213,88.8291746 C70.8736194,88.8998296 71.1895898,88.9488727 71.5124793,88.9734303 C71.1895898,89.3360128 70.8736194,89.7146784 70.5657213,90.1076642 C69.9153297,90.9372446 69.2453341,91.7770865 68.5799512,92.7454925 C67.9157215,93.7121357 67.2676363,94.8047842 66.691048,96.0721242 C66.3047338,96.9199553 66.5226842,97.6392663 67.1788417,97.6759944 C67.833846,97.7133261 68.6791244,97.0564417 69.0654386,96.2086106 C69.5094115,95.2355522 69.9649163,94.4708916 70.4769267,93.7218588 C70.9877839,92.9757478 71.5689849,92.2426577 72.235521,91.3941947 C72.5607168,90.9817227 72.8836062,90.6029128 73.2076488,90.254795 C73.1684408,90.3448641 73.130386,90.4354886 73.0923312,90.5284314 C72.157105,92.7844354 71.1942025,95.7399555 71.1895898,98.5346469 C71.1895898,99.2834268 71.8065393,99.5678618 72.5676358,99.1694754 C73.3287324,98.7710889 73.9456818,97.8407849 73.9456818,97.092005 C73.9410691,94.9384896 74.7229229,92.4544453 75.533606,90.5093614 C75.7803858,89.9165468 76.0271656,89.3758918 76.2497287,88.9128224 C76.4849767,89.1536428 76.7455946,89.453048 77.0039061,89.8116155 C77.8019043,90.9077007 78.5583882,92.5540665 78.5537755,94.679956 C78.5537755,95.4287359 79.1707249,95.7131709 79.9329747,95.3141808 C80.6940712,94.9157944 81.3110207,93.9854904 81.3110207,93.2367104 C81.306408,90.446848 80.3423524,88.49997 79.4082793,87.2224273 C79.3690713,87.1699268 79.3310165,87.1191409 79.2929617,87.0695141 C79.6158511,87.0790033 79.9398937,87.1191848 80.2650895,87.1912174 C80.9304724,87.3425041 81.5116734,87.4671494 82.0236838,87.6778531 C82.5356942,87.8908751 82.9900458,88.1792827 83.4340188,88.6863978 C83.6911771,88.9818183 84.1512946,88.9797506 84.6229438,88.7328717 C84.8604982,88.6085268 85.1015121,88.4220978 85.3217688,88.179306 C85.9767731,87.4562667 86.1958767,86.5081853 85.8095625,86.0647767 Z" id="logo" fill="#228DFF" fill-rule="nonzero"></path>
                </g>
            </g>
        </g>
    </g>
</svg>