<?xml version="1.0" encoding="UTF-8"?>
<svg width="12px" height="10px" viewBox="0 0 12 10" version="1.1" xmlns="http://www.w3.org/2000/svg" xmlns:xlink="http://www.w3.org/1999/xlink">
    <!-- Generator: Sketch 50 (54983) - http://www.bohemiancoding.com/sketch -->
    <title>Shape</title>
    <desc>Created with Sketch.</desc>
    <defs></defs>
    <g id="Website" stroke="none" stroke-width="1" fill="none" fill-rule="evenodd">
        <g id="papers" transform="translate(-1257.000000, -525.000000)" fill="#000000" fill-rule="nonzero">
            <g id="Group" transform="translate(1163.000000, 522.000000)">
                <g id="twitter" transform="translate(94.000000, 3.000000)">
                    <path d="M11.7647059,1.13174068 C11.3322133,1.32398614 10.8667643,1.45366228 10.3783892,1.51169414 C10.8770334,1.21317634 11.259375,0.740324143 11.4396797,0.176244909 C10.9732755,0.453030612 10.4569591,0.653873388 9.90696991,0.762295053 C9.46683527,0.293263886 8.83947026,0 8.14523727,0 C6.812415,0 5.73178056,1.08063443 5.73178056,2.41369552 C5.73178056,2.60259758 5.75303503,2.78672336 5.79434989,2.96368471 C3.78831028,2.8629051 2.00962183,1.90215542 0.819132842,0.441806343 C0.611364453,0.798117189 0.492434962,1.21269871 0.492434962,1.65546031 C0.492434962,2.49274303 0.918479565,3.23163429 1.56614378,3.66436569 C1.1706674,3.65170854 0.798356003,3.54304806 0.472852194,3.36226568 C0.47261338,3.37229588 0.47261338,3.38256489 0.47261338,3.3928339 C0.47261338,4.56206842 1.30464219,5.53738577 2.40891923,5.75948301 C2.20640476,5.81441029 1.99314364,5.84402326 1.77295691,5.84402326 C1.61725003,5.84402326 1.46608062,5.82897796 1.31873223,5.80055906 C1.62608616,6.75939824 2.5173409,7.45745226 3.57337747,7.47679621 C2.74731901,8.12422161 1.70680537,8.51014543 0.575781132,8.51014543 C0.381147526,8.51014543 0.188902063,8.49868234 0,8.4762338 C1.06845491,9.16139186 2.33703615,9.56068927 3.69994901,9.56068927 C8.13974454,9.56068927 10.5672913,5.88294998 10.5672913,2.69334699 C10.5672913,2.58874636 10.565142,2.48438453 10.5606045,2.38073915 C11.0320238,2.04114531 11.4413514,1.61581714 11.7647059,1.13174068 Z" id="Shape"></path>
                </g>
            </g>
        </g>
    </g>
</svg>