<svg width="22" height="22" viewBox="0 0 22 22" fill="none" xmlns="http://www.w3.org/2000/svg">
<path fill-rule="evenodd" clip-rule="evenodd" d="M0 11C0 4.92339 4.92339 0 11 0C17.0766 0 22 4.92339 22 11C22 17.0766 17.0766 22 11 22C4.92339 22 0 17.0766 0 11ZM15.9722 7.09677H18.9528C18.0347 5.23387 16.4911 3.73911 14.5883 2.89637C15.196 4.04516 15.675 5.47782 15.9722 7.09677ZM11 2.12903C11.825 2.12903 13.1556 3.95645 13.8032 7.09677H8.19677C8.84435 3.95645 10.175 2.12903 11 2.12903ZM2.30645 9.22581C2.19113 9.79798 2.12903 10.3923 2.12903 11C2.12903 11.6077 2.19113 12.202 2.30645 12.7742H5.75282C5.70847 12.1931 5.67742 11.6077 5.67742 11C5.67742 10.3923 5.70847 9.80685 5.75282 9.22581H2.30645ZM3.04718 14.9032H6.02782C6.325 16.5222 6.80403 17.9548 7.41169 19.1036C5.50887 18.2609 3.96532 16.7661 3.04718 14.9032ZM3.04718 7.09677H6.02782C6.325 5.47782 6.80403 4.04516 7.41169 2.89637C5.50887 3.73911 3.96532 5.23387 3.04718 7.09677ZM11 19.871C10.175 19.871 8.84435 18.0435 8.19677 14.9032H13.8077C13.1556 18.0435 11.825 19.871 11 19.871ZM7.80645 11C7.80645 11.621 7.84194 12.2065 7.89073 12.7742H14.1093C14.1581 12.2065 14.198 11.621 14.198 11C14.198 10.379 14.1625 9.79355 14.1137 9.22581H7.89073C7.84194 9.79355 7.80645 10.379 7.80645 11ZM14.5883 19.1036C15.196 17.9548 15.6706 16.5222 15.9722 14.9032H18.9528C18.0347 16.7661 16.4911 18.2609 14.5883 19.1036ZM16.3226 11C16.3226 11.6077 16.2915 12.1931 16.2472 12.7742H19.6935C19.8089 12.202 19.871 11.6077 19.871 11C19.871 10.3923 19.8089 9.79798 19.6935 9.22581H16.2472C16.2915 9.80685 16.3226 10.3923 16.3226 11Z" fill="#233141"/>
</svg>
