<?xml version="1.0" encoding="UTF-8"?>
<svg width="20px" height="17px" viewBox="0 0 20 17" version="1.1" xmlns="http://www.w3.org/2000/svg" xmlns:xlink="http://www.w3.org/1999/xlink">
    <!-- Generator: Sketch 50 (54983) - http://www.bohemiancoding.com/sketch -->
    <title>twitter</title>
    <desc>Created with Sketch.</desc>
    <defs></defs>
    <g id="Symbols" stroke="none" stroke-width="1" fill="none" fill-rule="evenodd">
        <g id="FOOTER" transform="translate(-930.000000, -337.000000)" fill="#FFFFFF" fill-rule="nonzero">
            <g transform="translate(0.000000, -56.000000)" id="twitter">
                <g transform="translate(930.000000, 393.000000)">
                    <path d="M20,1.92395916 C19.2647626,2.25077644 18.4734994,2.47122587 17.6432617,2.56988003 C18.4909567,2.06239977 19.1409374,1.25855104 19.4474555,0.299616345 C18.6545683,0.770152041 17.7768305,1.11158476 16.8418489,1.29590159 C16.09362,0.498548606 15.0270994,0 13.8469034,0 C11.5811055,0 9.74402696,1.83707854 9.74402696,4.10328238 C9.74402696,4.42441589 9.78015955,4.73742971 9.85039482,5.03826401 C6.44012748,4.86693868 3.4163571,3.23366421 1.39252583,0.751070783 C1.03931957,1.35679922 0.837139435,2.0615878 0.837139435,2.81428252 C0.837139435,4.23766315 1.56141526,5.49377829 2.66244443,6.22942168 C1.99013458,6.20790451 1.3572052,6.0231817 0.80384873,5.71585165 C0.803442746,5.73290299 0.803442746,5.75036031 0.803442746,5.76781763 C0.803442746,7.75551631 2.21789172,9.41355581 4.0951627,9.79112113 C3.75088809,9.88449749 3.38834419,9.93483953 3.01402675,9.93483953 C2.74932505,9.93483953 2.49233705,9.90926253 2.24184479,9.86095041 C2.76434647,11.490977 4.27947953,12.6776688 6.07474169,12.7105536 C4.67044232,13.8111767 2.90156913,14.4672472 0.978827924,14.4672472 C0.647950795,14.4672472 0.321133508,14.44776 0,14.4095975 C1.81637334,15.5743662 3.97296145,16.2531718 6.28991332,16.2531718 C13.8375657,16.2531718 17.9643952,10.001015 17.9643952,4.57868989 C17.9643952,4.40086881 17.9607413,4.22345371 17.9530276,4.04725656 C18.7544405,3.46994702 19.4502974,2.74688915 20,1.92395916 Z" id="Shape"></path>
                </g>
            </g>
        </g>
    </g>
</svg>