<?xml version="1.0" encoding="UTF-8"?>
<svg width="18px" height="32px" viewBox="0 0 18 32" version="1.1" xmlns="http://www.w3.org/2000/svg" xmlns:xlink="http://www.w3.org/1999/xlink">
    <!-- Generator: Sketch 52.5 (67469) - http://www.bohemiancoding.com/sketch -->
    <title>Combined Shape</title>
    <desc>Created with Sketch.</desc>
    <g id="Website" stroke="none" stroke-width="1" fill="none" fill-rule="evenodd">
        <g id="home-illustration-step1" transform="translate(-830.000000, -802.000000)" fill="#228DFF">
            <g id="Group-10" transform="translate(784.000000, 766.000000)">
                <path d="M67.6712658,53 L40,53 C39.4477153,53 39,52.5522847 39,52 C39,51.4477153 39.4477153,51 40,51 L67.6712658,51 L61.2905316,44.6227337 C60.919107,44.2515109 60.919107,43.6496399 61.2905316,43.2784171 C61.6619562,42.9071943 62.2641546,42.9071943 62.6355792,43.2784171 L70.7388324,51.3772663 C70.9766745,51.6149792 71.0474046,51.9194283 70.9699894,52.2051444 C70.9525206,52.3438188 70.8788909,52.4827513 70.7388324,52.6227337 L62.6355792,60.7215829 C62.2641546,61.0928057 61.6619562,61.0928057 61.2905316,60.7215829 C60.919107,60.3503601 60.919107,59.7484891 61.2905316,59.3772663 L67.6712658,53 Z" id="Combined-Shape" transform="translate(55.000000, 52.000000) rotate(90.000000) translate(-55.000000, -52.000000) "></path>
            </g>
        </g>
    </g>
</svg>