<?xml version="1.0" encoding="UTF-8"?>
<svg width="116px" height="137px" viewBox="0 0 116 137" version="1.1" xmlns="http://www.w3.org/2000/svg" xmlns:xlink="http://www.w3.org/1999/xlink">
    <!-- Generator: Sketch 50 (54983) - http://www.bohemiancoding.com/sketch -->
    <title>box</title>
    <desc>Created with Sketch.</desc>
    <defs>
        <filter x="-12.0%" y="-24.0%" width="124.0%" height="148.0%" filterUnits="objectBoundingBox" id="filter-1">
            <feGaussianBlur stdDeviation="4" in="SourceGraphic"></feGaussianBlur>
        </filter>
    </defs>
    <g id="Website" stroke="none" stroke-width="1" fill="none" fill-rule="evenodd">
        <g id="papers" transform="translate(-182.000000, -3727.000000)">
            <g id="bigArticle" transform="translate(66.000000, 3727.000000)">
                <g id="box" transform="translate(124.000000, 0.000000)">
                    <polygon id="Rectangle-11-Copy" fill="#192431" filter="url(#filter-1)" points="50 78.9047619 100 103.904762 50 128.904762 0 103.904762"></polygon>
                    <polygon id="Rectangle-11" fill="#F2F8FC" points="50 0 100 25 50 60 0 25"></polygon>
                    <polygon id="Rectangle-3" fill="#D9EAF7" points="0 25.3333333 50 50.3333333 50 114.619048 0 89.6190476"></polygon>
                    <polygon id="Rectangle-3-Copy-2" fill="#EAF5FD" transform="translate(75.000000, 69.976190) scale(-1, 1) translate(-75.000000, -69.976190) " points="50 25.3333333 100 50.3333333 100 114.619048 50 89.6190476"></polygon>
                    <path d="M90,40.3333333 L90,48.6190476 L60,63.6190476 L60,55.3333333 L90,40.3333333 Z M90,52.3333333 L90,60.6190476 L60,75.6190476 L60,67.3333333 L90,52.3333333 Z M90,64.3333333 L90,72.6190476 L60,87.6190476 L60,79.3333333 L90,64.3333333 Z M80,81.3333333 L80,89.6190476 L60,99.6190476 L60,91.3333333 L80,81.3333333 Z" id="Combined-Shape" fill="#719FC2" opacity="0.5"></path>
                </g>
            </g>
        </g>
    </g>
</svg>