<?xml version="1.0" encoding="UTF-8"?>
<svg width="120px" height="93px" viewBox="0 0 120 93" version="1.1" xmlns="http://www.w3.org/2000/svg" xmlns:xlink="http://www.w3.org/1999/xlink">
    <!-- Generator: Sketch 52.3 (67297) - http://www.bohemiancoding.com/sketch -->
    <title>customer icon</title>
    <desc>Created with Sketch.</desc>
    <g id="Website" stroke="none" stroke-width="1" fill="none" fill-rule="evenodd">
        <g id="resources" transform="translate(-480.000000, -384.000000)" fill="#228DFF">
            <g id="customer-icon" transform="translate(480.000000, 384.000000)">
                <path d="M53.9241094,38.0097155 C53.9241094,36.7946399 53.9904375,35.7078236 53.908875,34.6319876 C53.7802031,32.9302744 52.2935625,31.5645117 50.5716094,31.4537742 C48.9506719,31.3498117 47.4197344,32.3186482 47.2003594,33.8680389 C47.0086406,35.2200179 47.1602813,36.6203568 47.1602813,38.0097155 L53.9241094,38.0097155 Z M85.7637188,61.4206546 C85.4817656,63.8734672 85.2115313,66.2283917 84.9347344,68.6386848 L92.4642656,68.6386848 C93.4202813,66.2398392 94.362,63.8758035 95.3402813,61.4206546 L85.7637188,61.4206546 Z M37.2258281,68.6622808 C37.2916875,68.5830825 37.3573125,68.5038841 37.4234063,68.4246858 C34.6120781,66.8133848 34.5218438,64.1673656 34.7020781,61.4031328 L24.6424688,61.4031328 C25.6324688,63.8765044 26.5912969,66.2720792 27.5480156,68.6622808 L37.2258281,68.6622808 Z M60.01575,51.1295415 C61.8703594,51.2038337 63.4802813,49.9090925 63.5037188,48.1204714 C63.5627813,43.5746262 63.5564531,39.0271457 63.5074688,34.4810669 C63.490125,32.8956981 62.1490313,31.5960508 60.625125,31.4610165 C58.8933281,31.3075259 57.2691094,32.1999675 57.0281719,33.737677 C56.8116094,35.1186253 56.9824688,36.5596148 56.9824688,38.0989597 L61.4972344,38.0989597 C61.6995,42.2663349 60.5177813,45.6316807 56.9423906,47.834049 C56.9691094,49.782235 58.1810625,51.0557164 60.01575,51.1295415 Z M75.9391875,47.5684191 C75.9694219,49.7471915 77.3566875,51.160847 79.3929375,51.1377183 C81.3265313,51.1157577 82.6687969,49.6663578 82.6793438,47.522629 C82.6978594,43.9098759 82.7018438,40.2971228 82.6784063,36.6843697 C82.6643438,34.5675076 81.2829375,33.116005 79.3453594,33.0984833 C77.3658281,33.0804943 75.957,34.5679748 75.9368438,36.7296926 C75.9202031,38.5164448 75.9333281,40.3036642 75.9337969,42.09065 C75.9337969,43.9166509 75.9136406,45.7428855 75.9391875,47.5684191 Z M73.1290313,41.2876862 C73.1290313,39.2245575 73.1412188,37.1614288 73.12575,35.0985337 C73.1093438,32.936115 71.7984844,31.4827435 69.8644219,31.4467655 C67.7892656,31.4084512 66.4130156,32.7545896 66.3914531,34.9838246 C66.3509063,39.1874114 66.347625,43.391699 66.3806719,47.5952858 C66.39825,49.7941498 67.8096563,51.1720609 69.8693438,51.1370174 C71.792625,51.1043101 73.1133281,49.6257073 73.1217656,47.4768388 C73.1297344,45.41371 73.1234063,43.3505813 73.1234063,41.2876862 L73.1290313,41.2876862 Z M85.6012969,51.1234672 L85.6012969,58.3756065 L102.769969,58.3756065 C103.730203,55.965547 104.674031,53.5968388 105.659578,51.1234672 L85.6012969,51.1234672 Z M34.6045781,58.3550476 L34.6045781,51.1262707 L14.3292656,51.1262707 C15.3173906,53.5959043 16.2635625,55.9604072 17.2219219,58.3550476 L34.6045781,58.3550476 Z M85.632,41.0409798 L85.632,48.291951 L113.077078,48.291951 C114.027234,45.9092254 114.971531,43.5426198 115.969734,41.0409798 L85.632,41.0409798 Z M34.8042656,48.2858768 C35.042625,45.7837696 34.4208281,43.2994178 36.0084844,41.0414471 L4.018875,41.0414471 C5.02035938,43.5400499 5.9679375,45.9043193 6.9223125,48.2858768 L34.8042656,48.2858768 Z M4.6875e-05,38.0195277 C8.35153125,38.0328443 16.7030156,38.0494315 25.0545,38.0585428 C30.9480937,38.0648507 36.8416875,38.0606454 42.7352812,38.0611127 L44.2514531,38.0611127 C44.2514531,36.9703248 44.2760625,36.0077962 44.2467656,35.0471365 C44.1619219,32.2632794 45.3450469,30.2001507 47.8931719,29.0871686 C50.4605156,27.9660096 52.7648906,28.6045025 54.7406719,30.5339986 C54.8480156,30.6386619 54.9712969,30.7272052 55.0805156,30.8176175 C58.7248125,27.8227984 61.7325469,27.774672 64.8377812,30.6321205 C69.3075469,27.5471228 72.0150469,27.8279382 75.2449687,31.7612226 C77.6055937,29.9001782 80.1361406,29.6749652 82.6952812,31.2909386 C85.2945,32.9321434 85.7456719,35.5351759 85.5000469,38.4867746 L120.000047,38.4867746 L120.000047,40.3557623 C119.368172,41.8399721 118.7145,43.3155378 118.109578,44.8104943 C117.236766,46.9680069 116.398875,49.1393033 115.527234,51.3528855 L109.176844,51.3528855 C107.785828,54.7278099 106.401141,58.086147 104.989266,61.5117678 L98.8315312,61.5117678 C97.4346562,64.9074847 96.0645,68.2368525 94.6774687,71.6080389 L83.2500469,71.6080389 C83.0721562,72.5967334 82.7573906,73.561131 82.74825,74.5285657 C82.6973906,79.9778328 82.7194219,85.4278007 82.7170781,90.877535 C82.7168437,91.3034306 82.7168437,91.7290925 82.7168437,92.251241 L79.9575469,92.251241 C79.926375,91.9426244 79.870125,91.645689 79.870125,91.3485199 C79.8677812,86.4050476 79.952625,81.4597064 79.8452812,76.5185703 C79.7834062,73.6774755 80.2605937,71.0274847 81.6818437,68.5697659 C82.74825,66.7250751 83.1052031,64.7682451 83.0367656,62.6443743 C82.9352812,59.5019052 83.0105156,56.3538291 83.0105156,53.0971182 C79.9577812,54.5906729 77.2631719,54.312661 74.8029375,51.9075076 C73.4421562,53.117677 71.8741875,54.0264723 69.9487969,54.0180618 C68.0304375,54.009885 66.3417656,53.4106409 65.1070781,51.8612501 C61.0634062,55.68076 55.4423906,54.1673472 54.10575,49.1292574 L47.33325,49.1292574 L47.33325,56.1655286 L44.4335625,56.1655286 L44.4335625,49.4402103 C43.5670781,49.3916166 42.8137969,49.3493307 42.0185625,49.304475 L42.0185625,46.5276267 C42.4331719,46.5087032 42.8433281,46.4750614 43.2537187,46.4738933 C46.221375,46.4654828 49.1899687,46.4979565 52.1569219,46.4502973 C55.3519219,46.3993674 57.8381719,44.3051667 58.5645,41.0503248 C58.227,41.0164494 57.9019219,40.9559409 57.576375,40.9554737 C52.4998125,40.9503339 47.42325,40.9370174 42.3466875,40.9596789 C39.0054375,40.9743972 37.5030937,42.4987902 37.4984062,45.8379702 C37.4902031,51.5991246 37.5202031,57.3605126 37.4866875,63.1211997 C37.47825,64.5787765 37.9779375,65.610224 39.2295,66.4283733 C41.9348906,68.1971365 44.5687969,70.0745346 47.2402031,71.9131512 L47.2402031,92.251241 L44.4305156,92.251241 L44.4305156,73.2130321 C42.8655937,71.8267105 41.3142656,71.0487444 39.201375,71.1438291 C35.1872344,71.3239528 31.1590312,71.1919556 27.1366875,71.1896193 C26.7122344,71.1893857 26.2880156,71.1896193 25.8516094,71.1896193 C24.4699687,67.8165639 23.1162188,64.5117265 21.7390312,61.149885 L15.5691094,61.149885 C14.1858281,57.7850064 12.8166094,54.4544705 11.4265313,51.0732382 L5.08410938,51.0732382 C4.4079375,49.3731603 3.7460625,47.6856981 3.06590625,46.0052446 C2.05059375,43.4963623 1.022625,40.9926198 4.6875e-05,38.4867746 L4.6875e-05,38.0195277 Z" id="Fill-1"></path>
                <polygon id="Fill-8" points="60 12.972973 63.2432432 12.972973 63.2432432 0 60 0"></polygon>
                <path d="M78.6486486,16.5485266 C80.8618583,12.8899218 83.0106518,9.33790915 85.2260007,5.67567568 C86.0151594,6.11111587 86.7477458,6.51503201 87.5675676,6.967028 C85.3610134,10.6136128 83.1977204,14.1892119 80.9902155,17.8378378 C80.1894096,17.3969546 79.4810684,17.0068728 78.6486486,16.5485266" id="Fill-9"></path>
                <path d="M103.294179,22.7027027 C103.760541,23.5439219 104.154772,24.2554303 104.594595,25.0488989 C100.962142,27.2437659 97.3825399,29.4065616 93.7162893,31.6216216 C93.2878077,30.8428821 92.8985677,30.1358874 92.4324324,29.2889667 C96.0501415,27.0952875 99.6188553,24.931304 103.294179,22.7027027" id="Fill-10"></path>
                <path d="M37.9973905,5.67567568 C40.2262271,9.35073178 42.3767128,12.8968107 44.5945946,16.5537329 C43.7989387,16.9887192 43.0602005,17.3926512 42.245969,17.8378378 C40.0611899,14.2384907 37.9066557,10.689465 35.6756757,7.01440887 C36.4153665,6.5878095 37.1333858,6.17390385 37.9973905,5.67567568" id="Fill-11"></path>
                <path d="M18.6486486,25.0285076 C19.1387166,24.1670455 19.5394752,23.4627323 19.9717414,22.7027027 C23.5869557,24.8944548 27.1339413,27.0447766 30.8108108,29.2739111 C30.3878382,30.0479889 29.9879863,30.779446 29.5276126,31.6216216 C25.8804373,29.4110593 22.3135044,27.2495465 18.6486486,25.0285076" id="Fill-12"></path>
            </g>
        </g>
    </g>
</svg>