<?xml version="1.0" encoding="UTF-8"?>
<svg width="20px" height="20px" viewBox="0 0 20 20" version="1.1" xmlns="http://www.w3.org/2000/svg" xmlns:xlink="http://www.w3.org/1999/xlink">
    <!-- Generator: Sketch 50 (54983) - http://www.bohemiancoding.com/sketch -->
    <title>linkedIn</title>
    <desc>Created with Sketch.</desc>
    <defs></defs>
    <g id="Symbols" stroke="none" stroke-width="1" fill="none" fill-rule="evenodd">
        <g id="FOOTER" transform="translate(-1017.000000, -335.000000)" fill="#FFFFFF">
            <g transform="translate(0.000000, -56.000000)" id="linkedIn">
                <g transform="translate(1017.000000, 391.000000)">
                    <path d="M20,19.1159942 L20,11.7206542 C20,7.75841384 17.8847004,5.9146303 15.0647219,5.9146303 C12.7890383,5.9146303 11.7692745,7.16676138 11.200985,8.0450843 L11.200985,6.217718 L6.91355686,6.217718 C6.97038581,7.42817453 6.91355686,19.1159942 6.91355686,19.1159942 L11.200985,19.1159942 L11.200985,11.9126097 C11.200985,11.5280672 11.2287681,11.1428932 11.342426,10.8675886 C11.651828,10.0972406 12.3571383,9.29974111 13.5410747,9.29974111 C15.0931363,9.29974111 15.7132033,10.4824146 15.7132033,12.2156974 L15.7132033,19.1166256 L20,19.1166256 L20,19.1159942 Z M2.39691861,4.45728358 C3.89151986,4.45728358 4.82288312,3.4659342 4.82288312,2.22769464 C4.79510008,0.962934899 3.89151986,2.82440737e-13 2.42533308,2.82440737e-13 C0.959146303,2.82440737e-13 1.42108547e-14,0.962303467 1.42108547e-14,2.22769464 C1.42108547e-14,3.4659342 0.930731831,4.45728358 2.369767,4.45728358 L2.39691861,4.45728358 Z M4.5406327,19.1159942 L4.5406327,6.217718 L0.253835954,6.217718 L0.253835954,19.1159942 L4.5406327,19.1159942 Z" id="Shape"></path>
                </g>
            </g>
        </g>
    </g>
</svg>