<?xml version="1.0" encoding="UTF-8"?>
<svg width="32px" height="32px" viewBox="0 0 32 32" version="1.1" xmlns="http://www.w3.org/2000/svg" xmlns:xlink="http://www.w3.org/1999/xlink">
    <!-- Generator: Sketch 50.2 (55047) - http://www.bohemiancoding.com/sketch -->
    <title>Shape</title>
    <desc>Created with Sketch.</desc>
    <defs></defs>
    <g id="Website" stroke="none" stroke-width="1" fill="none" fill-rule="evenodd">
        <g id="product" transform="translate(-874.000000, -2324.000000)" fill="#AEBFCC" fill-rule="nonzero">
            <g id="TABLE" transform="translate(250.000000, 2030.000000)">
                <path d="M640,294 C631.164,294 624,301.164 624,310 C624,318.836 631.164,326 640,326 C648.836,326 656,318.836 656,310 C656,301.164 648.836,294 640,294 Z M641.885333,310 C641.885333,310 646.070667,314.185333 646.276,314.390667 C646.797333,314.912 646.797333,315.756 646.276,316.276 C645.754667,316.797333 644.910667,316.797333 644.390667,316.276 C644.185333,316.072 640,311.885333 640,311.885333 C640,311.885333 635.814667,316.070667 635.609333,316.276 C635.088,316.797333 634.244,316.797333 633.724,316.276 C633.202667,315.754667 633.202667,314.910667 633.724,314.390667 C633.928,314.185333 638.114667,310 638.114667,310 C638.114667,310 633.929333,305.814667 633.724,305.609333 C633.202667,305.088 633.202667,304.244 633.724,303.724 C634.245333,303.202667 635.089333,303.202667 635.609333,303.724 C635.814667,303.928 640,308.114667 640,308.114667 C640,308.114667 644.185333,303.929333 644.390667,303.724 C644.912,303.202667 645.756,303.202667 646.276,303.724 C646.797333,304.245333 646.797333,305.089333 646.276,305.609333 C646.072,305.814667 641.885333,310 641.885333,310 Z" id="Shape"></path>
            </g>
        </g>
    </g>
</svg>