<?xml version="1.0" encoding="UTF-8"?>
<svg width="24px" height="43px" viewBox="0 0 24 43" version="1.1" xmlns="http://www.w3.org/2000/svg" xmlns:xlink="http://www.w3.org/1999/xlink">
    <!-- Generator: Sketch 51.2 (57519) - http://www.bohemiancoding.com/sketch -->
    <title>Combined Shape</title>
    <desc>Created with Sketch.</desc>
    <defs></defs>
    <g id="Website" stroke="none" stroke-width="1" fill="none" fill-rule="evenodd">
        <g id="home-illustration-side" transform="translate(-1397.000000, -639.000000)" fill="#228DFF">
            <path d="M1426.02701,661.833333 L1387.5,661.833333 L1387.5,659.166667 L1426.02701,659.166667 L1417.4529,650.663645 C1416.9538,650.168681 1416.9538,649.366186 1417.4529,648.871223 C1417.952,648.376259 1418.76121,648.376259 1419.26031,648.871223 L1430.14906,659.669688 C1430.46866,659.986639 1430.5637,660.392571 1430.45967,660.773526 C1430.4362,660.958425 1430.33726,661.143668 1430.14906,661.330312 L1419.26031,672.128777 C1418.76121,672.623741 1417.952,672.623741 1417.4529,672.128777 C1416.9538,671.633814 1416.9538,670.831319 1417.4529,670.336355 L1426.02701,661.833333 Z" id="Combined-Shape" transform="translate(1409.000000, 660.500000) rotate(90.000000) translate(-1409.000000, -660.500000) "></path>
        </g>
    </g>
</svg>