<?xml version="1.0" encoding="UTF-8"?>
<svg width="110px" height="104px" viewBox="0 0 110 104" version="1.1" xmlns="http://www.w3.org/2000/svg" xmlns:xlink="http://www.w3.org/1999/xlink">
    <!-- Generator: Sketch 52.3 (67297) - http://www.bohemiancoding.com/sketch -->
    <title>events icon</title>
    <desc>Created with Sketch.</desc>
    <g id="Website" stroke="none" stroke-width="1" fill="none" fill-rule="evenodd">
        <g id="resources" transform="translate(-885.000000, -388.000000)" fill="#FFFFFF">
            <g id="events-icon" transform="translate(885.000000, 388.000000)">
                <path d="M85.7136328,60.8199718 L107.369668,60.8199718 L107.369668,58.2942906 L85.7136328,58.2942906 L85.7136328,60.8199718 Z M107.375898,63.6257134 L85.7140625,63.6257134 C85.7140625,67.1752847 85.6981641,70.6308603 85.7303906,74.0857936 C85.7357617,74.641846 85.9155859,75.2081758 86.0831641,75.748598 C87.6444336,80.7888266 92.3533789,83.6301109 98.0074219,82.9590796 C102.893398,82.3792607 106.754141,79.2699064 107.288887,74.7388393 C107.719004,71.0959146 107.375898,67.3622057 107.375898,63.6257134 Z M99.6183203,15.9923413 L99.6183203,8.07956782 L91.0815039,8.07956782 L91.0815039,10.6403637 L88.48125,10.6403637 L88.48125,8.10954369 L78.179707,8.10954369 L78.179707,10.6529964 L75.61125,10.6529964 L75.61125,8.09626866 L65.2744727,8.09626866 L65.2744727,10.6654149 L62.7083789,10.6654149 L62.7083789,8.08320775 L52.4042578,8.08320775 L52.4042578,10.6778335 L49.8385937,10.6778335 L49.8385937,8.11318362 L39.5028906,8.11318362 L39.5028906,10.6461447 L37.2358594,10.6461447 L37.2358594,8.11596709 L27.0032812,8.11596709 L27.0032812,10.6639161 L24.3321289,10.6639161 L24.3321289,8.10033682 L14.1388672,8.10033682 L14.1388672,10.6602762 L11.4670703,10.6602762 L11.4670703,8.08342186 L2.65869141,8.08342186 L2.65869141,15.9923413 L99.6183203,15.9923413 Z M110,74.492609 C109.829414,75.142443 109.699004,75.8057662 109.481797,76.4397559 C107.778516,81.4123247 104.403965,84.4923454 99.1604883,85.4370136 C98.7400391,85.5130239 98.3204492,85.5935305 97.8572461,85.6802464 L97.8572461,101.453764 L102.711211,101.453764 L102.711211,104 L90.2945312,104 L90.2945312,101.538981 L95.1147656,101.538981 L95.1147656,85.6504846 C90.2150391,85.0280571 86.450332,82.6591068 84.1762109,78.0918546 L76.6605469,78.0918546 C51.4282227,78.0918546 26.1958984,78.0918546 0.963574219,78.0937817 C0.642382812,78.0937817 0.321191406,78.119047 0,78.1325362 L0,5.33399214 L11.4735156,5.33399214 L11.4735156,0.00278347374 L13.7005859,0.00278347374 L13.7005859,5.27982146 L24.0272656,5.27982146 L24.0272656,0.0235524701 L26.6206445,0.0235524701 L26.6206445,5.29759287 L36.9486133,5.29759287 L36.9486133,0.00535283412 L39.5067578,0.00535283412 L39.5067578,5.31536428 L49.8003516,5.31536428 L49.8003516,0.0284770775 L52.0968164,0.0284770775 L52.0968164,5.29673642 L62.3175781,5.29673642 L62.3175781,0 L65.0121484,0 L65.0121484,5.30829854 L75.1989648,5.30829854 L75.1989648,0.0263359439 L77.8479883,0.0263359439 L77.8479883,5.28538841 L88.1132227,5.28538841 L88.1132227,0.0122044618 L90.7689062,0.0122044618 L90.7689062,5.33934498 L102.190645,5.33934498 L102.190645,36.061187 L99.7515234,36.061187 L99.7515234,18.6893133 L2.65246094,18.6893133 L2.65246094,75.5158567 L83.1140234,75.5158567 L83.1140234,55.7315677 C84.6097656,55.7315677 86.139668,55.7313536 87.6695703,55.7315677 C94.7942187,55.7330665 101.918437,55.7354218 109.042871,55.7324242 C109.361914,55.7322101 109.680957,55.6791099 110,55.6506329 L110,74.492609 Z" id="Fill-1"></path>
                <path d="M8.59835374,34.3673206 L22.5360912,34.3673206 L22.5360912,25.5213353 L8.59835374,25.5213353 L8.59835374,34.3673206 Z M6,37 L25,37 L25,23 L6,23 L6,37 Z" id="Fill-3"></path>
                <path d="M32.5870752,34.3631887 L46.5440814,34.3631887 L46.5440814,25.5593923 L32.5870752,25.5593923 L32.5870752,34.3631887 Z M30,37 L49,37 L49,23 L30,23 L30,37 Z" id="Fill-4"></path>
                <path d="M54.6022625,34.379305 L68.5964173,34.379305 L68.5964173,25.5329112 L54.6022625,25.5329112 L54.6022625,34.379305 Z M52,37 L71,37 L71,23 L52,23 L52,37 Z" id="Fill-5"></path>
                <path d="M78.6205007,34.3926164 L92.5830865,34.3926164 L92.5830865,25.5252013 L78.6205007,25.5252013 L78.6205007,34.3926164 Z M76,37 L95,37 L95,23 L76,23 L76,37 Z" id="Fill-6"></path>
                <path d="M8.63403057,52.5114017 L22.5539339,52.5114017 L22.5539339,43.6468052 L8.63403057,43.6468052 L8.63403057,52.5114017 Z M6,55 L25,55 L25,41 L6,41 L6,55 Z" id="Fill-7"></path>
                <path d="M32.6362095,52.5084322 L46.5581839,52.5084322 L46.5581839,43.6493309 L32.6362095,43.6493309 L32.6362095,52.5084322 Z M30,55 L49,55 L49,41 L30,41 L30,55 Z" id="Fill-8"></path>
                <path d="M54.5724019,52.4392306 L68.5743692,52.4392306 L68.5743692,43.6819674 L54.5724019,43.6819674 L54.5724019,52.4392306 Z M52,55 L71,55 L71,41 L52,41 L52,55 Z" id="Fill-9"></path>
                <path d="M8.62501801,70.3523869 L22.5384138,70.3523869 L22.5384138,61.4508164 L8.62501801,61.4508164 L8.62501801,70.3523869 Z M6,73 L25,73 L25,59 L6,59 L6,73 Z" id="Fill-10"></path>
                <path d="M32.6174996,70.3797573 L46.5561434,70.3797573 L46.5561434,61.4525245 L32.6174996,61.4525245 L32.6174996,70.3797573 Z M30,73 L49,73 L49,59 L30,59 L30,73 Z" id="Fill-11"></path>
                <path d="M54.6348166,70.3621388 L68.5722363,70.3621388 L68.5722363,61.4434168 L54.6348166,61.4434168 L54.6348166,70.3621388 Z M52,73 L71,73 L71,59 L52,59 L52,73 Z" id="Fill-12"></path>
                <path d="M84,48.4465146 C84.5553134,47.9807233 85.1554938,47.477365 85.7243349,47 C87.1334736,48.1998634 88.5207425,49.3809433 90,50.6405722 C89.4500977,51.0566539 88.8005411,51.548059 88.2028408,52 C86.853675,50.8595226 85.4616714,49.6826168 84,48.4465146" id="Fill-13"></path>
                <polygon id="Fill-14" points="95 49 98 49 98 43 95 43"></polygon>
                <path d="M108,48.9136273 C106.886745,50.2334327 105.705188,51.6342549 104.553146,53 C104.059333,52.4620752 103.516139,51.8705164 103,51.3088296 C104.202369,49.8729303 105.379952,48.4659978 106.607674,47 C107.044159,47.5999321 107.51243,48.2433146 108,48.9136273" id="Fill-15"></path>
            </g>
        </g>
    </g>
</svg>