<?xml version="1.0" encoding="UTF-8"?>
<svg width="116px" height="137px" viewBox="0 0 116 137" version="1.1" xmlns="http://www.w3.org/2000/svg" xmlns:xlink="http://www.w3.org/1999/xlink">
    <!-- Generator: Sketch 52.5 (67469) - http://www.bohemiancoding.com/sketch -->
    <title>box</title>
    <desc>Created with Sketch.</desc>
    <defs>
        <filter x="-12.0%" y="-24.0%" width="124.0%" height="148.0%" filterUnits="objectBoundingBox" id="filter-1">
            <feGaussianBlur stdDeviation="4" in="SourceGraphic"></feGaussianBlur>
        </filter>
    </defs>
    <g id="Website" stroke="none" stroke-width="1" fill="none" fill-rule="evenodd">
        <g id="about" transform="translate(-562.000000, -4306.000000)">
            <g id="Group-8" transform="translate(271.000000, 4295.000000)">
                <g id="Group-Copy" transform="translate(299.000000, 11.000000)">
                    <g id="box">
                        <polygon id="Rectangle-11-Copy" fill="#E7F1F9" filter="url(#filter-1)" points="50 78.9047619 100 103.904762 50 128.904762 0 103.904762"></polygon>
                        <polygon id="Rectangle-11" fill="#F2F8FC" points="50 0.333333333 100 25.3333333 50 50.3333333 0 25.3333333"></polygon>
                        <polygon id="Rectangle-3" fill="#D9EAF7" points="0 25.3333333 50 50.3333333 50 114.619048 0 89.6190476"></polygon>
                        <polygon id="Rectangle-3-Copy-2" fill="#228DFF" transform="translate(75.000000, 69.976190) scale(-1, 1) translate(-75.000000, -69.976190) " points="50 25.3333333 100 50.3333333 100 114.619048 50 89.6190476"></polygon>
                        <polygon id="Rectangle-3-Copy-4" fill="#51B1FE" transform="translate(75.000000, 69.785714) scale(-1, 1) translate(-75.000000, -69.785714) " points="60 43 90 58 90 96.5714286 60 81.5714286"></polygon>
                        <polygon id="Rectangle-3-Copy-5" fill="#8BD3FF" transform="translate(75.000000, 81.785714) scale(-1, 1) translate(-75.000000, -81.785714) " points="90 67 90 96.5714286 60 81.5714286"></polygon>
                    </g>
                </g>
            </g>
        </g>
    </g>
</svg>