<?xml version="1.0" encoding="UTF-8"?>
<svg width="26px" height="26px" viewBox="0 0 26 26" version="1.1" xmlns="http://www.w3.org/2000/svg" xmlns:xlink="http://www.w3.org/1999/xlink">
    <!-- Generator: Sketch 50.2 (55047) - http://www.bohemiancoding.com/sketch -->
    <title>Shape</title>
    <desc>Created with Sketch.</desc>
    <defs></defs>
    <g id="Website" stroke="none" stroke-width="1" fill="none" fill-rule="evenodd">
        <g id="resources" transform="translate(-376.000000, -237.000000)" fill="#233141" fill-rule="nonzero">
            <g id="Group-2" transform="translate(350.000000, 210.000000)">
                <path d="M52,50.645748 L45.2675717,43.9133197 C46.5475922,42.155123 47.3114754,39.9973361 47.3114754,37.6557377 C47.3114754,31.7704406 42.5410348,27 36.6557377,27 C30.7704406,27 26,31.7704406 26,37.6557377 C26,43.5410348 30.7704406,48.3114754 36.6557377,48.3114754 C38.9973361,48.3114754 41.155123,47.5475922 42.9133197,46.2675717 L49.645748,53 L52,50.645748 Z M36.6557377,44.9815574 C32.6165471,44.9815574 29.329918,41.6949283 29.329918,37.6557377 C29.329918,33.6165471 32.6165471,30.329918 36.6557377,30.329918 C40.6949283,30.329918 43.9815574,33.6165471 43.9815574,37.6557377 C43.9815574,41.6949283 40.6949283,44.9815574 36.6557377,44.9815574 Z" id="Shape"></path>
            </g>
        </g>
    </g>
</svg>