<?xml version="1.0" encoding="UTF-8"?>
<svg width="6px" height="12px" viewBox="0 0 6 12" version="1.1" xmlns="http://www.w3.org/2000/svg" xmlns:xlink="http://www.w3.org/1999/xlink">
    <!-- Generator: Sketch 50 (54983) - http://www.bohemiancoding.com/sketch -->
    <title>Shape</title>
    <desc>Created with Sketch.</desc>
    <defs></defs>
    <g id="Website" stroke="none" stroke-width="1" fill="none" fill-rule="evenodd">
        <g id="papers" transform="translate(-1163.000000, -524.000000)" fill="#000000" fill-rule="nonzero">
            <g id="Group" transform="translate(1163.000000, 522.000000)">
                <g id="facebook" transform="translate(0.000000, 2.000000)">
                    <path d="M5.57598841,3.88565514 L3.67700269,3.88565514 L3.67700269,2.64019872 C3.67700269,2.17246947 3.98700062,2.06342372 4.20534051,2.06342372 C4.42318361,2.06342372 5.54543573,2.06342372 5.54543573,2.06342372 L5.54543573,0.00720347754 L3.6998551,0 C1.65108673,0 1.18484786,1.53359553 1.18484786,2.51500724 L1.18484786,3.88565514 L0,3.88565514 L0,6.00447112 L1.18484786,6.00447112 C1.18484786,8.7236597 1.18484786,12 1.18484786,12 L3.67700269,12 C3.67700269,12 3.67700269,8.69136825 3.67700269,6.00447112 L5.3586421,6.00447112 L5.57598841,3.88565514 Z" id="Shape"></path>
                </g>
            </g>
        </g>
    </g>
</svg>