<?xml version="1.0" encoding="UTF-8"?>
<svg width="116px" height="137px" viewBox="0 0 116 137" version="1.1" xmlns="http://www.w3.org/2000/svg" xmlns:xlink="http://www.w3.org/1999/xlink">
    <!-- Generator: Sketch 50.2 (55047) - http://www.bohemiancoding.com/sketch -->
    <title>box</title>
    <desc>Created with Sketch.</desc>
    <defs>
        <filter x="-12.0%" y="-24.0%" width="124.0%" height="148.0%" filterUnits="objectBoundingBox" id="filter-1">
            <feGaussianBlur stdDeviation="4" in="SourceGraphic"></feGaussianBlur>
        </filter>
    </defs>
    <g id="Website" stroke="none" stroke-width="1" fill="none" fill-rule="evenodd">
        <g id="product" transform="translate(-282.000000, -1792.000000)">
            <g id="ITEMS" transform="translate(290.000000, 1387.000000)">
                <g id="Group-8" transform="translate(0.000000, 388.000000)">
                    <g id="box" transform="translate(0.000000, 17.000000)">
                        <polygon id="Rectangle-11-Copy" fill="#E7F1F9" filter="url(#filter-1)" points="50 78.9047619 100 103.904762 50 128.904762 0 103.904762"></polygon>
                        <polygon id="Rectangle-11" fill="#F2F8FC" points="50 0.333333333 100 25.3333333 50 50.3333333 0 25.3333333"></polygon>
                        <polygon id="Rectangle-11-Copy-4" fill="#FFC116" points="50.3333333 9 83.6666667 25.6666667 50.3333333 42.3333333 17 25.6666667"></polygon>
                        <polygon id="Rectangle-11-Copy-4" fill="#FDD862" points="50.3333333 9 83.6666667 25.6666667 50.3333333 42.3333333"></polygon>
                        <polygon id="Rectangle-3" fill="#D9EAF7" points="0 25.3333333 50 50.3333333 50 114.619048 0 89.6190476"></polygon>
                        <polygon id="Rectangle-3-Copy-2" fill="#EAF5FD" transform="translate(75.000000, 69.976190) scale(-1, 1) translate(-75.000000, -69.976190) " points="50 25.3333333 100 50.3333333 100 114.619048 50 89.6190476"></polygon>
                    </g>
                </g>
            </g>
        </g>
    </g>
</svg>