<?xml version="1.0" encoding="UTF-8"?>
<svg width="100px" height="93px" viewBox="0 0 100 93" version="1.1" xmlns="http://www.w3.org/2000/svg" xmlns:xlink="http://www.w3.org/1999/xlink">
    <!-- Generator: Sketch 52.3 (67297) - http://www.bohemiancoding.com/sketch -->
    <title>Group 14</title>
    <desc>Created with Sketch.</desc>
    <g id="Website" stroke="none" stroke-width="1" fill="none" fill-rule="evenodd">
        <g id="resources" transform="translate(-690.000000, -383.000000)" fill="#FFFFFF">
            <g id="Group-14" transform="translate(690.000000, 383.000000)">
                <path d="M76.5657422,5.37366714 C73.0096875,8.93700331 69.5446484,12.4091225 65.9852734,15.9757863 C66.3813672,18.0418714 66.8008984,20.2299054 67.2139844,22.3852501 C69.4598828,22.8160842 71.5887891,23.2244076 73.4313672,23.5779225 C77.0546094,19.9494033 80.533125,16.465931 84.0229688,12.9711054 C82.0260938,12.5841182 79.93625,12.1791225 77.8094922,11.7670799 C77.3926953,9.62485012 76.9846875,7.52666289 76.5657422,5.37366714 Z M53.0464063,23.2819565 L19.4536328,23.2819565 L19.4536328,27.863948 L40.9358594,27.863948 C44.0614453,30.6746459 47.13,33.4342544 50.1284375,36.1304416 L51.7442578,36.1304416 C54.2532422,33.6260842 56.670625,31.2133352 59.1227734,28.765548 C57.0958203,26.9365097 55.0479688,25.0880927 53.0464063,23.2819565 Z M97.5821484,76.4963225 L97.5821484,30.5644416 L60.9848828,30.5644416 C59.0508984,32.5038799 57.2255078,34.3344842 55.389375,36.1756586 L92.5749219,36.1756586 L92.5749219,76.4963225 L97.5821484,76.4963225 Z M40.2327344,30.3338544 L2.41613281,30.3338544 L2.41613281,90.1013608 L90.1975781,90.1013608 L90.1975781,38.4605863 L52.5602734,38.4605863 C45.1846875,45.859148 37.7378125,53.3291565 30.3145703,60.7756757 C29.8077344,60.323114 29.2833203,59.8552842 28.5690625,59.2179395 C29.6999219,58.1949778 30.7583203,57.2375905 31.8327344,56.265914 C29.4667188,54.6692246 26.5618359,55.9329522 25.4669141,57.817582 C24.1885938,60.0177522 24.9686719,62.8668161 27.2061719,64.1890714 C28.3397656,64.8589097 29.5594922,64.9624586 30.7864453,64.6367395 C32.5782422,64.1610799 33.5466016,62.8098544 34.1159375,61.0965012 C34.8489453,61.2493778 35.5071484,61.3865948 36.1565625,61.5218544 C35.855,64.7909863 32.0161328,67.5578374 28.6423047,67.0077948 C24.4887891,66.3301267 21.8860547,62.5050799 22.8571484,58.4754799 C23.3260938,56.5293863 24.4932813,55.0885097 26.2192578,54.122314 C28.7251172,52.7192161 31.1993359,52.9676161 33.4098828,54.3509437 C35.0229688,52.7397693 36.5352734,51.2290118 38.0475781,49.7182544 C34.233125,45.814714 27.358125,45.9006459 22.7341016,48.9936076 C17.4454297,52.5314969 15.8423047,59.4068331 18.301875,64.8170203 C20.926875,70.5914884 27.0389844,73.5305948 33.1753125,71.9458459 C36.0516797,71.2029948 38.5548047,69.7826714 40.2971875,67.2922118 C43.0288281,63.3874969 43.4563672,59.1398374 41.9014844,54.6408416 C42.6676953,54.3098374 43.3395703,54.019548 44.0094922,53.7302374 C46.4530469,59.2504331 45.4120313,67.6488586 38.5942578,72.1055735 C32.1368359,76.3266118 24.2911328,75.4993948 19.0073438,69.9073608 C13.1563672,63.7151735 13.8458203,55.535982 18.2061719,49.8852246 C20.6602734,46.7049608 23.9370313,44.7355735 28.01125,44.2700927 C32.5477734,43.7517608 36.5481641,44.9700757 40.0684766,48.0769352 C40.6651563,47.4480076 41.2083203,46.8439395 41.78625,46.2754969 C42.3788281,45.6923735 43.0055859,45.1437012 43.6178906,44.5797608 C36.5032422,37.7361352 24.0452344,36.8319905 16.06125,44.3045437 C8.72316406,51.1728331 7.02003906,61.4130203 12.7819531,70.5558629 C17.5944531,78.1920586 27.8719922,82.5614714 38.4985547,77.6253778 C43.2626172,75.4122884 46.6196484,71.7450118 48.6346875,66.8633352 C51.1491406,60.772348 50.3497266,54.9062714 47.3749219,49.153531 C48.0602734,48.7835735 48.6807813,48.4486544 49.3003125,48.1143225 C54.2960156,56.7909012 53.5739453,68.8211735 44.4936719,76.5239225 C35.0874219,84.5028671 21.9915234,83.4110033 13.8231641,75.2950374 C5.83371094,67.3566118 5.17101562,53.8089267 12.4303906,44.9579395 C19.6120313,36.2022799 34.845625,32.8570033 45.0852734,42.8912671 C46.5264844,41.4478459 47.9669141,40.0050118 49.3960156,38.5741182 C46.3544141,35.8389778 43.2567578,33.0533352 40.2327344,30.3338544 Z M-7.81250001e-05,27.9248246 C5.3034375,27.9095565 10.6067578,27.8942884 15.9100781,27.8792161 C16.23,27.8784331 16.5499219,27.8792161 16.9645703,27.8792161 L16.9645703,20.9199054 L53.8559766,20.9199054 C56.0774609,22.9415565 58.4061719,25.0606884 60.6868359,27.135582 C62.0923047,25.7238714 63.4430859,24.3673608 64.9325391,22.8712842 C64.4565625,20.3945267 63.9426953,17.7210459 63.4731641,15.2771735 C68.3999219,10.3406884 73.1979688,5.53359055 78.0247266,0.697326717 C78.6266797,3.63878204 79.2425,6.64855225 79.8659375,9.6957097 C82.8971875,10.3181778 85.8815625,10.9310544 88.6735547,11.5043905 C83.9257031,16.2625522 79.1124219,21.0857012 74.1122266,26.0963735 C71.8622266,25.6571225 69.2247266,25.142314 66.6702344,24.6435565 C65.5091016,25.8051054 64.4089063,26.9057778 63.2446484,28.0706544 C63.4430859,28.1025608 63.6132031,28.1540416 63.7833203,28.1540416 C75.7260938,28.157565 87.6690625,28.1569778 99.6118359,28.1550203 C99.7411328,28.1550203 99.870625,28.1325097 99.9999219,28.1205693 L99.9999219,78.8184416 L92.6913281,78.8184416 L92.6913281,92.567548 C92.2618359,92.567548 91.9442578,92.5677437 91.6266797,92.567548 C86.1946484,92.5655905 80.7626172,92.5622629 75.3305859,92.5620671 C56.1719922,92.5612842 37.0133984,92.5642203 17.8548047,92.559131 C11.9032422,92.5573693 5.95167969,92.5338799 -7.81250001e-05,92.5205693 L-7.81250001e-05,27.9248246 Z" id="Fill-1"></path>
                <polygon id="Fill-4" points="60 47.5675676 84 47.5675676 84 45.5675676 60 45.5675676"></polygon>
                <polygon id="Fill-6" points="66 54.5675676 84 54.5675676 84 52.5675676 66 52.5675676"></polygon>
            </g>
        </g>
    </g>
</svg>