<?xml version="1.0" encoding="UTF-8"?>
<svg width="114px" height="76px" viewBox="0 0 114 76" version="1.1" xmlns="http://www.w3.org/2000/svg" xmlns:xlink="http://www.w3.org/1999/xlink">
    <!-- Generator: Sketch 52.3 (67297) - http://www.bohemiancoding.com/sketch -->
    <title>webinar icon</title>
    <desc>Created with Sketch.</desc>
    <defs>
        <polygon id="path-1" points="0 65 114 65 114 76 0 76"></polygon>
    </defs>
    <g id="Website" stroke="none" stroke-width="1" fill="none" fill-rule="evenodd">
        <g id="resources" transform="translate(-1083.000000, -391.000000)">
            <g id="webinar-icon" transform="translate(1083.000000, 391.000000)">
                <mask id="mask-2" fill="white">
                    <use xlink:href="#path-1"></use>
                </mask>
                <g id="Clip-2"></g>
                <path d="M6.248625,73.5247584 L107.727996,73.5247584 C109.026527,71.7354245 110.335078,69.9318146 111.81307,67.8945172 L2.47883203,67.8945172 C3.47009766,70.0741355 5.06075391,71.658334 6.248625,73.5247584 Z M114,69.6122514 C112.688109,71.370837 111.375328,73.1289833 110.065441,74.8888867 C109.802707,75.2416141 109.549324,75.6011501 109.261207,76 L4.80091406,76 C3.20424609,73.8752895 1.60201172,71.7437705 0,69.6122514 L0,65 C5.93089453,65.016692 11.8615664,65.0459029 17.7926836,65.0476599 C36.0707578,65.0540292 54.3490547,65.0496366 72.6273516,65.0500759 C86.1971367,65.0502955 99.7669219,65.0520526 113.336484,65.0505151 C113.557582,65.0505151 113.77868,65.0175705 114,65 L114,69.6122514 Z" id="Fill-1" fill="#228DFF" mask="url(#mask-2)"></path>
                <path d="M66.4361504,38.2141476 C64.1911509,42.4203802 61.9992531,46.5281188 59.8243122,50.603251 L54.390753,50.603251 C52.1935005,46.4829195 50.0185596,42.4044143 47.8047964,38.2523759 C46.1068789,38.8296225 44.4736652,39.4208113 42.8181398,39.9404907 C39.5628682,40.9620846 37.9249691,43.3281889 37.4686955,46.5798394 C37.094529,49.2461479 36.8600334,51.9340441 36.6275459,54.6176677 C36.4680175,56.4604945 36.4175931,58.3125411 36.3158519,60.2034906 L41.6862692,60.2034906 C41.8783726,57.6970662 42.0660137,55.2511324 42.263695,52.6756722 C43.2275588,52.7590998 44.0905739,52.8339822 45.0006666,52.9126874 C44.8382377,55.4143895 44.6842873,57.7836419 44.5285519,60.1841516 L69.6833898,60.1841516 C69.526985,57.7200031 69.3766044,55.3505258 69.2213152,52.9090895 C70.1675528,52.8265614 71.0062482,52.753478 71.9500316,52.6711748 C72.1463742,55.2322431 72.3344615,57.68155 72.5265649,60.1866252 L77.7894399,60.1866252 C77.8215687,59.9568059 77.8708775,59.8083903 77.8588292,59.6651468 C77.4779691,55.1166589 77.2336564,50.5497314 76.645521,46.028453 C76.3541307,43.7878274 75.2807166,41.6501933 73.0513353,40.6499622 C70.9306117,39.6985283 68.6849429,39.0286343 66.4361504,38.2141476 Z M105.278747,60.2237291 L105.278747,59.0197639 C105.281201,41.4444353 105.285664,23.8693316 105.282986,6.29422789 C105.28254,3.14332005 104.91172,2.78914649 101.730077,2.78914649 C77.7109029,2.78847188 53.6917286,2.78869675 29.6727775,2.78869675 C23.5007022,2.78869675 17.328627,2.78464905 11.1565517,2.79184496 C9.5891574,2.79364393 8.84104735,3.53257365 8.76630328,5.10330525 C8.7558168,5.32750274 8.76317965,5.55282458 8.76317965,5.77769668 C8.76295653,23.5023403 8.76273341,41.2267591 8.76541081,58.9516276 C8.76541081,59.3503258 8.79977077,59.7494738 8.81962815,60.181678 L13.2054317,60.181678 L13.2054317,7.11118822 L101.310841,7.11118822 L101.310841,60.2237291 L105.278747,60.2237291 Z M49.0758918,34.8471377 C51.4391432,39.2334928 53.7506314,43.5233778 56.0317758,47.7577194 L58.1902061,47.7577194 C60.4996863,43.468509 62.7957795,39.2038097 65.123109,34.8806436 C67.6856035,35.8190349 70.1340854,36.7781144 72.6238438,37.6130645 C76.559398,38.9323891 78.7495108,41.7709496 79.4172989,45.7428654 C79.9117253,48.6848671 80.046934,51.6889335 80.3200287,54.6673644 C80.488928,56.5126648 80.6165507,58.3617881 80.7617997,60.1989931 L98.2322778,60.1989931 L98.2322778,9.84653242 L15.8386541,9.84653242 L15.8386541,60.1971942 L33.419575,60.1971942 C33.8062361,55.8223075 34.1743785,51.5027394 34.5735342,47.1858697 C34.928959,43.3410066 36.4416897,40.0772129 40.0008462,38.3553673 C42.8890909,36.9580121 45.9948743,36.0173721 49.0758918,34.8471377 Z M107.998539,63 L6.00000417,63 C6.00010334,60.703831 5.99988022,58.4681526 6.00010334,56.232924 C6.00278073,39.3344604 6.00144204,22.4364466 6.01081293,5.53820789 C6.0130441,1.88493579 7.84661654,0.0196217319 11.5084066,0.0135501852 C23.8873633,-0.0066883036 36.2665432,0.00208170822 48.645723,0.00140709193 C66.1175398,0.000507603537 83.5893567,0.000957347733 101.061174,0.00140709193 C101.767561,0.00140709193 102.474171,-0.00556394311 103.180112,0.0115263363 C106.034443,0.0805620705 107.99363,2.06595782 107.995192,4.93307708 C108.002555,19.3208437 107.999208,33.7086102 107.999431,48.0963768 C107.999654,52.667352 107.998762,57.2387768 107.998539,61.8099769 L107.998539,63 Z" id="Fill-4" fill="#228DFF"></path>
                <path d="M57.5678528,17.6163516 C53.3870731,17.5338949 49.8851837,20.8889757 49.7401651,25.11571 C49.5962519,29.3117164 53.1264375,32.9645697 57.4075807,33.0501213 C61.5293361,33.1321359 65.1041769,29.6495014 65.1804443,25.4773699 C65.261133,21.0618474 62.0092681,17.7038927 57.5678528,17.6163516 M47.0000655,25.4705169 C46.9797275,19.8453349 51.6992424,15.0186343 57.2386871,15.000065 C63.1718485,14.9799482 67.975368,19.6328929 67.9999062,25.4236514 C68.0244445,31.1759449 63.2288832,35.9929187 57.4712474,35.9999927 C51.837408,36.0068457 47.0208456,31.1631232 47.0000655,25.4705169" id="Fill-6" fill="#228DFF"></path>
                <path d="M75,15.7236022 C75.570497,15.1364974 76.1227381,14.567914 76.6745445,14 C81.1079039,17.8533354 81.1150759,26.0600828 76.656506,30 C76.135126,29.4073165 75.6107035,28.8117321 75.0360771,28.1590215 C78.1019824,24.0874465 78.1797873,19.9076442 75,15.7236022" id="Fill-8" fill="#228DFF"></path>
                <path d="M71,19.8533846 C71.515301,19.1685252 71.9581551,18.580022 72.3946935,18 C74.5177557,20.0934506 74.5359603,24.523716 72.4433628,27 C71.9756167,26.4025444 71.5065702,25.803204 71.0018576,25.1583948 C72.0880021,23.3971258 72.1290553,21.6363279 71,19.8533846" id="Fill-10" fill="#228DFF"></path>
            </g>
        </g>
    </g>
</svg>