<?xml version="1.0" encoding="UTF-8"?>
<svg width="130px" height="33px" viewBox="0 0 130 33" version="1.1" xmlns="http://www.w3.org/2000/svg" xmlns:xlink="http://www.w3.org/1999/xlink">
    <!-- Generator: Sketch 50.2 (55047) - http://www.bohemiancoding.com/sketch -->
    <title>logo</title>
    <desc>Created with Sketch.</desc>
    <defs></defs>
    <g id="Website" stroke="none" stroke-width="1" fill="none" fill-rule="evenodd">
        <g id="solutions" transform="translate(-250.000000, -44.000000)" fill="#FFFFFF" fill-rule="nonzero">
            <g id="menu" transform="translate(250.000000, 39.000000)">
                <path d="M126.787307,26.3072227 C126.787307,28.2000586 125.082863,29.4998504 122.847801,29.4998504 C121.228077,29.4998504 119.970645,28.6805134 119.970645,27.239149 L119.970645,27.1834118 C119.970645,25.6294582 121.255946,24.6964172 123.435271,24.6964172 C124.775193,24.6964172 125.921151,24.9516937 126.787307,25.2905759 L126.787307,26.3072227 Z M128.408145,18.2264412 C127.373662,17.1529425 125.72607,16.5598985 123.518877,16.5598985 C121.590369,16.5598985 120.165726,16.8987808 118.768951,17.4360875 C118.266201,17.6333973 117.847058,18.1695893 117.847058,18.7916166 C117.847058,19.5830851 118.490265,20.2039976 119.271701,20.2039976 C119.440027,20.2039976 119.607239,20.176129 119.802319,20.1192771 C120.725327,19.7525262 121.786564,19.5262331 123.071864,19.5262331 C125.446269,19.5262331 126.73157,20.6565838 126.73157,22.7757128 L126.73157,23.1424636 C125.585613,22.7757128 124.412902,22.5215511 122.764195,22.5215511 C119.160226,22.5215511 116.673232,24.1033732 116.673232,27.3249843 L116.673232,27.3807215 C116.673232,30.3760395 119.132358,31.986845 121.898038,31.986845 C124.160969,31.986845 125.698202,31.0259354 126.703701,29.8108641 L126.703701,30.3760395 C126.703701,31.1385246 127.373662,31.8174039 128.352408,31.8174039 C129.274301,31.8174039 130,31.110656 130,30.1787297 L130,22.83145 C130,20.8828769 129.49725,19.29994 128.408145,18.2264412 Z M113.209721,10.9092596 C112.259959,10.9092596 111.533146,11.6717447 111.533146,12.6036709 L111.533146,30.1218778 C111.533146,31.0827874 112.287828,31.8174039 113.209721,31.8174039 C114.159483,31.8174039 114.914165,31.0827874 114.914165,30.1218778 L114.914165,12.6036709 C114.914165,11.6717447 114.159483,10.9092596 113.209721,10.9092596 Z M106.197979,24.3017977 C106.197979,26.8723981 104.465667,29.0205104 101.727855,29.0205104 C99.1015172,29.0205104 97.2298615,26.8445295 97.2298615,24.2449458 L97.2298615,24.1880938 C97.2298615,21.5896248 98.9621742,19.4415125 101.672118,19.4415125 C104.326324,19.4415125 106.197979,21.6163787 106.197979,24.2449458 L106.197979,24.3017977 Z M101.727855,16.4461946 C97.2019929,16.4461946 93.848842,19.9788193 93.848842,24.2449458 L93.848842,24.3017977 C93.848842,28.5389409 97.1741243,32.0147136 101.672118,32.0147136 C106.225848,32.0147136 109.577884,28.4832036 109.577884,24.2449458 L109.577884,24.1880938 C109.577884,19.9219673 106.253717,16.4461946 101.727855,16.4461946 Z M89.5191751,24.3017977 C89.5191751,26.8723981 87.7868625,29.0205104 85.0490504,29.0205104 C82.4227128,29.0205104 80.5510571,26.8445295 80.5510571,24.2449458 L80.5510571,24.1880938 C80.5510571,21.5896248 82.2833698,19.4415125 84.9933132,19.4415125 C87.6475194,19.4415125 89.5191751,21.6163787 89.5191751,24.2449458 L89.5191751,24.3017977 Z M85.0490504,16.4461946 C80.5231885,16.4461946 77.1700377,19.9788193 77.1700377,24.2449458 L77.1700377,24.3017977 C77.1700377,28.5389409 80.4953199,32.0147136 84.9933132,32.0147136 C89.5470437,32.0147136 92.8990799,28.4832036 92.8990799,24.2449458 L92.8990799,24.1880938 C92.8990799,19.9219673 89.5749123,16.4461946 85.0490504,16.4461946 Z M72.7288963,24.2449458 C72.7288963,27.1834118 70.829372,29.0205104 68.5107039,29.0205104 C66.2199043,29.0205104 64.2077908,27.0986912 64.2077908,24.2449458 L64.2077908,24.1880938 C64.2077908,21.3343484 66.2199043,19.4125292 68.5107039,19.4125292 C70.8015034,19.4125292 72.7288963,21.3064798 72.7288963,24.1880938 L72.7288963,24.2449458 Z M69.3200082,16.4461946 C66.9177342,16.4461946 65.3816166,17.6902492 64.2913966,19.2442028 L64.2913966,12.6036709 C64.2913966,11.6427613 63.5378295,10.9092596 62.5869526,10.9092596 C61.6371904,10.9092596 60.9114919,11.6427613 60.9114919,12.6036709 L60.9114919,30.1218778 C60.9114919,31.053804 61.665059,31.8174039 62.5869526,31.8174039 C63.5378295,31.8174039 64.2913966,31.053804 64.2913966,30.1218778 L64.2913966,29.3593927 C65.3258794,30.7427904 66.861997,31.986845 69.3200082,31.986845 C72.8125021,31.986845 76.165653,29.1888368 76.165653,24.2449458 L76.165653,24.1880938 C76.165653,19.2152194 72.7846335,16.4461946 69.3200082,16.4461946 Z M48.2557997,23.171447 C48.5634692,20.8538936 50.015981,19.2442028 52.0838317,19.2442028 C54.318894,19.2442028 55.6030795,20.9664828 55.8271431,23.171447 L48.2557997,23.171447 Z M52.1117003,16.4461946 C47.8923931,16.4461946 44.9037636,19.9498359 44.9037636,24.2170772 L44.9037636,24.2728144 C44.9037636,28.8789379 48.2000625,32.0147136 52.4739922,32.0147136 C54.7659065,32.0147136 56.4413672,31.2522285 57.7824046,30.0371572 C58.0343368,29.7829955 58.2294171,29.4151299 58.2294171,28.991527 C58.2294171,28.2000586 57.6430616,27.6070146 56.8883797,27.6070146 C56.4971044,27.6070146 56.2741556,27.7207185 56.0222233,27.9180283 C55.0724612,28.7094967 53.9554874,29.2178201 52.5308442,29.2178201 C50.351519,29.2178201 48.647075,27.8611763 48.2836683,25.4310337 L57.5315871,25.4310337 C58.3977435,25.4310337 59.123442,24.7532692 59.123442,23.7923596 C59.123442,20.3455702 56.8047739,16.4461946 52.1117003,16.4461946 Z M37.7236955,20.5997319 L43.8146584,14.6670627 C44.2048189,14.299197 44.4288825,13.9034628 44.4288825,13.3672708 C44.4288825,12.5189504 43.7856751,11.7564653 42.8359129,11.7564653 C42.2216888,11.7564653 41.8025449,11.9816436 41.4112697,12.4063612 L32.136597,21.8437865 L32.136597,13.47986 C32.136597,12.5189504 31.3819151,11.7564653 30.432153,11.7564653 C29.4545222,11.7564653 28.6998403,12.5189504 28.6998403,13.47986 L28.6998403,30.0928944 C28.6998403,31.053804 29.4545222,31.8174039 30.432153,31.8174039 C31.3819151,31.8174039 32.136597,31.053804 32.136597,30.0928944 L32.136597,25.9962091 L35.3214215,22.8883019 L41.6074647,30.9980668 C41.9697566,31.4785216 42.3889004,31.8174039 43.0599765,31.8174039 C44.0376073,31.8174039 44.7922892,31.0827874 44.7922892,30.1218778 C44.7922892,29.584571 44.5960942,29.2456887 44.3174081,28.8789379 L37.7236955,20.5997319 Z M7.67241838,21.0277937 C8.40814963,21.0277937 9.00453784,21.6130345 9.00453784,22.3331593 C9.00453784,23.0555136 8.40814963,23.6396396 7.67241838,23.6396396 C6.93668714,23.6396396 6.34029893,23.0555136 6.34029893,22.3331593 C6.34029893,21.6130345 6.93668714,21.0277937 7.67241838,21.0277937 Z M11.1771745,21.0277937 C11.9129057,21.0277937 12.5092939,21.6130345 12.5092939,22.3331593 C12.5092939,23.0555136 11.9129057,23.6396396 11.1771745,23.6396396 C10.4414433,23.6396396 9.84505505,23.0555136 9.84505505,22.3331593 C9.84505505,21.6130345 10.4414433,21.0277937 11.1771745,21.0277937 Z M9.55076255,25.5792947 C13.6842344,25.5792947 17.3216451,20.0379007 17.3216451,13.0194706 C17.3216451,6.00215513 14.6763569,5 9.55076255,5 C4.42516821,5 1.52906249,6.00215513 1.52906249,13.0194706 C1.52906249,20.0379007 5.00483525,25.5792947 9.55076255,25.5792947 Z M18.6660268,31.9846155 C18.1075399,31.0560335 17.4821683,30.3314497 16.8400756,29.7361762 C16.1957534,29.139788 15.5492017,28.6693659 14.9193711,28.1989438 C14.6217344,27.975995 14.3162945,27.770882 14.0052808,27.5847197 C14.3162945,27.3985574 14.6217344,27.1923297 14.9193711,26.9693809 C16.3573913,25.8958821 17.6081344,24.4478292 18.6660268,22.6887627 C19.0394661,22.0678501 18.8276647,21.2674637 18.1944899,20.9018276 C17.5602004,20.5361915 16.7442076,20.7424191 16.3696535,21.3633317 C15.4544484,22.8871872 14.4132772,24.0665867 13.3063361,24.8914975 C12.1202482,25.7710307 10.9531109,26.2068958 9.75364601,26.2760099 C9.64440107,26.2726657 9.53515613,26.2693214 9.42479644,26.2693214 C9.3155515,26.2693214 9.20519181,26.2726657 9.09594687,26.2760099 C7.89648199,26.2068958 6.73045944,25.7710307 5.54325675,24.8914975 C4.43631565,24.0665867 3.39625921,22.8871872 2.47993939,21.3633317 C2.10650004,20.7424191 1.28939247,20.5361915 0.656217697,20.9018276 C0.0219281846,21.2674637 -0.18875849,22.0678501 0.184680854,22.6898775 C1.2425732,24.4478292 2.49220158,25.8958821 3.93022174,26.9693809 C4.22785847,27.1923297 4.53329841,27.3985574 4.84542681,27.5847197 C4.53329841,27.770882 4.22785847,27.975995 3.93022174,28.1989438 C3.30150594,28.6693659 2.6538395,29.139788 2.01063203,29.7361762 C1.36853931,30.3314497 0.742053009,31.0560335 0.184680854,31.9846155 C-0.18875849,32.6055281 0.0219281846,33.4070293 0.656217697,33.7726654 C1.28939247,34.1383015 2.10650004,33.9320738 2.47993939,33.3111612 C2.90911595,32.5988396 3.34943995,32.0927457 3.84438642,31.6301268 C4.33821815,31.1697374 4.90004929,30.757282 5.5443715,30.2768272 C5.85872939,30.0438457 6.1708578,29.842077 6.48410095,29.6704063 C6.44619964,29.737291 6.40941308,29.8052904 6.37262652,29.8755193 C5.46856888,31.5743896 4.53775738,33.9320738 4.53329841,36.6174929 C4.53329841,37.3376177 5.12968661,37.9217437 5.86541786,37.9217437 C6.6011491,37.9217437 7.19753731,37.3376177 7.19753731,36.6174929 C7.19307833,34.5440685 7.94887497,32.5486761 8.73254022,31.0861316 C8.97109551,30.6402339 9.20965079,30.2444996 9.42479644,29.9111911 C9.65220428,30.2612208 9.90413649,30.6803647 10.1538392,31.1552457 C10.9252423,32.6111018 11.6565145,34.5752813 11.6520556,36.6174929 C11.6520556,37.3376177 12.2484438,37.9217437 12.9852898,37.9217437 C13.721021,37.9217437 14.3174092,37.3376177 14.3174092,36.6174929 C14.3129502,33.9320738 13.381024,31.5743896 12.4780811,29.8755193 C12.4401798,29.8052904 12.4033932,29.737291 12.3666067,29.6704063 C12.6787351,29.842077 12.9919782,30.0438457 13.3063361,30.2768272 C13.9495436,30.757282 14.5113747,31.1697374 15.0063212,31.6301268 C15.5012677,32.0927457 15.9404769,32.5988396 16.3696535,33.3100465 C16.6182415,33.7236166 17.0630245,33.953254 17.5189549,33.953254 C17.7485922,33.953254 17.9815738,33.8952873 18.1944899,33.7726654 C18.8276647,33.4070293 19.0394661,32.6055281 18.6660268,31.9846155 Z" id="logo"></path>
            </g>
        </g>
    </g>
</svg>