<?xml version="1.0" encoding="UTF-8"?>
<svg width="185px" height="185px" viewBox="0 0 185 185" version="1.1" xmlns="http://www.w3.org/2000/svg" xmlns:xlink="http://www.w3.org/1999/xlink">
    <!-- Generator: Sketch 52.6 (67491) - http://www.bohemiancoding.com/sketch -->
    <title>logo</title>
    <desc>Created with Sketch.</desc>
    <defs>
        <linearGradient x1="87.6630872%" y1="10.6294604%" x2="10.9467785%" y2="90.1313962%" id="linearGradient-1">
            <stop stop-color="#324155" offset="0%"></stop>
            <stop stop-color="#263243" offset="100%"></stop>
        </linearGradient>
        <circle id="path-2" cx="92.1875" cy="92.1875" r="92.1875"></circle>
        <polygon id="path-4" points="0 155 155 155 155 0 0 0"></polygon>
    </defs>
    <g id="Website" stroke="none" stroke-width="1" fill="none" fill-rule="evenodd">
        <g id="404" transform="translate(-940.000000, -380.000000)">
            <g id="mesic" transform="translate(250.000000, 380.000000)">
                <g id="logo" transform="translate(690.000000, 0.000000)">
                    <mask id="mask-3" fill="white">
                        <use xlink:href="#path-2"></use>
                    </mask>
                    <use id="Oval-Copy" fill="url(#linearGradient-1)" fill-rule="nonzero" xlink:href="#path-2"></use>
                    <g id="keboolaSpace" mask="url(#mask-3)">
                        <g transform="translate(92.500000, 92.500000) rotate(10.000000) translate(-92.500000, -92.500000) translate(15.000000, 15.000000)" id="Group-97">
                            <g>
                                <path d="M77.5,1.53465347 C57.2091188,1.53465347 38.1321485,9.43658416 23.7843663,23.7843663 C9.43627723,38.1324554 1.53465347,57.2088119 1.53465347,77.5 C1.53465347,97.7908812 9.43627723,116.867851 23.7843663,131.215634 C38.1321485,145.563723 57.2091188,153.465347 77.5,153.465347 C97.7908812,153.465347 116.867851,145.563723 131.215634,131.215634 C145.563723,116.867851 153.465347,97.7908812 153.465347,77.5 C153.465347,57.2088119 145.563723,38.1324554 131.215634,23.7843663 C116.867851,9.43658416 97.7908812,1.53465347 77.5,1.53465347 M77.5,155 C56.7990594,155 37.3368911,146.938465 22.6990594,132.300941 C8.06153465,117.663109 0,98.2009406 0,77.5 C0,56.7990594 8.06153465,37.3368911 22.6990594,22.6993663 C37.3368911,8.06153465 56.7990594,0 77.5,0 C98.2009406,0 117.663109,8.06153465 132.300941,22.6993663 C146.938465,37.3368911 155,56.7990594 155,77.5 C155,98.2009406 146.938465,117.663109 132.300941,132.300941 C117.663109,146.938465 98.2009406,155 77.5,155" id="Fill-1" fill="#FEFEFE"></path>
                                <path d="M77.5,16.8811881 C44.0746337,16.8811881 16.8811881,44.0746337 16.8811881,77.5 C16.8811881,110.925366 44.0746337,138.118812 77.5,138.118812 C110.925366,138.118812 138.118812,110.925366 138.118812,77.5 C138.118812,44.0746337 110.925366,16.8811881 77.5,16.8811881 M77.5,139.653465 C43.2284257,139.653465 15.3465347,111.771574 15.3465347,77.5 C15.3465347,43.2284257 43.2284257,15.3465347 77.5,15.3465347 C111.771574,15.3465347 139.653465,43.2284257 139.653465,77.5 C139.653465,111.771574 111.771574,139.653465 77.5,139.653465" id="Fill-3" fill="#FEFEFE"></path>
                                <polygon id="Fill-5" fill="#FEFEFE" points="10.3975842 63.6653446 10.9362475 64.5256713 12.7508218 64.9142455 12.4761188 66.196295 6.33013861 64.8801762 6.60484158 63.5981267 9.32179208 64.1800673 8.73923762 63.4480376 7.10728713 61.2504139 7.44644554 59.6678792 9.69225743 62.6039782 13.6172871 60.8676713 13.2897921 62.3977208"></polygon>
                                <polygon id="Fill-7" fill="#FEFEFE" points="13.4770812 52.6927257 12.5627347 55.2420921 14.1366752 55.8068446 15.2081703 52.8207158 16.1934178 53.1743 14.6793287 57.3942901 8.7632396 55.2718644 10.271497 51.0672208 11.2668733 51.4241812 10.200903 54.3949634 11.5722693 54.8866663 12.4866158 52.3376069"></polygon>
                                <path d="M15.9436069,47.1477465 L17.4432703,47.9242812 L18.0089436,46.8322218 C18.1774485,46.5062614 18.2354584,46.2284891 18.1823594,45.9982911 C18.1292604,45.7684 17.9991218,45.5995881 17.7916366,45.4921624 C17.2867356,45.2306574 16.877597,45.383202 16.5639139,45.950103 L15.9436069,47.1477465 Z M15.1293198,46.7257168 L15.655399,45.7100832 C15.7993495,45.4163505 15.854904,45.1603703 15.8220624,44.9427564 C15.7886069,44.7251426 15.6618446,44.5590931 15.4414683,44.4452218 C15.1894782,44.3144693 14.964805,44.3021921 14.7677554,44.409004 C14.5707059,44.5155089 14.388696,44.7300535 14.2217257,45.0526376 L13.7303297,46.0013604 L15.1293198,46.7257168 Z M17.7695376,49.5700436 L12.1883099,46.6790634 L13.2576564,44.6143406 C13.6250525,43.9053307 14.0375673,43.4314297 14.4955079,43.1923307 C14.9531416,42.9535386 15.4313396,42.9633604 15.9294881,43.2214891 C16.1817851,43.3519347 16.3757653,43.5428455 16.5114287,43.7929941 C16.6470921,44.0437564 16.6952802,44.3433208 16.6566069,44.6916871 C16.8889535,44.4231228 17.165498,44.2586079 17.4865475,44.1981426 C17.807597,44.1373703 18.1261911,44.1889347 18.4426366,44.3528356 C18.9628842,44.6223208 19.2661317,45.0084396 19.3523792,45.5108851 C19.4386267,46.0130238 19.2989733,46.6170634 18.9331119,47.323004 L17.7695376,49.5700436 Z" id="Fill-9" fill="#FEFEFE"></path>
                                <path d="M21.9524505,36.3297594 C21.4165495,35.9476307 20.9297574,35.7662347 20.4920743,35.7852644 C20.0540842,35.804601 19.6934406,36.0133139 19.4095297,36.411403 C19.1296089,36.8039673 19.0507277,37.2115713 19.1731931,37.6345218 C19.2956584,38.0577792 19.6246881,38.4601653 20.1605891,38.842601 L20.3935495,39.0086505 C20.9147178,39.3800366 21.400896,39.5580564 21.8520842,39.5417891 C22.3035792,39.5255218 22.6697475,39.3195713 22.9518168,38.9242446 C23.2357277,38.5261554 23.3124604,38.1167099 23.181401,37.6965218 C23.0503416,37.2760267 22.7182426,36.8757891 22.1854109,36.4958089 L21.9524505,36.3297594 Z M22.9435297,35.4329079 C23.7163812,35.9841554 24.177698,36.6320861 24.3268663,37.3770069 C24.4763416,38.1216208 24.3032327,38.8410663 23.8084604,39.5350366 C23.3152228,40.2262446 22.6893911,40.6258683 21.9300446,40.733601 C21.1703911,40.8413337 20.3984604,40.6154327 19.6136386,40.055898 L19.4116782,39.9116406 C18.907698,39.5525317 18.5326287,39.1384822 18.2867772,38.6688782 C18.0403119,38.1995812 17.9408663,37.7167792 17.9878267,37.2201653 C18.0347871,36.7235515 18.2201733,36.2484228 18.5439851,35.7941653 C19.045203,35.091601 19.6753317,34.6925911 20.4343713,34.5977495 C21.1934109,34.5029079 21.9638069,34.7343337 22.7458663,35.2917198 L22.9435297,35.4329079 Z" id="Fill-11" fill="#FEFEFE"></path>
                                <path d="M28.5523505,28.7139188 C28.0772218,28.2584337 27.6217366,28.0085921 27.185895,27.9640871 C26.7497465,27.9198891 26.3624,28.0745822 26.0241624,28.4275525 C25.6905287,28.775305 25.5536376,29.1675624 25.613796,29.6037109 C25.6739545,30.0401663 25.941598,30.4858297 26.4167267,30.9416218 L26.6229842,31.1392851 C27.0852218,31.5824931 27.5407069,31.8286515 27.9894396,31.8777604 C28.4381723,31.9268693 28.8304297,31.7761663 29.1665188,31.4253446 C29.5050634,31.0723743 29.6398059,30.6782752 29.5710535,30.2436614 C29.502301,29.8087406 29.2312812,29.3649188 28.7589149,28.9118891 L28.5523505,28.7139188 Z M29.6622119,27.969305 C30.347895,28.6264436 30.7106871,29.3342257 30.750895,30.0929584 C30.790796,30.8513842 30.5157861,31.538295 29.9261723,32.1536911 C29.3387069,32.7663248 28.6613109,33.0711069 27.8942911,33.0683446 C27.1269644,33.0652752 26.3958554,32.7304139 25.7000436,32.0631465 L25.520796,31.8915723 C25.0742119,31.463404 24.7629842,30.9993248 24.5871129,30.4993347 C24.4112416,29.9993446 24.3823901,29.5070277 24.5008653,29.0223842 C24.6190337,28.5377406 24.8710238,28.0942257 25.2568356,27.6918396 C25.8544297,27.0687703 26.5355089,26.7649089 27.3000733,26.7808693 C28.0649446,26.7965228 28.793905,27.136602 29.4872614,27.8011069 L29.6622119,27.969305 Z" id="Fill-13" fill="#FEFEFE"></path>
                                <polygon id="Fill-15" fill="#FEFEFE" points="35.2985337 25.6681228 37.6416426 23.8035188 38.2932564 24.6224099 34.9243851 27.3037564 31.010405 22.385499 32.0361673 21.5693703"></polygon>
                                <path d="M41.6931277,19.5440574 L43.2676822,18.602701 L41.2566723,17.0266119 L41.6931277,19.5440574 Z M44.1083653,19.2629089 L41.8766723,20.5974436 L42.1259,22.0133149 L40.9914842,22.6916317 L39.9473059,15.9928693 L40.9798208,15.3753248 L46.377197,19.4719287 L45.2378703,20.1530079 L44.1083653,19.2629089 Z" id="Fill-17" fill="#FEFEFE"></path>
                                <path d="M58.0455663,12.947595 C57.9731307,12.7213871 57.8261109,12.5694564 57.6045069,12.4911891 C57.3832099,12.4129218 56.9903386,12.3920505 56.4265069,12.4291891 C55.8623683,12.4663277 55.4025861,12.4491396 55.0474673,12.3779317 C54.6923485,12.3067238 54.4075168,12.181496 54.1935861,12.0025554 C53.9796554,11.8239218 53.8222,11.5768426 53.7212198,11.2616248 C53.5613089,10.7613277 53.640497,10.2837436 53.959398,9.82856535 C54.278299,9.37338713 54.7715366,9.03883267 55.4394178,8.82490198 C56.1588634,8.59470396 56.7908337,8.58119901 57.3356356,8.78438713 C57.8804376,8.98788218 58.2404673,9.36325842 58.4160317,9.91143663 L57.1674376,10.3113673 C57.0787347,10.033595 56.9056257,9.84820891 56.6493386,9.75490198 C56.3927446,9.66128812 56.0916455,9.66988218 55.7454277,9.78068416 C55.4197743,9.88473366 55.1843584,10.0332881 55.0379525,10.2254267 C54.8918535,10.4175653 54.854101,10.6232089 54.9240812,10.8426644 C54.9876158,11.0412485 55.1370911,11.1747634 55.3722,11.242902 C55.6076158,11.3110406 55.9894376,11.3266941 56.5173584,11.2898624 C57.3337941,11.2324663 57.9553287,11.3033673 58.3816554,11.5028723 C58.8079822,11.7026842 59.0992594,12.0455257 59.2548733,12.5320109 C59.4227644,13.0562485 59.3420416,13.5350604 59.012705,13.9690604 C58.6833683,14.4033673 58.1692594,14.7320901 57.4703782,14.9558426 C56.997705,15.1071594 56.5397644,15.1660901 56.0965564,15.1323277 C55.6533485,15.0985653 55.2770515,14.9708822 54.9682792,14.7486644 C54.6592,14.5267535 54.4428139,14.2219713 54.3185069,13.8349317 L55.5723188,13.4334663 C55.7831802,14.0912188 56.3267545,14.2796743 57.2036554,13.9988327 C57.5360614,13.8926347 57.777002,13.7456149 57.9261703,13.5577733 C58.0759525,13.3702386 58.1158535,13.1667436 58.0455663,12.947595" id="Fill-19" fill="#FEFEFE"></path>
                                <path d="M64.4458386,9.72675644 L65.7318782,9.50269703 C66.1008089,9.43854851 66.3767396,9.31025149 66.5605911,9.11749901 C66.7438287,8.92474653 66.8098188,8.67950891 66.7579475,8.38209307 C66.7042347,8.07362772 66.5541455,7.84527129 66.3073733,7.69671683 C66.060601,7.54785545 65.7579673,7.50457822 65.4003931,7.56688515 L64.1085218,7.79186535 L64.4458386,9.72675644 Z M64.6272347,10.7684792 L65.0056802,12.9424693 L63.7141158,13.1674495 L62.6358683,6.97512277 L65.2134723,6.52608317 C65.9648386,6.39533069 66.5974228,6.4794297 67.1115317,6.77899406 C67.6253337,7.07825149 67.9356406,7.5343505 68.0427594,8.14729109 C68.1471158,8.7464198 68.0160564,9.2583802 67.6498881,9.68347921 C67.2843337,10.1085782 66.7266406,10.3918752 65.9771158,10.5333703 L64.6272347,10.7684792 Z" id="Fill-21" fill="#FEFEFE"></path>
                                <path d="M74.3350842,9.49505446 L76.1686881,9.43612376 L75.1748465,7.08196535 L74.3350842,9.49505446 Z M76.5836584,10.4213713 L73.9842624,10.5051634 L73.5155792,11.8642525 L72.1942426,11.9069158 L74.5315198,5.54301485 L75.7340743,5.50403465 L78.4657574,11.7046485 L77.1395099,11.7473119 L76.5836584,10.4213713 Z" id="Fill-23" fill="#FEFEFE"></path>
                                <path d="M87.5774554,10.3616119 C87.4436337,11.0383941 87.1195149,11.5414535 86.6047921,11.8717109 C86.0900693,12.2019683 85.444901,12.3256614 84.6686733,12.2424832 C83.8246139,12.1522455 83.1846634,11.8127802 82.7485149,11.2234733 C82.3123663,10.6341663 82.145396,9.86223564 82.247604,8.90706733 L82.2865842,8.54243366 C82.3510396,7.93808713 82.5201584,7.41968119 82.7945545,6.9878297 C83.0686436,6.55597822 83.4295941,6.23922574 83.8780198,6.03757228 C84.3264455,5.83591881 84.8298119,5.76471089 85.3878119,5.82456238 C86.1529901,5.90620594 86.7475149,6.16709703 87.1707723,6.60662178 C87.5940297,7.04614653 87.8039703,7.61673069 87.8015149,8.31806733 L86.4976733,8.17872079 C86.4976733,7.77357228 86.3957723,7.46510693 86.1925842,7.25363168 C85.9890891,7.0418495 85.6836931,6.91416634 85.2757822,6.87058218 C84.2923762,6.76561188 83.7297723,7.37456238 83.5882772,8.69774059 L83.5468416,9.08416634 C83.4762475,9.74590891 83.5431584,10.2511168 83.7481881,10.600404 C83.9532178,10.949998 84.2972871,11.1501168 84.7800891,11.2019881 C85.2091782,11.2477208 85.5440396,11.1949287 85.7846733,11.043305 C86.025,10.8919881 86.1898218,10.6182059 86.2794455,10.2225723 L87.5774554,10.3616119 Z" id="Fill-25" fill="#FEFEFE"></path>
                                <polygon id="Fill-27" fill="#FEFEFE" points="95.8705693 11.505696 93.2404802 10.8596069 92.8411634 12.4838842 95.9221337 13.2407752 95.6722921 14.2570228 91.3184802 13.1873693 92.8181436 7.08343861 97.155995 8.14940891 96.904005 9.17639901 93.838995 8.42319109 93.4912426 9.83783465 96.1213317 10.4839238"></polygon>
                                <path d="M107.524666,15.3268911 L108.691924,15.9125149 C109.026171,16.080099 109.324201,16.1411782 109.586934,16.0957525 C109.848746,16.0503267 110.047944,15.8925644 110.1833,15.6224653 C110.323567,15.3428515 110.338914,15.0696832 110.22934,14.8032673 C110.119151,14.5368515 109.901845,14.3223069 109.577112,14.1593267 L108.40525,13.5715545 L107.524666,15.3268911 Z M107.050458,16.2722376 L106.060914,18.2445743 L104.889052,17.656495 L107.707904,12.0384356 L110.046716,13.2118317 C110.728409,13.5537525 111.18635,13.9978812 111.421151,14.5445248 C111.65626,15.0908614 111.634161,15.6421089 111.355161,16.1982673 C111.082607,16.7415347 110.672854,17.0751683 110.125904,17.1991683 C109.57834,17.3231683 108.962023,17.2188119 108.275419,16.8867129 L107.050458,16.2722376 Z" id="Fill-29" fill="#FEFEFE"></path>
                                <path d="M115.912192,20.0267673 L116.858459,20.6786881 C117.178588,20.8990644 117.466796,20.9939059 117.723697,20.9635198 C117.980598,20.9331337 118.188697,20.8023812 118.347994,20.5712624 C118.513123,20.3312426 118.566836,20.0866188 118.50944,19.8373911 C118.451737,19.5881634 118.258677,19.3502921 117.929954,19.1237772 L116.98338,18.4718564 L115.912192,20.0267673 Z M116.30936,21.5712426 L115.318281,20.8886287 L114.017509,22.7768663 L112.938034,22.0331733 L116.503954,16.8570941 L118.529697,18.2530149 C119.175479,18.6977574 119.582776,19.178104 119.751588,19.6940545 C119.9204,20.210005 119.83139,20.7195099 119.484251,21.2231832 C119.004519,21.919302 118.338786,22.1725198 117.486747,21.9828366 L117.250103,24.9318267 L117.216648,24.9809356 L116.06136,24.1850644 L116.30936,21.5712426 Z" id="Fill-31" fill="#FEFEFE"></path>
                                <path d="M125.537048,27.8217327 C125.983018,27.337396 126.223345,26.877 126.258949,26.4402376 C126.294246,26.0034752 126.131879,25.619505 125.772156,25.2883267 C125.417345,24.9617525 125.022632,24.8328416 124.587711,24.901901 C124.15279,24.9706535 123.712651,25.247505 123.266681,25.7315347 L123.073008,25.9420891 C122.639315,26.4132277 122.402671,26.8736238 122.362463,27.3229703 C122.322562,27.7729307 122.481246,28.1621188 122.838513,28.4908416 C123.198543,28.8223267 123.595097,28.9487822 124.028483,28.8711287 C124.461869,28.7934752 124.900166,28.5138614 125.343374,28.0322871 L125.537048,27.8217327 Z M126.304067,28.9162475 C125.661048,29.6151287 124.960632,29.9920396 124.203127,30.0475941 C123.445622,30.1031485 122.753493,29.8422574 122.126127,29.2649208 C121.501523,28.6900396 121.182929,28.0190891 121.170038,27.2523762 C121.157453,26.4853564 121.477582,25.7471881 122.130424,25.0378713 L122.298622,24.8552475 C122.717582,24.4003762 123.175523,24.0796337 123.67183,23.8936337 C124.16783,23.7076337 124.659533,23.6689604 125.146632,23.7773069 C125.633117,23.8856535 126.081543,24.1284356 126.491909,24.5062673 C127.127255,25.0909703 127.444622,25.765604 127.444622,26.5304752 C127.444315,27.2956535 127.118968,28.0313663 126.468582,28.7376139 L126.304067,28.9162475 Z" id="Fill-33" fill="#FEFEFE"></path>
                                <path d="M131.033041,37.7355327 L130.854407,37.7211069 C130.12606,37.6179782 129.422268,37.149602 128.743645,36.3153644 C128.180427,35.6235426 127.94409,34.9025624 128.034021,34.1524238 C128.123645,33.4022851 128.538308,32.7264238 129.277397,32.1248396 L129.549645,31.9035426 C130.288734,31.3019584 131.025674,31.0244931 131.759546,31.0717604 C132.493724,31.1190277 133.137357,31.4830475 133.691367,32.1638198 C134.179694,32.7635624 134.429536,33.3485723 134.441199,33.9185426 C134.453169,34.4888198 134.219595,35.0265624 133.740476,35.5320772 L132.933555,34.5403842 C133.171734,34.2632257 133.286219,33.9879089 133.277318,33.7147406 C133.26811,33.4415723 133.141041,33.1542851 132.895803,32.8528792 C132.251249,32.0606911 131.405654,32.0901564 130.359635,32.9415822 L130.091684,33.159503 C129.581258,33.5747802 129.286912,33.9998792 129.209258,34.4341861 C129.131298,34.8684931 129.260516,35.2920574 129.596298,35.7048792 C129.932387,36.117701 130.258961,36.3574139 130.576328,36.4240178 L131.410258,35.7453941 L130.562209,34.7033644 L131.30713,34.0971762 L132.978981,36.1520772 L131.033041,37.7355327 Z" id="Fill-35" fill="#FEFEFE"></path>
                                <path d="M136.349755,41.077302 L136.943666,42.0613218 C137.144399,42.3937277 137.367845,42.5990644 137.614617,42.6770248 C137.861082,42.7549851 138.104785,42.7215297 138.344805,42.5766584 C138.594033,42.4262624 138.744122,42.2252228 138.794458,41.9744604 C138.844488,41.7233911 138.766528,41.427203 138.56027,41.0852822 L137.966666,40.1015693 L136.349755,41.077302 Z M136.075052,42.6481733 L135.453518,41.6181139 L133.490696,42.8028663 L132.812993,41.6804208 L138.194409,38.4327871 L139.465409,40.5389455 C139.870864,41.2105099 140.043973,41.8157772 139.98535,42.3553614 C139.926419,42.8949455 139.635142,43.3228069 139.111825,43.6386386 C138.388082,44.075401 137.676924,44.0318168 136.978656,43.5081931 L135.548359,46.0980743 L135.497716,46.1287673 L134.772746,44.9277475 L136.075052,42.6481733 Z" id="Fill-37" fill="#FEFEFE"></path>
                                <path d="M140.038633,50.1699703 L140.757157,51.8580891 L142.591989,50.0800396 L140.038633,50.1699703 Z M139.98891,52.6011683 L138.970207,50.2083366 L137.533464,50.2629703 L137.015365,49.0469109 L143.794237,48.9232178 L144.265375,50.0300099 L139.473266,54.8202772 L138.953326,53.599 L139.98891,52.6011683 Z" id="Fill-39" fill="#FEFEFE"></path>
                                <polygon id="Fill-41" fill="#FEFEFE" points="147.194261 58.467596 143.220737 61.3315663 148.069628 61.9804178 148.484291 63.6452099 142.385578 65.1651307 142.069747 63.8981208 143.718885 63.4871406 146.7354 62.8742 141.643113 62.1863683 141.423964 61.306705 145.573053 58.3211901 142.647697 59.1891901 140.998558 59.5998634 140.683034 58.3331604 146.781747 56.8132396"></polygon>
                                <polygon id="Fill-43" fill="#FEFEFE" points="14.1002426 98.8247772 13.5106287 96.8165297 8.41711386 98.311896 8.14394554 97.3809752 13.2371535 95.8856089 12.6506089 93.8874901 13.420698 93.6615891 14.8703317 98.5988762"></polygon>
                                <path d="M15.3357307,107.290263 C15.9667802,107.006352 16.3875822,106.652154 16.5984436,106.227669 C16.8096119,105.80257 16.8040871,105.343095 16.5818693,104.848937 C16.366404,104.370432 16.0257109,104.068719 15.5594832,103.942877 C15.0929485,103.817343 14.545998,103.895303 13.9186317,104.177679 L13.6031069,104.319481 C12.9818792,104.598788 12.5632257,104.956055 12.3471465,105.390976 C12.1310673,105.82559 12.1310673,106.283531 12.3477604,106.765105 C12.5715129,107.26264 12.9122059,107.570491 13.3695327,107.688966 C13.8265525,107.807135 14.3719683,107.72365 15.0060871,107.438511 L15.3357307,107.290263 Z M15.4023347,108.312956 C14.5699386,108.687412 13.8130475,108.763224 13.1319683,108.540392 C12.4508891,108.317867 11.9438396,107.836293 11.6108198,107.096283 C11.282404,106.366095 11.2615327,105.667214 11.547899,104.99964 C11.8342653,104.332065 12.3968693,103.809669 13.235404,103.432451 L13.5322059,103.298937 C14.3550871,102.928778 15.1119782,102.855729 15.8031861,103.079788 C16.4943941,103.303848 17.0045129,103.780818 17.3329287,104.511006 C17.6671762,105.254085 17.690503,105.953887 17.4029089,106.610412 C17.1153149,107.267244 16.5665228,107.781659 15.7562257,108.153659 L15.4023347,108.312956 Z" id="Fill-45" fill="#FEFEFE"></path>
                                <polygon id="Fill-47" fill="#FEFEFE" points="19.2080604 119.992805 18.638397 119.201231 23.5974762 115.630706 24.1674465 116.422587"></polygon>
                                <polygon id="Fill-49" fill="#FEFEFE" points="25.8774802 127.940039 25.2277079 127.226732 26.4879653 121.786385 23.0908564 124.880247 22.437401 124.162643 26.9554208 120.048237 27.6088762 120.765534 26.3443218 126.209256 29.7457277 123.112019 30.3955 123.825326"></polygon>
                                <polygon id="Fill-51" fill="#FEFEFE" points="34.2500584 131.953833 32.161702 130.199417 30.4781871 132.203367 29.7351079 131.57907 33.6659693 126.900526 36.8184545 129.549031 36.302504 130.163506 33.8927911 128.138991 32.6779594 129.584942 34.7666228 131.339357"></polygon>
                                <polygon id="Fill-53" fill="#FEFEFE" points="37.5426574 137.56161 36.7345089 137.015273 40.1583208 131.953372 40.9664693 132.500016"></polygon>
                                <polygon id="Fill-55" fill="#FEFEFE" points="46.5515644 142.721268 45.6952277 142.276219 44.9978812 136.735506 42.8791386 140.812773 42.018198 140.365575 44.8358218 134.943031 45.6970693 135.390536 46.3916535 140.935852 48.5131584 136.853981 49.369495 137.298724"></polygon>
                                <polygon id="Fill-57" fill="#FEFEFE" points="52.329596 145.117967 51.417705 144.771136 53.5892396 139.059155 54.5011307 139.405987"></polygon>
                                <polygon id="Fill-59" fill="#FEFEFE" points="63.1219238 142.822279 61.0961812 142.295586 59.7607257 147.432992 58.8212109 147.188982 60.1569733 142.051269 58.1416663 141.527339 58.3436267 140.750804 63.3235772 142.045438"></polygon>
                                <polygon id="Fill-61" fill="#FEFEFE" points="68.9838703 146.035751 70.9783059 143.22089 72.0611574 143.354098 69.3377614 147.025603 69.0777911 149.144346 68.1146426 149.02587 68.3816723 146.849732 66.6518109 142.689593 67.7349693 142.822494"></polygon>
                                <path d="M83.2765277,147.146288 L85.369795,146.943714 L84.0736267,144.386674 L83.2765277,147.146288 Z M85.7543792,147.70214 L83.0395772,147.965179 L82.6061911,149.477427 L81.6197158,149.572882 L83.5312802,143.248268 L84.3977455,143.164169 L87.451399,149.007823 L86.4698347,149.102971 L85.7543792,147.70214 Z" id="Fill-63" fill="#FEFEFE"></path>
                                <polygon id="Fill-65" fill="#FEFEFE" points="97.0722337 146.989539 96.1342535 147.217281 91.9655208 143.501885 93.0505208 147.966806 92.1076297 148.196083 90.6644416 142.257895 91.6073327 142.028618 95.7776 145.749539 94.6910653 141.2794 95.6290455 141.05135"></polygon>
                                <path d="M101.076114,140.058706 L102.753797,144.251686 L103.552431,143.932171 C104.15647,143.690617 104.55149,143.336726 104.738104,142.870191 C104.924104,142.40427 104.892797,141.859161 104.643262,141.235785 L104.518649,140.923944 C104.269114,140.300874 103.924431,139.884369 103.484599,139.674122 C103.04446,139.464181 102.527589,139.477686 101.933371,139.715557 L101.076114,140.058706 Z M102.146995,145.347429 L99.8772426,139.673815 L101.635035,138.97033 C102.161114,138.760082 102.670926,138.681508 103.165084,138.7343 C103.658629,138.787092 104.099381,138.967567 104.486114,139.276033 C104.873153,139.584498 105.174866,139.994864 105.391252,140.507132 L105.541342,140.882201 C105.86853,141.700478 105.876817,142.452458 105.565282,143.138142 C105.254054,143.824132 104.6715,144.33732 103.817619,144.679241 L102.146995,145.347429 Z" id="Fill-67" fill="#FEFEFE"></path>
                                <path d="M115.843255,135.306989 L116.972147,136.943237 L118.103186,136.162712 C118.434057,135.934662 118.63878,135.689118 118.717048,135.427306 C118.795622,135.16488 118.750503,134.911355 118.581384,134.666732 C118.192196,134.102593 117.659364,134.053791 116.983196,134.520326 L115.843255,135.306989 Z M115.423374,134.698346 L116.433483,134.000999 C116.744404,133.786761 116.946978,133.55687 117.040899,133.311326 C117.135127,133.065781 117.09983,132.823613 116.935008,132.584821 C116.601374,132.101098 116.09985,132.079613 115.430741,132.519751 L114.407434,133.225999 L115.423374,134.698346 Z M116.623166,138.146405 L113.153008,133.116118 L114.905889,131.907118 C115.507473,131.491841 116.048899,131.291415 116.530166,131.305534 C117.011741,131.319959 117.406453,131.550157 117.713998,131.996128 C117.87483,132.229395 117.949414,132.483841 117.93775,132.759157 C117.926087,133.035088 117.826642,133.307643 117.6388,133.577435 C117.971513,133.449751 118.295018,133.435633 118.610236,133.535078 C118.92484,133.634524 119.182661,133.829425 119.383087,134.120088 C119.697077,134.574959 119.783325,135.035662 119.642444,135.502504 C119.501255,135.969346 119.14276,136.403959 118.566038,136.806039 L116.623166,138.146405 Z" id="Fill-69" fill="#FEFEFE"></path>
                                <polygon id="Fill-71" fill="#FEFEFE" points="125.26968 127.836327 123.195136 129.702772 124.510948 131.165297 126.92465 128.993455 127.454413 129.582149 124.319116 132.403149 120.232027 127.860267 123.34369 125.060446 123.880512 125.657119 121.490136 127.807782 122.661997 129.110089 124.736542 127.243644"></polygon>
                                <polygon id="Fill-73" fill="#FEFEFE" points="129.846661 122.540575 128.6128 119.318724 129.325186 118.491852 130.866285 122.795328 132.484117 124.188179 131.850919 124.923892 130.189503 123.493288 125.769087 122.621912 126.480859 121.795041"></polygon>
                                <path d="M136.285914,113.488514 C135.705508,113.112217 135.179736,112.950464 134.70829,113.003563 C134.236845,113.056355 133.853795,113.310187 133.559142,113.764751 C133.274003,114.205197 133.204944,114.655464 133.351963,115.115553 C133.49929,115.575336 133.861775,115.992454 134.438805,116.36691 L134.729161,116.554751 C135.300666,116.925217 135.827666,117.083593 136.310161,117.029573 C136.792656,116.975553 137.177241,116.727247 137.464835,116.283732 C137.761637,115.826098 137.835607,115.373375 137.686746,114.92495 C137.538498,114.476524 137.172637,114.063088 136.589161,113.685256 L136.285914,113.488514 Z M137.109409,112.878336 C137.875201,113.374643 138.349409,113.969167 138.531112,114.662524 C138.713429,115.355573 138.583597,116.042484 138.142538,116.723256 C137.707003,117.395435 137.131201,117.791989 136.414825,117.913227 C135.698755,118.034771 134.954755,117.845088 134.182825,117.344791 L133.909963,117.167692 C133.153072,116.677217 132.68132,116.080544 132.494399,115.378286 C132.308092,114.676029 132.432399,113.989118 132.867934,113.31694 C133.311449,112.633405 133.886637,112.234395 134.594112,112.11991 C135.301587,112.005732 136.031468,112.188049 136.783449,112.66686 L137.109409,112.878336 Z" id="Fill-75" fill="#FEFEFE"></path>
                                <polygon id="Fill-77" fill="#FEFEFE" points="144.124954 105.30212 143.721648 106.178714 138.220836 107.140635 142.394786 109.061714 141.989331 109.943219 136.437875 107.388635 136.843638 106.50713 142.34936 105.547357 138.170499 103.62413 138.573806 102.747536"></polygon>
                                <path d="M141.180016,97.8524515 L145.508966,99.1397188 L145.753897,98.315303 C145.93959,97.6919267 145.907362,97.1621644 145.657521,96.7266297 C145.407372,96.291402 144.960481,95.9780257 144.317154,95.786501 L143.995491,95.6907386 C143.351857,95.4995208 142.811046,95.5108772 142.373362,95.7254218 C141.935679,95.9402733 141.625372,96.3540158 141.443055,96.9675703 L141.180016,97.8524515 Z M145.991461,100.29562 L140.134303,98.5537881 L140.673887,96.7386 C140.835333,96.1959465 141.090085,95.7472139 141.438145,95.3927089 C141.786204,95.0385109 142.201174,94.8049366 142.683055,94.6932139 C143.165244,94.5811842 143.674135,94.5992931 144.210036,94.7478475 L144.597382,94.8629465 C145.442055,95.1140158 146.03658,95.5744119 146.380956,96.2444416 C146.725333,96.9138574 146.766461,97.6897782 146.504343,98.5712832 L145.991461,100.29562 Z" id="Fill-79" fill="#FEFEFE"></path>
                                <mask id="mask-5" fill="white">
                                    <use xlink:href="#path-4"></use>
                                </mask>
                                <g id="Clip-82"></g>
                                <polygon id="Fill-81" fill="#FEFEFE" mask="url(#mask-5)" points="0.767326733 78.5285248 16.1138614 78.5285248 16.1138614 76.9938713 0.767326733 76.9938713"></polygon>
                                <polygon id="Fill-83" fill="#FEFEFE" mask="url(#mask-5)" points="138.886139 78.5285248 154.232673 78.5285248 154.232673 76.9938713 138.886139 76.9938713"></polygon>
                                <path d="M81.4091614,27.8132 L85.644805,29.4835168 C86.0781911,29.6547842 86.0781911,30.2683386 85.644805,30.439299 L81.4091614,32.1096158 C80.968102,32.2836455 80.6188149,32.6329327 80.4447851,33.0739921 L78.7744683,37.3096356 C78.603201,37.7430218 77.9896465,37.7430218 77.8189931,37.3096356 L76.1483693,33.0739921 C75.9743396,32.6329327 75.6250525,32.2836455 75.1839931,32.1096158 L70.9483495,30.439299 C70.5149634,30.2683386 70.5149634,29.6547842 70.9483495,29.4835168 L75.1839931,27.8132 C75.6250525,27.6391703 75.9743396,27.2898832 76.1483693,26.8488238 L77.8189931,22.6134871 C77.9896465,22.1797941 78.603201,22.1797941 78.7744683,22.6134871 L80.4447851,26.8488238 C80.6188149,27.2898832 80.968102,27.6391703 81.4091614,27.8132" id="Fill-84" fill="#FEFEFE" mask="url(#mask-5)"></path>
                                <path d="M91.3628317,34.8206119 L93.4803465,35.6557703 C93.6970396,35.741404 93.6970396,36.0480277 93.4803465,36.1333545 L91.3628317,36.9688198 C91.1421485,37.0556812 90.967505,37.2303248 90.8806436,37.4510079 L90.0454851,39.5688297 C89.9598515,39.7855228 89.6532277,39.7855228 89.5675941,39.5688297 L88.7324356,37.4510079 C88.6452673,37.2303248 88.4706238,37.0556812 88.2499406,36.9688198 L86.1324257,36.1333545 C85.9157327,36.0480277 85.9157327,35.741404 86.1324257,35.6557703 L88.2499406,34.8206119 C88.4706238,34.7334436 88.6452673,34.5588 88.7324356,34.3384238 L89.5675941,32.220602 C89.6532277,32.0039089 89.9598515,32.0039089 90.0454851,32.220602 L90.8806436,34.3384238 C90.967505,34.5588 91.1421485,34.7334436 91.3628317,34.8206119" id="Fill-85" fill="#FEFEFE" mask="url(#mask-5)"></path>
                                <path d="M37.6253752,96.0096703 L41.0135832,97.3460465 C41.3604149,97.4829376 41.3604149,97.9737198 41.0135832,98.1106109 L37.6253752,99.4466802 C37.272405,99.5860267 36.9927911,99.8656406 36.8537515,100.218304 L35.5173752,103.606819 C35.3807911,103.95365 34.889702,103.95365 34.7531178,103.606819 L33.4167416,100.218304 C33.277395,99.8656406 32.9980881,99.5860267 32.6448109,99.4466802 L29.256603,98.1106109 C28.9097713,97.9737198 28.9097713,97.4829376 29.256603,97.3460465 L32.6448109,96.0096703 C32.9980881,95.8706307 33.277395,95.5913238 33.4167416,95.2380465 L34.7531178,91.8498386 C34.889702,91.5030069 35.3807911,91.5030069 35.5173752,91.8498386 L36.8537515,95.2380465 C36.9927911,95.5913238 37.272405,95.8706307 37.6253752,96.0096703" id="Fill-86" fill="#FEFEFE" mask="url(#mask-5)"></path>
                                <path d="M126.367019,73.4793307 C126.367019,71.9624792 127.59689,70.7326079 129.113742,70.7326079 C130.630593,70.7326079 131.860157,71.9624792 131.860157,73.4793307 C131.860157,74.9961822 130.630593,76.2257465 129.113742,76.2257465 C127.59689,76.2257465 126.367019,74.9961822 126.367019,73.4793307" id="Fill-87" fill="#FEFEFE" mask="url(#mask-5)"></path>
                                <path d="M123.421497,73.4175762 C121.094962,73.4175762 119.202121,75.3104178 119.202121,77.6369525 C119.202121,79.9634871 121.094962,81.8563287 123.421497,81.8563287 C125.748032,81.8563287 127.640566,79.9634871 127.640566,77.6369525 C127.640566,75.3104178 125.748032,73.4175762 123.421497,73.4175762 M123.421497,83.3909822 C120.248754,83.3909822 117.667467,80.809695 117.667467,77.6369525 C117.667467,74.4642099 120.248754,71.8829228 123.421497,71.8829228 C126.59424,71.8829228 129.17522,74.4642099 129.17522,77.6369525 C129.17522,80.809695 126.59424,83.3909822 123.421497,83.3909822" id="Fill-88" fill="#FEFEFE" mask="url(#mask-5)"></path>
                                <path d="M93.1234782,113.326669 C91.7576366,112.063036 90.3871911,111.066432 89.0520426,110.069521 C88.4584386,109.624471 87.8488743,109.21656 87.229795,108.841184 C87.8814089,108.449848 88.5216663,108.018303 89.1453495,107.551154 C92.1937851,105.276184 94.8444386,102.207798 97.0868743,98.4807386 C97.8784485,97.1649267 97.4294089,95.4688277 96.0875079,94.6941347 C94.7428446,93.9197485 93.013597,94.356204 92.2195673,95.6720158 C90.2794584,98.9012337 88.0729337,101.400263 85.7264485,103.148234 C83.2123792,105.01161 80.7385178,105.935471 78.1962109,106.081877 C77.9644782,106.074818 77.7330525,106.067758 77.4991713,106.067758 C77.2674386,106.067758 77.0335574,106.074818 76.8021317,106.081877 C74.2598248,105.935471 71.7881119,105.01161 69.2715871,103.148234 C66.9257158,101.400263 64.7210327,98.9012337 62.7787752,95.6720158 C61.987201,94.356204 60.2551911,93.9197485 58.9129832,94.6941347 C57.5686267,95.4688277 57.1220426,97.1649267 57.9136168,98.4831941 C60.1560525,102.207798 62.8048644,105.276184 65.8526861,107.551154 C66.446597,107.995897 67.0561614,108.405956 67.6773891,108.78164 C67.0236267,109.172669 66.3833693,109.602065 65.7593792,110.069521 C64.4266861,111.066432 63.0537851,112.063036 61.6907059,113.326669 C60.3294683,114.587848 59.0016861,116.123422 57.8203099,118.090848 C57.0287356,119.406966 57.4753198,121.105214 58.8196762,121.879907 C60.1618842,122.6546 61.8938941,122.217531 62.6854683,120.902026 C63.5952109,119.392541 64.5285871,118.320432 65.5776762,117.339788 C66.6243099,116.364055 67.815201,115.490531 69.1807356,114.472135 C69.8470822,113.97859 70.5085178,113.551036 71.1724089,113.187323 C71.0923,113.329125 71.0143396,113.473382 70.9363792,113.621937 C69.0202109,117.22162 67.0472604,122.217531 67.0377455,127.908026 C67.0377455,129.433778 68.3016861,130.67163 69.861201,130.67163 C71.4207158,130.67163 72.6849634,129.433778 72.6849634,127.908026 C72.6754485,123.514313 74.2776267,119.286343 75.9384287,116.186956 C76.4442505,115.242224 76.9497653,114.403996 77.4058644,113.697442 C77.8877455,114.439293 78.4221119,115.32755 78.9509535,116.333669 C80.5859733,119.41863 82.1362802,123.580303 82.1267653,127.908026 C82.1267653,129.433778 83.3910129,130.67163 84.9526762,130.67163 C86.5121911,130.67163 87.7761317,129.433778 87.7761317,127.908026 C87.7669238,122.217531 85.7912109,117.22162 83.877498,113.621937 C83.7970822,113.473382 83.7191218,113.329125 83.6411614,113.187323 C84.302904,113.551036 84.967102,113.97859 85.6331416,114.472135 C86.9965277,115.490531 88.1874188,116.364055 89.2365079,117.339788 C90.285597,118.320432 91.2165178,119.392541 92.1262604,120.89957 C92.6532604,121.775857 93.5958446,122.262343 94.5620624,122.262343 C95.0488545,122.262343 95.5430129,122.13957 95.994201,121.879907 C97.3364089,121.105214 97.7851416,119.406966 96.9935673,118.090848 C95.8097356,116.123422 94.4844089,114.587848 93.1234782,113.326669" id="Fill-89" fill="#FEFEFE" mask="url(#mask-5)"></path>
                                <path d="M81.1202168,100.495524 C79.560702,100.495524 78.2967614,99.2579792 78.2967614,97.7270089 C78.2967614,96.2012564 79.560702,94.9612564 81.1202168,94.9612564 C82.6797317,94.9612564 83.9436723,96.2012564 83.9436723,97.7270089 C83.9436723,99.2579792 82.6797317,100.495524 81.1202168,100.495524 M73.6915733,100.495524 C72.1320584,100.495524 70.8681178,99.2579792 70.8681178,97.7270089 C70.8681178,96.2012564 72.1320584,94.9612564 73.6915733,94.9612564 C75.2507812,94.9612564 76.5150287,96.2012564 76.5150287,97.7270089 C76.5150287,99.2579792 75.2507812,100.495524 73.6915733,100.495524 M77.7660782,60.9990683 C66.9019594,60.9990683 60.7633455,63.1227218 60.7633455,77.9919792 C60.7633455,92.8636921 68.130603,104.605633 77.7660782,104.605633 C86.5274149,104.605633 94.2372069,92.8636921 94.2372069,77.9919792 C94.2372069,63.1227218 88.630504,60.9990683 77.7660782,60.9990683" id="Fill-90" fill="#FEFEFE" mask="url(#mask-5)"></path>
                                <path d="M98.7198683,57.4661733 C94.8565317,53.2578465 89.7040861,50.2416386 84.1253139,48.969104 C81.0492545,48.260401 77.8550267,48.0688762 74.7120564,48.388698 L74.9873733,49.823599 C75.2277,49.7984307 75.4686406,49.7790941 75.7089673,49.7508564 C76.3842149,49.6676782 77.0652941,49.6612327 77.7457594,49.6237871 C78.4256109,49.6354505 79.1091455,49.6072129 79.7886901,49.663995 C80.1287693,49.6876287 80.470997,49.6940743 80.8095416,49.730599 L81.8276307,49.8410941 C82.1695515,49.8641139 82.5041059,49.9340941 82.8432644,49.9789059 C83.181195,50.0310842 83.5218881,50.0719059 83.8555218,50.1486386 C89.2430762,51.1756287 94.3556208,53.7701139 98.6072248,57.5702228 L98.6127495,57.5751337 C98.641601,57.6009158 98.6861059,57.6009158 98.7152644,57.5745198 C98.7465713,57.5456683 98.7484129,57.4974802 98.7198683,57.4661733" id="Fill-91" fill="#FEFEFE" mask="url(#mask-5)"></path>
                                <path d="M70.0812089,49.248595 C69.1254267,49.5091792 68.1822287,49.8170307 67.2586743,50.178595 C61.9263673,52.2718624 57.2671594,56.0105851 54.0532881,60.7419218 C50.8157832,65.461595 49.0831594,71.1763376 49.1067931,76.8886248 C49.1071,76.927298 49.1368723,76.9607535 49.1764663,76.9644366 C49.2182089,76.9684267 49.2556545,76.9374267 49.2596446,76.8953772 L49.2602584,76.8886248 C49.7958525,71.2107139 51.7829218,65.8351297 55.0486644,61.4226941 L55.674496,60.6081 C55.8850505,60.3386149 56.1143277,60.0838624 56.3325554,59.8211297 C56.5501693,59.5577832 56.7763772,59.3024168 57.0081099,59.0516545 C57.2398426,58.801199 57.4589911,58.5393871 57.7057634,58.3033574 C58.6458921,57.3150406 59.6851594,56.427397 60.7603376,55.5980703 C61.0335059,55.3961099 61.3008426,55.1864762 61.5773871,54.9900406 L62.4116248,54.4059515 C62.9831297,54.040704 63.5478822,53.6628723 64.1451693,53.340902 C64.7289515,52.9940703 65.3418921,52.7034069 65.9459317,52.3967832 C66.5668525,52.1248426 67.1804069,51.8363277 67.817902,51.6064366 C68.442199,51.3427832 69.088902,51.1380604 69.7294663,50.918605 C69.9980307,50.8397238 70.266595,50.7605356 70.5357733,50.683803 L70.0812089,49.248595 Z" id="Fill-92" fill="#FEFEFE" mask="url(#mask-5)"></path>
                                <path d="M73.1873782,48.5860238 C72.6471802,48.6701228 72.1097446,48.7692614 71.5753782,48.8840535 L72.0262594,50.3066772 L72.1858634,50.2683109 C72.3516059,50.2324 72.5188832,50.2050832 72.6855465,50.1728554 C72.9455168,50.1268158 73.2045663,50.0758653 73.4645366,50.0307465 L73.1873782,48.5860238 Z" id="Fill-93" fill="#FEFEFE" mask="url(#mask-5)"></path>
                                <path d="M42.8261317,48.8345149 C42.8261317,50.1205545 41.7834881,51.163198 40.4974485,51.163198 C39.2117158,51.163198 38.1687653,50.1205545 38.1687653,48.8345149 C38.1687653,47.5487822 39.2117158,46.5061386 40.4974485,46.5061386 C41.7834881,46.5061386 42.8261317,47.5487822 42.8261317,48.8345149" id="Fill-94" fill="#FEFEFE" mask="url(#mask-5)"></path>
                                <path d="M34.3234762,56.3547465 C34.3234762,56.9977663 33.8023079,57.5189347 33.1592881,57.5189347 C32.5162683,57.5189347 31.9951,56.9977663 31.9951,56.3547465 C31.9951,55.7117267 32.5162683,55.1905584 33.1592881,55.1905584 C33.8023079,55.1905584 34.3234762,55.7117267 34.3234762,56.3547465" id="Fill-95" fill="#FEFEFE" mask="url(#mask-5)"></path>
                                <path d="M77.4535307,43.977705 C59.3446198,43.977705 44.6119465,58.7103782 44.6119465,76.8192891 C44.6119465,94.9282 59.3446198,109.660873 77.4535307,109.660873 C95.5624416,109.660873 110.295115,94.9282 110.295115,76.8192891 C110.295115,58.7103782 95.5624416,43.977705 77.4535307,43.977705 M77.4535307,111.502457 C58.3289861,111.502457 42.7703624,95.9438337 42.7703624,76.8192891 C42.7703624,57.6947446 58.3289861,42.1361208 77.4535307,42.1361208 C96.5780752,42.1361208 112.136699,57.6947446 112.136699,76.8192891 C112.136699,95.9438337 96.5780752,111.502457 77.4535307,111.502457" id="Fill-96" fill="#FEFEFE" mask="url(#mask-5)"></path>
                            </g>
                        </g>
                    </g>
                </g>
            </g>
        </g>
    </g>
</svg>