<svg width="46" height="55" viewBox="0 0 46 55" fill="none" xmlns="http://www.w3.org/2000/svg">
<path d="M23 2L45 13.25V41.75L23 53L1 41.75V13.25L23 2Z" fill="#253858" stroke="#253858" stroke-width="2"/>
<path d="M27.3945 34H19.0098V32.8311L23.4395 27.9092C24.0957 27.165 24.5469 26.5615 24.793 26.0986C25.0449 25.6299 25.1709 25.1465 25.1709 24.6484C25.1709 23.9805 24.9688 23.4326 24.5645 23.0049C24.1602 22.5771 23.6211 22.3633 22.9473 22.3633C22.1387 22.3633 21.5088 22.5947 21.0576 23.0576C20.6123 23.5146 20.3896 24.1533 20.3896 24.9736H18.7637C18.7637 23.7959 19.1416 22.8438 19.8975 22.1172C20.6592 21.3906 21.6758 21.0273 22.9473 21.0273C24.1367 21.0273 25.0771 21.3408 25.7686 21.9678C26.46 22.5889 26.8057 23.418 26.8057 24.4551C26.8057 25.7148 26.0029 27.2148 24.3975 28.9551L20.9697 32.6729H27.3945V34Z" fill="white"/>
</svg>
