<svg width="46" height="55" viewBox="0 0 46 55" fill="none" xmlns="http://www.w3.org/2000/svg">
<path d="M23 2L45 13.25V41.75L23 53L1 41.75V13.25L23 2Z" fill="#253858" stroke="#253858" stroke-width="2"/>
<path d="M21.375 26.8105H22.5967C23.3643 26.7988 23.9678 26.5967 24.4072 26.2041C24.8467 25.8115 25.0664 25.2812 25.0664 24.6133C25.0664 23.1133 24.3193 22.3633 22.8252 22.3633C22.1221 22.3633 21.5596 22.5654 21.1377 22.9697C20.7217 23.3682 20.5137 23.8984 20.5137 24.5605H18.8877C18.8877 23.5469 19.2568 22.7061 19.9951 22.0381C20.7393 21.3643 21.6826 21.0273 22.8252 21.0273C24.0322 21.0273 24.9785 21.3467 25.6641 21.9854C26.3496 22.624 26.6924 23.5117 26.6924 24.6484C26.6924 25.2051 26.5107 25.7441 26.1475 26.2656C25.79 26.7871 25.3008 27.1768 24.6797 27.4346C25.3828 27.6572 25.9248 28.0264 26.3057 28.542C26.6924 29.0576 26.8857 29.6875 26.8857 30.4316C26.8857 31.5801 26.5107 32.4912 25.7607 33.165C25.0107 33.8389 24.0352 34.1758 22.834 34.1758C21.6328 34.1758 20.6543 33.8506 19.8984 33.2002C19.1484 32.5498 18.7734 31.6914 18.7734 30.625H20.4082C20.4082 31.2988 20.6279 31.8379 21.0674 32.2422C21.5068 32.6465 22.0957 32.8486 22.834 32.8486C23.6191 32.8486 24.2197 32.6436 24.6357 32.2334C25.0518 31.8232 25.2598 31.2344 25.2598 30.4668C25.2598 29.7227 25.0312 29.1514 24.5742 28.7529C24.1172 28.3545 23.458 28.1494 22.5967 28.1377H21.375V26.8105Z" fill="white"/>
</svg>
