<?xml version="1.0" encoding="UTF-8"?>
<svg width="165px" height="52px" viewBox="0 0 165 52" version="1.1" xmlns="http://www.w3.org/2000/svg" xmlns:xlink="http://www.w3.org/1999/xlink">
    <!-- Generator: Sketch 53 (72520) - https://sketchapp.com -->
    <title>Avast_Software_logo_2016</title>
    <desc>Created with Sketch.</desc>
    <g id="Landing" stroke="none" stroke-width="1" fill="none" fill-rule="evenodd">
        <g id="landing" transform="translate(-521.000000, -1519.000000)" fill="#BACEE1">
            <g id="Avast_Software_logo_2016" transform="translate(521.000000, 1519.000000)">
                <g id="Group">
                    <path d="M48.9396265,35.0035312 C53.1681211,38.9563048 52.5442449,44.8161182 49.9101007,48.1447696 C46.028204,53.1724202 39.9627403,52.6523184 36.4274415,50.1558299 C35.0410498,49.1849732 34.0705757,47.7633617 32.7535036,46.7231581 C30.0500398,44.5387306 27.173277,42.805058 23.8112772,41.8342013 C19.7560815,40.6553039 14.1411952,40.4819367 9.670082,41.9035482 C9.01154595,42.1115889 6.96661822,43.1171191 4.81771111,42.7010376 C2.07958753,42.2156093 0,39.7884676 0,36.8758977 C0,35.2115719 0.727855635,33.7206135 1.87162878,32.6804099 C3.05006171,31.5708595 4.29781422,31.3281453 6.10012342,29.7331665 C8.28369032,27.7914532 10.5365768,24.8788832 11.4723912,21.7582725 C11.9922881,20.0592733 12.2002468,18.2562538 12.0962675,16.4879077 C11.9922881,14.6848882 11.5417108,13.0205625 10.9871541,11.3215634 C10.3979376,9.51854384 10.2246387,8.13160575 11.5417108,6.60597385 C12.512185,5.49642338 14.1065354,5.08034196 15.5622467,5.42707648 C16.9486384,5.73913755 17.676494,6.98738183 19.4788032,7.99291194 C21.1424732,8.92909515 22.5635247,9.34517658 24.2271947,9.44919694 C27.6585141,9.65723765 30.5352769,8.51301373 32.9268025,6.15521898 C34.4518334,4.66426053 34.7984313,3.41601625 36.1155034,2.23711887 C37.4325755,1.0582215 38.7149878,0.434099358 40.2400187,0.15671174 C43.4633793,-0.4674104 46.4441215,0.815507332 48.3157502,3.24264899 C50.2913584,5.80848445 50.6032965,9.24115622 49.3208842,11.9456855 C48.6623482,13.2979501 47.4492554,14.5808679 46.0975235,15.4823776 C44.8151112,16.3492139 43.6713381,17.1813768 42.7355237,18.3949476 C39.512163,22.5904353 40.517297,29.0743709 44.7457916,32.1603081 C46.1321833,33.1658383 47.2412967,33.4085524 48.9396265,35.0035312 Z M32.1899791,17 C30.8413361,17 30.3444676,18.0323887 30.3444676,18.7894737 L30.3444676,20.1659919 C28.960334,18.3421053 27.0793319,17.1720648 24.5240084,17.1720648 C22.4300626,17.1720648 20.6555324,17.9979757 19.2004175,19.6153846 C17.7453027,21.2327935 17,23.2287449 17,25.5 C17,27.805668 17.7453027,29.7672065 19.2004175,31.3846154 C20.691023,33.0364372 22.4655532,33.8279352 24.5240084,33.8279352 C27.256785,33.8279352 29.1732777,32.3825911 30.3444676,30.7995951 L30.3444676,32.2793522 C30.3444676,32.9331984 30.9123173,34 32.1899791,34 C33.4676409,34 34,32.9331984 34,32.2105263 L34,18.7550607 C34,17.6194332 32.9707724,17 32.1899791,17 Z M25.5177453,30.5587045 C22.7139875,30.5587045 20.691023,28.0809717 20.691023,25.4311741 C20.691023,22.6093117 22.7494781,20.3036437 25.5177453,20.3036437 C28.4634656,20.3036437 30.3444676,22.8846154 30.3444676,25.4311741 C30.3444676,28.1153846 28.3569937,30.5587045 25.5177453,30.5587045 Z" id="Combined-Shape"></path>
                    <path d="M101.980063,12.9651163 C100.324367,12.3023256 99.0825949,13.5581395 98.7721519,14.3953488 L92.7702532,30.3023256 L86.7683544,14.3953488 C86.4579114,13.5930233 85.2161392,12.3023256 83.560443,12.9651163 C81.7667722,13.6627907 81.8702532,15.372093 82.1462025,16.1395349 C82.1462025,16.1395349 87.1477848,29.3953488 88.7689873,33.6860465 C89.7003165,36.1627907 91.528481,36.6860465 92.7357595,36.6860465 C93.943038,36.6860465 95.7712025,36.1627907 96.7025316,33.6860465 C98.3237342,29.3953488 103.325316,16.1395349 103.325316,16.1395349 C103.704747,15.372093 103.773734,13.6627907 101.980063,12.9651163" id="Path"></path>
                    <path d="M76.5582278,12.755814 C74.764557,12.755814 74.0401899,14.1860465 74.0401899,15.2325581 L74.0401899,17.1860465 C72.1775316,14.6395349 69.6594937,12.9651163 66.2101266,12.9651163 C63.4161392,12.9651163 61.0015823,14.1162791 59.035443,16.3837209 C57.0693038,18.6860465 56.0689873,21.4418605 56.0689873,24.6860465 C56.0689873,27.8953488 57.0693038,30.6511628 59.035443,32.9534884 C61.0015823,35.255814 63.4161392,36.4069767 66.2101266,36.4069767 C69.9009494,36.4069767 72.453481,34.3837209 74.0401899,32.1511628 L74.0401899,34.244186 C74.0401899,35.1860465 74.7990506,36.6511628 76.5237342,36.6511628 C78.2484177,36.6511628 78.9727848,35.1511628 78.9727848,34.1744186 L78.9727848,15.2674419 C79.0072785,13.6627907 77.6275316,12.755814 76.5582278,12.755814 M67.5208861,31.9069767 C63.7610759,31.9069767 61.0360759,28.4186047 61.0360759,24.6860465 C61.0360759,20.744186 63.8300633,17.5 67.5208861,17.5 C71.4876582,17.5 74.0056962,21.0930233 74.0056962,24.6860465 C74.0056962,28.4883721 71.3151899,31.9069767 67.5208861,31.9069767" id="Shape"></path>
                    <path d="M125.021835,12.755814 C123.228165,12.755814 122.503797,14.1860465 122.503797,15.2325581 L122.503797,17.1860465 C120.641139,14.6395349 118.123101,12.9651163 114.673734,12.9651163 C111.879747,12.9651163 109.46519,14.1162791 107.499051,16.3837209 C105.532911,18.6860465 104.532595,21.4418605 104.532595,24.6860465 C104.532595,27.8953488 105.532911,30.6511628 107.499051,32.9534884 C109.46519,35.255814 111.879747,36.4069767 114.673734,36.4069767 C118.364557,36.4069767 120.917089,34.3837209 122.503797,32.1511628 L122.503797,34.244186 C122.503797,35.1860465 123.262658,36.6511628 124.987342,36.6511628 C126.712025,36.6511628 127.436392,35.1511628 127.436392,34.1744186 L127.436392,15.2674419 C127.436392,13.6627907 126.091139,12.755814 125.021835,12.755814 M115.984494,31.9069767 C112.224684,31.9069767 109.499684,28.4186047 109.499684,24.6860465 C109.499684,20.744186 112.293671,17.5 115.984494,17.5 C119.951266,17.5 122.469304,21.0930233 122.469304,24.6860465 C122.43481,28.4883721 119.778797,31.9069767 115.984494,31.9069767" id="Shape"></path>
                    <path d="M131.610127,33.8953488 C131.058228,33.5813953 130.60981,32.9186047 130.60981,32.0465116 C130.60981,30.8604651 131.506646,29.9186047 132.713924,29.9186047 C133.162342,29.9186047 133.541772,30.0581395 133.852215,30.2325581 C136.05981,31.7325581 138.336392,32.4651163 140.406013,32.4651163 C142.648101,32.4651163 143.958861,31.4883721 143.958861,29.9883721 L143.958861,29.8837209 C143.958861,28.1046512 141.544304,27.5813953 138.853797,26.744186 C135.473418,25.7674419 131.713608,24.3023256 131.713608,19.872093 L131.713608,19.7674419 C131.713608,15.4069767 135.300949,12.7209302 139.81962,12.7209302 C142.234177,12.7209302 144.786709,13.4186047 146.994304,14.6046512 C147.718671,14.9883721 148.236076,15.6860465 148.236076,16.627907 C148.236076,17.8488372 147.270253,18.755814 146.062975,18.755814 C145.614557,18.755814 145.373101,18.6511628 145.028165,18.4767442 C143.165506,17.5 141.268354,16.9069767 139.681646,16.9069767 C137.646519,16.9069767 136.473734,17.8837209 136.473734,19.1744186 L136.473734,19.2790698 C136.473734,20.9883721 138.922785,21.5813953 141.613291,22.4534884 C144.924684,23.5 148.684494,25.1046512 148.684494,29.255814 L148.684494,29.3604651 C148.684494,34.2093023 144.959177,36.6162791 140.233544,36.6162791 C137.405063,36.6511628 134.231646,35.744186 131.610127,33.8953488 Z" id="Path" fill-rule="nonzero"></path>
                    <path d="M153.479114,29.9534884 L153.479114,17.9534884 L152.478797,17.9534884 C151.237025,17.9534884 150.236709,16.9418605 150.236709,15.6860465 C150.236709,14.4302326 151.237025,13.4186047 152.478797,13.4186047 L153.479114,13.4186047 L153.479114,9.86046512 C153.479114,8.43023256 154.513924,7.24418605 155.962658,7.24418605 C157.376899,7.24418605 158.411709,8.43023256 158.411709,9.86046512 L158.411709,13.4186047 L162.309494,13.4186047 C163.551266,13.4186047 164.586076,14.4302326 164.586076,15.6860465 C164.586076,16.9418605 163.551266,17.9534884 162.309494,17.9534884 L158.411709,17.9534884 L158.411709,29.1162791 C158.411709,31.1744186 159.584494,31.9767442 161.343671,31.9767442 C161.964557,31.9767442 162.481962,31.8372093 162.65443,31.8372093 C163.827215,31.8372093 164.862025,32.7790698 164.862025,34 C164.862025,34.9418605 164.206646,35.744186 163.482278,36.0581395 C162.343987,36.4418605 161.274684,36.6511628 159.894937,36.6511628 C156.066139,36.6860465 153.479114,34.9767442 153.479114,29.9534884 Z" id="Path" fill-rule="nonzero"></path>
                </g>
            </g>
        </g>
    </g>
</svg>