<?xml version="1.0" encoding="UTF-8"?>
<svg width="130px" height="30px" viewBox="0 0 130 30" version="1.1" xmlns="http://www.w3.org/2000/svg" xmlns:xlink="http://www.w3.org/1999/xlink">
    <!-- Generator: Sketch 52.4 (67378) - http://www.bohemiancoding.com/sketch -->
    <title>Shape</title>
    <desc>Created with Sketch.</desc>
    <g id="Website" stroke="none" stroke-width="1" fill="none" fill-rule="evenodd">
        <g id="v" transform="translate(-807.000000, -87.000000)" fill="#BACEE1">
            <path d="M901.154203,107.549081 C902.505708,100.345836 910.874615,96.6931594 917.049845,97.0410333 L917.049845,97.0417375 C919.435997,97.178352 921.493481,97.9121267 922.687947,99.2712296 L922.696285,99.2627792 C922.699065,99.265596 922.701844,99.2684128 922.703929,99.2712296 C923.194501,98.7444892 923.685768,98.218453 924.181203,97.6959378 C924.470266,97.3910199 925.296455,97.4896077 926.030229,97.6241096 C926.860588,97.7769206 927.747925,98.1247946 928.315627,98.1254988 C928.894446,98.1254988 930.261932,97.700163 931.562712,97.5022833 C932.862797,97.3051077 934.096176,97.3353883 933.884243,97.8677622 L932.720351,100.790185 L932.742586,100.790185 L928.938222,110.32644 C928.180824,112.225663 931.147185,111.722161 935.267711,107.304724 C935.97369,107.773721 936.294716,107.861745 937,109.636325 C933.479834,112.702405 930.119486,114.905137 925.461832,116.531131 C921.273905,117.994456 918.188722,115.876227 917.218001,112.346081 C911.267906,117.993751 902.977519,117.93319 900.59762,111.562308 C896.729328,113.500262 892.105028,115.559338 890.187212,116.120584 C888.683532,116.560708 887.314656,116.869851 886.030553,116.878301 C883.97029,116.892385 881.723804,114.948798 882.432562,112.089048 C879.020795,113.619975 876.310837,114.618529 872.401548,115.982561 C868.213621,117.445885 865.804538,115.876931 864.833122,112.346081 C858.881637,117.994456 850.587776,117.93319 848.210656,111.556674 C845.873838,112.696771 842.639955,114.372059 839.663865,115.553704 C834.876967,117.733902 829.267354,117.298003 825.076647,112.850991 L826.446913,110.665159 C828.419624,112.791838 830.825928,112.672124 832.71178,110.94543 C834.719929,109.106768 835.994304,105.561129 835.080562,102.656311 C834.678932,101.379599 833.258636,100.399355 830.594539,100.578222 L831.419339,98.3522507 C834.143194,98.2543671 836.273638,97.8860714 837.449343,96.1509266 C839.100333,93.7136961 839.128822,89.9582062 835.586421,90.0596108 C834.960351,90.0772157 834.223798,90.2124218 833.36634,90.4919886 C832.752777,92.3320589 831.671573,94.5038066 830.801607,96.7854093 C828.816389,101.991548 826.592834,107.7702 824.010036,111.494705 C820.932496,115.931859 817.641634,116.80929 814.990044,116.629015 C812.216159,116.438881 810.041244,115.587506 807.001227,112.809443 C806.986635,111.630615 807.102677,111.117959 807.323643,109.654634 C808.387475,111.172886 812.053562,112.789021 813.241774,111.022892 C815.900312,107.068818 818.825677,99.4423498 821.008236,94.519299 C819.035525,95.1826539 817.204567,96.3995086 814.618294,98.2170446 C814.648868,97.9156477 813.755276,97.2551096 813.790714,96.3685239 C817.933476,91.526456 825.271208,88.566006 830.212365,87.5075959 C837.764115,85.8900522 845.867585,88.242779 847.083591,93.0799175 C847.894494,96.3058503 844.14016,99.329678 840.61235,99.766281 C842.642734,100.977502 844.797499,103.080943 845.337406,105.654084 C845.609791,106.952625 845.534746,108.346938 845.128947,109.681394 C846.31577,109.122965 847.749963,108.389894 848.694974,108.000472 C850.184061,97.6515733 865.96505,94.3228277 870.319745,99.2712296 L871.812306,97.6959378 C872.101368,97.3910199 872.927558,97.4896077 873.660637,97.6241096 C874.490995,97.7769206 875.379028,98.1247946 875.946729,98.1254988 C876.525549,98.1254988 877.893035,97.700163 879.19312,97.5022833 C880.4939,97.3051077 881.726584,97.3353883 881.514651,97.8677622 L876.554038,110.327144 C875.432532,113.139712 883.668025,108.155396 884.153733,107.885688 L887.691966,100.264149 L884.048114,100.315556 L884.702673,97.1832814 L888.728698,97.185394 C889.390901,96.2945831 889.586852,95.2249058 890.465851,94.5545089 C891.658232,93.6446846 894.377919,94.1333983 895.627974,93.3066694 C896.708482,92.5912039 897.538841,91.5137804 898.537357,89.854689 C899.399679,88.4209412 902.536977,88.7878285 901.937312,90.1532691 L899.130073,97.2684894 L902.677339,97.2346879 C904.363072,97.3241211 902.915676,100.16204 900.999249,100.183871 L898.068326,100.238094 L894.664896,109.168738 C893.54756,112.094682 897.895305,109.492669 901.154203,107.549081 Z M868.946864,101.559242 C868.541909,100.261833 867.331382,99.9133858 866.284283,100.017178 C863.804656,100.263855 861.408912,102.829018 860.179584,104.613713 C858.209766,107.474079 858.676911,111.687794 861.808082,110.904631 C865.12076,110.074289 869.534772,103.443686 868.946864,101.559242 Z M920.946983,101.559242 C920.541321,100.261833 919.331566,99.9133858 918.283786,100.017178 C915.804258,100.263855 913.409333,102.829018 912.179331,104.613713 C910.209592,107.474079 910.677441,111.687794 913.807764,110.904631 C917.121033,110.074289 921.534144,103.443686 920.946983,101.559242 Z" id="Shape"></path>
        </g>
    </g>
</svg>