<?xml version="1.0" encoding="UTF-8"?>
<svg width="116px" height="137px" viewBox="0 0 116 137" version="1.1" xmlns="http://www.w3.org/2000/svg" xmlns:xlink="http://www.w3.org/1999/xlink">
    <!-- Generator: Sketch 52.5 (67469) - http://www.bohemiancoding.com/sketch -->
    <title>black2</title>
    <desc>Created with Sketch.</desc>
    <defs>
        <filter x="-12.0%" y="-24.0%" width="124.0%" height="148.0%" filterUnits="objectBoundingBox" id="filter-1">
            <feGaussianBlur stdDeviation="4" in="SourceGraphic"></feGaussianBlur>
        </filter>
        <linearGradient x1="100%" y1="0%" x2="100%" y2="50%" id="linearGradient-2">
            <stop stop-color="#5B6F85" offset="0%"></stop>
            <stop stop-color="#F2F8FC" offset="100%"></stop>
        </linearGradient>
    </defs>
    <g id="Website" stroke="none" stroke-width="1" fill="none" fill-rule="evenodd">
        <g id="boxes" transform="translate(-572.000000, -236.000000)">
            <g id="black2" transform="translate(580.000000, 236.000000)">
                <polygon id="Rectangle-11-Copy" fill="#000000" opacity="0.1" filter="url(#filter-1)" points="50 78.9047619 100 103.904762 50 128.904762 0 103.904762"></polygon>
                <polygon id="Rectangle-11" fill="#F2F8FC" points="50 0 100 25 50 50 0 25"></polygon>
                <polygon id="Rectangle-11-Copy-2" fill="#233141" points="50.3333333 9 83.6666667 25.6666667 50.3333333 42.3333333 17 25.6666667"></polygon>
                <polygon id="Rectangle-11-Copy-3" fill="#121A22" points="50.3333333 9 83.6666667 25.6666667 50.3333333 42.3333333"></polygon>
                <polygon id="Rectangle-3" fill="#D9EAF7" points="0 25 50 50 50 114.285714 0 89.2857143"></polygon>
                <polygon id="Rectangle-18" fill="#233141" points="20 58 30 63 30 81 20 77"></polygon>
                <polygon id="Rectangle-11-Copy-8" fill="url(#linearGradient-2)" points="30 72 30 82 20 77"></polygon>
                <polygon id="Rectangle-3-Copy-2" fill="#EAF5FD" transform="translate(75.000000, 69.642857) scale(-1, 1) translate(-75.000000, -69.642857) " points="50 25 100 50 100 114.285714 50 89.2857143"></polygon>
            </g>
        </g>
    </g>
</svg>