<?xml version="1.0" encoding="UTF-8"?>
<svg width="110px" height="136px" viewBox="0 0 110 136" version="1.1" xmlns="http://www.w3.org/2000/svg" xmlns:xlink="http://www.w3.org/1999/xlink">
    <!-- Generator: Sketch 52.6 (67491) - http://www.bohemiancoding.com/sketch -->
    <title>box</title>
    <desc>Created with Sketch.</desc>
    <defs>
        <filter x="-12.0%" y="-24.0%" width="124.0%" height="148.0%" filterUnits="objectBoundingBox" id="filter-1">
            <feGaussianBlur stdDeviation="4" in="SourceGraphic"></feGaussianBlur>
        </filter>
    </defs>
    <g id="Landing" stroke="none" stroke-width="1" fill="none" fill-rule="evenodd">
        <g id="landing" transform="translate(-1085.000000, -4857.000000)">
            <g id="Group-21" transform="translate(290.000000, 4694.000000)">
                <g id="Group-23" transform="translate(800.000000, 163.000000)">
                    <g id="box">
                        <polygon id="Rectangle-11-Copy" fill-opacity="0.1" fill="#000000" filter="url(#filter-1)" points="50 78.9047619 100 103.904762 50 128.904762 0 103.904762"></polygon>
                        <polygon id="Rectangle-11" fill="#F2F8FC" points="50 0 100 25 50 50 0 25"></polygon>
                        <polygon id="Rectangle-11-Copy-2" fill="#233141" points="50.3333333 9 83.6666667 25.6666667 50.3333333 42.3333333 17 25.6666667"></polygon>
                        <polygon id="Rectangle-11-Copy-3" fill="#121A22" points="50.3333333 9 83.6666667 25.6666667 50.3333333 42.3333333"></polygon>
                        <polygon id="Rectangle-3" fill="#D9EAF7" points="0 25 50 50 50 114.285714 0 89.2857143"></polygon>
                        <polygon id="Rectangle-3-Copy-2" fill="#EAF5FD" transform="translate(75.000000, 69.642857) scale(-1, 1) translate(-75.000000, -69.642857) " points="50 25 100 50 100 114.285714 50 89.2857143"></polygon>
                    </g>
                </g>
            </g>
        </g>
    </g>
</svg>