<?xml version="1.0" encoding="UTF-8"?>
<svg width="116px" height="137px" viewBox="0 0 116 137" version="1.1" xmlns="http://www.w3.org/2000/svg" xmlns:xlink="http://www.w3.org/1999/xlink">
    <!-- Generator: Sketch 52.5 (67469) - http://www.bohemiancoding.com/sketch -->
    <title>box_mcpen</title>
    <desc>Created with Sketch.</desc>
    <defs>
        <filter x="-12.0%" y="-24.0%" width="124.0%" height="148.0%" filterUnits="objectBoundingBox" id="filter-1">
            <feGaussianBlur stdDeviation="4" in="SourceGraphic"></feGaussianBlur>
        </filter>
        <polygon id="path-2" points="0.06303125 0.120411392 19.0860295 0.120411392 19.0860295 39.3949367 0.06303125 39.3949367"></polygon>
        <polygon id="path-4" points="0 0.112231013 2.857 0.112231013 2.857 32.6535285 0 32.6535285"></polygon>
    </defs>
    <g id="Website" stroke="none" stroke-width="1" fill="none" fill-rule="evenodd">
        <g id="boxes" transform="translate(-1082.000000, -400.000000)">
            <g id="box_mcpen" transform="translate(1090.000000, 400.000000)">
                <polygon id="Rectangle-11-Copy" fill="#000000" opacity="0.1" filter="url(#filter-1)" points="50 78.9047619 100 103.904762 50 128.904762 0 103.904762"></polygon>
                <polygon id="Rectangle-11" fill="#F2F8FC" points="50 0 100 25 50 60 0 25"></polygon>
                <polygon id="Rectangle-3" fill="#D9EAF7" points="0 25.3333333 50 50.3333333 50 114.619048 0 89.6190476"></polygon>
                <polygon id="Rectangle-3-Copy-2" fill="#EAF5FD" transform="translate(75.000000, 69.976190) scale(-1, 1) translate(-75.000000, -69.976190) " points="50 25.3333333 100 50.3333333 100 114.619048 50 89.6190476"></polygon>
                <g id="mcpenLogo" transform="translate(65.000000, 45.000000)">
                    <g id="Group-9">
                        <g id="Group-3" transform="translate(5.781250, 0.037816)">
                            <mask id="mask-3" fill="white">
                                <use xlink:href="#path-2"></use>
                            </mask>
                            <g id="Clip-2"></g>
                            <path d="M12.3724063,11.1302215 C12.2580313,10.3775316 12.197875,9.57642405 12.016625,8.8835443 C11.7394375,7.82436709 10.9555312,7.55268987 9.90959375,8.07705696 C8.8356875,8.6153481 7.80303125,9.45648734 7.31709375,10.9843354 C6.5319375,13.4523734 6.5425625,15.5417722 7.28396875,17.1401899 C7.67834375,17.9905063 8.51740625,17.9088608 9.489125,17.3503165 C10.4506875,16.7976266 11.2636563,15.9651899 11.759125,14.6310127 C12.2217812,13.3851266 12.3135,12.268038 12.3724063,11.1302215 Z M6.79584375,35.4585443 C4.496625,36.8028481 2.30115625,38.0865506 0.06303125,39.3949367 L0.06303125,8.52594937 C2.069125,7.35300633 4.08709375,6.17310127 6.166,4.95775316 L6.166,7.24731013 C6.36990625,6.94272152 6.4913125,6.79382911 6.57646875,6.62927215 C8.30115625,3.29651899 10.549125,1.47753165 12.9869375,0.535917722 C15.9075625,-0.592246835 17.6444375,0.654746835 18.4836562,3.33306962 C19.410375,6.2903481 19.3067813,9.85759494 17.9006875,14.0166139 C15.9855313,19.6810127 11.6045938,22.9457278 8.805375,23.1473101 C8.08834375,23.1988924 7.482875,22.8873418 6.79584375,22.7360759 L6.79584375,35.4585443 Z" id="Fill-1" fill="#E02026" mask="url(#mask-3)"></path>
                        </g>
                        <g id="Group-6" transform="translate(0.000000, 10.164399)">
                            <mask id="mask-5" fill="white">
                                <use xlink:href="#path-4"></use>
                            </mask>
                            <g id="Clip-5"></g>
                            <path d="M-3.125e-05,1.78264241 C0.9504375,1.2269462 1.88371875,0.681218354 2.857,0.112231013 L2.857,30.9831171 C1.9245,31.528212 0.97996875,32.0804272 -3.125e-05,32.6535285 L-3.125e-05,1.78264241 Z" id="Fill-4" fill="#E02026" mask="url(#mask-5)"></path>
                        </g>
                        <path d="M6.258125,49.8795411 C5.0628125,48.5518513 3.925625,47.2888766 2.73953125,45.9714715 C5.10625,44.587769 7.3815625,43.2573892 9.77703125,41.8569146 C8.5903125,44.5624525 7.44859375,47.1654589 6.258125,49.8795411" id="Fill-7" fill="#2C2A29"></path>
                    </g>
                </g>
            </g>
        </g>
    </g>
</svg>