<?xml version="1.0" encoding="UTF-8"?>
<svg width="116px" height="137px" viewBox="0 0 116 137" version="1.1" xmlns="http://www.w3.org/2000/svg" xmlns:xlink="http://www.w3.org/1999/xlink">
    <!-- Generator: Sketch 52.5 (67469) - http://www.bohemiancoding.com/sketch -->
    <title>box_slevomat</title>
    <desc>Created with Sketch.</desc>
    <defs>
        <filter x="-12.0%" y="-24.0%" width="124.0%" height="148.0%" filterUnits="objectBoundingBox" id="filter-1">
            <feGaussianBlur stdDeviation="4" in="SourceGraphic"></feGaussianBlur>
        </filter>
        <polygon id="path-2" points="0.0791199767 0.127259152 4.93864574 0.127259152 4.93864574 7 0.0791199767 7"></polygon>
        <polygon id="path-4" points="0 0.0936251021 4.99501307 0.0936251021 4.99501307 6.91667945 0 6.91667945"></polygon>
    </defs>
    <g id="Website" stroke="none" stroke-width="1" fill="none" fill-rule="evenodd">
        <g id="boxes" transform="translate(-1082.000000, -86.000000)">
            <g id="box_slevomat" transform="translate(1090.000000, 86.000000)">
                <polygon id="Rectangle-11-Copy" fill="#000000" opacity="0.1" filter="url(#filter-1)" points="50 78.9047619 100 103.904762 50 128.904762 0 103.904762"></polygon>
                <polygon id="Rectangle-11" fill="#F2F8FC" points="50 0 100 25 50 60 0 25"></polygon>
                <polygon id="Rectangle-3" fill="#D9EAF7" points="0 25.3333333 50 50.3333333 50 114.619048 0 89.6190476"></polygon>
                <polygon id="Rectangle-3-Copy-2" fill="#EAF5FD" transform="translate(75.000000, 69.976190) scale(-1, 1) translate(-75.000000, -69.976190) " points="50 25.3333333 100 50.3333333 100 114.619048 50 89.6190476"></polygon>
                <g id="Group-15" transform="translate(60.000000, 48.000000)">
                    <path d="M16.4499457,25.5975494 C18.8492027,24.2067587 20.350744,21.5407316 20.4538729,18.7445162 C20.5487735,16.1707114 18.6118141,15.0701175 16.5034301,16.3871855 C14.1299554,17.8700604 12.555593,20.5220057 12.5549073,23.2743188 C12.5542216,26.1680027 13.9892502,27.0239588 16.4499457,25.5975494 M8.01613571,25.7342262 C7.82180893,21.2080131 11.6913394,13.8397496 16.5528004,11.0737689 C21.1089887,8.48160241 25.0433861,10.735114 24.9996386,16.1923864 C24.9558911,21.6456552 20.6525882,28.603474 16.3104747,31.0205836 C12.0836957,33.3734965 7.70002898,31.4390357 8.01613571,25.7342262" id="Fill-1" fill="#31B7EA"></path>
                    <path d="M23.5530129,28.2701257 C23.9526941,27.6117401 24.2187066,27.1735486 24.4897533,26.7271203 C25.2300311,26.9252125 25.8982419,27.11699 26.5794353,27.2788408 C26.7916625,27.3292219 27.0388633,27.2990207 27.2726841,27.3058846 C29.0199148,25.3730095 29.8345119,23.4810433 29.9137328,21.0944642 C29.3121576,20.938379 28.6867368,20.759643 28.046611,20.6150892 C27.4576211,20.482204 27.2549323,20.0422278 27.4978939,19.0207417 C27.7892094,17.7962214 27.943147,16.599294 28.1780275,15.268795 C29.1641815,14.4747787 30.2265095,13.6195364 31.3760068,12.6940077 C32.2609489,10.4195848 31.6567242,9.10322545 31.0343503,7.84109095 C30.7228984,7.20920003 30.033094,7.92551696 29.4854367,8.33172274 C28.7704618,8.8620279 28.0643628,9.47607267 27.3140167,10.0872346 C26.5908283,9.18065028 25.9190407,8.33844937 25.2028735,7.44065084 C25.8184911,6.00417321 26.4624587,4.50139026 27.0869523,3.04445819 C26.8058374,2.10808453 26.2273132,1.79646333 25.4817362,1.70929176 C23.6917157,1.50021727 23.2883252,1.58546695 22.1027942,4.50935239 C21.3113805,6.46144643 21.2856801,6.43275531 19.8938834,6.87684984 C19.0918716,7.13273615 18.2738301,7.47991237 17.4094218,7.80622232 C17.2374675,6.67820849 17.0675003,5.5636479 16.8809736,4.33953943 C16.4646004,3.9605147 15.766715,4.27858797 15.1016837,4.83607418 C14.2485359,5.5511556 13.3772389,6.34764292 12.606359,7.27358344 C11.903042,8.11811808 12.2727835,8.83045394 12.2945096,9.52727738 C12.3133213,10.1267707 12.5528385,10.5902214 12.5409157,11.2016579 C12.5329671,11.6084128 12.2545018,12.1694682 11.9447721,13.1381022 C11.1611744,11.5854874 10.9517293,10.0275186 11.0088266,8.26871211 C11.0199546,7.92510512 11.3519404,7.30474556 11.6278886,6.93189835 C13.2074042,4.79763632 14.8596494,3.14165106 16.7841334,2.62713288 C17.4826813,2.44043472 17.9521775,2.35642055 17.9814547,3.28249835 C17.9867538,3.4517622 18.184541,3.51394916 18.1658618,3.67978106 C17.9011741,6.03917911 19.0273556,5.99154362 20.7062285,5.18338767 C21.1007431,4.31510393 21.6403193,3.30212911 22.0021122,2.28105489 C22.3376748,1.33438538 22.7719323,0.903057706 23.4062291,0.577022309 C25.5910292,-0.546186793 27.0314447,0.0785656667 28.1441136,1.51998532 C28.5200815,2.00718516 28.3146107,2.73928906 27.9818301,3.52836336 C27.5755251,4.49164352 27.1374257,5.44833433 26.6705791,6.50372807 C27.0653586,7.03966163 27.4401342,7.54841412 27.8853873,8.15271215 C28.3620372,7.78700339 28.8706139,7.43872895 29.3624987,7.01193146 C31.1412587,5.46878876 31.3700454,5.45066806 32.18451,6.87575162 C32.9144548,8.15326126 33.2717435,9.68185248 32.7580002,11.9192103 C32.5811442,12.689203 32.45092,13.2671436 31.7960893,13.7197494 C31.5983021,13.8563411 31.4036944,14.2304238 31.21783,14.3251456 C29.4878213,15.2067454 28.8070253,16.7589484 28.6877966,18.926569 C29.4127072,19.154176 30.2322059,19.4114351 31.1419211,19.6969735 C31.4324417,22.3191217 30.1627883,25.030638 28.4011177,27.7211508 C27.7644363,28.6936285 27.0682731,29.146097 26.376614,28.9583006 C25.4931292,28.7183386 24.5907002,28.5206582 23.5530129,28.2701257" id="Fill-3" fill="#31B7EA"></path>
                    <g id="Group-7" transform="translate(6.000000, 36.000000)">
                        <mask id="mask-3" fill="white">
                            <use xlink:href="#path-2"></use>
                        </mask>
                        <g id="Clip-6"></g>
                        <path d="M2.58939744,6.56285714 C1.20926923,7.46957143 0.130423077,6.92642857 0.0804230769,5.29985714 C0.0319615385,3.72842857 1.34401282,1.11242857 2.54285897,0.389857143 C3.72965385,-0.325428571 4.92657692,0.487571429 4.9385,2.017 C4.95221795,3.78871429 3.99632051,5.63842857 2.58939744,6.56285714" id="Fill-5" fill="#31B7EA" mask="url(#mask-3)"></path>
                    </g>
                    <path d="M20.9998727,35.0074922 C20.9889022,36.849248 19.8515344,38.9600466 18.4363343,39.765468 C17.2227015,40.4563576 15.9542159,39.5456524 16.0012702,38.0171872 C16.0532151,36.3246784 17.1864854,34.3601389 18.6240231,33.4707751 C20.1895065,32.5024483 21.0117685,33.034274 20.9998727,35.0074922" id="Fill-8" fill="#31B7EA"></path>
                    <path d="M5.40877561,22.5995262 C3.97849614,23.4992172 2.98047832,22.8447916 3.00028976,21.0200174 C3.01996823,19.1903379 4.06425706,17.1402081 5.40186155,16.3047189 C6.6388133,15.5322773 7.98147037,16.3011121 7.99968625,17.7923254 C8.02149213,19.5856479 6.90420679,21.6588615 5.40877561,22.5995262" id="Fill-10" fill="#31B7EA"></path>
                    <g id="Group-14" transform="translate(0.000000, 29.000000)">
                        <mask id="mask-5" fill="white">
                            <use xlink:href="#path-4"></use>
                        </mask>
                        <g id="Clip-13"></g>
                        <path d="M2.54381579,0.593446 C4.05513158,-0.504434 5.04013158,0.320306 4.99342105,1.959566 C4.93960526,3.844246 3.96565789,5.775406 2.50802632,6.693246 C1.44842105,7.360486 0.0102631579,6.446566 1.35525272e-20,5.099486 C-0.0117105263,3.528266 1.14815789,1.473626 2.54381579,0.593446" id="Fill-12" fill="#31B7EA" mask="url(#mask-5)"></path>
                    </g>
                </g>
            </g>
        </g>
    </g>
</svg>