<?xml version="1.0" encoding="UTF-8"?>
<svg width="116px" height="137px" viewBox="0 0 116 137" version="1.1" xmlns="http://www.w3.org/2000/svg" xmlns:xlink="http://www.w3.org/1999/xlink">
    <!-- Generator: Sketch 52.5 (67469) - http://www.bohemiancoding.com/sketch -->
    <title>box_lekarna</title>
    <desc>Created with Sketch.</desc>
    <defs>
        <filter x="-12.0%" y="-24.0%" width="124.0%" height="148.0%" filterUnits="objectBoundingBox" id="filter-1">
            <feGaussianBlur stdDeviation="4" in="SourceGraphic"></feGaussianBlur>
        </filter>
        <polygon id="path-2" points="0 0.0353442623 32.9142647 0.0353442623 32.9142647 48.6786885 0 48.6786885"></polygon>
        <polygon id="path-4" points="0 0.0729377049 16.4578441 0.0729377049 16.4578441 17.8327869 0 17.8327869"></polygon>
    </defs>
    <g id="Website" stroke="none" stroke-width="1" fill="none" fill-rule="evenodd">
        <g id="boxes" transform="translate(-1082.000000, -243.000000)">
            <g id="box_lekarna" transform="translate(1090.000000, 243.000000)">
                <polygon id="Rectangle-11-Copy" fill="#000000" opacity="0.1" filter="url(#filter-1)" points="50 78.9047619 100 103.904762 50 128.904762 0 103.904762"></polygon>
                <polygon id="Rectangle-11" fill="#F2F8FC" points="50 0 100 25 50 60 0 25"></polygon>
                <polygon id="Rectangle-3" fill="#D9EAF7" points="0 25.3333333 50 50.3333333 50 114.619048 0 89.6190476"></polygon>
                <polygon id="Rectangle-3-Copy-2" fill="#EAF5FD" transform="translate(75.000000, 69.976190) scale(-1, 1) translate(-75.000000, -69.976190) " points="50 25.3333333 100 50.3333333 100 114.619048 50 89.6190476"></polygon>
                <g id="lekarna" transform="translate(60.000000, 45.000000)">
                    <g id="Group-16">
                        <g id="Group-3" transform="translate(0.000000, 0.125311)">
                            <mask id="mask-3" fill="white">
                                <use xlink:href="#path-2"></use>
                            </mask>
                            <g id="Clip-2"></g>
                            <path d="M16.4787926,11.0099144 C15.7953368,10.6545439 15.0969985,10.3251997 14.4318221,9.93850131 C13.0327191,9.12478 11.3581309,9.13184885 9.39382206,9.93159311 C6.082175,11.2796554 2.59727794,15.3053669 0.977366176,19.6811472 C-0.653869118,24.0874521 -0.218560294,28.0999898 2.10745441,29.6678292 C2.89589559,30.198957 3.76845441,30.5933669 4.60251324,31.0502718 C4.45821912,31.3484489 4.33204265,31.6564259 4.16671912,31.9425538 C3.54635147,33.016698 2.89395441,34.0739734 2.28846912,35.1553472 C0.403586765,38.5207636 -0.348295588,41.6819866 0.149777941,44.4735407 C0.738601471,47.7743734 2.65761618,49.1444456 5.70299853,48.5397374 C8.87407206,47.9098062 11.7497632,45.4546652 14.2124691,41.4422882 C14.9738956,40.2015439 15.6953662,38.9341308 16.4351162,37.6789275 C17.2120721,38.0913308 17.9822338,38.5156226 18.7669544,38.9138882 C22.1314985,40.622462 27.3945132,37.4724849 30.6089397,31.8315407 C33.766425,26.290203 33.6439691,20.6470095 30.3292485,18.7400259 C29.6315574,18.3387079 28.9477779,17.9128095 28.2578515,17.4975144 C29.2527044,15.7837997 30.3353956,14.1022161 31.2220279,12.3493013 C32.6099691,9.60514066 33.142175,6.96974393 32.825925,4.66738656 C32.3443515,1.16123574 30.4835721,-0.40724623 27.3429103,0.142839016 C24.1627779,0.699671803 21.2558662,3.12444885 18.7523956,7.16445869 C17.9689691,8.42865869 17.2352044,9.72723902 16.4787926,11.0099144" id="Fill-1" fill="#FEFEFD" mask="url(#mask-3)"></path>
                        </g>
                        <g id="Group-6" transform="translate(0.000000, 30.971213)">
                            <mask id="mask-5" fill="white">
                                <use xlink:href="#path-4"></use>
                            </mask>
                            <g id="Clip-5"></g>
                            <path d="M16.4351971,6.83300984 C15.6954471,8.08821311 14.9739765,9.35562623 14.2123882,10.5963705 C11.7498441,14.6087475 8.87415294,17.0638885 5.70307941,17.6938197 C2.65769706,18.2985279 0.738682353,16.9284557 0.149697059,13.627623 C-0.348214706,10.8360689 0.403667647,7.6748459 2.28838824,4.30942951 C2.89403529,3.22821639 3.54643235,2.17078033 4.1668,1.09663607 C4.33196176,0.810508197 4.4583,0.502531148 4.60227059,0.204032787 C4.65015294,0.16017377 4.69835882,0.11647541 4.74672647,0.0729377049 C4.86416765,0.206603279 4.96009412,0.376255738 5.10341765,0.466865574 C5.48259412,0.706403279 5.88118235,0.913970492 6.27427059,1.13069508 C9.66841765,3.0016918 13.0632118,4.87220656 16.4578441,6.74272131 C16.4486235,6.7732459 16.4411824,6.80312787 16.4351971,6.83300984" id="Fill-4" fill="#F2AF01" mask="url(#mask-5)"></path>
                        </g>
                        <path d="M16.4351971,37.804223 C16.4411824,37.774341 16.4486235,37.744459 16.4578441,37.7139344 C20.2631971,31.2438459 24.0696824,24.7744 27.8700206,18.301259 C27.9839029,18.1071869 28.0327559,17.874718 28.1121824,17.660082 C28.16055,17.6478721 28.2090794,17.6356623 28.2576088,17.6236131 C28.9478588,18.0381049 29.6314765,18.4640033 30.3293294,18.8653213 C33.64405,20.7723049 33.7665059,26.4154984 30.6088588,31.9568361 C27.3944324,37.5977803 22.1315794,40.7477574 18.7668735,39.0391836 C17.9821529,38.640918 17.2121529,38.2166262 16.4351971,37.804223" id="Fill-7" fill="#7DB717"></path>
                        <path d="M4.74659706,31.0441348 C4.69839118,31.0876725 4.65018529,31.1313708 4.60214118,31.1752298 C3.76840588,30.7188069 2.89584706,30.324397 2.10756765,29.7931085 C-0.218608824,28.2252692 -0.653755882,24.2128921 0.977317647,19.8064266 C2.59722941,15.4306462 6.08212647,11.4049348 9.39377353,10.0568725 C11.3582441,9.2571282 13.0328324,9.25005934 14.4319353,10.0637807 C15.09695,10.450479 15.79545,10.7798233 16.4785824,11.1353544 C16.4806853,11.1695741 16.4785824,11.2057216 16.4721118,11.2439577 C15.0007,13.713397 13.5226559,16.17882 12.0590088,18.6529184 C9.61668529,22.7803249 7.18358235,26.9133544 4.74659706,31.0441348" id="Fill-9" fill="#7DB717"></path>
                        <path d="M16.4721603,11.244022 C16.4786309,11.2057859 16.4807338,11.1694777 16.4786309,11.135258 C17.2352044,9.85242197 17.9689691,8.55384164 18.7523956,7.2898023 C21.2558662,3.2496318 24.1627779,0.82501541 27.3429103,0.268182623 C30.4835721,-0.281902623 32.3443515,1.28657934 32.825925,4.79273016 C33.142175,7.09492689 32.6099691,9.73048426 31.2220279,12.4746449 C30.3353956,14.2275597 29.2527044,15.9091433 28.2576897,17.6231793 C28.2091603,17.6357105 28.1606309,17.6479203 28.1121015,17.6601302 C24.232175,15.5213203 20.3520868,13.3826711 16.4721603,11.244022" id="Fill-11" fill="#F2AF01"></path>
                        <path d="M16.4721603,11.244022 C20.3520868,13.3826711 24.232175,15.5213203 28.1121015,17.6601302 C28.0328368,17.8746056 27.9838221,18.1070744 27.8699397,18.3011466 C24.0697632,24.7742875 20.2632779,31.2438941 16.4577632,37.7139826 C13.0631309,35.8434679 9.66833676,33.9729531 6.27418971,32.1019564 C5.88126324,31.8852318 5.482675,31.6776646 5.10349853,31.4381269 C4.96001324,31.3473564 4.86424853,31.1778646 4.74664559,31.044199 C7.18363088,26.9134187 9.61673382,22.7803892 12.0588956,18.652822 C13.5227044,16.1788843 15.0005868,13.7133007 16.4721603,11.244022" id="Fill-14" fill="#018A39"></path>
                    </g>
                </g>
            </g>
        </g>
    </g>
</svg>