<?xml version="1.0" encoding="UTF-8"?>
<svg width="116px" height="137px" viewBox="0 0 116 137" version="1.1" xmlns="http://www.w3.org/2000/svg" xmlns:xlink="http://www.w3.org/1999/xlink">
    <!-- Generator: Sketch 52.5 (67469) - http://www.bohemiancoding.com/sketch -->
    <title>box_pietro</title>
    <desc>Created with Sketch.</desc>
    <defs>
        <filter x="-12.0%" y="-24.0%" width="124.0%" height="148.0%" filterUnits="objectBoundingBox" id="filter-1">
            <feGaussianBlur stdDeviation="4" in="SourceGraphic"></feGaussianBlur>
        </filter>
        <polygon id="path-2" points="2.84552846e-05 0.0583105961 15.6661523 0.0583105961 15.6661523 22.1572581 2.84552846e-05 22.1572581"></polygon>
    </defs>
    <g id="Website" stroke="none" stroke-width="1" fill="none" fill-rule="evenodd">
        <g id="boxes" transform="translate(-1082.000000, -584.000000)">
            <g id="box_pietro" transform="translate(1090.000000, 584.000000)">
                <polygon id="Rectangle-11-Copy" fill="#000000" opacity="0.1" filter="url(#filter-1)" points="50 78.9047619 100 103.904762 50 128.904762 0 103.904762"></polygon>
                <polygon id="Rectangle-11" fill="#F2F8FC" points="50 0 100 25 50 60 0 25"></polygon>
                <polygon id="Rectangle-3" fill="#D9EAF7" points="0 25.3333333 50 50.3333333 50 114.619048 0 89.6190476"></polygon>
                <polygon id="Rectangle-3-Copy-2" fill="#EAF5FD" transform="translate(75.000000, 69.976190) scale(-1, 1) translate(-75.000000, -69.976190) " points="50 25.3333333 100 50.3333333 100 114.619048 50 89.6190476"></polygon>
                <g id="pietroLogo" transform="translate(59.000000, 53.000000)">
                    <g id="Group-6">
                        <g id="Group-3" transform="translate(0.000000, 12.826653)">
                            <mask id="mask-3" fill="white">
                                <use xlink:href="#path-2"></use>
                            </mask>
                            <g id="Clip-2"></g>
                            <path d="M3.76480488,12.671002 C3.83551626,12.630498 3.89043496,12.5990262 3.94535366,12.5675544 C5.53059756,11.6596714 7.11612602,10.7663246 8.70108537,9.83670766 C9.31927642,9.47414718 9.94130894,9.06515524 10.552813,8.61368347 C11.3292154,8.04041734 11.7069593,7.40053831 11.8234837,6.53809879 C11.922935,5.80126411 11.9071423,5.12511492 11.8212073,4.49215121 C11.7201911,3.74656653 11.3017561,3.50453024 10.6215325,3.7551754 C10.1117561,3.94301815 9.58931707,4.1795504 9.07171545,4.46957056 C7.36468293,5.42628427 5.65736585,6.41701008 3.95019106,7.3951754 C3.89114634,7.42904637 3.83195935,7.46898589 3.76480488,7.51118347 L3.76480488,12.671002 Z M3.75783333,15.177877 L3.75783333,20.0051956 C2.49769106,20.7269294 1.25376829,21.4392077 2.84552846e-05,22.1572722 L2.84552846e-05,7.1666875 C0.0643373984,7.12985282 0.12352439,7.09598185 0.182711382,7.06211089 C3.23738618,5.31253427 6.29234553,3.55223185 9.34702033,1.81916734 C10.5269187,1.14979234 11.7068171,0.543219758 12.8595407,0.21777621 C13.4273659,0.0575947581 13.9657398,-0.00760685484 14.4324065,0.143965726 C15.0036463,0.329550403 15.3298862,0.832393145 15.4831179,1.53930847 C15.7188699,2.62741331 15.7249878,3.85678831 15.5124268,5.20739315 C15.2679959,6.76023589 14.5068171,8.07146573 13.3217967,9.17396573 C12.5115325,9.92759476 11.6765122,10.5481391 10.834378,11.0473125 C8.55155285,12.4005988 6.26801626,13.7169093 3.98476423,15.047756 C3.91447967,15.0888246 3.84405285,15.1284819 3.75783333,15.177877 Z" id="Fill-1" fill="#000000" mask="url(#mask-3)"></path>
                        </g>
                        <path d="M21.9540915,7.429625 C26.2821402,4.95097581 30.5995183,2.47839516 34.926998,2.82258064e-05 L34.926998,2.47500806 C31.8669167,4.22754839 28.8074045,5.97966532 25.7340915,7.73982661 L25.7340915,11.6711169 C28.6443557,10.0043831 31.5524858,8.33891935 34.4660224,6.67035081 L34.4660224,9.0386371 C31.5557581,10.705371 28.6480549,12.3705524 25.7262663,14.0437782 L25.7262663,20.2480927 C24.4631362,20.9715202 23.2139492,21.6867621 21.9540915,22.4083548 L21.9540915,7.429625 Z" id="Fill-4" fill="#000000"></path>
                    </g>
                </g>
            </g>
        </g>
    </g>
</svg>