<?xml version="1.0" encoding="UTF-8"?>
<svg width="568px" height="624px" viewBox="0 0 568 624" version="1.1" xmlns="http://www.w3.org/2000/svg" xmlns:xlink="http://www.w3.org/1999/xlink">
    <!-- Generator: Sketch 53 (72520) - https://sketchapp.com -->
    <title>full</title>
    <desc>Created with Sketch.</desc>
    <defs>
        <filter x="-5.7%" y="-11.1%" width="111.3%" height="122.2%" filterUnits="objectBoundingBox" id="filter-1">
            <feGaussianBlur stdDeviation="10" in="SourceGraphic"></feGaussianBlur>
        </filter>
        <filter x="-13.3%" y="-26.7%" width="126.7%" height="153.3%" filterUnits="objectBoundingBox" id="filter-2">
            <feGaussianBlur stdDeviation="4" in="SourceGraphic"></feGaussianBlur>
        </filter>
        <filter x="-13.3%" y="-26.7%" width="126.7%" height="153.3%" filterUnits="objectBoundingBox" id="filter-3">
            <feGaussianBlur stdDeviation="4" in="SourceGraphic"></feGaussianBlur>
        </filter>
        <filter x="-13.3%" y="-26.7%" width="126.7%" height="153.3%" filterUnits="objectBoundingBox" id="filter-4">
            <feGaussianBlur stdDeviation="4" in="SourceGraphic"></feGaussianBlur>
        </filter>
        <filter x="-13.3%" y="-26.7%" width="126.7%" height="153.3%" filterUnits="objectBoundingBox" id="filter-5">
            <feGaussianBlur stdDeviation="4" in="SourceGraphic"></feGaussianBlur>
        </filter>
        <filter x="-13.3%" y="-26.7%" width="126.7%" height="153.3%" filterUnits="objectBoundingBox" id="filter-6">
            <feGaussianBlur stdDeviation="4" in="SourceGraphic"></feGaussianBlur>
        </filter>
        <filter x="-13.3%" y="-26.7%" width="126.7%" height="153.3%" filterUnits="objectBoundingBox" id="filter-7">
            <feGaussianBlur stdDeviation="4" in="SourceGraphic"></feGaussianBlur>
        </filter>
        <filter x="-13.3%" y="-26.7%" width="126.7%" height="153.3%" filterUnits="objectBoundingBox" id="filter-8">
            <feGaussianBlur stdDeviation="4" in="SourceGraphic"></feGaussianBlur>
        </filter>
        <filter x="-13.3%" y="-26.7%" width="126.7%" height="153.3%" filterUnits="objectBoundingBox" id="filter-9">
            <feGaussianBlur stdDeviation="4" in="SourceGraphic"></feGaussianBlur>
        </filter>
        <filter x="-13.3%" y="-26.7%" width="126.7%" height="153.3%" filterUnits="objectBoundingBox" id="filter-10">
            <feGaussianBlur stdDeviation="4" in="SourceGraphic"></feGaussianBlur>
        </filter>
        <filter x="-13.3%" y="-26.7%" width="126.7%" height="153.3%" filterUnits="objectBoundingBox" id="filter-11">
            <feGaussianBlur stdDeviation="4" in="SourceGraphic"></feGaussianBlur>
        </filter>
        <filter x="-13.3%" y="-26.7%" width="126.7%" height="153.3%" filterUnits="objectBoundingBox" id="filter-12">
            <feGaussianBlur stdDeviation="4" in="SourceGraphic"></feGaussianBlur>
        </filter>
        <filter x="-13.3%" y="-26.7%" width="126.7%" height="153.3%" filterUnits="objectBoundingBox" id="filter-13">
            <feGaussianBlur stdDeviation="4" in="SourceGraphic"></feGaussianBlur>
        </filter>
        <filter x="-13.3%" y="-26.7%" width="126.7%" height="153.3%" filterUnits="objectBoundingBox" id="filter-14">
            <feGaussianBlur stdDeviation="4" in="SourceGraphic"></feGaussianBlur>
        </filter>
        <filter x="-13.3%" y="-26.7%" width="126.7%" height="153.3%" filterUnits="objectBoundingBox" id="filter-15">
            <feGaussianBlur stdDeviation="4" in="SourceGraphic"></feGaussianBlur>
        </filter>
        <filter x="-13.3%" y="-26.7%" width="126.7%" height="153.3%" filterUnits="objectBoundingBox" id="filter-16">
            <feGaussianBlur stdDeviation="4" in="SourceGraphic"></feGaussianBlur>
        </filter>
        <filter x="-13.3%" y="-26.7%" width="126.7%" height="153.3%" filterUnits="objectBoundingBox" id="filter-17">
            <feGaussianBlur stdDeviation="4" in="SourceGraphic"></feGaussianBlur>
        </filter>
        <filter x="-12.5%" y="-25.0%" width="125.0%" height="150.0%" filterUnits="objectBoundingBox" id="filter-18">
            <feGaussianBlur stdDeviation="10" in="SourceGraphic"></feGaussianBlur>
        </filter>
        <linearGradient x1="100%" y1="50%" x2="0%" y2="50%" id="linearGradient-19">
            <stop stop-color="#F8FCFF" offset="0%"></stop>
            <stop stop-color="#F3FAFF" offset="100%"></stop>
        </linearGradient>
        <linearGradient x1="68.1047017%" y1="87.3118151%" x2="32.9900507%" y2="32.6387617%" id="linearGradient-20">
            <stop stop-color="#EDF6FF" offset="0%"></stop>
            <stop stop-color="#EEF9FF" offset="100%"></stop>
        </linearGradient>
        <linearGradient x1="0%" y1="50%" x2="100%" y2="50%" id="linearGradient-21">
            <stop stop-color="#E0F1FF" offset="0%"></stop>
            <stop stop-color="#80C6F9" offset="100%"></stop>
        </linearGradient>
        <filter x="-12.5%" y="-25.0%" width="125.0%" height="150.0%" filterUnits="objectBoundingBox" id="filter-22">
            <feGaussianBlur stdDeviation="10" in="SourceGraphic"></feGaussianBlur>
        </filter>
    </defs>
    <g id="Website" stroke="none" stroke-width="1" fill="none" fill-rule="evenodd">
        <g id="full" transform="translate(19.000000, 0.000000)">
            <g id="platform-illu-copy">
                <g id="keboola" transform="translate(0.000000, 168.000000)">
                    <polygon id="Rectangle-11-Copy" fill="#228DFF" opacity="0.5" filter="url(#filter-1)" points="270 163.203861 530 298.203861 270 433.203861 0 298.203861"></polygon>
                    <polygon id="Rectangle-11" fill="#86C1FF" points="270 0.308108108 540 135.308108 270 409.728958 0 135.308108"></polygon>
                    <polygon id="Rectangle-3" fill="#50A5FF" points="-9.09494702e-13 135.308108 270 270.308108 270 409.728958 -9.09494702e-13 274.728958"></polygon>
                    <polygon id="Rectangle-3-Copy-2" fill="#228DFF" transform="translate(405.000000, 272.518533) scale(-1, 1) translate(-405.000000, -272.518533) " points="270 135.308108 540 270.308108 540 409.728958 270 274.728958"></polygon>
                    <path d="M293.936935,367.52908 C294.698032,367.130694 295.314981,367.416288 295.314981,368.165068 C295.314981,368.916166 294.698032,369.84647 293.936935,370.244856 C293.175839,370.643243 292.558889,370.358808 292.558889,369.60771 C292.558889,368.85893 293.175839,367.927466 293.936935,367.52908 Z M297.562522,365.631312 C298.323619,365.232925 298.940568,365.518519 298.940568,366.267299 C298.940568,367.018397 298.323619,367.948701 297.562522,368.347088 C296.801426,368.745474 296.184476,368.461039 296.184476,367.709941 C296.184476,366.961161 296.801426,366.029698 297.562522,365.631312 Z M295.880038,371.244601 C300.156016,369.006393 303.918832,361.274898 303.918832,353.977192 C303.918832,346.680644 301.182344,347.070992 295.880038,349.846418 C290.577732,352.621843 287.581779,355.23207 287.581779,362.528618 C287.581779,369.826324 291.177384,373.706147 295.880038,371.244601 Z M305.309563,372.969035 C304.731821,372.305914 304.084889,371.891126 303.420659,371.619849 C302.754123,371.348619 302.085281,371.209575 301.433736,371.061477 C301.125838,370.990822 300.809868,370.942938 300.488131,370.917777 C300.809868,370.555798 301.125838,370.175973 301.433736,369.782987 C302.921334,367.888108 304.215198,365.705177 305.309563,363.303282 C305.695877,362.455451 305.476773,361.737903 304.821769,361.700571 C304.165611,361.663843 303.321486,362.320124 302.934019,363.168559 C301.987261,365.24862 300.910194,367.038727 299.76509,368.495853 C298.53811,370.052632 297.330734,371.137827 296.089916,371.859182 C295.976904,371.914859 295.863893,371.970536 295.749729,372.030294 C295.636717,372.089448 295.522553,372.152683 295.409542,372.215315 C294.168724,372.792941 292.962501,372.971115 291.734368,372.699434 C290.589263,372.441089 289.51335,371.777933 288.565439,370.689612 C288.179124,370.246204 287.333846,370.47422 286.678842,371.19726 C286.022684,371.920903 285.804734,372.867221 286.191048,373.311789 C287.285413,374.566862 288.578123,375.395882 290.065721,375.733433 C290.373619,375.804088 290.68959,375.853131 291.012479,375.877688 C290.68959,376.240271 290.373619,376.618936 290.065721,377.011922 C289.41533,377.841503 288.745334,378.681344 288.079951,379.64975 C287.415721,380.616394 286.767636,381.709042 286.191048,382.976382 C285.804734,383.824213 286.022684,384.543524 286.678842,384.580252 C287.333846,384.617584 288.179124,383.9607 288.565439,383.112868 C289.009412,382.13981 289.464916,381.37515 289.976927,380.626117 C290.487784,379.880006 291.068985,379.146916 291.735521,378.298453 C292.060717,377.885981 292.383606,377.507171 292.707649,377.159053 C292.668441,377.249122 292.630386,377.339747 292.592331,377.432689 C291.657105,379.688693 290.694203,382.644213 290.68959,385.438905 C290.68959,386.187685 291.306539,386.47212 292.067636,386.073733 C292.828732,385.675347 293.445682,384.745043 293.445682,383.996263 C293.441069,381.842747 294.222923,379.358703 295.033606,377.413619 C295.280386,376.820805 295.527166,376.28015 295.749729,375.81708 C295.984977,376.057901 296.245595,376.357306 296.503906,376.715873 C297.301904,377.811959 298.058388,379.458324 298.053775,381.584214 C298.053775,382.332994 298.670725,382.617429 299.432975,382.218439 C300.194071,381.820052 300.811021,380.889748 300.811021,380.140968 C300.806408,377.351106 299.842352,375.404228 298.908279,374.126685 C298.869071,374.074185 298.831016,374.023399 298.792962,373.973772 C299.115851,373.983261 299.439894,374.023443 299.76509,374.095475 C300.430472,374.246762 301.011673,374.371407 301.523684,374.582111 C302.035694,374.795133 302.490046,375.083541 302.934019,375.590656 C303.191177,375.886076 303.651295,375.884009 304.122944,375.63713 C304.360498,375.512785 304.601512,375.326356 304.821769,375.083564 C305.476773,374.360525 305.695877,373.412443 305.309563,372.969035 Z" id="logo" fill="#0F61B9" fill-rule="nonzero"></path>
                </g>
                <g id="apps" transform="translate(150.000000, 80.000000)">
                    <g id="Group-6-Copy-3" transform="translate(75.000000, 0.000000)">
                        <g id="box">
                            <polygon id="Rectangle-11-Copy" fill-opacity="0.1" fill="#233141" filter="url(#filter-2)" points="45 71.0142857 90 93.5142857 45 116.014286 0 93.5142857"></polygon>
                            <polygon id="Rectangle-11" fill="#F2F8FC" points="45 0 90 22.5 45 85 0 22.5"></polygon>
                            <polygon id="Rectangle-11-Copy-2" fill="#12BF90" points="45.3 8.1 75.3 23.1 45.3 38.1 15.3 23.1"></polygon>
                            <polygon id="Rectangle-11-Copy-3" fill="#00A377" points="45.3 8.1 75.3 23.1 45.3 38.1"></polygon>
                            <polygon id="Rectangle-3" fill="#D9EAF7" points="0 22.8 45 45.3 45 103.157143 0 80.6571429"></polygon>
                            <polygon id="Rectangle-3-Copy-2" fill="#EAF5FD" transform="translate(67.500000, 62.978571) scale(-1, 1) translate(-67.500000, -62.978571) " points="45 22.8 90 45.3 90 103.157143 45 80.6571429"></polygon>
                        </g>
                        <g id="box-copy-6" transform="translate(75.000000, 37.333333)">
                            <polygon id="Rectangle-11-Copy" fill-opacity="0.1" fill="#233141" filter="url(#filter-3)" points="45 71.0142857 90 93.5142857 45 116.014286 0 93.5142857"></polygon>
                            <polygon id="Rectangle-11" fill="#F2F8FC" points="45 0 90 22.5 45 85 0 22.5"></polygon>
                            <g id="Group-6" transform="translate(44.500000, 22.666667) scale(-1, -1) translate(-44.500000, -22.666667) translate(25.000000, 11.666667)" fill="#656E7A">
                                <g id="Group-5">
                                    <path d="M10.7802221,19.138283 C10.0165112,19.5394008 9.99411294,20.1866229 10.730043,20.587501 C11.4644105,20.9875802 12.6988319,20.9898974 13.4588097,20.5926149 C14.2301603,20.1894195 14.2468287,19.5529046 13.4964874,19.1483509 C12.7388535,18.7398019 11.5472319,18.7354072 10.7802221,19.138283 Z M37.9214318,13.7059325 C38.978143,14.3247886 39.1999552,15.0704524 38.8394128,15.8679738 C38.5302648,16.5518717 37.8854036,17.151471 37.1896688,17.7391647 C36.1249706,18.6384038 34.925362,19.4781145 33.4026282,20.1739182 C31.6248323,20.9862218 29.5895432,21.5547384 27.3385191,21.8984054 C25.6299146,22.1592119 24.1667359,21.910391 22.9090481,21.2380791 C19.4764729,19.4030847 16.0267951,17.5771993 12.5838021,15.7477183 C12.4554896,15.6795602 12.3271772,15.6113223 12.1772478,15.531658 C11.8700966,15.6949018 11.5883822,15.8445619 11.2748935,16.0111617 C13.6687282,17.2832327 16.0574408,18.552507 18.4662076,19.8325684 C18.3477052,19.9028839 18.2617585,19.9588167 18.1662621,20.0097155 C17.4044611,20.4158673 16.6254708,20.8132297 15.8812933,21.2283308 C14.6950542,21.8899356 13.2508011,22.0980055 11.5821315,21.9438707 C10.0108682,21.7987651 8.64179689,21.4018822 7.31005598,20.9592942 C4.32831064,19.9683253 2.15741669,18.6031662 0.709777853,16.9092022 C0.287336439,16.4147566 0.0255026322,15.8953808 0.00154171358,15.3489177 C-0.028062175,14.6739689 0.367727057,14.0878734 1.27068907,13.6080501 C3.54975442,12.3967061 5.81189086,11.1762531 8.11352809,9.97713438 C10.23051,8.87422005 13.407068,8.9034649 15.5270016,10.0251567 C17.8372335,11.2474475 20.170645,12.4580724 22.4351254,13.7039349 C24.752563,14.9789623 28.5165108,15.0823581 31.0209477,14.0900308 C31.3672524,13.9528357 31.6764003,13.7875144 31.9846801,13.6254692 C32.9490203,13.1187183 33.9046789,12.6072531 34.8894206,12.083962 C35.9375372,12.6409725 36.9748019,13.1516387 37.9214318,13.7059325 Z M25.3787641,3.28203784 C26.1265875,3.69703349 27.3495029,3.69124987 28.0998396,3.26904566 C28.8526029,2.84550031 28.8533829,2.16923594 28.1014862,1.7513904 C27.347423,1.33220372 26.1505068,1.33815498 25.3881238,1.76480169 C24.6323273,2.18776029 24.6280807,2.86544961 25.3787641,3.28203784 Z M0.920976641,8.88066525 C-0.103738216,8.18394866 -0.171422781,7.33962405 0.223851615,6.4865821 C0.551614774,5.77905266 1.24353996,5.17487398 1.9252388,4.56407348 C3.71034339,2.96477698 6.16761377,1.77368667 9.10699586,0.885188615 C11.7391542,0.089563754 14.6404041,0.349072242 16.8025836,1.55005338 C19.9789917,3.31456023 23.1410135,5.08703002 26.3091885,6.856147 C26.4273982,6.92211378 26.5455212,6.98808057 26.6860902,7.06653663 C26.9878541,6.89805728 27.2680388,6.7416481 27.5844489,6.56495433 C25.1978097,5.23220725 22.8126437,3.90029838 20.451917,2.58205226 C20.4672565,2.53360397 20.4623167,2.51323557 20.4780029,2.50468587 C21.7294307,1.82456575 22.9378732,1.11695249 24.2488392,0.474467816 C25.4110031,-0.0950091435 26.7892203,-0.114036413 28.1993299,0.217054843 C29.709363,0.571532038 31.0010029,1.11728778 32.2418577,1.6984158 C34.3335794,2.67794299 36.215661,3.77331021 37.7591464,5.03330104 C38.9703622,6.02204849 39.4067153,7.09972957 38.5622615,8.24144957 C38.3338153,8.55016074 37.955007,8.84411948 37.5340801,9.08401395 C35.301616,10.3563264 33.0413329,11.6135511 30.7757632,12.8675069 C28.6313498,14.05449 25.5158665,14.0413302 23.3666865,12.8446239 C21.0321323,11.5445668 18.7059846,10.2399834 16.371257,8.94009403 C14.1107139,7.68161198 10.7091528,7.49033344 8.0801144,8.48352338 C7.64402127,8.6482308 7.26304643,8.86205708 6.88406487,9.06892625 C5.99359251,9.55491792 5.12019295,10.0506328 4.23847366,10.5415699 C4.17035577,10.5795406 4.09166488,10.61156 4.03030679,10.640562 C2.96390656,10.0451006 1.84377466,9.5079784 0.920976641,8.88066525 Z" id="Combined-Shape"></path>
                                </g>
                            </g>
                            <polygon id="Rectangle-3" fill="#D9EAF7" points="0 22.8 45 45.3 45 103.157143 0 80.6571429"></polygon>
                            <polygon id="Rectangle-3-Copy-2" fill="#EAF5FD" transform="translate(67.500000, 62.978571) scale(-1, 1) translate(-67.500000, -62.978571) " points="45 22.8 90 45.3 90 103.157143 45 80.6571429"></polygon>
                        </g>
                        <g id="box-copy-5" transform="translate(150.000000, 74.666667)">
                            <polygon id="Rectangle-11-Copy" fill-opacity="0.1" fill="#233141" filter="url(#filter-4)" points="45 71.0142857 90 93.5142857 45 116.014286 0 93.5142857"></polygon>
                            <polygon id="Rectangle-11" fill="#F2F8FC" points="45 0 90 22.5 45 85 0 22.5"></polygon>
                            <polygon id="Rectangle-11-Copy-2" fill="#FFD34A" points="45.3 8.1 75.3 23.1 45.3 38.1 15.3 23.1"></polygon>
                            <polygon id="Rectangle-11-Copy-3" fill="#F9BD00" points="45.3 8.1 75.3 23.1 45.3 38.1"></polygon>
                            <polygon id="Rectangle-3" fill="#D9EAF7" points="0 22.8 45 45.3 45 103.157143 0 80.6571429"></polygon>
                            <polygon id="Rectangle-3-Copy-2" fill="#EAF5FD" transform="translate(67.500000, 62.978571) scale(-1, 1) translate(-67.500000, -62.978571) " points="45 22.8 90 45.3 90 103.157143 45 80.6571429"></polygon>
                        </g>
                        <g id="box-copy-3" transform="translate(225.000000, 112.000000)">
                            <polygon id="Rectangle-11-Copy" fill="#228DFF" opacity="0.1" filter="url(#filter-5)" points="45 71.0142857 90 93.5142857 45 116.014286 0 93.5142857"></polygon>
                            <polygon id="Rectangle-11" fill="#F2F8FC" points="45 0 90 22.5 45 101 0 22.5"></polygon>
                            <polygon id="Rectangle-3" fill="#D9EAF7" points="0 22.8 45 45.3 45 103.157143 0 80.6571429"></polygon>
                            <polygon id="Rectangle-3-Copy-2" fill="#EAF5FD" transform="translate(67.500000, 62.978571) scale(-1, 1) translate(-67.500000, -62.978571) " points="45 22.8 90 45.3 90 103.157143 45 80.6571429"></polygon>
                        </g>
                    </g>
                    <g id="Group-6-Copy-2" transform="translate(0.000000, 38.000000)">
                        <g id="box">
                            <polygon id="Rectangle-11-Copy" fill-opacity="0.1" fill="#233141" filter="url(#filter-6)" points="45 71.0142857 90 93.5142857 45 116.014286 0 93.5142857"></polygon>
                            <polygon id="Rectangle-11" fill="#F2F8FC" points="45 0 90 22.5 45 85 0 22.5"></polygon>
                            <polygon id="Rectangle-11-Copy-2" fill="#85C0FE" points="45.3 8.1 75.3 23.1 45.3 38.1 15.3 23.1"></polygon>
                            <polygon id="Rectangle-11-Copy-3" fill="#228DFF" points="45.3 8.1 75.3 23.1 45.3 38.1"></polygon>
                            <polygon id="Rectangle-3" fill="#D9EAF7" points="0 22.8 45 45.3 45 103.157143 0 80.6571429"></polygon>
                            <polygon id="Rectangle-3-Copy-2" fill="#EAF5FD" transform="translate(67.500000, 62.978571) scale(-1, 1) translate(-67.500000, -62.978571) " points="45 22.8 90 45.3 90 103.157143 45 80.6571429"></polygon>
                        </g>
                        <g id="box-copy-6" transform="translate(75.000000, 37.333333)">
                            <polygon id="Rectangle-11-Copy" fill-opacity="0.1" fill="#233141" filter="url(#filter-7)" points="45 71.0142857 90 93.5142857 45 116.014286 0 93.5142857"></polygon>
                            <polygon id="Rectangle-11" fill="#F2F8FC" points="45 0 90 22.5 45 85 0 22.5"></polygon>
                            <polygon id="Rectangle-11-Copy-2" fill="#233141" points="45.3 8.1 75.3 23.1 45.3 38.1 15.3 23.1"></polygon>
                            <polygon id="Rectangle-11-Copy-3" fill="#121A22" points="45.3 8.1 75.3 23.1 45.3 38.1"></polygon>
                            <polygon id="Rectangle-3" fill="#D9EAF7" points="0 22.8 45 45.3 45 103.157143 0 80.6571429"></polygon>
                            <polygon id="Rectangle-3-Copy-2" fill="#EAF5FD" transform="translate(67.500000, 62.978571) scale(-1, 1) translate(-67.500000, -62.978571) " points="45 22.8 90 45.3 90 103.157143 45 80.6571429"></polygon>
                        </g>
                        <g id="box-copy-5" transform="translate(150.000000, 74.666667)">
                            <polygon id="Rectangle-11-Copy" fill-opacity="0.1" fill="#233141" filter="url(#filter-8)" points="45 71.0142857 90 93.5142857 45 116.014286 0 93.5142857"></polygon>
                            <polygon id="Rectangle-11" fill="#F2F8FC" points="45 0 90 22.5 45 85 0 22.5"></polygon>
                            <polygon id="Rectangle-11-Copy-2" fill="#FF8252" points="45.3 8.1 75.3 23.1 45.3 38.1 15.3 23.1"></polygon>
                            <polygon id="Rectangle-11-Copy-3" fill="#FF5616" points="45.3 8.1 75.3 23.1 45.3 38.1"></polygon>
                            <polygon id="Rectangle-3" fill="#D9EAF7" points="0 22.8 45 45.3 45 103.157143 0 80.6571429"></polygon>
                            <polygon id="Rectangle-3-Copy-2" fill="#EAF5FD" transform="translate(67.500000, 62.978571) scale(-1, 1) translate(-67.500000, -62.978571) " points="45 22.8 90 45.3 90 103.157143 45 80.6571429"></polygon>
                        </g>
                        <g id="box" transform="translate(225.000000, 112.000000)">
                            <g>
                                <polygon id="Rectangle-11-Copy" fill="#228DFF" opacity="0.1" filter="url(#filter-9)" points="45 70.9142857 90 93.4142857 45 115.914286 0 93.4142857"></polygon>
                                <polygon id="Rectangle-11" fill="#F2F8FC" points="45 0.2 90 22.7 45 102.705316 0 22.7"></polygon>
                                <polygon id="Rectangle-3" fill="#D9EAF7" points="0 22.7 45 45.2 45 103.057143 0 80.5571429"></polygon>
                                <polygon id="Rectangle-3-Copy-2" fill="#EAF5FD" transform="translate(67.500000, 62.878571) scale(-1, 1) translate(-67.500000, -62.878571) " points="45 22.7 90 45.2 90 103.057143 45 80.5571429"></polygon>
                            </g>
                        </g>
                    </g>
                </g>
                <g id="apps-copy" transform="translate(150.000000, 0.000000)">
                    <g id="Group-6-Copy-3" transform="translate(75.000000, 0.000000)">
                        <g id="box">
                            <polygon id="Rectangle-11-Copy" fill-opacity="0.1" fill="#233141" filter="url(#filter-10)" points="45 71.0142857 90 93.5142857 45 116.014286 0 93.5142857"></polygon>
                            <polygon id="Rectangle-11" fill="#F2F8FC" points="45 0 90 22.5 45 85 0 22.5"></polygon>
                            <polygon id="Rectangle-11-Copy-2" fill="#12BF90" points="45.3 8.1 75.3 23.1 45.3 38.1 15.3 23.1"></polygon>
                            <polygon id="Rectangle-11-Copy-3" fill="#00A377" points="45.3 8.1 75.3 23.1 45.3 38.1"></polygon>
                            <polygon id="Rectangle-3" fill="#D9EAF7" points="0 22.8 45 45.3 45 103.157143 0 80.6571429"></polygon>
                            <polygon id="Rectangle-3-Copy-2" fill="#EAF5FD" transform="translate(67.500000, 62.978571) scale(-1, 1) translate(-67.500000, -62.978571) " points="45 22.8 90 45.3 90 103.157143 45 80.6571429"></polygon>
                        </g>
                        <g id="box-copy-6" transform="translate(75.000000, 37.333333)">
                            <polygon id="Rectangle-11-Copy" fill-opacity="0.1" fill="#233141" filter="url(#filter-11)" points="45 71.0142857 90 93.5142857 45 116.014286 0 93.5142857"></polygon>
                            <polygon id="Rectangle-11" fill="#F2F8FC" points="45 0 90 22.5 45 85 0 22.5"></polygon>
                            <g id="Group-6" transform="translate(44.500000, 22.666667) scale(-1, -1) translate(-44.500000, -22.666667) translate(25.000000, 11.666667)" fill="#656E7A">
                                <g id="Group-5">
                                    <path d="M10.7802221,19.138283 C10.0165112,19.5394008 9.99411294,20.1866229 10.730043,20.587501 C11.4644105,20.9875802 12.6988319,20.9898974 13.4588097,20.5926149 C14.2301603,20.1894195 14.2468287,19.5529046 13.4964874,19.1483509 C12.7388535,18.7398019 11.5472319,18.7354072 10.7802221,19.138283 Z M37.9214318,13.7059325 C38.978143,14.3247886 39.1999552,15.0704524 38.8394128,15.8679738 C38.5302648,16.5518717 37.8854036,17.151471 37.1896688,17.7391647 C36.1249706,18.6384038 34.925362,19.4781145 33.4026282,20.1739182 C31.6248323,20.9862218 29.5895432,21.5547384 27.3385191,21.8984054 C25.6299146,22.1592119 24.1667359,21.910391 22.9090481,21.2380791 C19.4764729,19.4030847 16.0267951,17.5771993 12.5838021,15.7477183 C12.4554896,15.6795602 12.3271772,15.6113223 12.1772478,15.531658 C11.8700966,15.6949018 11.5883822,15.8445619 11.2748935,16.0111617 C13.6687282,17.2832327 16.0574408,18.552507 18.4662076,19.8325684 C18.3477052,19.9028839 18.2617585,19.9588167 18.1662621,20.0097155 C17.4044611,20.4158673 16.6254708,20.8132297 15.8812933,21.2283308 C14.6950542,21.8899356 13.2508011,22.0980055 11.5821315,21.9438707 C10.0108682,21.7987651 8.64179689,21.4018822 7.31005598,20.9592942 C4.32831064,19.9683253 2.15741669,18.6031662 0.709777853,16.9092022 C0.287336439,16.4147566 0.0255026322,15.8953808 0.00154171358,15.3489177 C-0.028062175,14.6739689 0.367727057,14.0878734 1.27068907,13.6080501 C3.54975442,12.3967061 5.81189086,11.1762531 8.11352809,9.97713438 C10.23051,8.87422005 13.407068,8.9034649 15.5270016,10.0251567 C17.8372335,11.2474475 20.170645,12.4580724 22.4351254,13.7039349 C24.752563,14.9789623 28.5165108,15.0823581 31.0209477,14.0900308 C31.3672524,13.9528357 31.6764003,13.7875144 31.9846801,13.6254692 C32.9490203,13.1187183 33.9046789,12.6072531 34.8894206,12.083962 C35.9375372,12.6409725 36.9748019,13.1516387 37.9214318,13.7059325 Z M25.3787641,3.28203784 C26.1265875,3.69703349 27.3495029,3.69124987 28.0998396,3.26904566 C28.8526029,2.84550031 28.8533829,2.16923594 28.1014862,1.7513904 C27.347423,1.33220372 26.1505068,1.33815498 25.3881238,1.76480169 C24.6323273,2.18776029 24.6280807,2.86544961 25.3787641,3.28203784 Z M0.920976641,8.88066525 C-0.103738216,8.18394866 -0.171422781,7.33962405 0.223851615,6.4865821 C0.551614774,5.77905266 1.24353996,5.17487398 1.9252388,4.56407348 C3.71034339,2.96477698 6.16761377,1.77368667 9.10699586,0.885188615 C11.7391542,0.089563754 14.6404041,0.349072242 16.8025836,1.55005338 C19.9789917,3.31456023 23.1410135,5.08703002 26.3091885,6.856147 C26.4273982,6.92211378 26.5455212,6.98808057 26.6860902,7.06653663 C26.9878541,6.89805728 27.2680388,6.7416481 27.5844489,6.56495433 C25.1978097,5.23220725 22.8126437,3.90029838 20.451917,2.58205226 C20.4672565,2.53360397 20.4623167,2.51323557 20.4780029,2.50468587 C21.7294307,1.82456575 22.9378732,1.11695249 24.2488392,0.474467816 C25.4110031,-0.0950091435 26.7892203,-0.114036413 28.1993299,0.217054843 C29.709363,0.571532038 31.0010029,1.11728778 32.2418577,1.6984158 C34.3335794,2.67794299 36.215661,3.77331021 37.7591464,5.03330104 C38.9703622,6.02204849 39.4067153,7.09972957 38.5622615,8.24144957 C38.3338153,8.55016074 37.955007,8.84411948 37.5340801,9.08401395 C35.301616,10.3563264 33.0413329,11.6135511 30.7757632,12.8675069 C28.6313498,14.05449 25.5158665,14.0413302 23.3666865,12.8446239 C21.0321323,11.5445668 18.7059846,10.2399834 16.371257,8.94009403 C14.1107139,7.68161198 10.7091528,7.49033344 8.0801144,8.48352338 C7.64402127,8.6482308 7.26304643,8.86205708 6.88406487,9.06892625 C5.99359251,9.55491792 5.12019295,10.0506328 4.23847366,10.5415699 C4.17035577,10.5795406 4.09166488,10.61156 4.03030679,10.640562 C2.96390656,10.0451006 1.84377466,9.5079784 0.920976641,8.88066525 Z" id="Combined-Shape"></path>
                                </g>
                            </g>
                            <polygon id="Rectangle-3" fill="#D9EAF7" points="0 22.8 45 45.3 45 103.157143 0 80.6571429"></polygon>
                            <polygon id="Rectangle-3-Copy-2" fill="#EAF5FD" transform="translate(67.500000, 62.978571) scale(-1, 1) translate(-67.500000, -62.978571) " points="45 22.8 90 45.3 90 103.157143 45 80.6571429"></polygon>
                        </g>
                        <g id="box-copy-5" transform="translate(150.000000, 74.666667)">
                            <polygon id="Rectangle-11-Copy" fill-opacity="0.1" fill="#233141" filter="url(#filter-12)" points="45 71.0142857 90 93.5142857 45 116.014286 0 93.5142857"></polygon>
                            <polygon id="Rectangle-11" fill="#F2F8FC" points="45 0 90 22.5 45 85 0 22.5"></polygon>
                            <polygon id="Rectangle-11-Copy-2" fill="#FFD34A" points="45.3 8.1 75.3 23.1 45.3 38.1 15.3 23.1"></polygon>
                            <polygon id="Rectangle-11-Copy-3" fill="#F9BD00" points="45.3 8.1 75.3 23.1 45.3 38.1"></polygon>
                            <polygon id="Rectangle-3" fill="#D9EAF7" points="0 22.8 45 45.3 45 103.157143 0 80.6571429"></polygon>
                            <polygon id="Rectangle-3-Copy-2" fill="#EAF5FD" transform="translate(67.500000, 62.978571) scale(-1, 1) translate(-67.500000, -62.978571) " points="45 22.8 90 45.3 90 103.157143 45 80.6571429"></polygon>
                        </g>
                        <g id="box-copy-3" transform="translate(225.000000, 112.000000)">
                            <polygon id="Rectangle-11-Copy" fill="#228DFF" opacity="0.1" filter="url(#filter-13)" points="45 71.0142857 90 93.5142857 45 116.014286 0 93.5142857"></polygon>
                            <polygon id="Rectangle-11" fill="#F2F8FC" points="45 0 90 22.5 45 101 0 22.5"></polygon>
                            <polygon id="Rectangle-11-Copy-2" fill="#8A949E" points="45.3 8.1 75.3 23.1 45.3 38.1 15.3 23.1"></polygon>
                            <polygon id="Rectangle-11-Copy-3" fill="#727B85" points="45.3 8.1 75.3 23.1 45.3 38.1"></polygon>
                            <polygon id="Rectangle-3" fill="#D9EAF7" points="0 22.8 45 45.3 45 103.157143 0 80.6571429"></polygon>
                            <polygon id="Rectangle-3-Copy-2" fill="#EAF5FD" transform="translate(67.500000, 62.978571) scale(-1, 1) translate(-67.500000, -62.978571) " points="45 22.8 90 45.3 90 103.157143 45 80.6571429"></polygon>
                        </g>
                    </g>
                    <g id="Group-6-Copy-2" transform="translate(0.000000, 38.000000)">
                        <g id="box">
                            <polygon id="Rectangle-11-Copy" fill-opacity="0.1" fill="#233141" filter="url(#filter-14)" points="45 71.0142857 90 93.5142857 45 116.014286 0 93.5142857"></polygon>
                            <polygon id="Rectangle-11" fill="#F2F8FC" points="45 0 90 22.5 45 85 0 22.5"></polygon>
                            <polygon id="Rectangle-11-Copy-2" fill="#85C0FE" points="45.3 8.1 75.3 23.1 45.3 38.1 15.3 23.1"></polygon>
                            <polygon id="Rectangle-11-Copy-3" fill="#228DFF" points="45.3 8.1 75.3 23.1 45.3 38.1"></polygon>
                            <polygon id="Rectangle-3" fill="#D9EAF7" points="0 22.8 45 45.3 45 103.157143 0 80.6571429"></polygon>
                            <polygon id="Rectangle-3-Copy-2" fill="#EAF5FD" transform="translate(67.500000, 62.978571) scale(-1, 1) translate(-67.500000, -62.978571) " points="45 22.8 90 45.3 90 103.157143 45 80.6571429"></polygon>
                        </g>
                        <g id="box-copy-6" transform="translate(75.000000, 37.333333)">
                            <polygon id="Rectangle-11-Copy" fill-opacity="0.1" fill="#233141" filter="url(#filter-15)" points="45 71.0142857 90 93.5142857 45 116.014286 0 93.5142857"></polygon>
                            <polygon id="Rectangle-11" fill="#F2F8FC" points="45 0 90 22.5 45 85 0 22.5"></polygon>
                            <polygon id="Rectangle-11-Copy-2" fill="#233141" points="45.3 8.1 75.3 23.1 45.3 38.1 15.3 23.1"></polygon>
                            <polygon id="Rectangle-11-Copy-3" fill="#121A22" points="45.3 8.1 75.3 23.1 45.3 38.1"></polygon>
                            <polygon id="Rectangle-3" fill="#D9EAF7" points="0 22.8 45 45.3 45 103.157143 0 80.6571429"></polygon>
                            <polygon id="Rectangle-3-Copy-2" fill="#EAF5FD" transform="translate(67.500000, 62.978571) scale(-1, 1) translate(-67.500000, -62.978571) " points="45 22.8 90 45.3 90 103.157143 45 80.6571429"></polygon>
                        </g>
                        <g id="box-copy-5" transform="translate(150.000000, 74.666667)">
                            <polygon id="Rectangle-11-Copy" fill-opacity="0.1" fill="#233141" filter="url(#filter-16)" points="45 71.0142857 90 93.5142857 45 116.014286 0 93.5142857"></polygon>
                            <polygon id="Rectangle-11" fill="#F2F8FC" points="45 0 90 22.5 45 85 0 22.5"></polygon>
                            <polygon id="Rectangle-11-Copy-2" fill="#FF8252" points="45.3 8.1 75.3 23.1 45.3 38.1 15.3 23.1"></polygon>
                            <polygon id="Rectangle-11-Copy-3" fill="#FF5616" points="45.3 8.1 75.3 23.1 45.3 38.1"></polygon>
                            <polygon id="Rectangle-3" fill="#D9EAF7" points="0 22.8 45 45.3 45 103.157143 0 80.6571429"></polygon>
                            <polygon id="Rectangle-3-Copy-2" fill="#EAF5FD" transform="translate(67.500000, 62.978571) scale(-1, 1) translate(-67.500000, -62.978571) " points="45 22.8 90 45.3 90 103.157143 45 80.6571429"></polygon>
                        </g>
                        <g id="box-copy-28" transform="translate(225.000000, 102.000000)">
                            <g id="box">
                                <polygon id="Rectangle-11-Copy" fill="#228DFF" opacity="0.1" filter="url(#filter-17)" points="45 80.9142857 90 103.414286 45 125.914286 0 103.414286"></polygon>
                                <polygon id="Rectangle-11" fill="#F2F8FC" points="45 10.2 90 32.7 45 112.705316 0 32.7"></polygon>
                                <polygon id="Rectangle-11-Copy-4" fill="#228DFF" points="45.3 18 75.3 33 45.3 48 15.3 33"></polygon>
                                <polygon id="Rectangle-11-Copy-5" fill="#51B1FE" points="45 9 75 24 45 39 15 24"></polygon>
                                <polygon id="Rectangle-11-Copy-2" fill="#8BD3FF" points="45 0 75 15 45 30 15 15"></polygon>
                                <polygon id="Rectangle-3" fill="#D9EAF7" points="0 32.7 45 55.2 45 113.057143 0 90.5571429"></polygon>
                                <polygon id="Rectangle-3-Copy-2" fill="#EAF5FD" transform="translate(67.500000, 72.878571) scale(-1, 1) translate(-67.500000, -72.878571) " points="45 32.7 90 55.2 90 113.057143 45 90.5571429"></polygon>
                            </g>
                            <path d="M66.9932416,72.5623399 C67.6782285,72.2037921 68.233483,72.4608268 68.233483,73.1347287 C68.233483,73.810717 67.6782285,74.6479906 66.9932416,75.0065384 C66.3082547,75.3650863 65.7530002,75.1090948 65.7530002,74.4331064 C65.7530002,73.7592045 66.3082547,72.9208877 66.9932416,72.5623399 Z M70.25627,70.8543484 C70.9412569,70.4958006 71.4965114,70.7528353 71.4965114,71.4267372 C71.4965114,72.1027256 70.9412569,72.9399991 70.25627,73.298547 C69.5712831,73.6570948 69.0160286,73.4011033 69.0160286,72.725115 C69.0160286,72.051213 69.5712831,71.2128963 70.25627,70.8543484 Z M68.7420339,75.9063088 C72.5904147,73.8919219 75.9769484,66.9335765 75.9769484,60.3656405 C75.9769484,53.7987476 73.5141092,54.1500606 68.7420339,56.6479437 C63.9699585,59.1458269 61.273601,61.495031 61.273601,68.0619238 C61.273601,74.6298598 64.5096452,78.1216998 68.7420339,75.9063088 Z M77.2286063,77.458299 C76.708639,76.8614906 76.1264001,76.4881815 75.5285934,76.2440316 C74.9287109,75.9999249 74.3267527,75.8747854 73.7403624,75.7414971 C73.4632541,75.6779076 73.1788808,75.634812 72.8893181,75.6121669 C73.1788808,75.2863859 73.4632541,74.9445437 73.7403624,74.5908565 C75.0792004,72.8854647 76.2436782,70.9208271 77.2286063,68.7591221 C77.576289,67.996074 77.3790958,67.3502806 76.789592,67.316682 C76.1990502,67.2836268 75.4393375,67.8742794 75.0906169,68.6378707 C74.2385347,70.5099258 73.2691745,72.1210223 72.2385806,73.4324358 C71.1342987,74.8335367 70.0476604,75.810212 68.9309242,76.4594315 C68.829214,76.5095408 68.7275038,76.5596501 68.6247558,76.6134323 C68.5230456,76.6666712 68.4202976,76.723583 68.3185874,76.7799515 C67.2018512,77.2998152 66.1162508,77.4601712 65.010931,77.2156586 C63.9803371,76.9831481 63.0120147,76.3863073 62.1588947,75.4068191 C61.811212,75.0077514 61.0504614,75.2129663 60.4609575,75.8637016 C59.8704158,76.5149803 59.6742604,77.3666671 60.0219432,77.766778 C61.0068713,78.8963432 62.1703111,79.6424614 63.5091492,79.9462572 C63.7862575,80.0098466 64.0706308,80.0539855 64.3612313,80.0760873 C64.0706308,80.4024115 63.7862575,80.7432105 63.5091492,81.0968978 C62.9237967,81.8435202 62.3208007,82.5993779 61.7219561,83.4709432 C61.1241493,84.3409222 60.5408726,85.3243058 60.0219432,86.4649118 C59.6742604,87.2279598 59.8704158,87.8753397 60.4609575,87.908395 C61.0504614,87.9419935 61.811212,87.3507976 62.1588947,86.5877495 C62.5584704,85.711997 62.9684247,85.0238025 63.429234,84.3496729 C63.8890055,83.6781731 64.4120864,83.0183919 65.0119689,82.2547752 C65.3046451,81.8835504 65.5952456,81.5426215 65.886884,81.2293155 C65.8515967,81.3103777 65.8173474,81.3919398 65.7830981,81.4755882 C64.9413945,83.5059919 64.0747823,86.16596 64.0706308,88.6811822 C64.0706308,89.3550842 64.6258854,89.6110757 65.3108723,89.2525278 C65.9958591,88.89398 66.5511137,88.0567064 66.5511137,87.3828045 C66.5469622,85.4446406 67.2506306,83.2090008 67.9802454,81.4584253 C68.2023472,80.9248921 68.424449,80.4383026 68.6247558,80.0215402 C68.836479,80.2382785 69.0710351,80.5077432 69.3035155,80.830454 C70.0217139,81.8169306 70.7025494,83.2986599 70.6983979,85.2119604 C70.6983979,85.8858623 71.2536525,86.1418538 71.9396772,85.7827627 C72.6246641,85.4242149 73.1799186,84.5869413 73.1799186,83.9130394 C73.1757672,81.4021632 72.3081171,79.649973 71.4674514,78.5001845 C71.4321642,78.4529341 71.3979148,78.4072268 71.3636655,78.3625627 C71.654266,78.371103 71.9459044,78.4072663 72.2385806,78.4720957 C72.8374252,78.6082537 73.3605061,78.7204345 73.8213154,78.9100678 C74.2821248,79.1017876 74.6910412,79.3613545 75.0906169,79.817758 C75.3220594,80.0836365 75.7361651,80.0817755 76.1606494,79.8595845 C76.3744484,79.7476742 76.5913609,79.579888 76.789592,79.3613754 C77.3790958,78.71064 77.576289,77.8573667 77.2286063,77.458299 Z" id="logo" fill="#228DFF" fill-rule="nonzero"></path>
                        </g>
                    </g>
                </g>
                <g id="layer-copy-2" transform="translate(0.000000, 74.000000)">
                    <polygon id="Rectangle-11-Copy" fill="#228DFF" opacity="0.1" filter="url(#filter-18)" points="120 162.203861 240 222.203861 120 282.203861 1.8189894e-12 222.203861"></polygon>
                    <polygon id="Rectangle-11" fill="url(#linearGradient-19)" points="120 0.308108108 240 59.3081081 120 168.551351 0 59.3081081"></polygon>
                    <polygon id="Rectangle-3" fill="url(#linearGradient-20)" points="2.72848411e-12 59.3081081 120 119.308108 120 258.728958 2.72848411e-12 198.728958"></polygon>
                    <polygon id="Rectangle-3-Copy-2" fill="url(#linearGradient-21)" transform="translate(180.000000, 159.018533) scale(-1, 1) translate(-180.000000, -159.018533) " points="120 59.3081081 240 119.308108 240 258.728958 120 198.728958"></polygon>
                </g>
                <g id="layer-copy" transform="translate(150.000000, 149.000000)">
                    <polygon id="Rectangle-11-Copy" fill="#228DFF" opacity="0.1" filter="url(#filter-22)" points="120 162.203861 240 222.203861 120 282.203861 1.8189894e-12 222.203861"></polygon>
                    <polygon id="Rectangle-11" fill="url(#linearGradient-19)" points="120 0.308108108 240 59.3081081 120 168.551351 0 59.3081081"></polygon>
                    <polygon id="Rectangle-3" fill="url(#linearGradient-20)" points="2.72848411e-12 59.3081081 120 119.308108 120 258.728958 2.72848411e-12 198.728958"></polygon>
                    <polygon id="Rectangle-3-Copy-2" fill="url(#linearGradient-21)" transform="translate(180.000000, 159.018533) scale(-1, 1) translate(-180.000000, -159.018533) " points="120 59.3081081 240 119.308108 240 258.728958 120 198.728958"></polygon>
                </g>
            </g>
        </g>
    </g>
</svg>