<?xml version="1.0" encoding="UTF-8"?>
<svg width="69px" height="39px" viewBox="0 0 69 39" version="1.1" xmlns="http://www.w3.org/2000/svg" xmlns:xlink="http://www.w3.org/1999/xlink">
    <!-- Generator: Sketch 52.4 (67378) - http://www.bohemiancoding.com/sketch -->
    <title>CSC_Logo</title>
    <desc>Created with Sketch.</desc>
    <g id="Website" stroke="none" stroke-width="1" fill="none" fill-rule="evenodd">
        <g id="v" transform="translate(-955.000000, -150.000000)">
            <g id="CSC_Logo" transform="translate(955.000000, 150.000000)">
                <g>
                    <polygon id="rect3999" fill="#BACEE1" points="10.7727275 0 69 0 69 28.6724672 58.7727283 39 0 39 0 10.8710729"></polygon>
                    <path d="M18.3516399,30 C17.0566788,30 15.8392033,29.7652813 14.6992094,29.2958439 C13.559204,28.8264103 12.570467,28.1702653 11.7329946,27.3273972 C10.8955183,26.4845407 10.2306508,25.4852038 9.738392,24.3293826 C9.24612938,23.1735691 8.99999614,21.9177626 9,20.5619632 L9,20.5094504 C8.99999614,19.1886762 9.24177878,17.9503805 9.7253479,16.7945477 C10.2089093,15.6387419 10.8737768,14.6306516 11.7199505,13.7702728 C12.5661203,12.9099249 13.572117,12.2364 14.7379483,11.7497096 C15.9037681,11.263054 17.1776357,11.0197165 18.5595587,11.0196973 C19.4918921,11.0197165 20.3380658,11.110956 21.0980758,11.2934043 C23.0070432,11.7309677 24.6201231,12.8920179 26.0029332,14.2364936 L22.7217391,17.2697643 C21.0604438,15.6082108 18.8792974,15.1875924 16.7590403,16.0124227 C16.2151412,16.2240131 15.7788579,16.6075823 15.3988664,17.0419983 C15.0188594,17.4764375 14.7209432,17.9890995 14.5051253,18.5799959 C14.2892959,19.1709078 14.1813831,19.7968217 14.181387,20.457734 L14.181387,20.5094504 C14.1813831,21.1873539 14.2892959,21.8261307 14.5051253,22.4257805 C14.7209432,23.0254458 15.0188594,23.5426172 15.3988664,23.9773065 C15.7788579,24.4119995 16.2322466,24.7553261 16.7590403,25.0072784 C17.2858107,25.2592347 17.8685914,25.3852185 18.5073823,25.3852147 C18.9738074,25.3852185 19.4012391,25.333102 19.789685,25.2288651 C21.0471645,24.823672 22.1942743,24.1380539 23.1010518,23.1693174 L26.1325874,26.4682382 C25.7003886,27.0596772 25.4800505,27.0192229 24.9706786,27.5231315 C24.4612719,28.0270439 23.8827069,28.4614715 23.2349833,28.8264103 C22.587229,29.191353 21.8618849,29.4781844 21.0589435,29.6869083 C20.2559751,29.8956361 19.3535444,30 18.3516399,30 Z M35.6690548,29.9474833 C34.0457464,29.9474833 32.5044014,29.6955309 31.0450159,29.1916147 C29.5856228,28.6877022 28.4615927,27.9315681 27.3389859,26.9232123 L30.5542151,23.6432681 C32.3672493,25.1035584 33.4925135,25.7504229 35.5996495,25.750419 C36.2732067,25.7504229 36.7870758,25.6416842 37.1412606,25.4241992 C37.4954223,25.2067257 37.672509,24.8982781 37.6725206,24.4988527 L37.6725206,24.4463399 C37.672509,24.2553921 37.6292922,24.086049 37.5428702,23.9383181 C37.4564212,23.7905988 37.2965942,23.6471158 37.0633894,23.507869 C36.8301614,23.3686338 36.519336,23.2339042 36.1309133,23.1036764 C35.7424713,22.9734601 35.2372957,22.8388651 34.6153904,22.6998839 C33.648256,22.4739263 33.0006135,22.226214 32.1715761,21.9567433 C31.3425311,21.6872917 30.6215299,21.3395904 30.0085804,20.9136431 C29.3956232,20.487715 28.9120579,19.9575461 28.5578846,19.3231327 C28.2037113,18.6887461 28.0266247,17.9023732 28.0266247,16.9640217 L28.0266247,16.9115089 C28.0266247,16.060176 28.1864477,15.2781817 28.5061054,14.5655261 C28.8257554,13.8529013 29.2920571,13.2358754 29.9050144,12.7144407 C30.5179677,12.1930407 31.2562248,11.788848 32.119797,11.5018627 C35.6492379,10.3067223 39.2496848,11.3503958 41.7674169,13.5299558 L38.6467208,16.8307581 C37.5107922,15.9144651 36.3637286,15.3230877 34.9180159,15.2692821 C34.3134861,15.2692975 33.8600935,15.3822763 33.5578382,15.60823 C33.2555714,15.8342068 33.1044418,16.1121578 33.1044495,16.4420753 L33.1044495,16.4945843 C33.1044418,16.703062 33.151878,16.8855295 33.2467506,17.0419983 C33.3416115,17.1984865 33.5056579,17.3418387 33.7388821,17.4720473 C33.9720908,17.6022828 34.2916135,17.7326338 34.6974464,17.8631117 C35.1032638,17.9936089 35.6171329,18.1283424 36.2390536,18.2673006 C37.2752153,18.4932774 38.212042,18.7583618 39.049526,19.0625538 C39.8869908,19.366769 40.5994257,19.7360864 41.1868308,20.1705025 C41.774209,20.6049377 42.2232509,21.1307318 42.5339606,21.7478847 C42.8446394,22.3650529 42.9999846,23.0995748 43,23.9514463 L43,24.0031627 C42.9999846,24.9420375 42.8230291,25.77641 42.4691335,26.5062877 C42.115207,27.2361654 41.6187326,27.8574391 40.9797026,28.370105 C40.3406456,28.8827708 39.5720809,29.2738353 38.6740085,29.5432906 C37.7759092,29.8127537 36.7742592,29.9474833 35.6690548,29.9474833 Z" id="text3990" fill="#FFFFFF" fill-rule="nonzero"></path>
                    <path d="M52.2792684,30 C50.994329,30 49.7862754,29.7650377 48.6551038,29.2951131 C47.5239208,28.8251924 46.5428355,28.1683664 45.7118442,27.3246237 C44.8808491,26.4808925 44.2211269,25.4805184 43.7326777,24.3234978 C43.2442246,23.1664848 42.9999962,21.9093751 43,20.5521687 L43,20.4996014 C42.9999962,19.1774565 43.2399077,17.9378757 43.7197345,16.7808435 C44.1995537,15.6238382 44.8592759,14.6147017 45.698901,13.75343 C46.5385224,12.8921892 47.5367338,12.2179654 48.6935429,11.73077 C49.8503405,11.2436092 51.1143498,11.0000193 52.4855782,11 C53.4106964,11.0000193 54.2503216,11.0913535 55.00445,11.2739911 C56.898644,11.7120086 58.4992404,12.8742637 59.8713491,14.2201346 L56.6155479,17.2565532 C54.9671092,15.5932753 52.8028425,15.1722205 50.6989938,15.9979067 C50.1593039,16.2097167 49.726397,16.593684 49.3493462,17.0285509 C48.9722801,17.4634408 48.6766694,17.9766349 48.4625217,18.5681445 C48.2483626,19.1596696 48.1412849,19.7862331 48.1412888,20.4478313 L48.1412888,20.4996014 C48.1412849,21.1782084 48.2483626,21.817648 48.4625217,22.4179202 C48.6766694,23.0182078 48.9722801,23.5359159 49.3493462,23.9710563 C49.726397,24.4062004 50.176277,24.7498833 50.6989938,25.0020971 C51.2216877,25.2543148 51.7999583,25.3804294 52.4338056,25.3804256 C52.8966211,25.3804294 53.3207449,25.3282588 53.7061846,25.2239137 C54.9539326,24.8183002 56.0921651,24.1319706 56.9919251,23.1622287 L60,26.464573 C59.5711459,27.0566258 59.352513,27.0161295 58.847083,27.520561 C58.3416186,28.0249964 57.767531,28.4598748 57.1248202,28.8251924 C56.4820787,29.1905138 55.762348,29.4776429 54.9656205,29.6865834 C54.1688662,29.8955278 53.2734193,30 52.2792684,30 Z" id="path3997" fill="#FFFFFF"></path>
                </g>
            </g>
        </g>
    </g>
</svg>