<?xml version="1.0" encoding="UTF-8"?>
<svg width="245px" height="41px" viewBox="0 0 245 41" version="1.1" xmlns="http://www.w3.org/2000/svg" xmlns:xlink="http://www.w3.org/1999/xlink">
    <!-- Generator: Sketch 52.5 (67469) - http://www.bohemiancoding.com/sketch -->
    <title>DXC</title>
    <desc>Created with Sketch.</desc>
    <g id="Website" stroke="none" stroke-width="1" fill="none" fill-rule="evenodd">
        <g id="v" transform="translate(-323.000000, -136.000000)" fill="#BACEE1" fill-rule="nonzero">
            <g id="DXC" transform="translate(323.000000, 136.000000)">
                <path d="M40.5619178,20.5 C40.5619178,13.1093113 46.600637,7.2570797 54.1070519,7.2570797 L60,7.2570797 L60,33.7739785 L54.1070519,33.7739785 C46.600637,33.7739785 40.5619178,27.9207703 40.5619178,20.5 Z M30.0266581,24.8045937 L39.5664806,41 L20.4335194,41 L30.0266581,24.8045937 Z M30.0266581,16.1956016 L20.4335194,0 L39.5664806,0 L30.0266581,16.1956016 Z M19.4380822,20.5 C19.4380822,27.9207703 13.399363,33.7739785 5.89314776,33.7739785 L0,33.7739785 L0,7.2570797 L5.89314776,7.2570797 C13.399363,7.2570797 19.4380822,13.1093113 19.4380822,20.5 Z" id="path5899"></path>
                <path d="M77,17.2024931 L82.626308,17.2024931 C87.7413492,17.2024931 90.5972076,20.90979 90.5972076,24.7854137 C90.5972076,28.660842 87.719997,32.3681388 82.626308,32.3681388 L77,32.3681388 L77,17.2024931 Z M82.4558857,29.2928986 C85.290392,29.2928986 86.9101946,27.1023032 86.9101946,24.7854137 C86.9101946,22.4894429 85.290392,20.2779288 82.4558857,20.2779288 L80.6018019,20.2779288 L80.6018019,29.2928986 L82.4558857,29.2928986 Z M100.762838,17.2024931 L104.982668,17.2024931 L100.016894,24.8274466 L104.939963,32.3681388 L100.805542,32.3681388 L97.7579094,27.3760054 L94.6677697,32.3681388 L90.4692921,32.3681388 L95.4137132,24.8274466 L90.4265876,17.2024931 L94.5398542,17.2024931 L97.6726983,22.2577735 L100.762838,17.2024931 Z M112.718891,16.9285954 C117.130495,16.9285954 119.538748,19.5406923 120.007706,22.8685205 L116.363397,22.8685205 C116.022157,21.2888676 114.70089,20.1092109 112.804102,20.1092109 C110.055005,20.1092109 108.626976,22.2788877 108.626976,24.7854137 C108.626976,27.2917442 110.055005,29.461421 112.804102,29.461421 C114.70089,29.461421 116.022157,28.2817644 116.363397,26.7021114 L120.007706,26.7021114 C119.538748,30.0301352 117.130495,32.6420366 112.718891,32.6420366 C107.795822,32.6420366 104.939963,28.9347397 104.939963,24.7854137 C104.939963,20.6358922 107.795822,16.9285954 112.718891,16.9285954 Z M121.222409,19.203452 C121.222409,18.0028767 122.202832,17.0128566 123.437504,17.0128566 C124.694912,17.0128566 125.653982,18.0028767 125.653982,19.203452 C125.653982,20.4040273 124.694912,21.3940474 123.437504,21.3940474 C122.202832,21.3940474 121.222409,20.4040273 121.222409,19.203452 Z M125.931165,28.0923233 L125.931165,25.3961607 L127.657334,25.3961607 L127.657334,20.972937 C127.657334,17.981958 129.106516,17.0339707 131.727896,17.0339707 C132.686966,17.0339707 133.411557,17.1182319 133.90167,17.2024931 L133.90167,19.9618027 C133.475614,19.8986557 132.836234,19.8353132 132.516544,19.8353132 C131.621332,19.8353132 131.13122,20.1303251 131.13122,21.2255251 L131.13122,25.3961607 L133.646036,25.3961607 L133.646036,28.0923233 L131.13122,28.0923233 L131.13122,31.3149717 L127.657334,31.3149717 L127.657334,28.0923233 L125.931165,28.0923233 Z M146.113554,20.5094027 L142.81009,20.5094027 C142.447893,19.8564273 141.808513,19.3930886 140.721527,19.3930886 C139.144626,19.3930886 138.355978,20.3831087 138.29212,21.7522064 L146.305526,21.7522064 C146.369187,22.2577735 146.390539,22.6368511 146.390539,23.0372384 C146.390539,25.9226465 144.365836,28.3871397 140.721527,28.3871397 C136.970655,28.3871397 134.924797,25.796548 134.924797,22.6368511 C134.924797,19.4984639 136.992007,16.9074812 140.764231,16.9074812 C143.76916,16.9074812 145.559582,18.4873296 146.113554,20.5094027 Z M140.67902,25.9437607 C142.000485,25.9437607 142.852794,25.1224585 142.98071,23.8374265 L138.313472,23.8374265 C138.441387,25.1644913 139.378908,25.9437607 140.67902,25.9437607 Z M159.13524,23.9005735 C158.708987,26.4284092 156.812198,28.3871397 153.487382,28.3871397 C149.75806,28.3871397 147.498877,25.7543197 147.498877,22.6368511 C147.498877,19.5406923 149.75806,16.9074812 153.487382,16.9074812 C156.812198,16.9074812 158.708987,18.8666027 159.13524,21.3940474 L155.640002,21.3940474 C155.341664,20.4462557 154.59572,19.8143945 153.508734,19.8143945 C151.974341,19.8143945 150.994116,21.099231 150.994116,22.6368511 C150.994116,24.1744712 151.974341,25.4804219 153.508734,25.4804219 C154.59572,25.4804219 155.320509,24.8485607 155.618649,23.9005735 L159.13524,23.9005735 Z M160.690986,17.2024931 L164.164872,17.2024931 L164.164872,22.8896347 C164.164872,24.4272548 164.889464,25.4172749 166.295942,25.4172749 C167.787829,25.4172749 168.256787,24.511516 168.256787,23.2055653 L168.256787,17.2024931 L171.730475,17.2024931 L171.730475,23.4583488 C171.730475,26.533589 170.366504,28.366221 167.574702,28.366221 C165.955097,28.366221 164.7829,27.6499032 164.164872,26.5126704 L164.164872,33 L160.690986,33 L160.690986,17.2024931 Z M173.925799,17.2024931 L177.399488,17.2024931 L177.399488,22.8896347 C177.399488,24.4272548 178.124277,25.4172749 179.530755,25.4172749 C181.022642,25.4172749 181.491402,24.511516 181.491402,23.2055653 L181.491402,17.2024931 L184.965486,17.2024931 L184.965486,23.4583488 C184.965486,26.533589 183.601317,28.366221 180.809515,28.366221 C179.168558,28.366221 177.975009,27.6499032 177.356981,26.5126704 L177.356981,28.0923233 L173.925799,28.0923233 L173.925799,17.2024931 Z M192.680357,16.9074812 C196.51644,16.9074812 198.796975,19.5406923 198.796975,22.6368511 C198.796975,25.7543197 196.51644,28.3871397 192.680357,28.3871397 C188.886781,28.3871397 186.585091,25.7543197 186.585091,22.6368511 C186.585091,19.5406923 188.886781,16.9074812 192.680357,16.9074812 Z M192.680357,19.8775415 C191.103259,19.8775415 190.080132,21.1201497 190.080132,22.6368511 C190.080132,24.153357 191.103259,25.4172749 192.680357,25.4172749 C194.257455,25.4172749 195.301737,24.153357 195.301737,22.6368511 C195.301737,21.1201497 194.257455,19.8775415 192.680357,19.8775415 Z M200.480439,17.2024931 L203.954325,17.2024931 L203.954325,33 L202.217481,33 L200.480439,33 L200.480439,17.2024931 Z M211.733253,16.9074812 C215.569534,16.9074812 217.849871,19.5406923 217.849871,22.6368511 C217.849871,25.7543197 215.569534,28.3871397 211.733253,28.3871397 C207.939874,28.3871397 205.637987,25.7543197 205.637987,22.6368511 C205.637987,19.5406923 207.939874,16.9074812 211.733253,16.9074812 Z M211.733253,19.8775415 C210.156352,19.8775415 209.133225,21.1201497 209.133225,22.6368511 C209.133225,24.153357 210.156352,25.4172749 211.733253,25.4172749 C213.310351,25.4172749 214.35483,24.153357 214.35483,22.6368511 C214.35483,21.1201497 213.310351,19.8775415 211.733253,19.8775415 Z M231.2126,16.9917424 L231.2126,28.0923233 L227.781418,28.0923233 L227.781418,26.4915562 C227.14184,27.6499032 225.714009,28.366221 224.307531,28.366221 C221.089278,28.366221 218.958011,25.9015324 218.958011,22.6368511 C218.958011,19.3930886 221.174489,17.0971177 224.34984,17.0971177 C225.777868,17.0971177 227.14184,17.7923214 227.738713,18.7823416 L227.738713,16.9074812 C227.738713,15.3489424 226.907558,14.4854119 225.245051,14.4854119 C223.774517,14.4854119 222.964714,15.1593059 222.815644,16.1495215 L219.36311,16.1495215 C219.554687,13.7270611 221.494179,12 225.15984,12 C229.2306,12 231.2126,13.8113223 231.2126,16.9917424 Z M225.053277,19.8775415 C223.518883,19.8775415 222.45325,21.1412639 222.45325,22.6368511 C222.45325,24.1324384 223.518883,25.4172749 225.053277,25.4172749 C226.651727,25.4172749 227.717361,24.1324384 227.717361,22.6368511 C227.717361,21.1412639 226.651727,19.8775415 225.053277,19.8775415 Z M239.970368,15.601726 L245,28.0712091 L241.41955,28.0712091 L238.88358,21.3731288 L236.134285,28.0923233 L232.340708,28.0923233 L237.072003,17.1604603 L236.794819,16.4863707 C236.347411,15.4122849 235.793242,15.0750447 234.919581,15.0750447 C234.642398,15.0750447 234.130933,15.1383872 233.768538,15.2015342 L233.768538,12.3157351 C234.173637,12.2525881 234.66375,12.2105552 235.281778,12.2105552 C237.903157,12.2105552 239.054002,13.3059507 239.970368,15.601726 Z" id="path5901" transform="translate(161.000000, 22.500000) scale(1, -1) translate(-161.000000, -22.500000) "></path>
            </g>
        </g>
    </g>
</svg>