<?xml version="1.0" encoding="UTF-8"?>
<svg width="140px" height="39px" viewBox="0 0 140 39" version="1.1" xmlns="http://www.w3.org/2000/svg" xmlns:xlink="http://www.w3.org/1999/xlink">
    <!-- Generator: Sketch 52.4 (67378) - http://www.bohemiancoding.com/sketch -->
    <title>Erste_Bank_Logo</title>
    <desc>Created with Sketch.</desc>
    <g id="Website" stroke="none" stroke-width="1" fill="none" fill-rule="evenodd">
        <g id="v" transform="translate(-591.000000, -85.000000)" fill="#BACEE1" fill-rule="nonzero">
            <g id="Erste_Bank_Logo" transform="translate(591.000000, 85.000000)">
                <path d="M119.995189,8.71123474 C119.021601,7.71427408 118.532705,6.51093623 118.532705,5.10227951 C118.532705,3.72537313 119.021601,2.51886024 119.98047,1.52189959 C120.954057,0.514355495 122.132666,0 123.500526,0 C124.843152,0 126.018606,0.503772049 126.993246,1.50814111 C127.973142,2.50616011 128.471501,3.72537313 128.471501,5.10227951 C128.471501,6.51093623 127.982604,7.71427408 127.004811,8.71123474 C126.027018,9.7156038 124.8421,10.2172592 123.499474,10.2172592 C122.132666,10.2172592 120.954057,9.7156038 119.995189,8.71123474 Z M140,20.2334328 L140,17.1303664 C140,14.1976934 137.636474,11.8121845 134.720967,11.8121845 L112.277981,11.8121845 C109.362475,11.8121845 107,14.1976934 107,17.1303664 L107,28.8155495 L132.034664,28.8155495 L132.034664,30.5872185 L107,30.5872185 L107,33.6849932 C107,36.6197829 109.361424,39 112.277981,39 L134.720967,39 C137.636474,39 140,36.6197829 140,33.6849932 L140,22.0029851 L114.967439,22.0029851 L114.967439,20.2334328 L140,20.2334328 Z" id="Shape"></path>
                <path d="M0,14.5752731 C0,12.9967798 0.719522987,12.2070155 2.32501791,12.2070155 L17.1221187,12.2070155 L17.1221187,15.4892467 C17.1221187,17.0677401 16.3193713,17.8150661 14.7128229,17.8150661 L6.76435886,17.8150661 L6.76435886,22.5919494 L15.6430407,22.5919494 L15.6430407,27.9919494 L6.76435886,27.9919494 L6.76435886,33.1849339 L17.3328136,33.1849339 L17.3328136,36.4650949 C17.3328136,38.0446233 16.5311196,38.7919494 14.9235178,38.7919494 L2.32501791,38.7919494 C0.719522987,38.7919494 0,38.0011501 0,36.4236918 L0,14.5752731 Z M20.0855421,14.5752731 C20.0855421,12.9967798 20.8040116,12.2070155 22.4116135,12.2070155 L31.2039105,12.2070155 C37.3772702,12.2070155 40.9285323,14.9903393 40.9285323,20.2247269 C40.9285323,23.8381829 39.5337322,26.1640023 36.1931651,27.493042 L41.4773924,37.6285221 C41.6459483,38.0021852 41.8587502,38.3758482 41.8587502,38.7919494 L36.0246092,38.7919494 C34.798365,38.7919494 34.2905904,38.7919494 33.6995913,37.587119 L28.9631705,27.9919494 L26.849901,27.9919494 L26.849901,38.7919494 L20.0855421,38.7919494 L20.0855421,14.5752731 Z M26.849901,17.8140311 L26.849901,22.5909143 L30.6971893,22.5909143 C32.641903,22.5909143 34.1641734,22.3414606 34.1641734,20.2236918 C34.1641734,18.146291 32.641903,17.8140311 30.6971893,17.8140311 L26.849901,17.8140311 Z M52.0079221,12 C57.6313683,12 60.5484388,12.6231167 60.5484388,15.1983899 L60.5484388,17.8150661 L52.853862,17.8150661 C50.7827314,17.8150661 50.1906789,18.3553767 50.1906789,19.4349626 C50.1906789,22.6333525 61.9432388,21.9688327 61.9432388,30.9419206 C61.9432388,35.2198965 59.449665,39 51.8393662,39 C46.8511651,39 42.9195988,38.2102358 42.9195988,35.8016101 L42.9195988,33.1849339 L52.0079221,33.1849339 C53.8683578,33.1849339 54.7564367,32.6021852 54.7564367,31.3145486 C54.7564367,27.826337 43.0460158,28.4898217 43.0460158,19.2693502 C43.0460158,15.1983899 45.7934769,12 52.0079221,12 Z M80.5486494,12.2070155 L80.5486494,15.5720529 C80.5486494,17.1091432 79.745902,17.8150661 78.1814926,17.8150661 L74.8409254,17.8150661 L74.8409254,38.7919494 L68.0765665,38.7919494 L68.0765665,17.8140311 L62.3698959,17.8140311 L62.3698959,14.4489937 C62.3698959,12.9129385 63.1726434,12.2059804 64.7370528,12.2059804 L80.5486494,12.2059804 L80.5486494,12.2070155 Z M82.6661329,14.5752731 C82.6661329,12.9967798 83.3856559,12.2070155 84.9922043,12.2070155 L99.7882517,12.2070155 L99.7882517,15.4892467 C99.7882517,17.0677401 98.9855042,17.8150661 97.3789558,17.8150661 L89.4304918,17.8150661 L89.4304918,22.5919494 L98.3091737,22.5919494 L98.3091737,27.9919494 L89.4304918,27.9919494 L89.4304918,33.1849339 L100,33.1849339 L100,36.4650949 C100,38.0446233 99.1961991,38.7919494 97.5907041,38.7919494 L84.9922043,38.7919494 C83.3856559,38.7919494 82.6661329,38.0021852 82.6661329,36.4236918 L82.6661329,14.5752731 Z" id="Shape"></path>
            </g>
        </g>
    </g>
</svg>