<?xml version="1.0" encoding="UTF-8"?>
<svg width="222px" height="42px" viewBox="0 0 222 42" version="1.1" xmlns="http://www.w3.org/2000/svg" xmlns:xlink="http://www.w3.org/1999/xlink">
    <!-- Generator: Sketch 52.4 (67378) - http://www.bohemiancoding.com/sketch -->
    <title>Group</title>
    <desc>Created with Sketch.</desc>
    <g id="Website" stroke="none" stroke-width="1" fill="none" fill-rule="evenodd">
        <g id="v" transform="translate(-675.000000, -135.000000)" fill="#BACEE1">
            <g id="Group" transform="translate(675.000000, 135.000000)">
                <path d="M0.550618326,20.6959288 C2.05539865,16.3068214 6.23876834,12.0785427 10.8549466,11.3582507 C14.707345,10.8056603 18.4136873,10.6420826 21.1807143,12.7507235 C20.4624933,14.2682852 19.6544946,15.8614501 19.6544946,15.8614501 C19.6544946,15.8614501 18.4404866,15.093047 17.7222655,14.892355 C16.2603641,14.238044 14.1057009,14.0593456 12.7496567,15.1604026 L12.166772,16.1226247 L9.00981527,28.4308197 C8.95353675,28.8253308 8.92405753,29.3641751 9.20009025,29.7092005 C9.94377064,30.4707305 11.1885978,29.9951179 12.1815116,30.1408258 L12.5138229,29.8026735 L14.6644662,21.5949191 L23.8901229,21.6732715 L24,21.8712143 C23.1075835,25.5262836 22.3210243,29.208845 21.3187307,32.8034318 L21.1217559,33 L6.62065827,32.9381429 C4.40971657,33.0453619 2.31535179,32.1216287 1.24204009,30.3071528 C1.16164221,29.7380671 0.55463822,29.4232831 0.584117443,28.8005879 L0.446101082,28.8005879 C-0.182342347,26.3043089 -0.146163301,23.1330998 0.550618326,20.6959288" id="Fill-74"></path>
                <path d="M110.763375,21 C112.123917,23.728406 113.779884,26.8695815 115,29.6213778 L114.862224,30.0190124 C111.219097,33.7545759 107.601141,38.6486456 102.707429,39.994274 C102.243758,40.0506858 102.107307,39.6805692 102,39.3118285 C102.062264,36.7292677 104.768776,35.4634414 105.814022,33.2812669 C106.802303,31.4141731 107.02619,29.2017289 107.933659,27.2754715 C108.758993,25.2652843 109.420055,23.1959334 110.490472,21.2985699 L110.763375,21" id="Fill-75"></path>
                <path d="M102,40.8018505 C110.378601,37.9511744 115.270233,28.3213523 123.229081,24.1359431 C123.965706,23.7735231 124.562414,23.1081851 125.381344,23 C125.662551,23.332669 126,23.6680427 126,24.1427046 C120.392318,27.3017082 115.342936,32.3647687 110.635117,37.0613523 C108.197531,39.2859075 105.475995,40.838363 102.588477,42 C102.279835,41.6362278 102.168724,41.2156584 102,40.8018505" id="Fill-76"></path>
                <path d="M108.140732,10.2031027 C111.16988,8.22273231 114.115682,6.50878582 117,5 C116.684378,6.52873199 116.454835,8.37945227 116.928951,9.99509261 L116.788219,10.2871616 L110.5523,14 L110.158798,13.9971505 C109.374526,12.8488206 108.644907,11.6719962 108,10.4652525 L108.140732,10.2031027" id="Fill-77"></path>
                <path d="M111.060545,16.0048522 C112.934914,15.9551955 114.439707,16.3003702 116,16.4154285 L116,16.6176887 C114.358981,17.4860757 112.693996,18.4561984 111,19 C111.029011,17.9995988 111.239657,17.0016199 111.060545,16.0048522" id="Fill-78"></path>
                <path d="M111,20.4686729 C113.103417,19.2259316 115.236126,17.9507464 117.480422,17 C118.078808,18.6278359 118.938029,19.998942 120.228255,21.2840014 C121.553353,20.819913 121.786291,19.2231104 122.938428,18.6447631 L125,21.9060773 L124.912125,22.1402375 C121.772342,24.1348301 118.547474,26.221112 115.662947,29 L115.374215,29 C113.830129,26.2041848 112.315333,23.3801575 111,20.4686729" id="Fill-79"></path>
                <path d="M118,12 L117.802408,14.9359967 C116.478147,15.073383 114.807119,14.9690712 113.134781,14.8164197 L113,14.686666 L117.676786,12 L118,12" id="Fill-80"></path>
                <path d="M129.672478,11 L139.30454,11 L141.694215,18.2915388 C141.694215,18.2915388 141.777086,18.4045218 141.832786,18.4871923 C144.051285,16.3377591 147.902751,11 147.902751,11 L153,11 L153,11.3403269 L143.359787,23.6058746 C143.359787,23.6058746 141.743122,29.7097138 140.838334,32.8043465 L140.110155,33 L130.615306,33 L130.505264,32.8043465 L132.744141,23.4901359 L129,11.3361934 C129,11.3361934 129.47549,11.1970314 129.672478,11" id="Fill-81"></path>
                <path d="M155.148303,11.1891465 L155.371907,11.0492982 L172.579896,11.0026821 C172.746583,10.9738898 173,11.1864044 173,11.1864044 L172.17741,14.9773907 L164.410912,14.9568248 L164.073474,15.5504946 L163.252239,19.7555416 L163.448739,19.896761 L168.141704,19.8117551 L167.179531,24.1168896 L162.038004,24.1607636 C162.038004,24.1607636 161.219479,27.2963823 160.936248,28.9073801 L161.130038,29.0472284 C163.477198,29.0527127 165.87992,29.0636811 168.392411,29.0691654 L168.587556,29.2103848 C168.50218,30.5115226 167.995345,31.5055425 167.713469,32.7216744 L167.236448,32.9273337 L150,33 L155.148303,11.1891465" id="Fill-82"></path>
                <path d="M35.8774022,28.3478292 C35.6803278,29.000069 35.6490677,29.9096271 36.1505881,30.4490322 C36.6004613,30.7338712 37.1876071,30.9031233 37.7475702,30.7366232 C38.2817098,30.5109537 38.8987565,30.1724495 39.1800971,29.5780031 C40.3407973,25.751254 40.9687171,21.6988355 42.045151,17.8156691 C42.0478693,16.7657556 43.1310989,15.3649535 41.8453584,14.7374823 C40.9211474,14.5076847 39.8977197,14.6301517 39.2793139,15.3374329 C38.4325736,17.2074623 38.2001617,19.3072894 37.664663,21.2612569 C37.1522696,23.6734435 36.4740619,25.996188 35.8774022,28.3478292 Z M34.4394387,12.4862916 C38.5535365,10.2392289 44.2890808,10.6644233 47.7752588,12.9266223 C50.7639938,15.5163172 51.5658827,19.6003845 50.6307987,23.3431955 C49.4401976,27.764391 45.6998616,32.4896898 41.0461877,33.4694257 C36.7282199,34.5908929 31.5730257,34.0941448 28.7541824,30.4283917 C26.158237,27.2401222 26.7358688,21.9410174 28.5924455,18.510566 C29.7490683,15.9896727 32.0541591,13.8127878 34.4394387,12.4862916 Z" id="Fill-83"></path>
                <path d="M63.023502,30.1522858 C63.4957034,30.4680061 64.1099712,30.6968689 64.6958257,30.499716 C65.2803272,30.2736107 65.8688878,29.7621162 66.1773747,29.1968528 L68.0688865,21.1590831 C68.1825396,20.7316888 68.1554793,20.1650468 68.3530192,19.8796577 C68.5816783,18.2045479 69.4354294,16.7996615 69.3001281,15.0942205 C69.078234,14.8667365 68.8441628,14.3386977 68.5072626,14.2807927 C67.6724538,14.0808825 66.8619991,14.2766566 66.3018518,14.8708725 C64.8690114,18.9890232 64.2425665,23.4504679 63.1128008,27.7106237 C63.0546213,28.5047499 62.5797138,29.3829762 63.023502,30.1522858 Z M59.8642172,13.3736139 C63.9029603,10.6768939 69.4827848,10.2839669 73.535058,12.1645017 C76.7105789,13.7375884 77.8430505,17.2091328 78,20.5938197 C77.9012301,25.6481017 74.9597804,30.3866634 70.6030793,32.6187644 L67.7820478,33.776865 C63.7365397,34.3021464 59.3000109,34.0925853 56.4113287,31.0112105 C53.7134213,28.2786445 53.5023513,23.6738159 54.6848845,20.1815911 C55.4168643,17.4255873 57.5438004,15.0156351 59.8642172,13.3736139 Z" id="Fill-84"></path>
                <g id="Group-88" transform="translate(79.000000, 0.000000)">
                    <path d="M10.5040385,29.58 C11.1676923,30.03152 11.9740385,29.64392 12.6955769,29.66976 C13.3619231,29.5052 13.6405769,28.91632 13.9744231,28.38456 C13.9744231,28.38456 17.4676923,16.01944 16.8592308,15.14768 C16.2238462,14.50168 15.2990385,14.73424 14.1548077,14.73424 C14.07,14.95728 14.0148077,15.18032 13.9582692,15.40472 L10.5040385,29.58 Z M5.31057692,11.48248 L5.86519231,11.3424 L20.0482692,11.33152 C22.3205769,11.64704 24.4246154,13.8652 25.2780769,16.05616 C26.7898077,20.82568 24.9159615,25.67 21.9086538,29.27944 C19.6269231,31.59824 16.9036538,33.03848 13.6298077,33.03848 C8.51711538,33.03848 0.308269231,33.01944 0.308269231,33.01944 C0.308269231,33.01944 4.3575,15.2932 5.31057692,11.48248 Z" id="Fill-85"></path>
                    <path d="M42.9813462,9.11744 L41.65,8.97464 L41.7590385,9.22624 C42.7323077,9.31192 42.5465385,10.61616 43.3515385,10.84192 L42.9813462,9.11744 L43.6571154,5.95272 C44.1255769,6.20704 44.8484615,6.34576 45.3775,6.09824 C45.85,5.36792 46.8353846,5.44272 47.6417308,5.41824 C48.3080769,5.27816 48.2407692,3.97528 49.1009615,4.34112 C49.4065385,4.25816 49.9342308,4.03512 49.9073077,3.75632 C49.0161538,4.25816 47.9930769,2.9648 47.4344231,4.08408 C46.9067308,4.55736 46.0748077,4.52744 45.4367308,4.6104 C45.2132692,5.39784 44.3786538,5.86704 43.6571154,5.95272 L42.9813462,9.11744 Z M41.3901923,3.30752 C44.5873077,0.54264 49.1076923,1.48376 53.3251923,1.41168 C58.5967308,2.0128 64.4538462,1.83736 69.6459615,0.84184 C69.7819231,2.46976 68.5273077,3.89368 67.165,4.7328 C63.4967308,6.7116 58.8646154,6.0248 54.7036538,5.78816 L54.7009615,6.0384 L56.42,6.71704 C56.3917308,7.28008 55.7792308,7.58336 55.3632692,7.80776 C54.6955769,8.08656 53.8905769,8.05664 53.2228846,8.33544 C53.4180769,8.58704 53.9740385,8.39392 53.8878846,8.86856 C52.6628846,10.2408 50.5817308,10.234 49.0296154,9.58392 L48.8357692,9.80696 C48.8855769,11.15336 48.8263462,12.63984 48.0738462,13.75912 C47.5448077,13.84208 47.2419231,13.36336 46.8273077,13.16616 C46.4921154,14.00528 46.6280769,15.1844 45.9859615,15.91064 C45.4313462,15.88344 44.9898077,15.15176 44.4903846,14.95456 C43.8765385,16.29824 43.5103846,17.75344 42.5357692,18.9312 C41.5369231,18.87136 41.0415385,17.63648 40.6282692,16.84768 C40.2715385,15.22112 40.1396154,13.25728 40.5057692,11.57768 C39.5378846,10.06128 38.7934615,8.09608 39.5217308,6.19208 C39.7748077,5.09864 40.4990385,4.03512 41.3901923,3.30752 Z" id="Fill-87"></path>
                </g>
                <path d="M177.900158,25.6365193 L182.380122,25.633774 L181.725379,19.0848822 L177.900158,25.6365193 Z M181.891103,11.0027453 L190.432647,11 L190.76681,11.367869 L193,32.9499747 C193,33.0625316 183.310618,32.9499747 183.310618,32.9499747 L182.928911,29.5513044 L175.536563,29.5911111 L173.369934,32.9499747 L169,32.9691917 C169,32.9691917 179.835861,14.2792502 181.891103,11.0027453 Z" id="Fill-89"></path>
                <path d="M207.508596,22.3952878 C207.861956,22.7335167 208.726759,22.7238923 209.219603,22.6675208 C209.712447,22.4984063 210.112302,21.9498156 210.359389,21.4369727 L211.68781,16.0844322 C211.962794,15.5495907 211.775486,14.8690082 211.419469,14.4414099 C210.873488,14.1279295 209.942264,14.1251797 209.392298,14.4359103 L207.508596,22.3952878 Z M200.118587,11.2048622 L200.39357,11.0068746 L217.017438,11 C218.905125,11.063246 220.270743,12.5124055 221.224549,14.0743079 C222.369649,16.0638085 222.170385,18.8122617 221.124918,20.792138 C220.297311,22.3774139 218.786896,23.8458221 217.305705,24.8041372 C217.783937,27.3229798 218.364457,29.8349478 218.92638,32.408787 C219.008742,32.7483907 218.842689,32.9738766 218.541138,32.9463784 L209.258127,33 L208.930007,32.8020124 L207.249554,26.6176489 C207.114055,26.3619149 206.811175,26.5021561 206.591985,26.4746578 L206.31833,26.8692582 L204.795959,32.7346416 L204.520976,32.9628773 L195.073241,32.9890007 C194.909845,32.535279 195.048001,32.2561715 195.212726,31.8299481 C196.848013,24.9732517 198.593559,18.0863071 200.118587,11.2048622 Z" id="Fill-90"></path>
            </g>
        </g>
    </g>
</svg>