<?xml version="1.0" encoding="UTF-8"?>
<svg width="110px" height="136px" viewBox="0 0 110 136" version="1.1" xmlns="http://www.w3.org/2000/svg" xmlns:xlink="http://www.w3.org/1999/xlink">
    <!-- Generator: Sketch 52.5 (67469) - http://www.bohemiancoding.com/sketch -->
    <title>grey</title>
    <desc>Created with Sketch.</desc>
    <defs>
        <filter x="-12.0%" y="-24.0%" width="124.0%" height="148.0%" filterUnits="objectBoundingBox" id="filter-1">
            <feGaussianBlur stdDeviation="4" in="SourceGraphic"></feGaussianBlur>
        </filter>
    </defs>
    <g id="Website" stroke="none" stroke-width="1" fill="none" fill-rule="evenodd">
        <g id="boxes" transform="translate(-745.000000, -401.000000)">
            <g id="grey" transform="translate(750.000000, 401.000000)">
                <polygon id="Rectangle-11-Copy" fill-opacity="0.1" fill="#233141" filter="url(#filter-1)" points="50 78.9047619 100 103.904762 50 128.904762 0 103.904762"></polygon>
                <polygon id="Rectangle-11" fill="#F2F8FC" points="50 0 100 25 50 61.1111111 0 25"></polygon>
                <polygon id="Rectangle-11-Copy-2" fill="#233141" opacity="0.5" points="50.3333333 9 83.6666667 25.6666667 50.3333333 42.3333333 17 25.6666667"></polygon>
                <polygon id="Rectangle-11-Copy-3" fill="#121A22" opacity="0.2" points="50.3333333 9 83.6666667 25.6666667 50.3333333 42.3333333"></polygon>
                <polygon id="Rectangle-3" fill="#D9EAF7" points="0 25.3333333 50 50.3333333 50 114.619048 0 89.6190476"></polygon>
                <polygon id="Rectangle-3-Copy-2" fill="#EAF5FD" transform="translate(75.000000, 69.976190) scale(-1, 1) translate(-75.000000, -69.976190) " points="50 25.3333333 100 50.3333333 100 114.619048 50 89.6190476"></polygon>
            </g>
        </g>
    </g>
</svg>