<?xml version="1.0" encoding="UTF-8"?>
<svg width="138px" height="59px" viewBox="0 0 138 59" version="1.1" xmlns="http://www.w3.org/2000/svg" xmlns:xlink="http://www.w3.org/1999/xlink">
    <!-- Generator: Sketch 53 (72520) - https://sketchapp.com -->
    <title>logo</title>
    <desc>Created with Sketch.</desc>
    <g id="Landing" stroke="none" stroke-width="1" fill="none" fill-rule="evenodd">
        <g id="landing" transform="translate(-761.000000, -1520.000000)" fill="#BACEE1" fill-rule="nonzero">
            <g id="logo" transform="translate(761.000000, 1520.000000)">
                <path d="M45.7515955,58.5001925 L40.8964163,51.071236 L36.0412371,51.071236 L36.0412371,58.5229111 L29.6956308,58.5229111 L29.6956308,32.8055449 L40.8512518,32.8055449 C47.1968581,32.8055449 51.4423171,36.2814786 51.4423171,41.8475164 C51.4423171,45.2098575 49.8163967,47.9360801 47.1291114,49.5263766 L53.1359843,58.5229111 L45.7515955,58.5229111 L45.7515955,58.5001925 Z M36.0412371,45.3234501 L40.7383407,45.3234501 C43.1772214,45.3234501 45.0967108,43.9603389 45.0967108,41.8475164 C45.0967108,39.7574124 43.1772214,38.4397382 40.7383407,38.4397382 L36.0412371,38.4397382 L36.0412371,45.3234501 Z M62.5979381,38.3715826 L62.5979381,43.051598 L73.934217,43.051598 L73.934217,48.5040431 L62.5979381,48.5040431 L62.5979381,52.9568733 L75.5601375,52.9568733 L75.5601375,58.5001925 L56.2523319,58.5001925 L56.2523319,32.8055449 L75.5601375,32.8055449 L75.5601375,38.3715826 L62.5979381,38.3715826 Z M103.85567,45.5960724 C103.85567,53.2294956 98.0972018,58.5229111 90.0805106,58.5229111 L79.8281787,58.5229111 L79.8281787,32.8055449 L90.0805106,32.8055449 C98.0972018,32.8055449 103.85567,38.0535233 103.85567,45.5960724 L103.85567,45.5960724 Z M97.4197349,45.5960724 C97.4197349,41.6203312 94.2356406,38.5760493 90.0579283,38.5760493 L86.1512027,38.5760493 L86.1512027,52.7751251 L90.0579283,52.7751251 C94.2356406,52.7524066 97.4197349,49.6626877 97.4197349,45.5960724 L97.4197349,45.5960724 Z M107.355916,32.8055449 L113.701522,32.8055449 L113.701522,58.5001925 L107.355916,58.5001925 L107.355916,32.8055449 Z M138,38.5306122 L130.683358,38.5306122 L130.683358,58.5001925 L124.360334,58.5001925 L124.360334,38.5306122 L117.043692,38.5306122 L117.043692,32.8055449 L138,32.8055449 L138,38.5306122 Z M19.3529701,49.2537543 C18.3819342,51.6164806 16.3269514,53.0250289 13.4815906,53.0250289 C9.30387825,53.0250289 6.41335297,49.93531 6.41335297,45.664228 C6.41335297,41.3931459 9.30387825,38.303427 13.4815906,38.303427 C16.3269514,38.303427 18.3819342,39.7119754 19.3529701,42.0747016 L26.0824742,42.0747016 C24.772705,36.2133231 19.9626902,32.3284559 13.526755,32.3284559 C5.82621502,32.3284559 0,37.9172122 0,45.664228 C0,53.4112437 5.82621502,59 13.526755,59 C19.9852725,59 24.772705,55.1378514 26.0824742,49.2537543 L19.3529701,49.2537543 L19.3529701,49.2537543 Z M24.5694649,1.13592607 L24.5694649,26.8078552 L18.2690231,26.8078552 L18.2690231,17.1752022 L7.85861561,17.1752022 L7.85861561,26.8078552 L1.51300933,26.8078552 L1.51300933,1.13592607 L7.85861561,1.13592607 L7.85861561,11.4501348 L18.2690231,11.4501348 L18.2690231,1.13592607 L24.5694649,1.13592607 Z M97.5552283,26.8078552 L91.209622,26.8078552 L91.209622,13.9264536 L85.5189003,22.7412399 L85.5189003,22.7866769 L81.9960727,22.7866769 L81.9960727,22.7412399 L76.2827688,13.858298 L76.3279332,26.8078552 L69.982327,26.8078552 L69.982327,1.11320755 L74.724595,1.11320755 L83.7574865,14.8351945 L92.8129602,1.11320755 L97.5552283,1.11320755 L97.5552283,26.8078552 Z M109.162494,6.67924528 L109.162494,11.3592607 L120.498773,11.3592607 L120.498773,16.8117058 L109.162494,16.8117058 L109.162494,21.264536 L122.124693,21.264536 L122.124693,26.8078552 L102.816888,26.8078552 L102.816888,1.13592607 L122.124693,1.13592607 L122.124693,6.67924528 L109.162494,6.67924528 Z M47.287187,0 C37.1929308,0 28.9955817,7.83788987 28.9955817,17.51598 C28.9955817,20.9237582 30.011782,24.1043512 31.7731959,26.8078552 L40.6028473,26.8078552 C37.9155621,24.7631883 36.1767305,21.5371583 36.1767305,17.9021948 C36.1767305,11.722757 41.1448208,6.72468233 47.287187,6.72468233 C53.4295533,6.72468233 58.3976436,11.722757 58.3976436,17.9021948 C58.3976436,21.5371583 56.658812,24.7631883 53.994109,26.8078552 L62.778596,26.8078552 C64.5400098,24.1043512 65.5562101,20.9237582 65.5562101,17.51598 C65.5562101,7.83788987 57.3814433,1.61424803e-15 47.287187,1.61424803e-15 L47.287187,0 Z" id="Shape"></path>
                <path d="M41,21 C41.8571429,23.3298969 44.2030075,25 47,25 C49.7744361,25 52.1428571,23.3298969 53,21 L41,21 Z" id="Path"></path>
            </g>
        </g>
    </g>
</svg>