<?xml version="1.0" encoding="UTF-8"?>
<svg width="116px" height="148px" viewBox="0 0 116 148" version="1.1" xmlns="http://www.w3.org/2000/svg" xmlns:xlink="http://www.w3.org/1999/xlink">
    <!-- Generator: Sketch 52.6 (67491) - http://www.bohemiancoding.com/sketch -->
    <title>box</title>
    <desc>Created with Sketch.</desc>
    <defs>
        <filter x="-12.0%" y="-24.0%" width="124.0%" height="148.0%" filterUnits="objectBoundingBox" id="filter-1">
            <feGaussianBlur stdDeviation="4" in="SourceGraphic"></feGaussianBlur>
        </filter>
    </defs>
    <g id="Landing" stroke="none" stroke-width="1" fill="none" fill-rule="evenodd">
        <g id="landing" transform="translate(-243.000000, -1823.000000)">
            <g id="growYourBusiness" transform="translate(251.000000, 1579.000000)">
                <g id="Group" transform="translate(0.000000, 244.000000)">
                    <g id="box">
                        <polygon id="Rectangle-11-Copy" fill="#E7F1F9" filter="url(#filter-1)" points="50 89.9047619 100 114.904762 50 139.904762 0 114.904762"></polygon>
                        <polygon id="Rectangle-11" fill="#F2F8FC" points="50 11.3333333 100 36.3333333 50 111.333333 0 36.3333333"></polygon>
                        <polygon id="Rectangle-11-Copy-4" fill="#228DFF" points="50.3333333 20 83.6666667 36.6666667 50.3333333 53.3333333 17 36.6666667"></polygon>
                        <polygon id="Rectangle-11-Copy-5" fill="#51B1FE" points="50 10 83.3333333 26.6666667 50 43.3333333 16.6666667 26.6666667"></polygon>
                        <polygon id="Rectangle-11-Copy-2" fill="#8BD3FF" points="50 0 83.3333333 16.6666667 50 33.3333333 16.6666667 16.6666667"></polygon>
                        <polygon id="Rectangle-3" fill="#D9EAF7" points="0 36.3333333 50 61.3333333 50 125.619048 0 100.619048"></polygon>
                        <polygon id="Rectangle-3-Copy-2" fill="#EAF5FD" transform="translate(75.000000, 80.976190) scale(-1, 1) translate(-75.000000, -80.976190) " points="50 36.3333333 100 61.3333333 100 125.619048 50 100.619048"></polygon>
                        <path d="M72.9369351,80.52908 C73.6980316,80.1306935 74.3149811,80.4162876 74.3149811,81.1650676 C74.3149811,81.9161657 73.6980316,82.8464697 72.9369351,83.2448562 C72.1758385,83.6432426 71.5588891,83.3588076 71.5588891,82.6077095 C71.5588891,81.8589296 72.1758385,80.9274665 72.9369351,80.52908 Z M76.5625222,78.6313117 C77.3236188,78.2329253 77.9405683,78.5185194 77.9405683,79.2672993 C77.9405683,80.0183974 77.3236188,80.9487014 76.5625222,81.3470879 C75.8014257,81.7454744 75.1844762,81.4610394 75.1844762,80.7099412 C75.1844762,79.9611613 75.8014257,79.0296982 76.5625222,78.6313117 Z M74.8800376,84.244601 C79.1560164,82.0063934 82.9188316,74.2748984 82.9188316,66.9771918 C82.9188316,59.6806442 80.1823435,60.0709919 74.8800376,62.8464176 C69.5777317,65.6218434 66.5817789,68.2320702 66.5817789,75.5286177 C66.5817789,82.8263244 70.1773835,86.7061466 74.8800376,84.244601 Z M84.3095625,85.9690346 C83.7318211,85.3059141 83.084889,84.8911263 82.4206593,84.6198485 C81.7541232,84.3486189 81.0852808,84.209575 80.433736,84.0614769 C80.1258379,83.9908219 79.8098675,83.9429379 79.4881312,83.9177767 C79.8098675,83.5557978 80.1258379,83.1759732 80.433736,82.7829873 C81.9213338,80.8881076 83.215198,78.705177 84.3095625,76.3032824 C84.6958767,75.4554512 84.4767731,74.737903 83.8217688,74.7005713 C83.1656114,74.6638433 82.3214861,75.320124 81.9340188,76.1685587 C80.9872608,78.2486199 79.9101939,80.0387271 78.7650895,81.4958532 C77.5381096,83.052632 76.3307338,84.1378268 75.0899158,84.8591818 C74.9769044,84.9148588 74.8638931,84.9705359 74.7497287,85.0302938 C74.6367174,85.0894482 74.5225529,85.1526835 74.4095416,85.2153151 C73.1687236,85.7929415 71.9625009,85.9711148 70.7343678,85.6994341 C69.5892635,85.4410891 68.5133497,84.7779327 67.5654386,83.6896124 C67.1791244,83.2462039 66.333846,83.4742205 65.6788417,84.1972597 C65.0226842,84.9209027 64.8047338,85.8672213 65.191048,86.311789 C66.2854125,87.5668615 67.5781235,88.3958817 69.0657213,88.7334325 C69.3736194,88.8040875 69.6895898,88.8531307 70.0124793,88.8776883 C69.6895898,89.2402707 69.3736194,89.6189363 69.0657213,90.0119221 C68.4153297,90.8415026 67.7453341,91.6813444 67.0799512,92.6497504 C66.4157215,93.6163937 65.7676363,94.7090421 65.191048,95.9763821 C64.8047338,96.8242133 65.0226842,97.5435243 65.6788417,97.5802523 C66.333846,97.617584 67.1791244,96.9606997 67.5654386,96.1128685 C68.0094115,95.1398102 68.4649163,94.3751495 68.9769267,93.6261167 C69.4877839,92.8800058 70.0689849,92.1469156 70.735521,91.2984526 C71.0607168,90.8859806 71.3836062,90.5071707 71.7076488,90.1590529 C71.6684408,90.249122 71.630386,90.3397465 71.5923312,90.4326893 C70.657105,92.6886933 69.6942025,95.6442135 69.6895898,98.4389048 C69.6895898,99.1876848 70.3065393,99.4721198 71.0676358,99.0737333 C71.8287324,98.6753468 72.4456818,97.7450428 72.4456818,96.9962629 C72.4410691,94.8427475 73.2229229,92.3587032 74.033606,90.4136193 C74.2803858,89.8208047 74.5271656,89.2801497 74.7497287,88.8170803 C74.9849767,89.0579007 75.2455946,89.3573059 75.5039061,89.7158734 C76.3019043,90.8119586 77.0583882,92.4583244 77.0537755,94.5842139 C77.0537755,95.3329938 77.6707249,95.6174288 78.4329747,95.2184387 C79.1940712,94.8200523 79.8110207,93.8897483 79.8110207,93.1409684 C79.806408,90.3511059 78.8423524,88.4042279 77.9082793,87.1266852 C77.8690713,87.0741847 77.8310165,87.0233988 77.7929617,86.973772 C78.1158511,86.9832613 78.4398937,87.0234427 78.7650895,87.0954753 C79.4304724,87.246762 80.0116734,87.3714073 80.5236838,87.5821111 C81.0356942,87.795133 81.4900458,88.0835407 81.9340188,88.5906557 C82.1911771,88.8860762 82.6512946,88.8840085 83.1229438,88.6371296 C83.3604982,88.5127848 83.6015121,88.3263557 83.8217688,88.0835639 C84.4767731,87.3605246 84.6958767,86.4124432 84.3095625,85.9690346 Z" id="logo" fill="#228DFF" fill-rule="nonzero"></path>
                    </g>
                </g>
            </g>
        </g>
    </g>
</svg>