<?xml version="1.0" encoding="UTF-8"?>
<svg width="116px" height="151px" viewBox="0 0 116 151" version="1.1" xmlns="http://www.w3.org/2000/svg" xmlns:xlink="http://www.w3.org/1999/xlink">
    <!-- Generator: Sketch 52.6 (67491) - http://www.bohemiancoding.com/sketch -->
    <title>blueTop</title>
    <desc>Created with Sketch.</desc>
    <defs>
        <filter x="-12.0%" y="-24.1%" width="124.0%" height="148.1%" filterUnits="objectBoundingBox" id="filter-1">
            <feGaussianBlur stdDeviation="4" in="SourceGraphic"></feGaussianBlur>
        </filter>
    </defs>
    <g id="Landing" stroke="none" stroke-width="1" fill="none" fill-rule="evenodd">
        <g id="landing" transform="translate(-542.000000, -1820.000000)">
            <g id="growYourBusiness" transform="translate(251.000000, 1579.000000)">
                <g id="Group-Copy" transform="translate(299.000000, 241.000000)">
                    <g id="blueTop">
                        <polygon id="Rectangle-11-Copy" fill="#E7F1F9" filter="url(#filter-1)" points="50 93.061978 100 117.985055 50 142.908132 0 117.985055"></polygon>
                        <polygon id="Rectangle-11" fill="#F2F8FC" points="50 14.4 100 39.3230769 50 75.3230769 0 39.3230769"></polygon>
                        <g id="box-copy">
                            <polygon id="Rectangle-11" fill="#FFD870" points="22.2222222 0.147692308 44.4444444 11.2246154 22.2222222 44.4553846 0 11.2246154"></polygon>
                            <polygon id="Rectangle-3" fill="#FFBB00" points="0 11.2246154 22.2222222 22.3015385 22.2222222 50.7850549 0 39.7081319"></polygon>
                            <polygon id="Rectangle-3-Copy-2" fill="#FFCB3E" transform="translate(33.333333, 31.004835) scale(-1, 1) translate(-33.333333, -31.004835) " points="22.2222222 11.2246154 44.4444444 22.3015385 44.4444444 50.7850549 22.2222222 39.7081319"></polygon>
                        </g>
                        <polygon id="Rectangle-3" fill="#D9EAF7" points="0 39.6553846 50 64.5784615 50 128.666374 0 103.743297"></polygon>
                        <polygon id="Rectangle-3-Copy-2" fill="#EAF5FD" transform="translate(75.000000, 84.160879) scale(-1, 1) translate(-75.000000, -84.160879) " points="50 39.6553846 100 64.5784615 100 128.666374 50 103.743297"></polygon>
                        <path d="M77.690433,88.934079 L77.690433,84.5829435 C77.0422931,84.7343514 76.3675267,84.960172 75.6609455,85.3587296 L74.7737544,85.8593416 C73.5942592,87.1317226 72.282023,88.217211 70.9006754,88.9964403 C69.5193277,89.7756696 68.2124756,90.1676276 67.0276942,90.2288412 L66.1404052,90.7294532 C62.1983126,92.9590611 59,98.3465228 59,102.763176 L59,105.23936 C59,106.81666 60.1422965,107.451942 61.5501727,106.657888 L80.251178,96.1084024 C81.0746417,95.643849 81.7972771,94.78992 82.2648071,93.847614 L79.183377,92.133539 C78.2217884,91.59859 77.690433,90.4638438 77.690433,88.934079 M70.9006754,86.1453237 C74.6568719,84.0263785 77.7010053,78.8985005 77.7010053,74.6902603 C77.7010053,70.4879503 74.6568719,68.7945349 70.9006754,70.9134801 C67.1445767,73.0323297 64.1003454,78.1602077 64.1003454,82.3684478 C64.1003454,86.5707578 67.1445767,88.2641732 70.9006754,86.1453237 M82.7907784,84.6760072 C82.0841972,85.0745648 81.5156431,84.7584542 81.5156431,83.9666953 C81.5156431,83.1751276 82.0841972,82.2175181 82.7907784,81.8189606 C83.4972617,81.4203073 84.0658158,81.7366092 84.0658158,82.5281769 C84.0658158,83.3139102 83.4972617,84.2774497 82.7907784,84.6760072 M92.5025988,80.4474901 L87.7051298,77.7848921 C87.0675622,77.4302361 86.2015157,77.5199522 85.2983683,78.0294594 L81.0853119,80.4059797 C80.1449657,80.936529 79.3852294,82.2162747 79.3852294,83.2697216 L79.3852294,87.98393 C79.3852294,88.9958664 79.7411631,89.7593141 80.3787307,90.1139701 L85.1761996,92.7766638 C85.8402959,93.1460493 86.9187671,92.5377397 87.5828633,91.4189665 L92.4972147,83.1409819 C93.166695,82.0193393 93.166695,80.8169713 92.5025988,80.4474901" id="Fill-1" fill="#BACEE1"></path>
                    </g>
                </g>
            </g>
        </g>
    </g>
</svg>