<?xml version="1.0" encoding="UTF-8"?>
<svg width="130px" height="137px" viewBox="0 0 130 137" version="1.1" xmlns="http://www.w3.org/2000/svg" xmlns:xlink="http://www.w3.org/1999/xlink">
    <!-- Generator: Sketch 52.6 (67491) - http://www.bohemiancoding.com/sketch -->
    <title>Group 12</title>
    <desc>Created with Sketch.</desc>
    <defs>
        <filter x="-12.0%" y="-24.0%" width="124.0%" height="148.0%" filterUnits="objectBoundingBox" id="filter-1">
            <feGaussianBlur stdDeviation="4" in="SourceGraphic"></feGaussianBlur>
        </filter>
    </defs>
    <g id="Landing" stroke="none" stroke-width="1" fill="none" fill-rule="evenodd">
        <g id="landing" transform="translate(-850.000000, -1834.000000)">
            <g id="growYourBusiness" transform="translate(251.000000, 1579.000000)">
                <g id="Group-Copy-3" transform="translate(599.000000, 255.000000)">
                    <g id="Group-12">
                        <g id="box-copy-11" transform="translate(100.000000, 16.000000)">
                            <polygon id="Rectangle-11" fill="#8BD3FF" points="15 0.1 30 7.6 15 15.1 0 7.6"></polygon>
                            <polygon id="Rectangle-3" fill="#1AA8FF" points="0 7.6 15 15.1 15 34.3857143 0 26.8857143"></polygon>
                            <polygon id="Rectangle-3-Copy-2" fill="#53BEFF" transform="translate(22.500000, 20.992857) scale(-1, 1) translate(-22.500000, -20.992857) " points="15 7.6 30 15.1 30 34.3857143 15 26.8857143"></polygon>
                        </g>
                        <g id="box" transform="translate(67.000000, 64.500000) scale(-1, 1) translate(-67.000000, -64.500000) translate(17.000000, 0.000000)">
                            <polygon id="Rectangle-11-Copy" fill="#E7F1F9" filter="url(#filter-1)" points="50 78.9047619 100 103.904762 50 128.904762 0 103.904762"></polygon>
                            <polygon id="Rectangle-11" fill="#F2F8FC" points="50 0.333333333 100 25.3333333 50 60.3333333 0 25.3333333"></polygon>
                            <polygon id="Rectangle-3" fill="#EAF5FD" points="0 25.3333333 50 50.3333333 50 114.619048 0 89.6190476"></polygon>
                            <path d="M24.9965517,75.2747726 C22.210294,76.8791767 19.942023,75.5913461 19.942023,72.4049475 C19.942023,69.2186218 22.210294,65.3187505 24.9965517,63.7144191 C27.7828823,62.110015 30.0510804,63.3979184 30.0510804,66.5842442 C30.0510804,69.7706427 27.7828823,73.6704412 24.9965517,75.2747726 M39.6167624,65.3899086 L36.9252014,65.1622463 C37.1969621,63.3295251 37.1969621,61.6099438 36.9252014,60.0900854 L39.6167624,56.7628986 C39.9263871,56.3823701 40.0653681,55.8832448 39.9643242,55.5513192 C39.2629264,53.3828889 38.0688577,51.7439244 36.5082586,50.7061657 C36.2682338,50.5481336 35.8763878,50.7014364 35.5731832,51.0783997 L32.8816952,54.4055865 C31.7507333,53.9440775 30.4491276,53.8337024 29.0401308,54.0813733 L29.0401308,50.5337274 C29.0401308,50.1291157 28.7937589,49.9169511 28.44627,50.030382 C26.1275136,50.773031 23.7518515,52.1697816 21.5468333,54.0030121 C21.1993445,54.2898273 20.9529725,54.7856784 20.9529725,55.1902901 L20.9529725,58.7451391 C19.5503229,60.1235545 18.2487901,61.7327607 17.1114811,63.4930869 L14.4262673,63.2617867 C14.1167155,63.2377763 13.7312896,63.5246642 13.4911919,63.9663828 C11.9305928,66.7940805 10.7364511,69.8081862 10.0351263,72.7914422 C9.92773526,73.2434199 10.0730634,73.5788379 10.3826151,73.6028483 L13.0741761,73.8305106 C12.8024884,75.6632318 12.8024884,77.3828858 13.0741761,78.9026715 L10.3826151,82.2298583 C10.0730634,82.6103868 9.93408242,83.1095121 10.0351263,83.4414377 C10.7364511,85.609868 11.9305928,87.2488325 13.4911919,88.2865912 C13.7312896,88.4446233 14.1229897,88.2912477 14.4262673,87.91443 L17.1178282,84.5871704 C18.2487901,85.0486794 19.5503229,85.1591273 20.9592467,84.9113836 L20.9592467,88.4662326 C20.9592467,88.8708443 21.2056916,89.0830089 21.5531804,88.9696507 C23.8719369,88.2270017 26.247526,86.8301784 28.4526172,84.9970207 C28.800106,84.7102055 29.046478,84.2142816 29.046478,83.8096699 L29.046478,80.2548209 C30.4491276,78.8764056 31.7507333,77.2671993 32.8879694,75.5068731 L35.5794574,75.7345354 C35.8890822,75.7585458 36.2744351,75.4716579 36.5145328,75.030012 C38.0751319,72.2022415 39.2692736,69.1881358 39.9706713,66.2048798 C40.0653681,65.752975 39.9263871,65.413919 39.6167624,65.3899086" id="Fill-1" fill="#BACEE1" transform="translate(25.000000, 69.500000) scale(-1, 1) translate(-25.000000, -69.500000) "></path>
                            <polygon id="Rectangle-3-Copy-2" fill="#D9EAF7" transform="translate(75.000000, 69.976190) scale(-1, 1) translate(-75.000000, -69.976190) " points="50 25.3333333 100 50.3333333 100 114.619048 50 89.6190476"></polygon>
                            <polygon id="Rectangle-3-Copy-4" fill="#1AA8FF" transform="translate(75.000000, 69.785714) scale(-1, 1) translate(-75.000000, -69.785714) " points="60 43 90 58 90 96.5714286 60 81.5714286"></polygon>
                            <polygon id="Rectangle-3-Copy-5" fill="#8BD3FF" transform="translate(75.000000, 81.785714) scale(-1, 1) translate(-75.000000, -81.785714) " points="90 67 90 96.5714286 60 81.5714286"></polygon>
                        </g>
                        <g id="box-copy-10" transform="translate(40.000000, 51.000000)">
                            <polygon id="Rectangle-3" fill="#1AA8FF" points="0 2.6 15 10.1 15 29.3857143 0 21.8857143"></polygon>
                            <polygon id="Rectangle-3-Copy-2" fill="#53BEFF" transform="translate(16.000000, 18.742857) scale(-1, 1) translate(-16.000000, -18.742857) " points="15 8.1 17 10.1 17 29.3857143 15 28.39"></polygon>
                            <path d="M17,7 L17,9.05 L15,10.1 L3.19744231e-14,2.6 L4,0.5 L17,7 Z" id="Combined-Shape" fill="#8BD3FF"></path>
                        </g>
                        <g id="box-copy" transform="translate(20.000000, 56.000000)">
                            <polygon id="Rectangle-11" fill="#8BD3FF" points="15 0.1 30 7.6 15 15.1 0 7.6"></polygon>
                            <polygon id="Rectangle-3" fill="#1AA8FF" points="0 7.6 15 15.1 15 34.3857143 0 26.8857143"></polygon>
                            <polygon id="Rectangle-3-Copy-2" fill="#53BEFF" transform="translate(22.500000, 20.992857) scale(-1, 1) translate(-22.500000, -20.992857) " points="15 7.6 30 15.1 30 34.3857143 15 26.8857143"></polygon>
                        </g>
                        <g id="box-copy-9" transform="translate(0.000000, 66.000000)">
                            <polygon id="Rectangle-11" fill="#8BD3FF" points="15 0.1 30 7.6 15 15.1 0 7.6"></polygon>
                            <polygon id="Rectangle-3" fill="#1AA8FF" points="0 7.6 15 15.1 15 34.3857143 0 26.8857143"></polygon>
                            <polygon id="Rectangle-3-Copy-2" fill="#53BEFF" transform="translate(22.500000, 20.992857) scale(-1, 1) translate(-22.500000, -20.992857) " points="15 7.6 30 15.1 30 34.3857143 15 26.8857143"></polygon>
                        </g>
                    </g>
                </g>
            </g>
        </g>
    </g>
</svg>