<?xml version="1.0" encoding="UTF-8"?>
<svg width="148px" height="37px" viewBox="0 0 148 37" version="1.1" xmlns="http://www.w3.org/2000/svg" xmlns:xlink="http://www.w3.org/1999/xlink">
    <!-- Generator: Sketch 53 (72520) - https://sketchapp.com -->
    <title>makro-logo-2019</title>
    <desc>Created with Sketch.</desc>
    <g id="Landing" stroke="none" stroke-width="1" fill="none" fill-rule="evenodd">
        <g id="landing" transform="translate(-302.000000, -1520.000000)" fill="#BACEE1" fill-rule="nonzero">
            <g id="makro-logo-2019" transform="translate(302.000000, 1520.000000)">
                <path d="M90.5615974,34.0271117 C91.4278379,35.306528 92.6785184,36 94.0955784,36 C94.8471204,36 95.6039971,35.7899071 96.2248361,35.4074387 C97.7422574,34.4701266 98.7318654,32.3639037 97.3168059,29.9489932 L90.6556235,19.0516226 L96.2538442,13.5309763 C98.2730714,11.5256642 97.8506208,9.28246744 96.6039414,8.04440809 C95.9157503,7.36053084 94.9618189,6.96780597 93.9875484,6.96780597 C92.9662649,6.96780597 92.0036644,7.39030779 91.1987743,8.18965343 L81.882188,17.4128978 L81.882188,4.03444568 C81.882188,1.37238648 79.8999711,0 77.9454286,0 C75.9858846,0 74,1.38562067 74,4.03444568 L74,31.9311454 C74,34.5975057 75.9818835,35.9937138 77.941094,35.9937138 C79.8999711,35.9937138 81.882188,34.5975057 81.882188,31.9311454 L81.882188,27.4874321 L84.7849938,24.6725179 L90.5365905,33.9890634 L90.5615974,34.0274426 L90.5615974,34.0271117 Z" id="Path"></path>
                <path d="M105.072217,7.18750354 C103.049341,7.18750354 101,8.65600761 101,11.4659337 L101,32.0952634 C101,34.6598915 103.000822,36 104.975857,36 C106.952589,36 108.953411,34.6595631 108.953411,32.0952634 L108.953411,20.3423052 C108.953411,15.974228 111.856418,15.4750943 113.253634,15.2337368 C116.048066,14.7523354 117.773041,13.2943395 117.983743,11.2354127 C118.132015,9.40635014 117.26376,8.04719577 115.471944,7.30571943 C115.001342,7.10540917 114.428612,7 113.81381,7 C112.000618,7 109.626572,7.95951898 108.793603,9.73768301 L108.580526,10.1944561 L108.499095,9.70057636 C108.224945,8.04949441 106.56715,7.18750354 105.072217,7.18750354 L105.072217,7.18750354 Z" id="Path"></path>
                <path d="M133.498834,37 C125.09774,37 119,30.8280855 119,22.3255037 C119,18.2578043 120.417064,14.4519928 122.985971,11.6093618 C125.673162,8.63713678 129.406574,7 133.498834,7 C137.622747,7 141.359824,8.57638959 144.024357,11.4382572 C146.587267,14.1921299 148,17.9432689 148,22.0001687 C148,26.0563936 146.587601,29.8075327 144.024357,32.5644426 C141.359824,35.4239479 137.622413,36.9996625 133.498834,36.9996625 L133.498834,37 Z M133.498834,14.1529817 C129.915025,14.1529817 126.999598,17.7779015 126.999598,22.2320205 C126.999598,26.5710573 129.79241,29.8446559 133.498834,29.8446559 C137.204924,29.8446559 140.000069,26.5710573 140.000069,22.2320205 C140.000069,17.7779015 137.082643,14.1529817 133.498834,14.1529817 L133.498834,14.1529817 Z" id="Shape"></path>
                <path d="M27.9900761,14.3529459 C29.9448111,14.3529459 32.0470541,15.6557151 32.0470541,18.5167179 L32.0470541,31.8454815 C32.0470541,34.5736296 34.0483705,36 36.0243709,36 C38.0003713,36 40,34.5736296 40,31.8454815 L40,16.4095499 C40,10.2212308 35.8694368,7.00132194 30.7252198,7.00132194 C26.6631787,7.00132194 23.3835716,8.58004558 22.6922752,9.91850712 L22.5410542,10.2212308 L22.3905082,9.89041595 C21.5911968,8.39794872 18.5856779,7 15.0036286,7 C11.8212351,7 8.8093028,7.81299145 7.88712427,9.40790883 L7.66906888,9.76747578 L7.58569476,9.32495726 C7.29877977,7.81034758 5.58235304,7.00132194 4.11199811,7.00132194 C2.06916339,7.00132194 0,8.3582906 0,10.9694473 L0,31.8454815 C0,34.5736296 2.00232907,36 3.98035476,36 C5.95770536,36 7.95935934,34.5736296 7.95935934,31.8454815 L7.95935934,18.5167179 C7.95935934,15.6332422 10.0497882,14.3185755 11.9920339,14.3185755 C13.933942,14.3185755 16.0243709,15.6332422 16.0243709,18.5167179 L16.0243709,31.8454815 C16.0243709,34.5736296 18.0273751,36 20.0043881,36 C21.9810636,36 23.981705,34.5736296 23.981705,31.8454815 L23.981705,18.5167179 C23.981705,15.6401823 25.9951731,14.3529459 27.9904137,14.3529459 L27.9900761,14.3529459 Z" id="Path"></path>
                <path d="M60.4511373,24.9558592 C60.4511373,28.6804267 58.1426277,30.309202 55.325765,30.309202 C53.0716159,30.309202 51.1630678,28.9332703 51.1535135,27.3028424 C51.1442887,25.1254131 52.8805304,24.6352602 55.7438467,24.0869367 C58.5808063,23.5425794 59.9638695,22.6244102 60.2122805,22.4446103 L60.4508079,22.2720818 L60.4508079,24.9555287 L60.4511373,24.9558592 Z M57.2412316,7.00033051 C53.1071973,7.00033051 48.9576784,8.46351804 47.1506033,10.554683 C46.3493624,11.4807846 46.0225404,12.4924893 46.1754087,13.5623647 C46.4327151,15.3547446 47.2695375,16.4414761 48.5343254,16.619954 C48.7359534,16.6497003 48.9412055,16.6625903 49.1431631,16.6625903 C50.7657419,16.6625903 51.947177,15.7606164 52.5072549,15.2205557 C53.8511126,13.9477445 54.9113073,12.9439721 57.4837124,12.9439721 C59.6034428,12.9439721 60.7239282,13.8204965 60.7239282,15.4806706 C60.7239282,17.6224043 59.1494502,17.8022042 56.7691188,18.0745481 C50.271226,18.8125869 44,20.0219393 44,26.8834196 C44,31.3142965 46.6211649,34.5017779 51.1923895,35.6265187 C52.1754911,35.8694468 53.2808214,35.9973559 54.3940588,35.9973559 C57.2942743,35.9973559 59.7431329,35.1472727 60.6333274,33.8331472 L60.8095872,33.5720408 L60.9021648,33.8731394 C61.2191031,34.9109548 61.600615,35.2064348 62.0644913,35.4850585 C62.6248988,35.8231748 63.2894148,36 63.9872061,36 C66.0568589,36 68,34.434353 68,31.919799 L68,14.2686741 C68,9.71815094 63.9773223,7 57.2415611,7 L57.2412316,7.00033051 Z" id="Shape"></path>
            </g>
        </g>
    </g>
</svg>