<?xml version="1.0" encoding="UTF-8"?>
<svg width="130px" height="32px" viewBox="0 0 130 32" version="1.1" xmlns="http://www.w3.org/2000/svg" xmlns:xlink="http://www.w3.org/1999/xlink">
    <!-- Generator: Sketch 53 (72520) - https://sketchapp.com -->
    <title>Nivea_logo</title>
    <desc>Created with Sketch.</desc>
    <g id="Landing" stroke="none" stroke-width="1" fill="none" fill-rule="evenodd">
        <g id="landing" transform="translate(-1017.000000, -1526.000000)" fill="#BACEE1" fill-rule="nonzero">
            <g id="Nivea_logo" transform="translate(1017.000000, 1526.000000)">
                <path d="M94.5454545,9.100305 L85.8455178,9.100305 L85.8455178,13.0309721 L94.5454545,13.0223807 L94.5454545,18.3383307 L85.8455178,18.3383307 L85.8455178,22.695133 L94.5454545,22.695133 L94.5454545,30 L76.8181818,30 L76.8181818,2 L94.5454545,2 L94.5454545,9.100305 Z M113.251699,0 L130,30 L120.426177,30 L118.920712,26.9882476 L107.570918,26.9882476 L106.030169,30 L96.5151515,30 C96.5151515,30 107.617954,9.9140536 113.251699,0 Z M109.770315,22.4062442 L116.662509,22.4062442 C116.662509,22.42963 113.251699,15.3046959 113.251699,15.3046959 C113.251699,15.3046959 109.770315,22.4317559 109.770315,22.4062442 Z M59.0850202,14.5147361 L65.2553245,2 L74.8484848,2 C74.8948482,2 59.0850202,32 59.0850202,32 L43.3333333,2 L52.9380079,2 C52.9380079,2 58.596059,13.6411069 59.0850202,14.5147361 Z M41.3636364,30 L31.5151515,30 L31.5151515,2 C31.5151515,2 41.3636364,2.03436563 41.3636364,2 L41.3636364,30 Z M14.6359217,12.8705693 L14.6359217,2.1058091 L23.6363636,2.1058091 L23.6363636,32 L9.01209355,19.1529083 L9.01209355,29.9294499 L0,29.9294499 L0,0 L14.6359217,12.8705693 Z" id="Combined-Shape"></path>
            </g>
        </g>
    </g>
</svg>