<?xml version="1.0" encoding="UTF-8"?>
<svg width="116px" height="137px" viewBox="0 0 116 137" version="1.1" xmlns="http://www.w3.org/2000/svg" xmlns:xlink="http://www.w3.org/1999/xlink">
    <!-- Generator: Sketch 52.5 (67469) - http://www.bohemiancoding.com/sketch -->
    <title>quote</title>
    <desc>Created with Sketch.</desc>
    <defs>
        <filter x="-12.0%" y="-24.0%" width="124.0%" height="148.0%" filterUnits="objectBoundingBox" id="filter-1">
            <feGaussianBlur stdDeviation="4" in="SourceGraphic"></feGaussianBlur>
        </filter>
    </defs>
    <g id="Website" stroke="none" stroke-width="1" fill="none" fill-rule="evenodd">
        <g id="boxes" transform="translate(-402.000000, -580.000000)">
            <g id="quote" transform="translate(410.000000, 580.000000)">
                <polygon id="Rectangle-11-Copy" fill="#000000" opacity="0.1" filter="url(#filter-1)" points="50 78.9047619 100 103.904762 50 128.904762 0 103.904762"></polygon>
                <polygon id="Rectangle-11" fill="#F2F8FC" points="50 0 100 25 50 60 0 25"></polygon>
                <polygon id="Rectangle-3" fill="#D9EAF7" points="0 25.3333333 50 50.3333333 50 114.619048 0 89.6190476"></polygon>
                <polygon id="Rectangle-3-Copy-2" fill="#EAF5FD" transform="translate(75.000000, 69.976190) scale(-1, 1) translate(-75.000000, -69.976190) " points="50 25.3333333 100 50.3333333 100 114.619048 50 89.6190476"></polygon>
                <path d="M63.1381308,90.7938675 C62.7915024,90.9605158 62.5105046,90.8146131 62.5105046,90.4679848 C62.5105046,90.1934193 62.6868103,89.8752699 62.932387,89.6720304 C65.5809249,87.1686782 65.8794014,84.3678152 65.7892236,82.4861249 C62.2519226,81.6536514 60,78.9567419 60,74.7290522 C60,67.1033944 67.3055684,57.408984 76.3182799,53.0759492 C85.3309915,48.7429144 92.6365599,51.4127392 92.6365599,59.0383969 C92.6365599,66.6640546 85.3309915,76.358465 76.3182799,80.6914998 C75.0981747,81.278089 73.910706,81.7347595 72.7684264,82.0667737 C71.9889147,82.2946745 71.1981058,82.9485161 70.6307317,83.7748584 C68.8306999,86.3951011 66.2172647,89.3135146 63.1381308,90.7938675 Z" id="Combined-Shape" fill="#ADCADF" fill-rule="nonzero"></path>
            </g>
        </g>
    </g>
</svg>