<?xml version="1.0" encoding="UTF-8"?>
<svg width="158px" height="30px" viewBox="0 0 158 30" version="1.1" xmlns="http://www.w3.org/2000/svg" xmlns:xlink="http://www.w3.org/1999/xlink">
    <!-- Generator: Sketch 52.4 (67378) - http://www.bohemiancoding.com/sketch -->
    <title>zendesk-medium-black</title>
    <desc>Created with Sketch.</desc>
    <g id="Website" stroke="none" stroke-width="1" fill="none" fill-rule="evenodd">
        <g id="v" transform="translate(-676.000000, -20.000000)" fill="#BACEE1">
            <g id="zendesk-medium-black" transform="translate(676.000000, 20.000000)">
                <path d="M104.229737,25.910116 C106.331578,25.9562429 108.366778,25.1849317 109.89168,23.7643217 L112.698604,26.7383926 C110.84481,28.6095253 108.273982,30 104.277831,30 C97.4266623,30 93.0020402,25.5410394 93.0020402,19.5027742 C92.945935,16.7085541 94.0490369,14.0119122 96.0582061,12.0316744 C98.0673752,10.0514365 100.810102,8.95762829 103.656985,9.00125687 C110.46006,9.00125687 114.316302,14.0824978 113.979646,21.1292863 L97.8988551,21.1292863 C98.4672354,24.0561498 100.561498,25.9229908 104.225365,25.9229908 L104.229737,25.910116 Z M109.126552,17.7689724 C108.689337,15.0352305 107.032289,13.0224754 103.700706,13.0224754 C100.609592,13.0224754 98.454119,14.7391109 97.8988551,17.7689724 L109.126552,17.7689724 Z" id="Shape" fill-rule="nonzero"></path>
                <polygon id="Path" points="0 26.080017 11.5108826 13.8391147 0.272422865 13.8391147 0.272422865 10 16.8454915 10 16.8454915 13.919983 5.33460895 26.1566291 17 26.1566291 17 30 0 30"></polygon>
                <path d="M31.2297373,25.910116 C33.3315782,25.9562429 35.3667777,25.1849317 36.8916795,23.7643217 L39.6986038,26.7383926 C37.8448096,28.6095253 35.2739817,30 31.277831,30 C24.4266623,30 20.0020402,25.5410394 20.0020402,19.5027742 C19.945935,16.7085541 21.0490369,14.0119122 23.0582061,12.0316744 C25.0673752,10.0514365 27.8101019,8.95762829 30.6569848,9.00125687 C37.4600598,9.00125687 41.3163016,14.0824978 40.9796456,21.1292863 L24.8988551,21.1292863 C25.4672354,24.0561498 27.5614982,25.9229908 31.2253651,25.9229908 L31.2297373,25.910116 Z M36.1265522,17.7689724 C35.6893366,15.0352305 34.0322894,13.0224754 30.7007064,13.0224754 C27.609592,13.0224754 25.454119,14.7391109 24.8988551,17.7689724 L36.1265522,17.7689724 Z" id="Shape" fill-rule="nonzero"></path>
                <path d="M68,19.460555 C68,12.9895214 73.0154283,8.91708429 78.5355258,8.91708429 C81.2188764,8.88258907 83.7807034,9.99591939 85.5339017,11.9584701 L85.5339017,0 L90,0 L90,29.5985077 L85.5339017,29.5985077 L85.5339017,26.7987071 C83.8130945,28.8433217 81.2231619,30.0211725 78.4953309,29.9997117 C73.136013,29.9997117 68,25.9057045 68,19.460555 M85.7840032,19.4217288 C85.6859565,15.8903911 82.6597317,13.0953 79.0031855,13.1588089 C75.3466393,13.2223177 72.4263964,16.1206904 72.4598398,19.6531501 C72.4932833,23.1856099 75.4679137,26.0319091 79.1250508,26.0308111 C82.9614292,26.0308111 85.7840032,23.0713918 85.7840032,19.4217288" id="Shape" fill-rule="nonzero"></path>
                <path d="M117,25.3246281 L120.874717,23.3087696 C121.918701,25.1752654 123.907823,26.3081065 126.041006,26.2510652 C128.461635,26.2510652 129.714717,25.0029486 129.714717,23.5918476 C129.714717,21.9791608 127.375346,21.6145907 124.830692,21.0913253 C121.409308,20.366474 117.846792,19.234162 117.846792,15.0866403 C117.846792,11.8998682 120.87044,8.9575726 125.634717,9.0004632 C129.385409,9.0004632 132.173836,10.4930563 133.760503,12.9077975 L130.16805,14.8850545 C129.159053,13.3862779 127.449417,12.5168293 125.647547,12.5861179 C123.346667,12.5861179 122.174843,13.7141409 122.174843,15.0051482 C122.174843,16.4548507 124.030943,16.8580224 126.939119,17.5056705 C130.249308,18.2305218 134,19.3199432 134,23.5103555 C134,26.2896668 131.579371,30.0383058 125.848553,29.9997043 C121.653082,29.9997043 118.706415,28.3055253 117.008553,25.3246281" id="Path"></path>
                <polygon id="Path" points="146.763674 20.8788806 143.329991 24.6611281 143.329991 30 139 30 139 0 143.329991 0 143.329991 19.6458242 152.522562 9.45343244 157.79649 9.45343244 149.824977 18.2466113 158 30 153.09845 30"></polygon>
                <path d="M54.5087036,9 C49.3344022,9 45,12.3773467 45,17.9755945 L45,30 L49.4344938,30 L49.4344938,18.5319149 C49.4344938,15.1545682 51.3623454,13.135169 54.6566651,13.135169 C57.9509849,13.135169 59.5872652,15.1545682 59.5872652,18.5319149 L59.5872652,30 L64,30 L64,17.9755945 C64,12.3773467 59.6481906,9 54.4912964,9" id="Path"></path>
            </g>
        </g>
    </g>
</svg>