<?xml version="1.0" encoding="UTF-8"?>
<svg width="159px" height="31px" viewBox="0 0 159 31" version="1.1" xmlns="http://www.w3.org/2000/svg" xmlns:xlink="http://www.w3.org/1999/xlink">
    <!-- Generator: Sketch 52.4 (67378) - http://www.bohemiancoding.com/sketch -->
    <title>zendesk-medium-black</title>
    <desc>Created with Sketch.</desc>
    <g id="Website" stroke="none" stroke-width="1" fill="none" fill-rule="evenodd">
        <g id="v" transform="translate(-675.000000, -20.000000)" fill="#BACEE1">
            <g id="zendesk-medium-black" transform="translate(675.000000, 20.000000)">
                <path d="M105.229737,25.910116 C107.331578,25.9562429 109.366778,25.1849317 110.89168,23.7643217 L113.698604,26.7383926 C111.84481,28.6095253 109.273982,30 105.277831,30 C98.4266623,30 94.0020402,25.5410394 94.0020402,19.5027742 C93.945935,16.7085541 95.0490369,14.0119122 97.0582061,12.0316744 C99.0673752,10.0514365 101.810102,8.95762829 104.656985,9.00125687 C111.46006,9.00125687 115.316302,14.0824978 114.979646,21.1292863 L98.8988551,21.1292863 C99.4672354,24.0561498 101.561498,25.9229908 105.225365,25.9229908 L105.229737,25.910116 Z M110.126552,17.7689724 C109.689337,15.0352305 108.032289,13.0224754 104.700706,13.0224754 C101.609592,13.0224754 99.454119,14.7391109 98.8988551,17.7689724 L110.126552,17.7689724 Z" id="Shape" fill-rule="nonzero"></path>
                <polygon id="Path" points="0 26.8840179 12.1879933 14.0310704 0.28844774 14.0310704 0.28844774 10 17.8364028 10 17.8364028 14.1159821 5.64840947 26.9644605 18 26.9644605 18 31 0 31"></polygon>
                <path d="M32.2297373,25.910116 C34.3315782,25.9562429 36.3667777,25.1849317 37.8916795,23.7643217 L40.6986038,26.7383926 C38.8448096,28.6095253 36.2739817,30 32.277831,30 C25.4266623,30 21.0020402,25.5410394 21.0020402,19.5027742 C20.945935,16.7085541 22.0490369,14.0119122 24.0582061,12.0316744 C26.0673752,10.0514365 28.8101019,8.95762829 31.6569848,9.00125687 C38.4600598,9.00125687 42.3163016,14.0824978 41.9796456,21.1292863 L25.8988551,21.1292863 C26.4672354,24.0561498 28.5614982,25.9229908 32.2253651,25.9229908 L32.2297373,25.910116 Z M37.1265522,17.7689724 C36.6893366,15.0352305 35.0322894,13.0224754 31.7007064,13.0224754 C28.609592,13.0224754 26.454119,14.7391109 25.8988551,17.7689724 L37.1265522,17.7689724 Z" id="Shape" fill-rule="nonzero"></path>
                <path d="M69,19.460555 C69,12.9895214 74.0154283,8.91708429 79.5355258,8.91708429 C82.2188764,8.88258907 84.7807034,9.99591939 86.5339017,11.9584701 L86.5339017,0 L91,0 L91,29.5985077 L86.5339017,29.5985077 L86.5339017,26.7987071 C84.8130945,28.8433217 82.2231619,30.0211725 79.4953309,29.9997117 C74.136013,29.9997117 69,25.9057045 69,19.460555 M86.7840032,19.4217288 C86.6859565,15.8903911 83.6597317,13.0953 80.0031855,13.1588089 C76.3466393,13.2223177 73.4263964,16.1206904 73.4598398,19.6531501 C73.4932833,23.1856099 76.4679137,26.0319091 80.1250508,26.0308111 C83.9614292,26.0308111 86.7840032,23.0713918 86.7840032,19.4217288" id="Shape" fill-rule="nonzero"></path>
                <path d="M118,25.3246281 L121.874717,23.3087696 C122.918701,25.1752654 124.907823,26.3081065 127.041006,26.2510652 C129.461635,26.2510652 130.714717,25.0029486 130.714717,23.5918476 C130.714717,21.9791608 128.375346,21.6145907 125.830692,21.0913253 C122.409308,20.366474 118.846792,19.234162 118.846792,15.0866403 C118.846792,11.8998682 121.87044,8.9575726 126.634717,9.0004632 C130.385409,9.0004632 133.173836,10.4930563 134.760503,12.9077975 L131.16805,14.8850545 C130.159053,13.3862779 128.449417,12.5168293 126.647547,12.5861179 C124.346667,12.5861179 123.174843,13.7141409 123.174843,15.0051482 C123.174843,16.4548507 125.030943,16.8580224 127.939119,17.5056705 C131.249308,18.2305218 135,19.3199432 135,23.5103555 C135,26.2896668 132.579371,30.0383058 126.848553,29.9997043 C122.653082,29.9997043 119.706415,28.3055253 118.008553,25.3246281" id="Path"></path>
                <polygon id="Path" points="147.763674 20.8788806 144.329991 24.6611281 144.329991 30 140 30 140 0 144.329991 0 144.329991 19.6458242 153.522562 9.45343244 158.79649 9.45343244 150.824977 18.2466113 159 30 154.09845 30"></polygon>
                <path d="M55.5087036,9 C50.3344022,9 46,12.3773467 46,17.9755945 L46,30 L50.4344938,30 L50.4344938,18.5319149 C50.4344938,15.1545682 52.3623454,13.135169 55.6566651,13.135169 C58.9509849,13.135169 60.5872652,15.1545682 60.5872652,18.5319149 L60.5872652,30 L65,30 L65,17.9755945 C65,12.3773467 60.6481906,9 55.4912964,9" id="Path"></path>
            </g>
        </g>
    </g>
</svg>